<svg width="430" height="398" viewBox="0 0 430 398" fill="none" xmlns="http://www.w3.org/2000/svg">
<g clip-path="url(#clip0_4146_12107)">
<path d="M40.1965 172.156L81.7176 273.965L188.91 264.858L145.961 159.558L40.1965 172.156Z" fill="white"/>
<path d="M230.366 94.5879L271.65 195.799L188.91 264.858L145.961 159.558L230.366 94.5879Z" fill="#E6E6E6"/>
<path d="M188.91 264.858L271.65 195.8L234.627 104.048L146.171 160.832L188.91 264.858Z" fill="url(#paint0_linear_4146_12107)"/>
<path d="M150.757 170.907L43.9287 180.832L81.7179 273.965L188.91 264.858L150.757 170.907Z" fill="url(#paint1_linear_4146_12107)"/>
<path d="M76.0231 167.493L118.281 271.098C118.391 271.383 118.591 271.624 118.851 271.784C119.112 271.944 119.417 272.014 119.721 271.982L149.248 270.098C149.463 270.074 149.669 270 149.849 269.882C150.03 269.764 150.18 269.605 150.288 269.419C150.396 269.232 150.459 269.022 150.471 268.806C150.483 268.591 150.444 268.376 150.358 268.178L107.482 163.037C107.366 162.731 107.148 162.475 106.864 162.312C106.58 162.149 106.249 162.089 105.926 162.143L77.0646 165.586C76.859 165.622 76.6641 165.704 76.4944 165.826C76.3247 165.947 76.1847 166.106 76.0846 166.289C75.9845 166.472 75.927 166.676 75.9164 166.884C75.9057 167.093 75.9422 167.301 76.0231 167.493Z" fill="url(#paint2_linear_4146_12107)"/>
<path d="M223.991 235.975L181.23 131.119C181.112 130.838 181.088 130.527 181.162 130.231C181.236 129.936 181.405 129.673 181.642 129.482L204.637 111.584C204.808 111.453 205.007 111.364 205.219 111.324C205.43 111.284 205.648 111.293 205.856 111.351C206.063 111.41 206.254 111.515 206.413 111.66C206.573 111.805 206.696 111.985 206.774 112.185L248.953 215.591C249.078 215.89 249.096 216.224 249.004 216.535C248.912 216.847 248.716 217.117 248.449 217.301L226.035 236.65C225.861 236.761 225.665 236.832 225.461 236.857C225.256 236.883 225.049 236.862 224.853 236.798C224.657 236.733 224.478 236.626 224.329 236.483C224.18 236.341 224.064 236.168 223.991 235.975Z" fill="url(#paint3_linear_4146_12107)"/>
<path d="M23.067 144.827L39.5413 185.23L151.031 171.981L134.536 131.548L23.067 144.827Z" fill="white"/>
<path d="M223.507 63.0772L239.981 103.481L151.031 171.98L134.537 131.547L223.507 63.0772Z" fill="#E6E6E6"/>
<path d="M151.031 171.981L239.981 103.481L223.382 62.7783L134.536 131.548L151.031 171.981Z" fill="url(#paint4_linear_4146_12107)"/>
<path d="M134.536 131.548L22.9421 144.528L39.5413 185.231L151.031 171.982L134.536 131.548Z" fill="url(#paint5_linear_4146_12107)"/>
<path d="M60.8179 139.909L77.652 181.222C77.7665 181.524 77.9776 181.78 78.2526 181.95C78.5276 182.12 78.8511 182.194 79.1727 182.162L109.794 178.971C110.021 178.945 110.238 178.867 110.428 178.742C110.618 178.617 110.777 178.45 110.891 178.253C111.005 178.055 111.07 177.834 111.083 177.607C111.096 177.38 111.055 177.153 110.964 176.944L93.9768 135.208C93.8488 134.896 93.6192 134.637 93.3253 134.473C93.0313 134.308 92.6903 134.248 92.3578 134.301L61.8943 137.891C61.6797 137.934 61.4774 138.023 61.3018 138.154C61.1262 138.284 60.9818 138.452 60.8788 138.645C60.7759 138.838 60.717 139.052 60.7065 139.27C60.6959 139.489 60.734 139.707 60.8179 139.909Z" fill="url(#paint6_linear_4146_12107)"/>
<path d="M188.515 142.809L171.704 101.579C171.579 101.282 171.553 100.952 171.631 100.638C171.708 100.325 171.886 100.045 172.136 99.8414L196.381 80.9816C196.561 80.8421 196.772 80.7466 196.995 80.7025C197.219 80.6585 197.45 80.6672 197.67 80.728C197.889 80.7888 198.092 80.8999 198.261 81.0526C198.431 81.2053 198.562 81.3954 198.645 81.6077L215.479 122.921C215.614 123.238 215.634 123.592 215.536 123.922C215.438 124.252 215.228 124.538 214.942 124.73L190.684 143.521C190.499 143.638 190.291 143.712 190.075 143.739C189.859 143.766 189.639 143.744 189.432 143.676C189.225 143.608 189.035 143.495 188.877 143.345C188.718 143.195 188.595 143.012 188.515 142.809Z" fill="url(#paint7_linear_4146_12107)"/>
<path d="M23.0672 144.827L111.568 75.2039L223.507 63.0783L134.537 131.548L23.0672 144.827Z" fill="url(#paint8_linear_4146_12107)"/>
<path d="M60.9357 140.314L144.929 69.8091C145.126 69.6372 145.371 69.5296 145.631 69.5007L178.074 65.9838C178.363 65.931 178.662 65.979 178.92 66.1199C179.179 66.2608 179.381 66.486 179.494 66.7579C179.606 67.0299 179.622 67.3322 179.538 67.6144C179.455 67.8966 179.277 68.1417 179.035 68.3088L94.4741 136.421L60.9357 140.314Z" fill="url(#paint9_linear_4146_12107)"/>
<path d="M172.164 102.719L55.3445 118.951C55.1439 118.982 54.9389 118.944 54.7618 118.845C54.5847 118.746 54.4456 118.591 54.3664 118.404C54.2872 118.218 54.2724 118.01 54.3244 117.814C54.3764 117.618 54.4922 117.444 54.6535 117.321L81.4255 96.3335C81.552 96.2291 81.706 96.1636 81.8689 96.1448L198.879 82.087L172.164 102.719Z" fill="url(#paint10_linear_4146_12107)"/>
<path d="M34.8007 96.8165C45.5889 135.925 122.128 101.067 122.128 101.067C92.5001 30.1653 24.005 57.7462 34.8007 96.8165ZM58.3339 76.1656C77.9189 54.5855 121.614 100.809 121.614 100.809C74.4288 119.851 40.7082 95.6377 58.3339 76.1656Z" fill="url(#paint11_linear_4146_12107)"/>
<path d="M41.0987 133.945C67.4791 164.721 121.972 100.721 121.972 100.721C65.0303 49.0888 14.7334 103.158 41.0987 133.945ZM53.6324 105.244C62.1953 77.4049 121.389 100.685 121.389 100.685C86.7641 137.969 45.9382 130.315 53.6324 105.244Z" fill="url(#paint12_linear_4146_12107)"/>
<path d="M122.127 101.065C122.127 101.065 201.149 72.4212 181.549 36.9396C161.949 1.45796 93.6811 29.6863 122.127 101.065ZM122.238 100.496C122.238 100.496 121.186 36.9385 150.27 38.6648C176.45 40.217 169.327 81.1465 122.284 100.531L122.238 100.496Z" fill="url(#paint13_linear_4146_12107)"/>
<path d="M121.972 100.721C121.972 100.721 205.7 108.359 203.002 67.9081C200.303 27.4576 126.561 24.0017 121.972 100.721ZM122.359 100.286C122.359 100.286 148.377 42.2431 173.981 56.1378C196.964 68.6812 173.173 102.72 122.359 100.286Z" fill="url(#paint14_linear_4146_12107)"/>
</g>
<g filter="url(#filter0_d_4146_12107)">
<mask id="mask0_4146_12107" style="mask-type:alpha" maskUnits="userSpaceOnUse" x="0" y="0" width="301" height="307">
<g clip-path="url(#clip1_4146_12107)">
<path d="M40.1965 172.156L81.7176 273.965L188.91 264.858L145.961 159.558L40.1965 172.156Z" fill="white"/>
<path d="M230.366 94.5879L271.65 195.799L188.91 264.858L145.961 159.558L230.366 94.5879Z" fill="#E6E6E6"/>
<path d="M188.91 264.858L271.65 195.8L234.627 104.048L146.171 160.832L188.91 264.858Z" fill="url(#paint15_linear_4146_12107)"/>
<path d="M150.757 170.907L43.9287 180.832L81.7179 273.965L188.91 264.858L150.757 170.907Z" fill="url(#paint16_linear_4146_12107)"/>
<path d="M76.0231 167.493L118.281 271.098C118.391 271.383 118.591 271.624 118.851 271.784C119.112 271.944 119.417 272.014 119.721 271.982L149.248 270.098C149.463 270.074 149.669 270 149.849 269.882C150.03 269.764 150.18 269.605 150.288 269.419C150.396 269.232 150.459 269.022 150.471 268.806C150.483 268.591 150.444 268.376 150.358 268.178L107.482 163.037C107.366 162.731 107.148 162.475 106.864 162.312C106.58 162.149 106.249 162.089 105.926 162.143L77.0646 165.586C76.859 165.622 76.6641 165.704 76.4944 165.826C76.3247 165.947 76.1847 166.106 76.0846 166.289C75.9845 166.472 75.927 166.676 75.9164 166.884C75.9057 167.093 75.9422 167.301 76.0231 167.493Z" fill="url(#paint17_linear_4146_12107)"/>
<path d="M223.991 235.975L181.23 131.119C181.112 130.838 181.088 130.527 181.162 130.231C181.236 129.936 181.405 129.673 181.642 129.482L204.637 111.584C204.808 111.453 205.007 111.364 205.219 111.324C205.43 111.284 205.648 111.293 205.856 111.351C206.063 111.41 206.254 111.515 206.413 111.66C206.573 111.805 206.696 111.985 206.774 112.185L248.953 215.591C249.078 215.89 249.096 216.224 249.004 216.535C248.912 216.847 248.716 217.117 248.449 217.301L226.035 236.65C225.861 236.761 225.665 236.832 225.461 236.857C225.256 236.883 225.049 236.862 224.853 236.798C224.657 236.733 224.478 236.626 224.329 236.483C224.18 236.341 224.064 236.168 223.991 235.975Z" fill="url(#paint18_linear_4146_12107)"/>
<path d="M23.067 144.827L39.5413 185.23L151.031 171.981L134.536 131.548L23.067 144.827Z" fill="white"/>
<path d="M223.507 63.0772L239.981 103.481L151.031 171.98L134.537 131.547L223.507 63.0772Z" fill="#E6E6E6"/>
<path d="M151.031 171.981L239.981 103.481L223.382 62.7783L134.536 131.548L151.031 171.981Z" fill="url(#paint19_linear_4146_12107)"/>
<path d="M134.536 131.548L22.9421 144.528L39.5413 185.231L151.031 171.982L134.536 131.548Z" fill="url(#paint20_linear_4146_12107)"/>
<path d="M60.8179 139.909L77.652 181.222C77.7665 181.524 77.9776 181.78 78.2526 181.95C78.5276 182.12 78.8511 182.194 79.1727 182.162L109.794 178.971C110.021 178.945 110.238 178.867 110.428 178.742C110.618 178.617 110.777 178.45 110.891 178.253C111.005 178.055 111.07 177.834 111.083 177.607C111.096 177.38 111.055 177.153 110.964 176.944L93.9768 135.208C93.8488 134.896 93.6192 134.637 93.3253 134.473C93.0313 134.308 92.6903 134.248 92.3578 134.301L61.8943 137.891C61.6797 137.934 61.4774 138.023 61.3018 138.154C61.1262 138.284 60.9818 138.452 60.8788 138.645C60.7759 138.838 60.717 139.052 60.7065 139.27C60.6959 139.489 60.734 139.707 60.8179 139.909Z" fill="url(#paint21_linear_4146_12107)"/>
<path d="M188.515 142.809L171.704 101.579C171.579 101.282 171.553 100.952 171.631 100.638C171.708 100.325 171.886 100.045 172.136 99.8414L196.381 80.9816C196.561 80.8421 196.772 80.7466 196.995 80.7025C197.219 80.6585 197.45 80.6672 197.67 80.728C197.889 80.7888 198.092 80.8999 198.261 81.0526C198.431 81.2053 198.562 81.3954 198.645 81.6077L215.479 122.921C215.614 123.238 215.634 123.592 215.536 123.922C215.438 124.252 215.228 124.538 214.942 124.73L190.684 143.521C190.499 143.638 190.291 143.712 190.075 143.739C189.859 143.766 189.639 143.744 189.432 143.676C189.225 143.608 189.035 143.495 188.877 143.345C188.718 143.195 188.595 143.012 188.515 142.809Z" fill="url(#paint22_linear_4146_12107)"/>
<path d="M23.0672 144.827L111.568 75.2039L223.507 63.0783L134.537 131.548L23.0672 144.827Z" fill="url(#paint23_linear_4146_12107)"/>
<path d="M60.9357 140.314L144.929 69.8091C145.126 69.6372 145.371 69.5296 145.631 69.5007L178.074 65.9838C178.363 65.931 178.662 65.979 178.92 66.1199C179.179 66.2608 179.381 66.486 179.494 66.7579C179.606 67.0299 179.622 67.3322 179.538 67.6144C179.455 67.8966 179.277 68.1417 179.035 68.3088L94.4741 136.421L60.9357 140.314Z" fill="url(#paint24_linear_4146_12107)"/>
<path d="M172.164 102.719L55.3445 118.951C55.1439 118.982 54.9389 118.944 54.7618 118.845C54.5847 118.746 54.4456 118.591 54.3664 118.404C54.2872 118.218 54.2724 118.01 54.3244 117.814C54.3764 117.618 54.4922 117.444 54.6535 117.321L81.4255 96.3335C81.552 96.2291 81.706 96.1636 81.8689 96.1448L198.879 82.087L172.164 102.719Z" fill="url(#paint25_linear_4146_12107)"/>
<path d="M34.8007 96.8165C45.5889 135.925 122.128 101.067 122.128 101.067C92.5001 30.1653 24.005 57.7462 34.8007 96.8165ZM58.3339 76.1656C77.9189 54.5855 121.614 100.809 121.614 100.809C74.4288 119.851 40.7082 95.6377 58.3339 76.1656Z" fill="url(#paint26_linear_4146_12107)"/>
<path d="M41.0987 133.945C67.4791 164.721 121.972 100.721 121.972 100.721C65.0303 49.0888 14.7334 103.158 41.0987 133.945ZM53.6324 105.244C62.1953 77.4049 121.389 100.685 121.389 100.685C86.7641 137.969 45.9382 130.315 53.6324 105.244Z" fill="url(#paint27_linear_4146_12107)"/>
<path d="M122.127 101.065C122.127 101.065 201.149 72.4212 181.549 36.9396C161.949 1.45796 93.6811 29.6863 122.127 101.065ZM122.238 100.496C122.238 100.496 121.186 36.9385 150.27 38.6648C176.45 40.217 169.327 81.1465 122.284 100.531L122.238 100.496Z" fill="url(#paint28_linear_4146_12107)"/>
<path d="M121.972 100.721C121.972 100.721 205.7 108.359 203.002 67.9081C200.303 27.4576 126.561 24.0017 121.972 100.721ZM122.359 100.286C122.359 100.286 148.377 42.2431 173.981 56.1378C196.964 68.6812 173.173 102.72 122.359 100.286Z" fill="url(#paint29_linear_4146_12107)"/>
</g>
</mask>
<g mask="url(#mask0_4146_12107)">
<g style="mix-blend-mode:color-burn" opacity="0.25" filter="url(#filter1_f_4146_12107)">
<path d="M383.312 294.862L327.619 389.663L222.841 365.277L280.448 267.225L383.312 294.862Z" fill="white"/>
<path d="M206.232 190.822L150.86 285.066L222.841 365.277L280.448 267.225L206.232 190.822Z" fill="#E6E6E6"/>
<path d="M222.841 365.278L150.86 285.068L200.659 199.574L280.057 268.457L222.841 365.278Z" fill="url(#paint30_linear_4146_12107)"/>
<path d="M274.774 275.976L377.713 304.928L327.619 389.664L222.841 365.278L274.774 275.976Z" fill="url(#paint31_linear_4146_12107)"/>
<path d="M348.525 285.108L291.845 381.581C291.696 381.848 291.463 382.058 291.182 382.179C290.902 382.3 290.589 382.325 290.293 382.25L261.342 376.151C261.133 376.097 260.939 375.994 260.778 375.851C260.616 375.708 260.49 375.53 260.41 375.329C260.329 375.129 260.298 374.912 260.317 374.697C260.336 374.482 260.405 374.275 260.519 374.091L318.03 276.186C318.189 275.9 318.441 275.678 318.746 275.557C319.05 275.437 319.386 275.425 319.698 275.524L347.767 283.071C347.966 283.136 348.147 283.245 348.297 283.39C348.448 283.535 348.564 283.712 348.636 283.907C348.709 284.103 348.737 284.313 348.718 284.521C348.698 284.728 348.632 284.929 348.525 285.108Z" fill="url(#paint32_linear_4146_12107)"/>
<path d="M192.265 331.663L249.621 234.023C249.779 233.762 249.847 233.457 249.816 233.155C249.785 232.852 249.656 232.567 249.449 232.344L229.258 211.333C229.107 211.179 228.923 211.063 228.719 210.993C228.516 210.922 228.299 210.9 228.085 210.928C227.872 210.956 227.668 211.033 227.489 211.154C227.311 211.274 227.162 211.434 227.056 211.622L170.483 307.909C170.317 308.188 170.251 308.516 170.298 308.837C170.344 309.158 170.499 309.454 170.738 309.675L190.145 332.038C190.301 332.172 190.485 332.27 190.684 332.325C190.882 332.38 191.091 332.389 191.294 332.353C191.497 332.318 191.689 332.237 191.857 332.118C192.025 331.998 192.164 331.843 192.265 331.663Z" fill="url(#paint33_linear_4146_12107)"/>
<path d="M404.183 270.272L382.085 307.895L273.648 278.794L295.77 241.144L404.183 270.272Z" fill="white"/>
<path d="M217.539 160.622L195.441 198.245L273.648 278.794L295.771 241.144L217.539 160.622Z" fill="#E6E6E6"/>
<path d="M273.648 278.793L195.441 198.245L217.706 160.343L295.77 241.143L273.648 278.793Z" fill="url(#paint34_linear_4146_12107)"/>
<path d="M295.77 241.144L404.35 269.994L382.085 307.896L273.648 278.794L295.77 241.144Z" fill="url(#paint35_linear_4146_12107)"/>
<path d="M240.735 244.549L263.285 206.156C263.452 205.88 263.525 205.557 263.493 205.236C263.461 204.914 263.325 204.612 263.107 204.374L241.817 182.232C241.659 182.068 241.464 181.944 241.249 181.868C241.034 181.792 240.804 181.768 240.578 181.797C240.352 181.825 240.136 181.906 239.946 182.033C239.757 182.16 239.6 182.329 239.487 182.527L216.902 220.999C216.723 221.293 216.652 221.641 216.702 221.982C216.752 222.323 216.919 222.635 217.174 222.866L238.487 244.943C238.652 245.084 238.847 245.188 239.058 245.245C239.268 245.303 239.489 245.313 239.703 245.275C239.918 245.238 240.122 245.153 240.3 245.027C240.479 244.902 240.627 244.738 240.735 244.549Z" fill="url(#paint36_linear_4146_12107)"/>
<path d="M240.735 244.549L263.285 206.156C263.452 205.88 263.525 205.557 263.493 205.236C263.461 204.914 263.325 204.612 263.107 204.374L241.817 182.232C241.659 182.068 241.464 181.944 241.249 181.868C241.034 181.792 240.804 181.768 240.578 181.797C240.352 181.825 240.136 181.906 239.946 182.033C239.757 182.16 239.6 182.329 239.487 182.527L216.902 220.999C216.723 221.293 216.652 221.641 216.702 221.982C216.752 222.323 216.919 222.635 217.174 222.866L238.487 244.943C238.652 245.084 238.847 245.188 239.058 245.245C239.268 245.303 239.489 245.313 239.703 245.275C239.918 245.238 240.122 245.153 240.3 245.027C240.479 244.902 240.627 244.738 240.735 244.549Z" fill="url(#paint37_linear_4146_12107)"/>
<path d="M404.183 270.273L326.582 188.677L217.539 160.623L295.771 241.144L404.183 270.273Z" fill="url(#paint38_linear_4146_12107)"/>
<path d="M367.354 260.375L294.34 178.553C294.17 178.354 293.942 178.213 293.689 178.147L262.086 170.014C261.808 169.92 261.505 169.925 261.229 170.027C260.953 170.129 260.721 170.323 260.57 170.576C260.42 170.829 260.361 171.126 260.403 171.417C260.445 171.709 260.586 171.977 260.802 172.177L334.72 251.712L367.354 260.375Z" fill="url(#paint39_linear_4146_12107)"/>
<path d="M262.667 207.216L375.951 240.034C376.145 240.092 376.353 240.085 376.542 240.012C376.732 239.94 376.892 239.806 376.997 239.633C377.102 239.459 377.147 239.256 377.123 239.054C377.1 238.853 377.01 238.665 376.868 238.52L353.383 213.909C353.273 213.788 353.13 213.701 352.971 213.659L239.187 182.966L262.667 207.216Z" fill="url(#paint40_linear_4146_12107)"/>
<path d="M312.423 212.759C312.423 212.759 238.326 173.079 262.812 140.775C287.298 108.471 350.812 146.198 312.423 212.759ZM312.394 212.18C312.394 212.18 322.551 149.43 293.52 146.968C267.388 144.749 268.568 186.277 312.344 212.209L312.394 212.18Z" fill="url(#paint41_linear_4146_12107)"/>
<path d="M312.626 212.439C312.626 212.439 228.668 207.99 237.14 168.344C245.612 128.699 319.088 135.854 312.626 212.439ZM312.306 211.952C312.306 211.952 294.88 150.778 267.549 160.858C243.005 169.975 261.668 207.075 312.306 211.952Z" fill="url(#paint42_linear_4146_12107)"/>
</g>
</g>
</g>
<path d="M390.312 302.862L334.619 397.663L229.841 373.277L287.448 275.225L390.312 302.862Z" fill="white"/>
<path d="M213.232 198.822L157.86 293.066L229.841 373.277L287.448 275.225L213.232 198.822Z" fill="#E6E6E6"/>
<path d="M229.841 373.278L157.86 293.068L207.659 207.574L287.057 276.457L229.841 373.278Z" fill="url(#paint43_linear_4146_12107)"/>
<path d="M281.774 283.976L384.713 312.928L334.619 397.664L229.841 373.278L281.774 283.976Z" fill="url(#paint44_linear_4146_12107)"/>
<path d="M355.525 293.108L298.845 389.581C298.696 389.848 298.463 390.058 298.182 390.179C297.902 390.3 297.589 390.325 297.293 390.25L268.342 384.151C268.133 384.097 267.939 383.994 267.778 383.851C267.616 383.708 267.49 383.53 267.41 383.329C267.329 383.129 267.298 382.912 267.317 382.697C267.336 382.482 267.405 382.275 267.519 382.091L325.03 284.186C325.189 283.9 325.441 283.678 325.746 283.557C326.05 283.437 326.386 283.425 326.698 283.524L354.767 291.071C354.966 291.136 355.147 291.245 355.297 291.39C355.448 291.535 355.564 291.712 355.636 291.907C355.709 292.103 355.737 292.313 355.718 292.521C355.698 292.728 355.632 292.929 355.525 293.108Z" fill="url(#paint45_linear_4146_12107)"/>
<path d="M199.265 339.663L256.621 242.023C256.779 241.762 256.847 241.457 256.816 241.155C256.785 240.852 256.656 240.567 256.449 240.344L236.258 219.333C236.107 219.179 235.923 219.063 235.719 218.993C235.516 218.922 235.299 218.9 235.085 218.928C234.872 218.956 234.668 219.033 234.489 219.154C234.311 219.274 234.162 219.434 234.056 219.622L177.483 315.909C177.317 316.188 177.251 316.516 177.298 316.837C177.344 317.158 177.499 317.454 177.738 317.675L197.145 340.038C197.301 340.172 197.485 340.27 197.684 340.325C197.882 340.38 198.091 340.389 198.294 340.353C198.497 340.318 198.689 340.237 198.857 340.118C199.025 339.998 199.164 339.843 199.265 339.663Z" fill="url(#paint46_linear_4146_12107)"/>
<path d="M411.183 278.272L389.085 315.895L280.648 286.794L302.77 249.144L411.183 278.272Z" fill="white"/>
<path d="M224.539 168.622L202.441 206.245L280.648 286.794L302.771 249.144L224.539 168.622Z" fill="#E6E6E6"/>
<path d="M280.648 286.793L202.441 206.245L224.706 168.343L302.77 249.143L280.648 286.793Z" fill="url(#paint47_linear_4146_12107)"/>
<path d="M302.77 249.144L411.35 277.994L389.085 315.896L280.648 286.794L302.77 249.144Z" fill="url(#paint48_linear_4146_12107)"/>
<path d="M374.528 267.991L351.943 306.463C351.786 306.745 351.541 306.969 351.244 307.097C350.948 307.226 350.617 307.253 350.303 307.175L320.456 299.625C320.235 299.567 320.032 299.459 319.861 299.308C319.691 299.157 319.558 298.969 319.474 298.757C319.389 298.546 319.356 298.318 319.376 298.091C319.396 297.864 319.469 297.645 319.589 297.452L342.386 258.583C342.557 258.293 342.822 258.07 343.136 257.949C343.451 257.828 343.797 257.817 344.118 257.918L373.752 265.839C373.958 265.912 374.146 266.03 374.301 266.185C374.456 266.339 374.575 266.526 374.649 266.732C374.723 266.938 374.751 267.157 374.73 267.375C374.709 267.593 374.64 267.803 374.528 267.991Z" fill="url(#paint49_linear_4146_12107)"/>
<path d="M247.735 252.549L270.285 214.156C270.452 213.88 270.525 213.557 270.493 213.236C270.461 212.914 270.325 212.612 270.107 212.374L248.817 190.232C248.659 190.068 248.464 189.944 248.249 189.868C248.034 189.792 247.804 189.768 247.578 189.797C247.352 189.825 247.136 189.906 246.946 190.033C246.757 190.16 246.6 190.329 246.487 190.527L223.902 228.999C223.723 229.293 223.652 229.641 223.702 229.982C223.752 230.323 223.919 230.635 224.174 230.866L245.487 252.943C245.652 253.084 245.847 253.188 246.058 253.245C246.268 253.303 246.489 253.313 246.703 253.275C246.918 253.238 247.122 253.153 247.3 253.027C247.479 252.902 247.627 252.738 247.735 252.549Z" fill="url(#paint50_linear_4146_12107)"/>
<path d="M247.735 252.549L270.285 214.156C270.452 213.88 270.525 213.557 270.493 213.236C270.461 212.914 270.325 212.612 270.107 212.374L248.817 190.232C248.659 190.068 248.464 189.944 248.249 189.868C248.034 189.792 247.804 189.768 247.578 189.797C247.352 189.825 247.136 189.906 246.946 190.033C246.757 190.16 246.6 190.329 246.487 190.527L223.902 228.999C223.723 229.293 223.652 229.641 223.702 229.982C223.752 230.323 223.919 230.635 224.174 230.866L245.487 252.943C245.652 253.084 245.847 253.188 246.058 253.245C246.268 253.303 246.489 253.313 246.703 253.275C246.918 253.238 247.122 253.153 247.3 253.027C247.479 252.902 247.627 252.738 247.735 252.549Z" fill="url(#paint51_linear_4146_12107)"/>
<path d="M411.183 278.273L333.582 196.677L224.539 168.623L302.771 249.144L411.183 278.273Z" fill="url(#paint52_linear_4146_12107)"/>
<path d="M374.354 268.375L301.34 186.553C301.17 186.354 300.942 186.213 300.689 186.147L269.086 178.014C268.808 177.92 268.505 177.925 268.229 178.027C267.953 178.129 267.721 178.323 267.57 178.576C267.42 178.829 267.361 179.126 267.403 179.417C267.445 179.709 267.586 179.977 267.802 180.177L341.72 259.712L374.354 268.375Z" fill="url(#paint53_linear_4146_12107)"/>
<path d="M269.667 215.216L382.951 248.034C383.145 248.092 383.353 248.085 383.542 248.012C383.732 247.94 383.892 247.806 383.997 247.633C384.102 247.459 384.147 247.256 384.123 247.054C384.1 246.853 384.01 246.665 383.868 246.52L360.383 221.909C360.273 221.788 360.13 221.701 359.971 221.659L246.187 190.966L269.667 215.216Z" fill="url(#paint54_linear_4146_12107)"/>
<path d="M406.457 229.077C390.171 266.233 319.423 220.759 319.423 220.759C358.912 154.84 422.744 191.958 406.457 229.077ZM386.128 205.264C369.841 181.098 319.968 220.577 319.968 220.577C363.935 246.19 400.779 227.063 386.128 205.264Z" fill="url(#paint55_linear_4146_12107)"/>
<path d="M394.899 264.919C364.378 291.593 319.626 220.44 319.626 220.44C383.384 177.508 425.407 238.232 394.899 264.919ZM386.611 234.717C382.129 205.938 320.208 220.488 320.208 220.488C349.129 262.352 390.63 260.633 386.611 234.717Z" fill="url(#paint56_linear_4146_12107)"/>
<path d="M319.423 220.759C319.423 220.759 245.326 181.079 269.812 148.775C294.298 116.471 357.812 154.198 319.423 220.759ZM319.394 220.18C319.394 220.18 329.551 157.43 300.52 154.968C274.388 152.749 275.568 194.277 319.344 220.209L319.394 220.18Z" fill="url(#paint57_linear_4146_12107)"/>
<path d="M319.626 220.439C319.626 220.439 235.668 215.99 244.14 176.344C252.612 136.699 326.088 143.854 319.626 220.439ZM319.306 219.952C319.306 219.952 301.88 158.778 274.549 168.858C250.005 177.975 268.668 215.075 319.306 219.952Z" fill="url(#paint58_linear_4146_12107)"/>
<defs>
<filter id="filter0_d_4146_12107" x="146.86" y="129.034" width="157.419" height="191.821" filterUnits="userSpaceOnUse" color-interpolation-filters="sRGB">
<feFlood flood-opacity="0" result="BackgroundImageFix"/>
<feColorMatrix in="SourceAlpha" type="matrix" values="0 0 0 0 0 0 0 0 0 0 0 0 0 0 0 0 0 0 127 0" result="hardAlpha"/>
<feOffset dy="10"/>
<feGaussianBlur stdDeviation="2"/>
<feComposite in2="hardAlpha" operator="out"/>
<feColorMatrix type="matrix" values="0 0 0 0 0 0 0 0 0 0 0 0 0 0 0 0 0 0 0.25 0"/>
<feBlend mode="normal" in2="BackgroundImageFix" result="effect1_dropShadow_4146_12107"/>
<feBlend mode="normal" in="SourceGraphic" in2="effect1_dropShadow_4146_12107" result="shape"/>
</filter>
<filter id="filter1_f_4146_12107" x="134.86" y="113.034" width="285.49" height="292.631" filterUnits="userSpaceOnUse" color-interpolation-filters="sRGB">
<feFlood flood-opacity="0" result="BackgroundImageFix"/>
<feBlend mode="normal" in="SourceGraphic" in2="BackgroundImageFix" result="shape"/>
<feGaussianBlur stdDeviation="8" result="effect1_foregroundBlur_4146_12107"/>
</filter>
<linearGradient id="paint0_linear_4146_12107" x1="215.507" y1="205.198" x2="243.142" y2="234.856" gradientUnits="userSpaceOnUse">
<stop stop-color="#CE1618"/>
<stop offset="0.365738" stop-color="#C11E19"/>
<stop offset="1" stop-color="#C11E19"/>
</linearGradient>
<linearGradient id="paint1_linear_4146_12107" x1="104.136" y1="214.891" x2="107.76" y2="285.598" gradientUnits="userSpaceOnUse">
<stop stop-color="#F52B2A"/>
<stop offset="1" stop-color="#D01913"/>
</linearGradient>
<linearGradient id="paint2_linear_4146_12107" x1="77.1176" y1="168.076" x2="154.405" y2="273.962" gradientUnits="userSpaceOnUse">
<stop stop-color="#FFD12F"/>
<stop offset="1" stop-color="#FFA202"/>
</linearGradient>
<linearGradient id="paint3_linear_4146_12107" x1="241.393" y1="237.87" x2="126.219" y2="11.3988" gradientUnits="userSpaceOnUse">
<stop stop-color="#FFA202"/>
<stop offset="1" stop-color="#FFD12F"/>
</linearGradient>
<linearGradient id="paint4_linear_4146_12107" x1="178.037" y1="103.79" x2="210.872" y2="152.474" gradientUnits="userSpaceOnUse">
<stop stop-color="#CF1719"/>
<stop offset="1" stop-color="#BF1813"/>
</linearGradient>
<linearGradient id="paint5_linear_4146_12107" x1="84.2748" y1="143.102" x2="95.4022" y2="205.377" gradientUnits="userSpaceOnUse">
<stop stop-color="#F62B2A"/>
<stop offset="1" stop-color="#DD1F1B"/>
</linearGradient>
<linearGradient id="paint6_linear_4146_12107" x1="62.6295" y1="133.893" x2="112.688" y2="226.699" gradientUnits="userSpaceOnUse">
<stop stop-color="#FFD12F"/>
<stop offset="1" stop-color="#FFA202"/>
</linearGradient>
<linearGradient id="paint7_linear_4146_12107" x1="209.178" y1="146.396" x2="180.409" y2="63.4475" gradientUnits="userSpaceOnUse">
<stop stop-color="#FFA202"/>
<stop offset="1" stop-color="#FFD12F"/>
</linearGradient>
<linearGradient id="paint8_linear_4146_12107" x1="234.527" y1="81.0837" x2="38.3605" y2="118.776" gradientUnits="userSpaceOnUse">
<stop stop-color="#F32A28"/>
<stop offset="1" stop-color="#FA4140"/>
</linearGradient>
<linearGradient id="paint9_linear_4146_12107" x1="109.805" y1="125.534" x2="197.926" y2="159.438" gradientUnits="userSpaceOnUse">
<stop stop-color="#FFD143"/>
<stop offset="1" stop-color="#FFA505"/>
</linearGradient>
<linearGradient id="paint10_linear_4146_12107" x1="65.4545" y1="110.963" x2="230.804" y2="153.778" gradientUnits="userSpaceOnUse">
<stop stop-color="#FFCB29"/>
<stop offset="1" stop-color="#FFA505"/>
</linearGradient>
<linearGradient id="paint11_linear_4146_12107" x1="51.8868" y1="66.3566" x2="84.5577" y2="107.816" gradientUnits="userSpaceOnUse">
<stop stop-color="#FFC01F"/>
<stop offset="1" stop-color="#FFBB30"/>
</linearGradient>
<linearGradient id="paint12_linear_4146_12107" x1="50.9319" y1="106.188" x2="119.94" y2="124.346" gradientUnits="userSpaceOnUse">
<stop stop-color="#FFC624"/>
<stop offset="1" stop-color="#FFAF0E"/>
</linearGradient>
<linearGradient id="paint13_linear_4146_12107" x1="35.3516" y1="6.74499" x2="42.0581" y2="122.719" gradientUnits="userSpaceOnUse">
<stop stop-color="#FFD12F"/>
<stop offset="1" stop-color="#FFA202"/>
</linearGradient>
<linearGradient id="paint14_linear_4146_12107" x1="129.247" y1="69.6804" x2="215.76" y2="138.585" gradientUnits="userSpaceOnUse">
<stop stop-color="#FFD12F"/>
<stop offset="1" stop-color="#FFA202"/>
</linearGradient>
<linearGradient id="paint15_linear_4146_12107" x1="215.507" y1="205.198" x2="243.142" y2="234.856" gradientUnits="userSpaceOnUse">
<stop stop-color="#CE1618"/>
<stop offset="0.365738" stop-color="#C11E19"/>
<stop offset="1" stop-color="#C11E19"/>
</linearGradient>
<linearGradient id="paint16_linear_4146_12107" x1="104.136" y1="214.891" x2="107.76" y2="285.598" gradientUnits="userSpaceOnUse">
<stop stop-color="#F52B2A"/>
<stop offset="1" stop-color="#D01913"/>
</linearGradient>
<linearGradient id="paint17_linear_4146_12107" x1="77.1176" y1="168.076" x2="154.405" y2="273.962" gradientUnits="userSpaceOnUse">
<stop stop-color="#FFD12F"/>
<stop offset="1" stop-color="#FFA202"/>
</linearGradient>
<linearGradient id="paint18_linear_4146_12107" x1="241.393" y1="237.87" x2="126.219" y2="11.3988" gradientUnits="userSpaceOnUse">
<stop stop-color="#FFA202"/>
<stop offset="1" stop-color="#FFD12F"/>
</linearGradient>
<linearGradient id="paint19_linear_4146_12107" x1="178.037" y1="103.79" x2="210.872" y2="152.474" gradientUnits="userSpaceOnUse">
<stop stop-color="#CF1719"/>
<stop offset="1" stop-color="#BF1813"/>
</linearGradient>
<linearGradient id="paint20_linear_4146_12107" x1="84.2748" y1="143.102" x2="95.4022" y2="205.377" gradientUnits="userSpaceOnUse">
<stop stop-color="#F62B2A"/>
<stop offset="1" stop-color="#DD1F1B"/>
</linearGradient>
<linearGradient id="paint21_linear_4146_12107" x1="62.6295" y1="133.893" x2="112.688" y2="226.699" gradientUnits="userSpaceOnUse">
<stop stop-color="#FFD12F"/>
<stop offset="1" stop-color="#FFA202"/>
</linearGradient>
<linearGradient id="paint22_linear_4146_12107" x1="209.178" y1="146.396" x2="180.409" y2="63.4475" gradientUnits="userSpaceOnUse">
<stop stop-color="#FFA202"/>
<stop offset="1" stop-color="#FFD12F"/>
</linearGradient>
<linearGradient id="paint23_linear_4146_12107" x1="234.527" y1="81.0837" x2="38.3605" y2="118.776" gradientUnits="userSpaceOnUse">
<stop stop-color="#F32A28"/>
<stop offset="1" stop-color="#FA4140"/>
</linearGradient>
<linearGradient id="paint24_linear_4146_12107" x1="109.805" y1="125.534" x2="197.926" y2="159.438" gradientUnits="userSpaceOnUse">
<stop stop-color="#FFD143"/>
<stop offset="1" stop-color="#FFA505"/>
</linearGradient>
<linearGradient id="paint25_linear_4146_12107" x1="65.4545" y1="110.963" x2="230.804" y2="153.778" gradientUnits="userSpaceOnUse">
<stop stop-color="#FFCB29"/>
<stop offset="1" stop-color="#FFA505"/>
</linearGradient>
<linearGradient id="paint26_linear_4146_12107" x1="51.8868" y1="66.3566" x2="84.5577" y2="107.816" gradientUnits="userSpaceOnUse">
<stop stop-color="#FFC01F"/>
<stop offset="1" stop-color="#FFBB30"/>
</linearGradient>
<linearGradient id="paint27_linear_4146_12107" x1="50.9319" y1="106.188" x2="119.94" y2="124.346" gradientUnits="userSpaceOnUse">
<stop stop-color="#FFC624"/>
<stop offset="1" stop-color="#FFAF0E"/>
</linearGradient>
<linearGradient id="paint28_linear_4146_12107" x1="35.3516" y1="6.74499" x2="42.0581" y2="122.719" gradientUnits="userSpaceOnUse">
<stop stop-color="#FFD12F"/>
<stop offset="1" stop-color="#FFA202"/>
</linearGradient>
<linearGradient id="paint29_linear_4146_12107" x1="129.247" y1="69.6804" x2="215.76" y2="138.585" gradientUnits="userSpaceOnUse">
<stop stop-color="#FFD12F"/>
<stop offset="1" stop-color="#FFA202"/>
</linearGradient>
<linearGradient id="paint30_linear_4146_12107" x1="208.507" y1="377.628" x2="193.066" y2="223.22" gradientUnits="userSpaceOnUse">
<stop offset="0.13438" stop-color="#1C4DB0"/>
<stop offset="0.917831" stop-color="#215BD2"/>
</linearGradient>
<linearGradient id="paint31_linear_4146_12107" x1="310.803" y1="335.81" x2="320.918" y2="375.403" gradientUnits="userSpaceOnUse">
<stop stop-color="#1F4AA1"/>
<stop offset="1" stop-color="#193780"/>
</linearGradient>
<linearGradient id="paint32_linear_4146_12107" x1="347.358" y1="285.528" x2="255.684" y2="379.235" gradientUnits="userSpaceOnUse">
<stop stop-color="#FFD12F"/>
<stop offset="1" stop-color="#FFA202"/>
</linearGradient>
<linearGradient id="paint33_linear_4146_12107" x1="193.71" y1="449.041" x2="243.168" y2="214.618" gradientUnits="userSpaceOnUse">
<stop stop-color="#FFA202"/>
<stop offset="1" stop-color="#FFD12F"/>
</linearGradient>
<linearGradient id="paint34_linear_4146_12107" x1="280.598" y1="195.955" x2="194.111" y2="206.935" gradientUnits="userSpaceOnUse">
<stop stop-color="#1A48A4"/>
<stop offset="1" stop-color="#2E64D3"/>
</linearGradient>
<linearGradient id="paint35_linear_4146_12107" x1="281.666" y1="266.968" x2="391.731" y2="348.616" gradientUnits="userSpaceOnUse">
<stop stop-color="#1F4DAA"/>
<stop offset="1" stop-color="#254288"/>
</linearGradient>
<linearGradient id="paint36_linear_4146_12107" x1="185.628" y1="273.746" x2="252.525" y2="178.589" gradientUnits="userSpaceOnUse">
<stop stop-color="#FFD12F"/>
<stop offset="1" stop-color="#FFA202"/>
</linearGradient>
<linearGradient id="paint37_linear_4146_12107" x1="245.179" y1="307.502" x2="250.479" y2="182.865" gradientUnits="userSpaceOnUse">
<stop stop-color="#FFA202"/>
<stop offset="1" stop-color="#FFD541"/>
</linearGradient>
<linearGradient id="paint38_linear_4146_12107" x1="231.366" y1="169.076" x2="423.618" y2="253.664" gradientUnits="userSpaceOnUse">
<stop stop-color="#4179E9"/>
<stop offset="1" stop-color="#22499C"/>
</linearGradient>
<linearGradient id="paint39_linear_4146_12107" x1="194.701" y1="307.751" x2="279.568" y2="132.049" gradientUnits="userSpaceOnUse">
<stop stop-color="#E1B61E"/>
<stop offset="1" stop-color="#FFA202"/>
</linearGradient>
<linearGradient id="paint40_linear_4146_12107" x1="148.411" y1="277.242" x2="179.672" y2="137.672" gradientUnits="userSpaceOnUse">
<stop stop-color="#E1B61E"/>
<stop offset="1" stop-color="#FFA202"/>
</linearGradient>
<linearGradient id="paint41_linear_4146_12107" x1="250.969" y1="101.626" x2="308.903" y2="321.681" gradientUnits="userSpaceOnUse">
<stop stop-color="#FFD12F"/>
<stop offset="1" stop-color="#FFA202"/>
</linearGradient>
<linearGradient id="paint42_linear_4146_12107" x1="259.977" y1="90.6885" x2="332.951" y2="178.629" gradientUnits="userSpaceOnUse">
<stop stop-color="#FFD12F"/>
<stop offset="1" stop-color="#FFA202"/>
</linearGradient>
<linearGradient id="paint43_linear_4146_12107" x1="215.507" y1="385.628" x2="200.066" y2="231.22" gradientUnits="userSpaceOnUse">
<stop offset="0.13438" stop-color="#1C4DB0"/>
<stop offset="0.917831" stop-color="#215BD2"/>
</linearGradient>
<linearGradient id="paint44_linear_4146_12107" x1="317.803" y1="343.81" x2="327.918" y2="383.403" gradientUnits="userSpaceOnUse">
<stop stop-color="#1F4AA1"/>
<stop offset="1" stop-color="#193780"/>
</linearGradient>
<linearGradient id="paint45_linear_4146_12107" x1="354.358" y1="293.528" x2="262.684" y2="387.235" gradientUnits="userSpaceOnUse">
<stop stop-color="#FFD12F"/>
<stop offset="1" stop-color="#FFA202"/>
</linearGradient>
<linearGradient id="paint46_linear_4146_12107" x1="200.71" y1="457.041" x2="250.168" y2="222.618" gradientUnits="userSpaceOnUse">
<stop stop-color="#FFA202"/>
<stop offset="1" stop-color="#FFD12F"/>
</linearGradient>
<linearGradient id="paint47_linear_4146_12107" x1="287.598" y1="203.955" x2="201.111" y2="214.935" gradientUnits="userSpaceOnUse">
<stop stop-color="#1A48A4"/>
<stop offset="1" stop-color="#2E64D3"/>
</linearGradient>
<linearGradient id="paint48_linear_4146_12107" x1="288.666" y1="274.968" x2="398.731" y2="356.616" gradientUnits="userSpaceOnUse">
<stop stop-color="#1F4DAA"/>
<stop offset="1" stop-color="#254288"/>
</linearGradient>
<linearGradient id="paint49_linear_4146_12107" x1="381.212" y1="252.499" x2="344.215" y2="331.624" gradientUnits="userSpaceOnUse">
<stop stop-color="#FFD12F"/>
<stop offset="1" stop-color="#FFA202"/>
</linearGradient>
<linearGradient id="paint50_linear_4146_12107" x1="192.628" y1="281.746" x2="259.525" y2="186.589" gradientUnits="userSpaceOnUse">
<stop stop-color="#FFD12F"/>
<stop offset="1" stop-color="#FFA202"/>
</linearGradient>
<linearGradient id="paint51_linear_4146_12107" x1="252.179" y1="315.502" x2="257.479" y2="190.865" gradientUnits="userSpaceOnUse">
<stop stop-color="#FFA202"/>
<stop offset="1" stop-color="#FFD541"/>
</linearGradient>
<linearGradient id="paint52_linear_4146_12107" x1="238.366" y1="177.076" x2="430.618" y2="261.664" gradientUnits="userSpaceOnUse">
<stop stop-color="#4179E9"/>
<stop offset="1" stop-color="#22499C"/>
</linearGradient>
<linearGradient id="paint53_linear_4146_12107" x1="201.701" y1="315.751" x2="286.568" y2="140.049" gradientUnits="userSpaceOnUse">
<stop stop-color="#E1B61E"/>
<stop offset="1" stop-color="#FFA202"/>
</linearGradient>
<linearGradient id="paint54_linear_4146_12107" x1="155.411" y1="285.242" x2="186.672" y2="145.672" gradientUnits="userSpaceOnUse">
<stop stop-color="#E1B61E"/>
<stop offset="1" stop-color="#FFA202"/>
</linearGradient>
<linearGradient id="paint55_linear_4146_12107" x1="359.621" y1="154.018" x2="394.735" y2="237.493" gradientUnits="userSpaceOnUse">
<stop stop-color="#FFD12F"/>
<stop offset="1" stop-color="#FFA202"/>
</linearGradient>
<linearGradient id="paint56_linear_4146_12107" x1="336.46" y1="164.312" x2="481.089" y2="265.116" gradientUnits="userSpaceOnUse">
<stop stop-color="#FFD12F"/>
<stop offset="1" stop-color="#FFA202"/>
</linearGradient>
<linearGradient id="paint57_linear_4146_12107" x1="257.969" y1="109.626" x2="315.903" y2="329.681" gradientUnits="userSpaceOnUse">
<stop stop-color="#FFD12F"/>
<stop offset="1" stop-color="#FFA202"/>
</linearGradient>
<linearGradient id="paint58_linear_4146_12107" x1="266.977" y1="98.6885" x2="339.951" y2="186.629" gradientUnits="userSpaceOnUse">
<stop stop-color="#FFD12F"/>
<stop offset="1" stop-color="#FFA202"/>
</linearGradient>
<clipPath id="clip0_4146_12107">
<rect width="254.671" height="262.365" fill="white" transform="translate(50.3398 0.5) rotate(11.0619)"/>
</clipPath>
<clipPath id="clip1_4146_12107">
<rect width="254.671" height="262.365" fill="white" transform="translate(50.3398 0.5) rotate(11.0619)"/>
</clipPath>
</defs>
</svg>
