<svg width="16" height="16" viewBox="0 0 16 16" fill="none" xmlns="http://www.w3.org/2000/svg">
<rect width="16" height="16" rx="3" fill="#CF2935"/>
<path d="M4.50109 8.05235C4.19289 7.77561 3.7187 7.80111 3.44196 8.10931C3.16521 8.41751 3.19071 8.8917 3.49891 9.16844L4.50109 8.05235ZM6.43844 10.8L5.93735 11.358C6.23465 11.6249 6.68903 11.612 6.97059 11.3285L6.43844 10.8ZM12.5322 5.72845C12.824 5.43455 12.8224 4.95968 12.5285 4.6678C12.2346 4.37592 11.7597 4.37755 11.4678 4.67145L12.5322 5.72845ZM3.49891 9.16844L5.93735 11.358L6.93952 10.2419L4.50109 8.05235L3.49891 9.16844ZM6.97059 11.3285L12.5322 5.72845L11.4678 4.67145L5.90628 10.2715L6.97059 11.3285Z" fill="white"/>
</svg>
