<svg width="24" height="25" viewBox="0 0 24 25" fill="none" xmlns="http://www.w3.org/2000/svg">
<path fill-rule="evenodd" clip-rule="evenodd" d="M5 14.5V14.5C3.895 14.5 3 13.605 3 12.5V12.5C3 11.395 3.895 10.5 5 10.5V10.5C6.105 10.5 7 11.395 7 12.5V12.5C7 13.605 6.105 14.5 5 14.5Z" stroke="#254288" stroke-width="1.5" stroke-linecap="round" stroke-linejoin="round"/>
<path fill-rule="evenodd" clip-rule="evenodd" d="M12 14.5V14.5C10.895 14.5 10 13.605 10 12.5V12.5C10 11.395 10.895 10.5 12 10.5V10.5C13.105 10.5 14 11.395 14 12.5V12.5C14 13.605 13.105 14.5 12 14.5Z" stroke="#254288" stroke-width="1.5" stroke-linecap="round" stroke-linejoin="round"/>
<path fill-rule="evenodd" clip-rule="evenodd" d="M19 14.5V14.5C17.895 14.5 17 13.605 17 12.5V12.5C17 11.395 17.895 10.5 19 10.5V10.5C20.105 10.5 21 11.395 21 12.5V12.5C21 13.605 20.105 14.5 19 14.5Z" stroke="#254288" stroke-width="1.5" stroke-linecap="round" stroke-linejoin="round"/>
<path fill-rule="evenodd" clip-rule="evenodd" d="M5 21.5V21.5C3.895 21.5 3 20.605 3 19.5V19.5C3 18.395 3.895 17.5 5 17.5V17.5C6.105 17.5 7 18.395 7 19.5V19.5C7 20.605 6.105 21.5 5 21.5Z" stroke="#254288" stroke-width="1.5" stroke-linecap="round" stroke-linejoin="round"/>
<path fill-rule="evenodd" clip-rule="evenodd" d="M12 21.5V21.5C10.895 21.5 10 20.605 10 19.5V19.5C10 18.395 10.895 17.5 12 17.5V17.5C13.105 17.5 14 18.395 14 19.5V19.5C14 20.605 13.105 21.5 12 21.5Z" stroke="#254288" stroke-width="1.5" stroke-linecap="round" stroke-linejoin="round"/>
<path fill-rule="evenodd" clip-rule="evenodd" d="M19 21.5V21.5C17.895 21.5 17 20.605 17 19.5V19.5C17 18.395 17.895 17.5 19 17.5V17.5C20.105 17.5 21 18.395 21 19.5V19.5C21 20.605 20.105 21.5 19 21.5Z" stroke="#254288" stroke-width="1.5" stroke-linecap="round" stroke-linejoin="round"/>
<path fill-rule="evenodd" clip-rule="evenodd" d="M5 7.5V7.5C3.895 7.5 3 6.605 3 5.5V5.5C3 4.395 3.895 3.5 5 3.5V3.5C6.105 3.5 7 4.395 7 5.5V5.5C7 6.605 6.105 7.5 5 7.5Z" stroke="#254288" stroke-width="1.5" stroke-linecap="round" stroke-linejoin="round"/>
<path fill-rule="evenodd" clip-rule="evenodd" d="M12 7.5V7.5C10.895 7.5 10 6.605 10 5.5V5.5C10 4.395 10.895 3.5 12 3.5V3.5C13.105 3.5 14 4.395 14 5.5V5.5C14 6.605 13.105 7.5 12 7.5Z" stroke="#254288" stroke-width="1.5" stroke-linecap="round" stroke-linejoin="round"/>
<path fill-rule="evenodd" clip-rule="evenodd" d="M19 7.5V7.5C17.895 7.5 17 6.605 17 5.5V5.5C17 4.395 17.895 3.5 19 3.5V3.5C20.105 3.5 21 4.395 21 5.5V5.5C21 6.605 20.105 7.5 19 7.5Z" stroke="#254288" stroke-width="1.5" stroke-linecap="round" stroke-linejoin="round"/>
</svg>
