<svg width="60" height="60" viewBox="0 0 60 60" fill="none" xmlns="http://www.w3.org/2000/svg">
<path fill-rule="evenodd" clip-rule="evenodd" d="M21.6025 34.5012L26.705 47.5962C27.3738 49.3137 26.1075 51.1662 24.265 51.1662H5.73629C3.89379 51.1662 2.62629 49.3137 3.29629 47.5962L8.39754 34.5012C8.79004 33.4962 9.75879 32.8337 10.8375 32.8337H19.1613C20.2413 32.8337 21.21 33.4962 21.6025 34.5012V34.5012Z" stroke="#CF2935" stroke-width="3" stroke-linecap="round" stroke-linejoin="round"/>
<path fill-rule="evenodd" clip-rule="evenodd" d="M51.6025 34.5012L56.705 47.5962C57.3738 49.3137 56.1075 51.1662 54.265 51.1662H35.7363C33.8938 51.1662 32.6263 49.3137 33.2963 47.5962L38.3975 34.5012C38.79 33.4962 39.7588 32.8337 40.8375 32.8337H49.1613C50.2413 32.8337 51.21 33.4962 51.6025 34.5012V34.5012Z" stroke="#CF2935" stroke-width="3" stroke-linecap="round" stroke-linejoin="round"/>
<path fill-rule="evenodd" clip-rule="evenodd" d="M36.6025 10.5012L41.705 23.5962C42.3738 25.3137 41.1075 27.1662 39.265 27.1662H20.7363C18.8938 27.1662 17.6263 25.3137 18.2963 23.5962L23.3975 10.5012C23.79 9.49624 24.7588 8.83374 25.8375 8.83374H34.1613C35.2413 8.83374 36.21 9.49624 36.6025 10.5012V10.5012Z" stroke="#CF2935" stroke-width="3" stroke-linecap="round" stroke-linejoin="round"/>
</svg>
