<svg width="164" height="134" viewBox="0 0 164 134" fill="none" xmlns="http://www.w3.org/2000/svg">
<g style="mix-blend-mode:multiply">
<path d="M96.9282 43.5033L11.8304 92.6376C4.4633 96.8774 0.178345 102.636 0.193375 108.665C0.109421 109.891 0.37532 111.117 0.960159 112.198C5.63603 119.144 25.4521 130.571 37.465 133.247C39.4907 133.592 41.5452 133.738 43.5993 133.683C53.2722 133.86 62.8287 131.551 71.3538 126.977L156.467 77.8281C156.467 77.8281 164.405 70.0551 163.368 67.3037C159.774 57.6963 131.794 41.5488 115.151 39.4589C110.369 38.8726 96.9282 43.4432 96.9282 43.4432V43.5033Z" fill="#D9DEE6"/>
</g>
<path d="M150.212 67.9512L139.116 62.2831L122.367 76.8218L80.2244 108.245L72.316 103.614L50.1846 118.799L48.8014 59.0656L152.948 39.0691L150.212 67.9512Z" fill="#292929"/>
<path d="M67.1289 94.0034L75.8643 99.0401L62.0321 122.54L53.2818 117.488L56.1685 101.927L67.1289 94.0034Z" fill="#333333"/>
<path d="M136.951 53.6824L145.687 58.7191L131.975 82.2939L123.224 77.2421L126.773 61.4404L136.951 53.6824Z" fill="#333333"/>
<path d="M36.9538 53.5015C36.9634 53.8405 36.928 54.1793 36.8486 54.5089C36.8255 54.6041 36.779 54.6919 36.7132 54.7645L36.5328 54.9148C35.9517 55.3689 35.224 55.5937 34.4881 55.5463H34.3528C34.0915 55.5131 33.8375 55.4369 33.601 55.3208L33.4356 55.2155L33.2702 55.1103C32.0225 54.3353 30.9887 53.2602 30.2633 51.983C30.1786 51.8207 30.113 51.6492 30.0678 51.4718C30.0069 51.2599 29.9617 51.0438 29.9325 50.8253C29.9325 50.8253 29.9325 50.7051 29.9325 50.675C29.9325 50.6449 29.9325 50.3141 29.9325 50.1488C29.9246 50.0236 29.9246 49.8981 29.9325 49.7729C29.9251 49.6979 29.9251 49.6224 29.9325 49.5474C29.947 49.307 29.9924 49.0695 30.0678 48.8407C30.161 48.4059 30.3807 48.0084 30.6993 47.6981C30.8187 47.5974 30.9584 47.5239 31.1089 47.4823C31.2595 47.4408 31.4172 47.4323 31.5713 47.4575C32.8884 47.8786 34.1131 48.547 35.1797 49.4271C35.9565 49.9613 36.5415 50.7307 36.8486 51.6222C36.8625 51.7471 36.8625 51.8731 36.8486 51.9981C36.8486 52.1785 36.8486 52.3739 36.8486 52.5694C36.9538 52.9302 36.9688 53.2159 36.9538 53.5015Z" fill="#5B73FF"/>
<path d="M35.4805 52.8097V53.0653C35.4776 53.5539 35.3859 54.0379 35.2098 54.4937C35.097 54.8047 34.8717 55.0622 34.5784 55.2153C34.395 55.2918 34.1982 55.3312 33.9995 55.3312C33.8008 55.3312 33.6041 55.2918 33.4207 55.2153L33.2403 55.1251C31.9211 54.4419 30.8642 53.3427 30.2333 51.9978C30.1486 51.8356 30.0831 51.664 30.0378 51.4867C29.9714 51.2916 29.926 51.09 29.9025 50.8853C29.9025 50.8853 29.9025 50.765 29.9025 50.7349C29.9025 50.7048 29.9025 50.3741 29.9025 50.2087C29.8947 50.0835 29.8947 49.958 29.9025 49.8328C29.8944 49.7629 29.8944 49.6923 29.9025 49.6223C29.9216 49.3764 29.9721 49.1338 30.0529 48.9007C30.1731 48.5849 30.3235 48.4045 30.4889 48.3744C30.6082 48.3527 30.7304 48.3527 30.8497 48.3744C31.7309 48.5757 32.554 48.977 33.2553 49.5472C33.8494 49.8866 34.3584 50.3567 34.7439 50.922C35.1294 51.4872 35.3813 52.1328 35.4805 52.8097Z" fill="#5B84FF"/>
<path d="M115.166 35.2049C113.497 37.9413 111.798 41.2189 108.37 43.1284L107.408 43.6997V39.3546C107.408 32.228 102.356 29.3563 96.1464 32.9497C92.8761 35.0725 90.1522 37.9363 88.1956 41.3087C86.239 44.6811 85.1049 48.4672 84.8852 52.3598V56.6899L37.5702 84.0084V79.6783C37.5702 72.5518 32.5335 69.665 26.309 73.2584C23.0384 75.3845 20.3146 78.251 18.3581 81.6259C16.4017 85.0007 15.2676 88.7889 15.0478 92.6836V100.096C13.4391 101.028 13.7999 102.261 13.7999 102.261C13.7999 102.261 8.62791 103.298 6.10204 102.141C5.62093 101.915 3.83176 93.5105 4.50833 90.699C5.17208 86.4476 7.06985 82.4847 9.96603 79.3025C13.7999 74.5815 29.1356 61.8318 29.1356 61.8318C29.1356 61.8318 47.2677 39.2794 56.1985 32.9046C66.4223 25.6126 102.22 3.79694 104.671 3.36093C109.482 2.47386 114.279 9.57035 115.346 11.9459C115.346 12.0511 116.413 19.5987 116.549 20.0197C117.03 21.5232 118.052 23.3273 118.428 24.5301C118.804 25.7329 116.759 32.4535 115.166 35.2049Z" fill="#2E2F35"/>
<path d="M4.50831 90.6993C4.83899 88.4393 5.56687 86.2557 6.65831 84.2493C6.65831 84.2493 10.3569 79.5133 12.2513 76.8221C14.1457 74.1308 31.887 58.5396 31.887 58.5396L30.4737 77.8294L4.50831 90.6993Z" fill="#5B73FF"/>
<path d="M118.383 24.4539C118.052 23.3263 116.985 21.4469 116.504 19.9435C116.383 19.5826 115.572 13.6739 115.361 12.2004C111.332 14.5158 101.454 18.8008 96.5072 21.9281C89.9219 26.1078 70.9478 39.3686 67.2191 41.9546C63.4905 44.5406 39.8104 62.2668 30.3384 67.1682C20.8664 72.0696 13.5895 82.2934 12.1311 84.1728C10.0142 86.7789 7.42893 88.9665 4.50833 90.6227C3.83176 93.4343 5.62093 101.839 6.10204 102.064C8.62791 103.222 13.7999 102.185 13.7999 102.185C13.7999 102.185 13.4391 100.952 15.0478 100.02V92.6074C15.2676 88.7127 16.4017 84.9245 18.3581 81.5497C20.3146 78.1748 23.0384 75.3083 26.309 73.1822C32.5335 69.5889 37.5702 72.4756 37.5702 79.6021V83.9322L84.8852 56.6889V52.3588C85.1095 48.4713 86.2458 44.6913 88.2022 41.3244C90.1586 37.9576 92.88 35.0986 96.1464 32.9788C102.356 29.3854 107.408 32.2571 107.408 39.3836V43.7287L108.37 43.1574C111.798 41.1878 113.497 37.9704 115.166 35.234C116.819 31.8404 117.906 28.1988 118.383 24.4539Z" fill="#495DCF"/>
<path d="M35.9915 80.5954C35.8057 83.9431 34.8319 87.1996 33.1493 90.0997C31.4667 92.9997 29.123 95.4614 26.3089 97.2842C20.9715 100.291 16.6415 97.9007 16.6415 91.7664C16.8279 88.4206 17.8005 85.1659 19.4801 82.2663C21.1598 79.3667 23.4994 76.9039 26.3089 75.0776C31.6614 72.0706 35.9915 74.4612 35.9915 80.5954Z" fill="#1F2024"/>
<path d="M105.814 40.2717C105.639 43.6305 104.672 46.9002 102.992 49.8137C101.312 52.7273 98.966 55.202 96.1465 57.0357C90.8091 60.1178 86.479 57.6521 86.479 51.5178C86.6678 48.1746 87.6414 44.9229 89.321 42.0261C91.0006 39.1293 93.3389 36.6689 96.1465 34.8441C101.484 31.6867 105.814 34.1525 105.814 40.2717Z" fill="#1F2024"/>
<path d="M116.504 20.0194C116.022 18.5159 116.353 14.3211 115.301 11.9456C114.248 9.5701 109.437 2.47362 104.626 3.36068C100.251 5.44661 96.0132 7.80678 91.9364 10.4271C91.9364 10.4271 103.002 4.56347 104.22 4.81906C105.438 5.07466 112.249 9.58515 113.376 13.4341C114.504 17.283 113.692 18.4257 114.188 20.3652C114.684 22.3047 117.526 22.4551 117.526 22.4551C117.139 21.6634 116.797 20.8502 116.504 20.0194Z" fill="#2E2F35"/>
<path d="M39.0286 78.8363V83.1664L37.5251 84.0084V79.6783C37.5251 72.5517 32.4884 69.665 26.2639 73.2583C22.9933 75.3844 20.2694 78.251 18.313 81.6258C16.3565 85.0006 15.2225 88.7888 15.0027 92.6835V100.096L13.4992 100.938V93.5255C13.4992 85.4667 19.1975 75.6489 26.2188 71.5895C33.2401 67.53 39.0286 70.7776 39.0286 78.8363Z" fill="#5B73FF"/>
<path d="M108.866 38.5126V42.8276C108.708 42.9399 108.542 43.0404 108.37 43.1283L107.407 43.6997V39.3546C107.407 32.228 102.356 29.3563 96.1462 32.9497C92.8759 35.0725 90.152 37.9362 88.1954 41.3086C86.2388 44.681 85.1047 48.4671 84.885 52.3598V56.6899L83.3815 57.5318V53.2017C83.3815 45.143 89.0797 35.3252 96.101 31.2657C103.122 27.2063 108.866 30.4538 108.866 38.5126Z" fill="#5B73FF"/>
<path d="M115.677 14.4869C115.587 13.9457 115.526 13.4345 115.466 12.9834C115.466 12.6677 115.376 12.4271 115.361 12.2317L113.016 13.5848L111.196 14.6674L107.648 16.7121C106.475 17.4037 104.025 17.3887 102.852 18.0953C102.957 18.2457 103.529 19.0576 103.784 19.1177C106.534 18.6577 109.22 17.8703 111.783 16.7723C112.67 16.3062 114.76 15.0432 115.677 14.4869Z" fill="#FF4566"/>
<path d="M112.715 39.0695C113.647 37.7916 114.414 36.4534 115.166 35.2055C116.816 31.8213 117.903 28.1902 118.383 24.4556C116.308 27.237 114.429 28.9661 113.677 31.2213C112.977 33.7768 112.653 36.4206 112.715 39.0695Z" fill="#2E2F35"/>
<path d="M31.8869 60.2821C31.8869 60.2821 43.4187 56.1926 44.8019 55.3957C46.1851 54.5989 83.4267 29.3251 83.4267 29.3251L96.1462 16.4402C96.1462 16.4402 95.2441 10.4262 93.5302 11.0426C92.0267 11.5989 63.0393 29.3552 54.8452 35.3692C46.9669 42.6611 31.8869 60.2821 31.8869 60.2821Z" fill="#1F2024"/>
<path d="M70.8576 24.7408L66.1666 40.9786L69.5345 38.6932L72.3911 23.7786L70.8576 24.7408Z" fill="#2E2F35"/>
<path d="M54.2289 35.8812L40.4569 57.1707L43.915 55.9078L55.552 34.7837L54.2289 35.8812Z" fill="#2E2F35"/>
<path d="M107.393 3.64478C107.393 3.64478 113.241 5.85491 114.534 6.42624C122.052 9.73393 136.756 17.7476 143.101 22.9647C144.424 24.0472 152.122 31.249 152.122 31.249L94.5828 55.1244C92.9382 54.9674 91.3058 54.7012 89.6965 54.3276C78.0444 50.2982 61.2203 41.157 57.2811 35.6091C56.8256 34.7456 56.4433 33.8453 56.1385 32.9178C56.1385 32.9178 91.5157 11.3276 102.642 4.87764C104.146 4.20501 105.751 3.78832 107.393 3.64478Z" fill="#2E2F35"/>
<path d="M29.1357 61.8311L71.9402 86.5485C71.9402 86.5485 46.035 115.115 44.8773 115.401C44.5014 115.491 39.7353 121.039 34.1273 117.611C26.5196 112.98 16.4011 106.605 10.0714 102.576C6.41787 100.26 4.52346 90.6831 4.52346 90.6831L11.9507 78.3093L29.1357 61.8311Z" fill="#5B73FF"/>
<path d="M6.10214 102.137C6.36043 102.797 6.73754 103.403 7.21473 103.926C13.8902 109.79 32.7741 120.269 35.7811 121.698C39.2541 123.239 42.8766 124.417 46.5913 125.216C46.5913 125.216 50.5605 111.504 47.8241 112.421C39.4497 115.233 8.46264 94.8001 5.57592 91.9886C5.19203 91.5856 4.84014 91.1533 4.52347 90.6956L6.10214 102.137Z" fill="#495DCF"/>
<path d="M67.8806 85.947C60.9645 89.7058 52.8457 99.1327 48.0044 101.463C43.1632 103.794 43.6142 111.567 33.9768 106.74C17.7541 98.6065 11.68 93.2089 11.68 93.2089C11.68 93.2089 11.2289 85.917 12.5821 81.8425C13.9352 77.768 30.8946 63.6953 30.8946 63.6953C30.8946 63.6953 42.3663 78.5649 67.8806 85.947Z" fill="#5B84FF"/>
<path d="M31.6764 58.705C31.0519 59.4464 30.5943 60.3135 30.3349 61.2475C30.0755 62.1815 30.0202 63.1604 30.1729 64.1176C30.1705 65.423 30.4739 66.7108 31.0588 67.8778C31.6436 69.0449 32.4936 70.0587 33.5407 70.8382C39.8088 75.5776 46.5324 79.6823 53.6124 83.0917C56.905 84.5952 61.641 85.0162 64.633 85.9183C65.6855 86.234 71.9099 86.5498 71.9099 86.5498L94.5977 55.1117L56.1533 32.9802C56.1533 32.9802 40.7725 47.7445 31.6764 58.705Z" fill="#2E2F35"/>
<path d="M86.0429 58.5386C90.2827 53.5771 109.242 40.7372 131.388 28.589C131.597 28.4741 131.778 28.3141 131.918 28.1207C132.057 27.9272 132.152 27.7052 132.195 27.4706C132.238 27.2361 132.229 26.9948 132.167 26.7644C132.106 26.534 131.994 26.3201 131.839 26.1383C131.262 25.413 130.634 24.7297 129.96 24.0935C124.412 19.5831 111.723 12.4866 105.092 9.73516C104.671 9.56978 103.965 9.34426 103.183 9.13377C100.804 8.5003 98.2747 8.77358 96.0862 9.90055C81.9182 17.2841 68.4165 25.8812 55.7324 35.5953C54.4336 36.6268 53.2218 37.7633 52.109 38.9932L57.5517 57.0351L86.0429 58.5386Z" fill="#3D3C51"/>
<path d="M43.8398 117.174C43.8398 117.791 43.9902 118.437 44.0804 119.069C44.314 120.975 44.7525 122.85 45.3884 124.662C45.4065 124.71 45.4378 124.751 45.4786 124.782C45.7141 124.881 45.955 124.966 46.2003 125.038H46.3206H46.4258H46.5311L46.9971 125.113H47.1475H47.5985H48.23H48.8164C50.264 125.095 51.7076 124.954 53.1314 124.692L53.9433 124.481H54.1538L54.8604 124.271L55.2062 124.166L56.3489 123.76C56.8662 123.572 57.3688 123.346 57.8524 123.083V117.159C58.0686 113.264 59.2011 109.474 61.1579 106.099C63.1147 102.724 65.8404 99.8577 69.1135 97.7343C75.338 94.141 80.3747 97.0126 80.3747 104.154L80.2244 108.003L81.7279 107.161L127.584 80.6847L127.735 76.8357C127.951 72.9402 129.084 69.1506 131.04 65.7753C132.997 62.3999 135.723 59.534 138.996 57.4106C145.205 53.8322 150.257 56.6889 150.257 63.8305V67.7095C151.937 66.5634 153.507 65.2649 154.948 63.8305C156.432 61.942 157.576 59.8106 158.331 57.5308C158.891 54.6115 159.188 51.6477 159.218 48.6753C159.023 46.7809 157.715 45.563 157.294 43.9092C156.873 42.2553 155.685 37.82 154.948 35.234L154.753 34.5725C154.145 33.2192 153.27 32.0022 152.182 30.9941C150.265 28.9689 148.104 27.191 145.747 25.7019C145.7 25.6733 145.664 25.6313 145.641 25.5816C145.349 25.4782 145.046 25.4027 144.739 25.356H144.303C144.029 25.326 143.751 25.326 143.476 25.356H143.161H143.01L142.815 25.4312H142.71H142.574L142.274 25.5665L141.747 25.8372L141.341 26.0326L140.665 26.3934L140.289 26.6039L139.898 26.8144L139.342 27.1151L138.605 27.5211L137.823 27.9721L136.801 28.5435L135.297 29.3854L134.801 29.9718L133.629 30.6483L133.238 30.8889C133.012 31.0092 132.802 31.1445 132.591 31.2798L131.268 32.0616L130.622 32.4375C118.594 39.5941 101.364 50.3141 94.7782 54.9899C93.3557 56.0452 92.0457 57.2443 90.8691 58.5683L90.5534 58.899L89.4859 60.1169L89.3807 60.2371L88.8394 60.8987L88.1929 61.5452L87.7569 62.1015L87.2758 62.7029C87.0653 62.9585 86.8698 63.2291 86.6593 63.4997L85.9978 64.3717L85.3814 65.1836L83.8779 67.1833L82.9607 68.5214C82.4947 69.1829 82.0286 69.8595 81.5775 70.5361C80.916 71.5284 80.2695 72.5207 79.6531 73.5431L79.0366 74.5053L78.1947 75.8284L77.8037 76.4598L77.037 77.6927L76.6761 78.2941C76.0447 79.3165 75.4733 80.2938 74.9321 81.1808C74.6765 81.6168 74.451 82.0228 74.2104 82.4137C74.1911 82.4618 74.1659 82.5072 74.1352 82.549L73.8796 83.0001C73.8796 83.0001 73.6541 83.406 73.5489 83.5864L72.4814 85.4507L72.2258 85.9168L71.88 86.5483C71.88 86.5483 56.9653 97.5238 53.4171 100.471C49.3932 103.674 46.2008 107.8 44.1104 112.499C43.9902 112.844 43.8849 113.16 43.8097 113.446C43.6518 114.684 43.6619 115.939 43.8398 117.174Z" fill="#546AEB"/>
<path d="M43.8098 117.175C43.8098 117.791 43.9751 118.438 44.0804 119.069C44.329 120.973 44.7672 122.846 45.3884 124.662C45.4065 124.71 45.4378 124.752 45.4786 124.783C45.7494 124.905 46.0314 125 46.3206 125.068H46.4258H46.5311L46.9972 125.143H47.1475H47.5986H48.23H48.8164C50.2641 125.126 51.7076 124.985 53.1314 124.723L53.9433 124.512H54.1538L54.8604 124.302L55.2062 124.196L56.3489 123.79C56.8662 123.603 57.3688 123.376 57.8524 123.114V117.19C58.0686 113.294 59.2012 109.505 61.1579 106.13C63.1147 102.754 65.8405 99.8883 69.1136 97.7648C75.338 94.1715 80.3747 97.0432 80.3747 104.185L80.2244 108.034L81.7279 107.192L127.584 80.7152L127.735 76.8663C127.951 72.9707 129.084 69.1812 131.04 65.8058C132.997 62.4304 135.723 59.5645 138.996 57.4411C145.205 53.8628 150.257 56.7194 150.257 63.861V67.74C151.937 66.594 153.507 65.2955 154.948 63.861C156.432 61.9726 157.576 59.8411 158.331 57.5614C158.891 54.6421 159.188 51.6783 159.218 48.7058C159.023 46.8114 157.715 45.5936 157.294 43.9397C156.873 42.2859 155.685 37.8506 154.948 35.2646L154.753 34.603L154.467 34.8436C146.513 41.5341 144.243 43.4135 139.357 46.4957C132.772 50.6754 113.797 63.9513 110.069 66.5373C106.34 69.1233 91.4705 80.2491 81.8782 84.8949C66.4975 92.4124 54.6951 107.192 53.3118 109.056C51.9286 110.92 48.2601 112.439 44.2909 112.274H43.8398C43.5828 113.897 43.5726 115.549 43.8098 117.175Z" fill="#495DCF"/>
<path d="M4.59865 95.6289C4.6378 97.8803 5.15005 100.098 6.10214 102.139C6.36043 102.798 6.73753 103.405 7.21472 103.928C13.8902 109.777 32.7741 120.271 35.7811 121.699C39.1634 123.205 42.6896 124.364 46.3056 125.158H46.4108H46.5161L46.9822 125.233H47.1325H47.5836H48.215H48.8014C50.2491 125.215 51.6926 125.074 53.1164 124.812L53.9283 124.601H54.1388L54.8455 124.391L55.1913 124.285L56.3339 123.88C56.8512 123.692 57.3538 123.466 57.8374 123.203V117.279C58.0536 113.384 59.1862 109.594 61.1429 106.219C63.0997 102.843 65.8255 99.9774 69.0986 97.854C75.3231 94.2607 80.3598 97.1324 80.3598 104.274L80.2094 108.123L81.7129 107.281L126.081 81.7666L127.585 80.9247L127.735 77.0757C127.951 73.1802 129.084 69.3906 131.04 66.0153C132.997 62.6399 135.723 59.774 138.996 57.6506C145.206 54.0723 150.257 56.9289 150.257 64.0705V67.9495C150.603 67.6939 151.129 67.318 151.761 66.867C152.925 66.0403 154.008 65.1038 154.993 64.0705C156.477 62.182 157.621 60.0506 158.376 57.7709C158.936 54.8515 159.233 51.8878 159.263 48.9153C158.962 50.4188 155.399 53.5912 154.332 54.0121C151.686 54.6135 149.069 48.7499 139.402 53.7716C129.735 58.7932 125.871 65.9799 125.149 71.3324C124.427 76.6848 124.066 80.3533 121.977 81.8568C119.887 83.3603 87.9223 100.981 83.2014 103.206C82.8549 101.484 82.2942 99.8126 81.5325 98.2299C78.3751 92.3212 73.3234 93.0428 69.5045 95.2229C55.8528 103.101 55.7927 114.889 55.5521 116.152C55.3115 117.415 51.8234 118.948 48.1399 119.008C47.8241 119.008 40.6224 116.467 39.3294 116.422C37.6605 116.422 21.9039 108.318 13.5595 102.334C11.7486 101.061 10.0118 99.6858 8.35739 98.2149C5.50075 95.7491 4.76404 95.7341 4.59865 95.6289Z" fill="#4052B5"/>
<path d="M56.4994 116.315C57.8826 100.002 66.5428 94.1989 71.9403 92.5C76.7365 90.9965 82.6001 94.1388 81.8333 102.438C79.112 95.2364 75.2179 94.8004 71.5344 95.8227C67.8508 96.8451 59.8071 103.641 56.4994 116.315Z" fill="#5B73FF"/>
<path d="M126.231 77.7216C126.231 64.0699 132.832 56.6727 138.68 52.9891C139.857 52.186 141.227 51.7135 142.648 51.6208C144.069 51.5282 145.489 51.819 146.76 52.4627C148.03 53.1064 149.105 54.0794 149.871 55.2802C150.637 56.4809 151.066 57.8653 151.114 59.2888C147.581 55.7405 143.206 54.0717 139.718 56.1014C136.23 58.1311 128.787 63.8594 126.231 77.7216Z" fill="#5B73FF"/>
<path d="M123.781 78.4144C123.114 80.0999 121.902 81.5133 120.338 82.4287C112.64 86.9392 87.9075 101.583 87.261 101.568C83.3068 101.463 106.596 86.6385 111.482 84.0375C114.64 82.3235 124.908 75.5878 123.781 78.4144Z" fill="#5B73FF"/>
<path d="M71.9403 86.5494L74.6767 85.0459L138.951 41.0837C138.951 41.0837 145.221 36.8739 150.814 32.3333L152.137 31.2358C150.221 29.2105 148.059 27.4326 145.702 25.9435C144.91 25.625 144.057 25.4913 143.206 25.5525H143.116H142.965L142.59 25.7029C142.244 25.8533 141.793 26.0788 141.221 26.3644L139.718 27.1462L139.162 27.447L137.658 28.3039L136.636 28.8753L135.132 29.7172L134.801 29.9728L133.629 30.6494L133.238 30.89L130.562 32.3934C118.534 39.5501 101.304 50.27 94.7182 54.9459C93.2957 56.0011 91.9858 57.2003 90.8092 58.5242L90.4934 58.855L89.4259 60.0728L89.3207 60.1931L88.7794 60.8546L88.1931 61.5462L87.7571 62.1025L87.2759 62.7039C87.0655 62.9595 86.87 63.2301 86.6595 63.5008L85.998 64.3728L85.3815 65.1847L83.878 67.1843L82.9609 68.5224C82.4948 69.184 82.0287 69.8605 81.5777 70.5371C80.7057 71.8602 79.8487 73.1833 79.0368 74.4612L78.1948 75.7843L77.8039 76.4158L77.0371 77.6487L76.6763 78.2501C76.0448 79.2724 75.4735 80.2497 74.9323 81.1368L74.2106 82.3696C74.1913 82.4177 74.166 82.4632 74.1354 82.505L73.8798 82.956C73.8798 82.956 73.6543 83.3619 73.549 83.5424L72.4816 85.4067C72.3763 85.5721 72.3011 85.7374 72.226 85.8728L71.9403 86.5494Z" fill="#5B84FF"/>
<path d="M62.2315 122.665C58.4752 120.47 58.5113 113.419 62.3123 106.917C66.1132 100.415 72.2396 96.9243 75.9959 99.1202C79.7523 101.316 79.7161 108.367 75.9151 114.869C72.1142 121.371 65.9878 124.861 62.2315 122.665Z" fill="#1F2024"/>
<path d="M148.618 64.9881C148.432 68.3338 147.459 71.5886 145.78 74.4882C144.1 77.3878 141.761 79.8506 138.951 81.6769C133.614 84.759 129.268 82.2933 129.268 76.159C129.458 72.8122 130.433 69.5571 132.115 66.6576C133.798 63.758 136.139 61.2957 138.951 59.4702C144.288 56.3881 148.618 58.8538 148.618 64.9881Z" fill="#1F2024"/>
<path d="M84.6597 104.17C86.088 104.17 113.437 88.1276 125.254 81.1815L125.389 81.0912V80.9409C125.295 71.6906 128.774 62.7607 135.102 56.013C137.195 53.2496 138.728 50.1033 139.612 46.7514C140.033 43.7444 133.704 35.821 133.433 35.4902L133.027 35.821C133.102 35.8962 139.477 43.8647 139.041 46.6762C138.179 49.9404 136.688 53.0048 134.651 55.6972C128.271 62.5132 124.747 71.5151 124.803 80.8507C109.768 89.7514 87.2157 102.847 84.8401 103.674C84.359 102.17 81.8332 91.8863 82.1489 86.6091C82.1489 85.6619 84.6297 79.1668 85.5618 76.7461L85.0807 76.5657C84.9454 76.9266 81.6978 85.3461 81.6227 86.564C81.2769 92.172 84.0433 103.238 84.4342 104.065V104.17H84.5545H84.6597Z" fill="#4255BA"/>
<path d="M112.64 88.171L113.151 88.0658C112.851 86.4946 112.805 84.8854 113.016 83.2997C113.632 79.7665 112.88 66.6711 112.535 65.3781C112.189 64.085 110.565 55.7106 110.55 55.6204L110.039 55.7256C110.039 56.0714 111.663 64.1001 112.023 65.5134C112.384 66.9266 113.121 79.7214 112.504 83.2095C112.272 84.8593 112.317 86.5364 112.64 88.171Z" fill="#4255BA"/>
<path d="M130.486 32.497C131.719 31.8505 139.838 27.6107 141.011 27.8362C144.532 28.7115 147.858 30.2416 150.814 32.3467C152.068 33.1834 153.273 34.092 154.422 35.068L154.768 35.3687L154.903 35.489L154.708 34.8274C154.1 33.4742 153.225 32.2572 152.137 31.2491C150.22 29.2239 148.059 27.446 145.702 25.9568C145.655 25.9282 145.619 25.8863 145.596 25.8365C145.303 25.7332 145.001 25.6577 144.694 25.611H144.258H143.792C143.567 25.5873 143.341 25.5873 143.116 25.611H142.965L142.77 25.6862H142.665H142.529L142.229 25.8215L141.702 26.0921L141.296 26.2876L140.62 26.6484L140.244 26.8589L139.853 27.0694L139.297 27.3701L138.56 27.776L137.778 28.2271L136.756 28.7984L135.252 29.6404L134.801 29.9711L133.629 30.6477L133.238 30.8883C133.012 31.0086 132.802 31.1439 132.591 31.2792L131.268 32.061L130.486 32.497Z" fill="#2E2F35"/>
<path d="M56.3942 118.224V123.998C56.9115 123.81 57.4141 123.584 57.8977 123.321V117.397C58.1139 113.502 59.2465 109.712 61.2033 106.337C63.16 102.962 65.8858 100.096 69.1589 97.9722C75.3834 94.3789 80.4201 97.2505 80.4201 104.392L80.2697 108.241L81.7732 107.399L81.9236 103.55C81.9236 95.4915 76.2404 92.2439 69.204 96.3033C62.1677 100.363 56.3942 110.166 56.3942 118.224Z" fill="#495DCF"/>
<path d="M126.231 77.9183L126.081 81.7672L127.585 80.9253L127.735 77.0763C127.951 73.1808 129.084 69.3912 131.04 66.0159C132.997 62.6405 135.723 59.7746 138.996 57.6512C145.206 54.0729 150.257 56.9295 150.257 64.0711V67.9501C150.603 67.6945 151.129 67.3186 151.761 66.8676V63.2291C151.761 55.1704 146.062 51.9229 139.041 55.9823C132.02 60.0417 126.231 69.8596 126.231 77.9183Z" fill="#495DCF"/>
<path d="M74.6615 84.9837C74.6615 84.9837 86.1933 80.9093 87.5765 80.1124C88.9598 79.3156 88.4636 79.6764 124.953 53.3051L138.921 41.0817C138.921 41.0817 133.659 32.5268 131.945 33.1733C130.441 33.7296 101.454 51.4859 93.2598 57.4848C85.4115 64.8519 74.6615 84.9837 74.6615 84.9837Z" fill="#2E2F35"/>
<path d="M76.4958 83.4511C81.0063 81.8574 86.3587 79.8577 87.1857 79.3766C88.3885 78.685 88.4636 78.6399 124.397 52.6745L137.808 40.9172C135.508 37.2787 133.027 34.2116 132.17 33.9861C130.231 34.9333 102.1 52.028 93.786 58.1322C87.5766 64.0109 79.3825 78.249 76.4958 83.4511Z" fill="#3D3C51"/>
<path d="M108.039 48.2552L109.603 63.7562L112.97 61.4709L109.573 47.293L108.039 48.2552Z" fill="#2E2F35"/>
<path d="M91.5005 59.6215L83.2614 81.8732L86.7194 80.6253L92.8386 58.5239L91.5005 59.6215Z" fill="#2E2F35"/>
<path d="M35.5706 104.061C37.5084 102.658 39.7777 101.782 42.1559 101.521C46.3056 101.054 52.6804 100.378 53.4923 100.468C54.8003 100.618 54.244 104.843 53.4923 106.647C52.7405 108.452 45.9748 109.925 43.5993 109.654C40.2837 109.058 37.0561 108.048 33.992 106.647C33.8473 106.588 33.7222 106.489 33.6307 106.362C33.5392 106.235 33.485 106.085 33.474 105.928C33.4631 105.772 33.4959 105.616 33.5688 105.477C33.6417 105.339 33.7518 105.223 33.8867 105.144L35.5706 104.061Z" fill="#B7C8D9"/>
<path d="M33.7664 106.647C33.6779 106.562 33.6094 106.459 33.566 106.344C33.5226 106.229 33.5053 106.106 33.5154 105.984C33.5255 105.861 33.5627 105.743 33.6243 105.636C33.6859 105.53 33.7704 105.439 33.8717 105.37L35.5706 104.061C37.5084 102.658 39.7777 101.782 42.1559 101.521C46.3056 101.054 52.6804 100.378 53.4923 100.468C54.3042 100.558 54.3793 101.972 54.1989 103.61C53.2492 104.252 52.2426 104.806 51.1919 105.264C49.8757 105.863 48.3909 105.98 46.9972 105.595C42.9077 104.964 42.8325 104.708 40.5923 104.843C38.2641 105.223 35.9782 105.827 33.7664 106.647Z" fill="#9BACBF"/>
<path d="M12.2514 76.8201V78.0229C12.2183 80.3364 12.5533 82.6404 13.2437 84.8487C13.7867 86.9446 13.8279 89.1389 13.364 91.2536C13.2437 91.7949 13.1234 92.291 13.0332 92.7571C12.9981 92.8947 12.9309 93.0221 12.8373 93.1289C12.7436 93.2357 12.626 93.3188 12.4942 93.3716C12.3623 93.4243 12.2198 93.4452 12.0783 93.4325C11.9369 93.4198 11.8004 93.3738 11.6801 93.2984C9.43153 91.7783 7.53467 89.7943 6.11713 87.4798C5.88182 86.6589 5.94029 85.7815 6.2825 84.9991C7.72514 81.9128 9.75212 79.1353 12.2514 76.8201Z" fill="#B7C8D9"/>
<path d="M12.2514 76.8201V78.0229C12.2183 80.3364 12.5533 82.6404 13.2437 84.8487C13.7867 86.9446 13.8279 89.1389 13.364 91.2536C13.2437 91.7949 13.1234 92.291 13.0332 92.7571C12.9957 92.8995 12.9292 93.0326 12.8377 93.148C12.6423 89.69 10.778 86.7131 10.3419 83.9617C10.1164 82.4582 11.0486 79.5865 11.9657 77.1358L12.2514 76.8201Z" fill="#9BACBF"/>
<path d="M7.78606 103.76C7.01928 102.257 6.10216 97.1899 7.28992 98.2724C7.4102 98.3777 9.50005 102.272 9.81579 102.618C13.4994 106.436 33.1951 118.179 36.4427 118.585C39.6902 118.991 40.5623 117.382 41.0885 117.953C41.6147 118.525 41.4042 121.998 42.186 122.885C42.9679 123.772 37.7808 121.922 33.5109 119.968C32.8193 119.652 15.4539 110.21 7.78606 103.76Z" fill="#2E2F35"/>
<path d="M88.5537 58.2971L70.602 84.0069C66.8127 84.4483 62.9735 84.1262 59.3107 83.0597C58.4537 82.8041 64.7684 85.4051 64.7684 85.4051L71.3086 86.5478C71.3086 86.5478 86.0729 61.665 90.1775 58.2971C89.967 57.6055 88.5537 58.2971 88.5537 58.2971Z" fill="#2E2F35"/>
<path d="M100.221 5.54038C107.122 1.54108 111.888 0.533742 114.173 0.714161C116.459 0.89458 123.66 4.02185 130.426 8.00611C137.192 11.9904 144.288 16.9369 145.792 19.0568C147.295 21.1767 146.513 22.3946 144.814 23.8078C142.814 25.2441 140.736 26.5692 138.59 27.7771C136.809 24.7908 134.508 22.148 131.794 19.9739C125.765 15.8537 119.455 12.1611 112.91 8.92324C110.158 7.75965 107.33 6.78512 104.446 6.00646C102.671 5.72079 100.221 5.54038 100.221 5.54038Z" fill="#2E2F35"/>
<path d="M32.5636 60.5684C32.5636 60.5684 32.3983 66.7779 34.0671 68.2813C41.8327 75.2516 51.0057 80.4714 60.9647 83.5869C61.957 83.8876 68.828 84.5642 68.828 84.5642L86.043 58.5387C86.043 58.5387 81.9384 56.8698 81.0213 56.4639C73.0377 52.9908 58.8898 45.3681 53.8682 40.7975C53.2421 40.1766 52.6966 39.4796 52.2444 38.7227C52.2444 38.7227 40.9532 50.1191 32.5636 60.5684Z" fill="#3D3C51"/>
<path d="M63.0093 50.3733L64.6932 51.3506C65.6572 51.8987 66.5862 52.5062 67.4747 53.1698C67.6286 53.2898 67.7455 53.4509 67.812 53.6344C67.8785 53.8179 67.8918 54.0164 67.8506 54.2072L67.6551 55.1845C67.6474 55.2623 67.6214 55.3371 67.5792 55.403C67.5371 55.4688 67.4799 55.5238 67.4125 55.5633C67.3451 55.6029 67.2693 55.626 67.1913 55.6307C67.1132 55.6354 67.0352 55.6216 66.9635 55.5904C65.9786 55.172 65.0197 54.695 64.0918 54.1621L62.4079 53.1848C61.4458 52.6336 60.517 52.0261 59.6264 51.3656C59.4738 51.244 59.3569 51.0834 59.2881 50.9007C59.2193 50.7181 59.2011 50.5203 59.2355 50.3282L59.446 49.3509C59.4537 49.2731 59.4797 49.1983 59.5219 49.1324C59.5641 49.0666 59.6212 49.0116 59.6886 48.9721C59.756 48.9325 59.8318 48.9094 59.9099 48.9047C59.9879 48.9 60.0659 48.9138 60.1376 48.945C61.1241 49.3599 62.0832 49.837 63.0093 50.3733Z" fill="#585775"/>
<path d="M62.6334 51.6208C62.6334 51.1397 62.7537 49.8167 62.7537 49.8167H64.4226C64.4226 49.8167 64.2422 51.696 64.2271 51.7712C64.2121 51.8464 63.716 52.4177 63.5355 52.4027C63.3551 52.3876 62.6334 52.1471 62.6334 51.6208Z" fill="#585775"/>
<path d="M62.904 49.411C62.8424 49.4919 62.7994 49.5854 62.7781 49.6848C62.7567 49.7843 62.7576 49.8872 62.7805 49.9862C62.8035 50.0853 62.848 50.1781 62.911 50.258C62.9739 50.3379 63.0537 50.4029 63.1446 50.4484C63.3325 50.556 63.5529 50.5925 63.7654 50.5511C63.978 50.5097 64.1685 50.3932 64.3023 50.2229C64.3641 50.1408 64.4072 50.0461 64.4286 49.9456C64.45 49.845 64.4492 49.741 64.4263 49.6408C64.4034 49.5406 64.3589 49.4466 64.296 49.3654C64.233 49.2842 64.1531 49.2176 64.0617 49.1705C63.8707 49.0705 63.651 49.0398 63.4399 49.0837C63.2288 49.1276 63.0394 49.2432 62.904 49.411Z" fill="#626082"/>
<path d="M72.7219 24.2585L72.3912 24.469L72.7219 24.2585Z" fill="#1F2024"/>
<path d="M54.7853 36.2113L41.0133 57.4858C37.2395 58.9141 32.4434 60.598 32.4434 60.598C32.4434 60.598 47.4783 42.9771 55.4168 35.6099L56.1084 35.1138L54.7853 36.2113Z" fill="#626082"/>
<path d="M56.1083 35.1139C59.4461 32.7233 65.2947 28.9345 71.4289 25.0706L66.738 41.2933L70.151 38.9929L73.0076 24.0933C83.0209 17.8087 93.2747 11.6143 94.1468 11.2835C95.8457 10.637 96.7478 16.681 96.7478 16.681L84.0433 29.6261C84.0433 29.6261 46.8017 54.9149 45.4185 55.7118L44.5916 56.0876L56.1083 35.1139Z" fill="#626082"/>
<path d="M86.0429 58.538C86.0429 58.538 81.9384 56.8691 81.0212 56.4632C73.0377 52.9901 58.8898 45.3674 53.8681 40.7968C53.2421 40.1759 52.6965 39.4789 52.2443 38.722L50.5153 40.4961L49.1772 39.7293L65.1593 28.1975L100.747 48.7653L85.0356 60.0415L86.0429 58.538Z" fill="#2E2F35"/>
<path d="M105.979 43.6681L102.581 45.9083C101.719 46.5573 100.675 46.9194 99.5961 46.9437C98.5172 46.968 97.4578 46.6532 96.5673 46.0436L68.5421 29.8209C68.224 29.7513 67.9332 29.59 67.7055 29.3571C67.4779 29.1242 67.3234 28.8298 67.261 28.5101C67.1987 28.1904 67.2313 27.8595 67.3547 27.5581C67.4782 27.2567 67.6871 26.998 67.9558 26.8139L72.9023 23.4912L69.4142 24.7541L62.5432 29.5503L99.89 49.3814L107.844 43.9387L105.979 43.6681Z" fill="#2E2F35"/>
<path d="M23.663 99.6894C22.5337 99.6894 21.6183 98.7739 21.6183 97.6446C21.6183 96.5153 22.5337 95.5999 23.663 95.5999C24.7923 95.5999 25.7078 96.5153 25.7078 97.6446C25.7078 98.7739 24.7923 99.6894 23.663 99.6894Z" fill="#495DCF"/>
<path d="M148.062 40.3612L150.362 40.8874C150.362 40.8874 154.046 38.3615 154.798 37.685C155.55 37.0084 155.204 36.0462 155.114 35.3395C154.578 34.2524 153.901 33.2412 153.099 32.3325C153.099 32.3325 154.317 34.1969 153.911 35.3395C153.505 36.4822 148.062 40.3612 148.062 40.3612Z" fill="#FF4566"/>
<path d="M129.268 76.1564C129.268 82.2906 133.614 84.7563 138.951 81.6742C141.761 79.8479 144.1 77.3851 145.78 74.4855C147.459 71.5859 148.432 68.3312 148.618 64.9854C148.618 58.8511 144.288 56.3854 138.951 59.4676C136.139 61.293 133.798 63.7554 132.115 66.6549C130.433 69.5544 129.458 72.8095 129.268 76.1564Z" fill="#393843"/>
<path d="M129.885 76.0512C129.885 81.9449 134.05 84.3204 139.192 81.3585C141.893 79.5987 144.142 77.2285 145.759 74.4393C147.376 71.65 148.314 68.5198 148.498 65.3012C148.498 59.4075 144.319 57.032 139.192 59.9939C136.485 61.7484 134.232 64.1173 132.615 66.9077C130.998 69.698 130.062 72.8309 129.885 76.0512Z" fill="#2D2C37"/>
<path d="M131.193 75.314C131.193 80.3356 134.741 82.3653 139.116 79.8244C141.42 78.3274 143.337 76.3084 144.714 73.9311C146.091 71.5539 146.888 68.8855 147.04 66.1426C147.04 61.1209 143.491 59.1063 139.116 61.6321C136.812 63.1282 134.893 65.1471 133.517 67.5245C132.14 69.9019 131.344 72.5708 131.193 75.314Z" fill="#504F58"/>
<path d="M131.433 74.7879C131.433 79.554 134.801 81.4634 138.951 79.0729C141.135 77.6568 142.955 75.7449 144.261 73.4929C145.568 71.2408 146.324 68.7122 146.468 66.1127C146.468 61.3617 143.1 59.4372 138.951 61.8428C136.768 63.2574 134.95 65.1669 133.644 67.4161C132.337 69.6654 131.58 72.191 131.433 74.7879Z" fill="#BABABE"/>
<path d="M145.927 67.5569C145.484 70.6494 144.146 73.5448 142.078 75.8863C139.913 78.3671 137.477 79.615 135.508 79.4947C134.663 79.4555 133.864 79.1015 133.268 78.5024C133.057 78.3063 132.88 78.0779 132.741 77.8258C132.706 77.7843 132.676 77.7389 132.651 77.6905C132.538 77.5044 132.442 77.3081 132.365 77.1042C132.257 76.8245 132.167 76.5382 132.095 76.2471C131.972 75.6841 131.912 75.1094 131.914 74.5332C131.914 74.2475 131.914 73.9618 131.914 73.6912V73.2552V72.9695V72.6989C131.955 72.4206 132.01 72.1445 132.08 71.872C132.106 71.7395 132.141 71.6089 132.185 71.4811L132.275 71.1353C132.275 70.9849 132.38 70.8045 132.441 70.6541C132.474 70.5317 132.514 70.4112 132.561 70.2933C132.749 69.781 132.965 69.2791 133.207 68.7898L133.373 68.4741C133.553 68.1283 133.734 67.7825 133.944 67.4367L134.094 67.1961C134.186 67.0352 134.286 66.8796 134.395 66.73C134.781 66.1528 135.203 65.6004 135.658 65.0762C135.878 64.8115 136.114 64.5605 136.365 64.3244C136.467 64.2068 136.578 64.0963 136.696 63.9937L136.801 63.9035L137.071 63.6629C138.036 62.7823 139.172 62.1116 140.409 61.6933C141.229 61.3689 142.136 61.3417 142.974 61.6163C143.811 61.8909 144.526 62.4501 144.995 63.1968C145.03 63.2435 145.061 63.2939 145.085 63.3472C145.275 63.6692 145.426 64.0123 145.536 64.3695C145.869 65.3973 146.001 66.4793 145.927 67.5569Z" fill="url(#paint0_linear_4154_12108)"/>
<path d="M136.635 65.2716V67.3915L134.32 67.1509C134.412 66.9901 134.512 66.8345 134.621 66.6849C135.007 66.1076 135.428 65.5552 135.884 65.031C136.104 64.7663 136.34 64.5153 136.59 64.2793C136.693 64.1616 136.804 64.0511 136.921 63.9485L137.026 63.8583L137.297 63.6177C138.261 62.7371 139.398 62.0664 140.635 61.6482C141.454 61.3238 142.362 61.2965 143.199 61.5711C144.037 61.8458 144.752 62.4049 145.22 63.1517C143.747 62.5641 142.127 62.4526 140.588 62.8328C139.048 63.213 137.666 64.0659 136.635 65.2716Z" fill="#393843"/>
<path d="M145.476 67.5559C144.498 68.836 143.23 69.8665 141.777 70.5629C139.913 71.1944 136.289 75.5695 136.289 75.5695L136.575 67.3755C140.815 67.7063 145.476 67.5559 145.476 67.5559Z" fill="#393843"/>
<path d="M141.732 66.052C141.345 68.7071 140.196 71.193 138.424 73.2086C137.544 74.2582 136.46 75.1176 135.237 75.7345C134.479 76.1192 133.637 76.3102 132.786 76.2908H132.621C132.443 76.2763 132.267 76.2462 132.095 76.2006C131.972 75.6375 131.912 75.0628 131.914 74.4866C131.914 74.2009 131.914 73.9152 131.914 73.6446V73.2086V72.9229V72.6523C131.955 72.374 132.01 72.0979 132.08 71.8254C132.106 71.6929 132.141 71.5623 132.185 71.4345L132.275 71.0887C132.275 70.9383 132.38 70.7579 132.441 70.6075C132.474 70.4851 132.514 70.3646 132.561 70.2467C132.749 69.7344 132.965 69.2325 133.207 68.7432L133.373 68.4275C133.553 68.0817 133.734 67.7359 133.944 67.3901C134.155 67.0443 134.23 66.924 134.395 66.6834C134.781 66.1062 135.203 65.5538 135.658 65.0296C135.878 64.7649 136.114 64.5139 136.365 64.2778C136.467 64.1602 136.578 64.0497 136.695 63.9471L136.801 63.8568L137.071 63.6163C138.036 62.7357 139.172 62.065 140.409 61.6467C140.635 61.8686 140.827 62.1217 140.98 62.3985C141.144 62.6732 141.275 62.9658 141.371 63.2705C141.508 63.7609 141.589 64.2653 141.612 64.774C141.678 65.1971 141.719 65.6239 141.732 66.052Z" fill="url(#paint1_linear_4154_12108)"/>
<path d="M136.305 70.0512L136.485 71.69L136.305 70.0362L135.027 69.2844L134.095 67.375C134.23 67.1495 134.38 66.9089 134.546 66.6684C134.931 66.0911 135.353 65.5387 135.808 65.0145C136.029 64.7498 136.265 64.4988 136.515 64.2628C136.618 64.1451 136.728 64.0346 136.846 63.932L136.951 63.8418L137.417 64.1275L135.824 66.0519L136.305 70.0512Z" fill="url(#paint2_linear_4154_12108)"/>
<path d="M136.305 70.0517L136.485 71.6905L135.222 75.78L134.651 77.6293C134.455 78.0353 135.027 78.9524 134.771 78.9073C134.043 78.6353 133.355 78.2661 132.726 77.8097C132.691 77.7683 132.661 77.7228 132.636 77.6744C132.523 77.4883 132.427 77.292 132.35 77.0881C132.367 76.9841 132.397 76.883 132.441 76.7874L132.606 76.3213L134.906 69.5105L135.027 69.2849L136.305 70.0517Z" fill="url(#paint3_linear_4154_12108)"/>
<path d="M144.063 63.9328C143.998 63.8973 143.926 63.8787 143.852 63.8787C143.778 63.8787 143.706 63.8973 143.642 63.9328L137.507 66.5339L137.327 66.6241V69.9318L138.695 69.15L143.822 67.1954C143.993 67.0892 144.137 66.9439 144.242 66.7714C144.346 66.599 144.409 66.4042 144.423 66.2031C144.423 65.4814 145.566 65.3161 145.431 64.6996C144.998 64.4043 144.54 64.1477 144.063 63.9328Z" fill="url(#paint4_linear_4154_12108)"/>
<path d="M137.598 72.669L134.922 67.1813C134.869 67.0151 134.86 66.8384 134.894 66.6677C134.928 66.4969 135.005 66.3374 135.117 66.204C135.373 65.8582 135.643 65.5274 135.929 65.1967C136.195 64.8781 136.481 64.5768 136.786 64.2946C137.056 64.024 137.372 63.9939 137.492 64.2194L140.169 69.7072L137.598 72.669Z" fill="#DFDFE3"/>
<path d="M138.605 70.7135V67.4208L138.77 67.3155L144.92 64.7145C145.19 64.5642 145.446 64.6393 145.506 64.91C145.642 65.5775 145.692 66.2595 145.656 66.9397C145.635 67.139 145.57 67.3313 145.466 67.5028C145.362 67.6742 145.222 67.8208 145.055 67.932L139.958 69.9316L138.605 70.7135Z" fill="#DFDFE3"/>
<path d="M133.764 78.3831C133.583 78.2477 133.583 77.9019 133.764 77.5411L136.23 70.2642L136.335 70.0537L138.62 70.7153L137.808 72.4443L135.959 78.4582C135.779 78.8492 135.418 79.1198 135.147 79.0747C134.638 78.9551 134.165 78.7182 133.764 78.3831Z" fill="#DFDFE3"/>
<path d="M135.132 78.2028C135.171 78.1553 135.206 78.105 135.237 78.0525L137.117 72.0385L139.462 69.3472L144.679 67.2875C144.778 67.1949 144.846 67.0742 144.875 66.9416C144.898 66.536 144.898 66.1294 144.875 65.7238L138.53 68.4301L137.117 65.1375C136.921 65.3329 136.741 65.5434 136.545 65.7539C136.35 65.9644 136.034 66.3703 135.793 66.7011C135.747 66.7595 135.712 66.8257 135.688 66.8965L137.192 70.2644L134.531 77.9322C134.719 78.0463 134.921 78.1372 135.132 78.2028Z" fill="#4B4A4B"/>
<path d="M59.4462 116.483C59.4462 122.617 63.7762 125.083 69.1136 122.001C71.926 120.176 74.2685 117.714 75.9508 114.814C77.6332 111.915 78.608 108.659 78.7961 105.312C78.7961 99.1778 74.4661 96.712 69.1136 99.7942C66.304 101.62 63.9645 104.083 62.2848 106.983C60.6052 109.883 59.6326 113.137 59.4462 116.483Z" fill="#393843"/>
<path d="M60.0476 116.362C60.0476 122.271 64.2123 124.646 69.3542 121.67C72.0584 119.916 74.3107 117.55 75.9278 114.762C77.545 111.975 78.4814 108.845 78.6609 105.627C78.6609 99.7185 74.4962 97.3429 69.3542 100.32C66.6501 102.073 64.3978 104.439 62.7807 107.227C61.1635 110.015 60.2271 113.144 60.0476 116.362Z" fill="#2D2C37"/>
<path d="M61.3556 115.672C61.3556 120.694 64.9038 122.709 69.279 120.183C71.5812 118.688 73.4985 116.672 74.8752 114.297C76.2519 111.923 77.0492 109.257 77.2024 106.516C77.2024 101.494 73.6541 99.4798 69.279 102.006C66.9767 103.5 65.0594 105.517 63.6827 107.891C62.306 110.266 61.5087 112.932 61.3556 115.672Z" fill="#504F58"/>
<path d="M61.611 115.116C61.611 119.882 64.9638 121.791 69.1285 119.401C71.3132 117.985 73.1327 116.073 74.439 113.821C75.7453 111.569 76.5015 109.04 76.646 106.441C76.646 101.69 73.2782 99.7651 69.1285 102.156C66.9438 103.572 65.1243 105.484 63.818 107.736C62.5117 109.988 61.7556 112.516 61.611 115.116Z" fill="#BABABE"/>
<path d="M76.0897 107.884C75.6433 110.975 74.3058 113.87 72.2407 116.213C70.1509 118.679 67.64 119.942 65.6404 119.807C65.0752 119.787 64.5241 119.625 64.038 119.336C63.5519 119.047 63.1464 118.64 62.8589 118.153L62.7687 118.003C62.6556 117.816 62.56 117.62 62.483 117.416C62.3749 117.142 62.2845 116.86 62.2124 116.574C62.089 116.006 62.0285 115.426 62.032 114.845C62.0174 114.565 62.0174 114.284 62.032 114.003C62.0165 113.863 62.0165 113.722 62.032 113.582C62.032 113.477 62.032 113.387 62.032 113.282V113.011C62.032 112.74 62.1372 112.47 62.1974 112.199C62.2395 112.066 62.2746 111.93 62.3026 111.793C62.3287 111.68 62.3639 111.57 62.4079 111.462C62.4079 111.297 62.4981 111.132 62.5582 110.966C62.5915 110.844 62.6317 110.723 62.6785 110.605C62.8714 110.092 63.0923 109.591 63.34 109.102C63.384 108.994 63.4342 108.888 63.4904 108.786C63.6708 108.44 63.8512 108.11 64.0617 107.764L64.2121 107.508L64.5128 107.057C64.9035 106.478 65.325 105.921 65.7757 105.388C66.0162 105.133 66.2418 104.877 66.4823 104.651L66.8131 104.321L66.9183 104.215L67.189 103.975C68.1627 103.103 69.3034 102.438 70.5418 102.02C71.352 101.716 72.2423 101.699 73.0636 101.972C73.8848 102.246 74.5869 102.794 75.0523 103.524C75.0788 103.571 75.1089 103.616 75.1425 103.659C75.3211 103.99 75.4671 104.337 75.5785 104.697C75.9593 105.714 76.1331 106.798 76.0897 107.884Z" fill="url(#paint5_linear_4154_12108)"/>
<path d="M66.7982 105.599V107.703C66.0013 107.703 65.2947 107.568 64.4828 107.463L64.7835 107.012C65.1742 106.433 65.5958 105.876 66.0464 105.343C66.287 105.087 66.5125 104.832 66.7531 104.606L67.0838 104.276L67.1891 104.17L67.4597 103.93C68.4335 103.058 69.5741 102.393 70.8125 101.975C71.6227 101.67 72.5131 101.654 73.3343 101.927C74.1555 102.201 74.8576 102.749 75.323 103.479C73.8573 102.907 72.2504 102.804 70.7237 103.184C69.197 103.564 67.8255 104.407 66.7982 105.599Z" fill="#393843"/>
<path d="M75.6387 107.855C74.6671 109.135 73.4044 110.166 71.9551 110.862C70.0757 111.508 66.4523 115.883 66.4523 115.883L66.738 107.674C69.7 107.883 72.6706 107.943 75.6387 107.855Z" fill="#393843"/>
<path d="M71.8948 106.442C71.5164 109.095 70.3661 111.579 68.5871 113.583C67.7113 114.641 66.6261 115.506 65.3997 116.124C64.6443 116.518 63.8002 116.709 62.949 116.681H62.7836C62.6059 116.666 62.4298 116.636 62.2574 116.59C62.134 116.022 62.0735 115.443 62.077 114.861C62.0624 114.581 62.0624 114.3 62.077 114.019C62.0615 113.88 62.0615 113.738 62.077 113.599C62.077 113.493 62.077 113.403 62.077 113.298V113.027C62.077 112.757 62.1822 112.486 62.2424 112.215C62.2845 112.082 62.3196 111.946 62.3476 111.809C62.3737 111.696 62.4089 111.586 62.4529 111.479C62.4529 111.313 62.5431 111.148 62.6032 110.982C62.6365 110.86 62.6767 110.74 62.7235 110.622C62.9164 110.109 63.1373 109.607 63.385 109.118C63.429 109.01 63.4792 108.905 63.5354 108.802C63.7158 108.457 63.8962 108.126 64.1067 107.78C64.3172 107.434 64.4074 107.299 64.5578 107.073C64.9485 106.495 65.3701 105.938 65.8207 105.404C66.0613 105.149 66.2868 104.893 66.5273 104.668L66.8581 104.337L66.9633 104.232L67.234 103.991C68.2077 103.119 69.3484 102.454 70.5868 102.037C70.8087 102.256 71.0007 102.504 71.1581 102.773C71.351 103.048 71.5171 103.34 71.6543 103.645C71.7926 104.135 71.8733 104.64 71.8948 105.149C71.9218 105.579 71.9218 106.011 71.8948 106.442Z" fill="url(#paint6_linear_4154_12108)"/>
<path d="M66.4824 110.381L66.6628 112.02L66.4824 110.366L65.2044 109.614L64.2722 107.704C64.4076 107.464 64.5729 107.223 64.7233 106.998C65.114 106.419 65.5356 105.862 65.9862 105.329C66.2268 105.073 66.4523 104.818 66.6929 104.592L67.0236 104.262L67.1289 104.156L67.595 104.457L65.9862 106.306L66.4824 110.381Z" fill="url(#paint7_linear_4154_12108)"/>
<path d="M66.4824 110.381L66.6628 112.02L65.3999 116.109L64.8286 117.958C64.6331 118.364 65.2045 119.281 64.9489 119.221C64.224 118.949 63.5368 118.585 62.9041 118.139L62.8139 117.988C62.7008 117.802 62.6052 117.606 62.5282 117.402C62.5519 117.322 62.5874 117.246 62.6335 117.177L62.7838 116.71L65.0992 109.9L65.2044 109.674L66.4824 110.381Z" fill="url(#paint8_linear_4154_12108)"/>
<path d="M74.2256 104.247C74.1634 104.213 74.0936 104.195 74.0226 104.195C73.9517 104.195 73.8818 104.213 73.8197 104.247L67.6704 106.848L67.49 106.938V110.246L68.8581 109.449L73.955 107.465C74.1216 107.351 74.2607 107.202 74.3622 107.027C74.4636 106.853 74.5248 106.658 74.5413 106.457C74.5413 105.736 75.684 105.585 75.5487 104.954C75.1318 104.676 74.6887 104.439 74.2256 104.247Z" fill="url(#paint9_linear_4154_12108)"/>
<path d="M67.7606 112.979L65.0843 107.492C65.0323 107.325 65.0229 107.149 65.057 106.978C65.0912 106.807 65.1678 106.648 65.2798 106.514C65.5404 106.174 65.811 105.843 66.0917 105.522C66.3581 105.204 66.6443 104.902 66.9487 104.62C67.2343 104.349 67.535 104.319 67.6704 104.545L70.3315 110.033L67.7606 112.979Z" fill="#DFDFE3"/>
<path d="M68.7829 111.04V107.747L68.9483 107.642L75.0976 105.041C75.3832 104.876 75.6238 104.966 75.6839 105.236C75.8201 105.904 75.8706 106.586 75.8343 107.266C75.816 107.466 75.7524 107.66 75.6482 107.832C75.544 108.004 75.4019 108.15 75.2329 108.259L70.1511 110.258L68.7829 111.04Z" fill="#DFDFE3"/>
<path d="M63.9265 118.677C63.7461 118.542 63.7461 118.181 63.9265 117.835L66.3923 110.558L66.4975 110.348L68.7979 111.009L67.9709 112.738L66.1367 118.752C65.9412 119.158 65.5804 119.429 65.3248 119.369C64.8075 119.261 64.3263 119.023 63.9265 118.677Z" fill="#DFDFE3"/>
<path d="M65.3099 118.512C65.3498 118.469 65.3805 118.417 65.4001 118.362L67.2794 112.348L69.6249 109.656L74.842 107.597C74.9499 107.511 75.02 107.387 75.0375 107.251C75.0679 106.845 75.0679 106.438 75.0375 106.033L68.6476 108.724L67.2343 105.432C67.0389 105.627 66.8585 105.823 66.6781 106.033C66.4976 106.244 66.1518 106.664 65.9113 106.995C65.862 107.05 65.8305 107.118 65.8211 107.191L67.3246 110.559L64.6634 118.226C64.8618 118.356 65.0802 118.453 65.3099 118.512Z" fill="#4B4A4B"/>
<path d="M6.05689 85.6014C6.10717 85.3586 6.18275 85.1218 6.28241 84.8947C7.74505 81.8261 9.78719 79.0693 12.2964 76.7759C11.9316 77.9114 11.4688 79.0131 10.9132 80.0685C9.13595 81.7675 7.51098 83.6188 6.05689 85.6014Z" fill="#F7FBFF"/>
<g style="mix-blend-mode:screen">
<path d="M12.5821 81.8728C12.7325 82.7148 12.943 83.7071 13.2437 84.8798C13.7867 86.9756 13.8279 89.1699 13.364 91.2847C13.2437 91.8259 13.1234 92.3221 13.0332 92.7882C13.0023 92.925 12.9389 93.0525 12.8483 93.1596C12.7577 93.2667 12.6426 93.3504 12.5127 93.4035C12.3828 93.4567 12.242 93.4777 12.1023 93.4648C11.9626 93.4519 11.8281 93.4054 11.7101 93.3294C10.454 92.2491 9.50059 90.8605 8.94369 89.3001C8.74824 87.7966 10.1164 86.0676 12.5821 81.963V81.8728Z" fill="#565E66"/>
</g>
<g style="mix-blend-mode:screen">
<path d="M33.6613 106.47C33.5453 106.289 33.5039 106.071 33.546 105.86C33.5881 105.65 33.7103 105.464 33.8868 105.342L35.5708 104.064C37.5085 102.661 39.7778 101.785 42.1561 101.523C44.3211 101.268 47.0725 100.982 49.3428 100.757C48.561 101.538 44.5015 105.553 42.9529 106.906C41.4043 108.259 35.4354 107.447 33.9319 106.74L33.7214 106.575C33.6984 106.542 33.6782 106.507 33.6613 106.47Z" fill="#565E66"/>
</g>
<path d="M40.5922 104.634V104.017C40.5918 103.732 40.7008 103.458 40.8966 103.251C41.0924 103.044 41.3602 102.92 41.6447 102.905L48.6209 102.514C48.7759 102.506 48.931 102.529 49.0767 102.583C49.2223 102.637 49.3555 102.72 49.4681 102.826C49.5806 102.933 49.6702 103.062 49.7313 103.205C49.7925 103.348 49.8239 103.501 49.8237 103.656V104.544C49.8249 104.812 49.7698 105.078 49.662 105.324C49.5542 105.57 49.3961 105.791 49.1978 105.972C48.9996 106.154 48.7655 106.291 48.5108 106.377C48.2561 106.462 47.9863 106.493 47.7188 106.468L41.7048 105.882C41.3992 105.845 41.1174 105.698 40.9125 105.468C40.7076 105.238 40.5937 104.942 40.5922 104.634Z" fill="white"/>
<path d="M12.6423 88.4127L12.7475 87.3302C12.841 86.3635 12.7439 85.3879 12.4619 84.4585L11.4245 80.8351C11.2891 80.369 10.6126 80.1585 10.4622 80.6246C9.77091 82.6452 9.81885 84.8455 10.5975 86.8341L11.3042 88.5931C11.3585 88.7408 11.4616 88.8655 11.5964 88.9466C11.7312 89.0278 11.8896 89.0605 12.0456 89.0395C12.2015 89.0185 12.3456 88.9449 12.4541 88.831C12.5626 88.717 12.6289 88.5695 12.6423 88.4127Z" fill="white"/>
<path d="M44.9822 108.859C46.4857 108.859 52.0637 107.355 52.4997 106.483C52.8953 105.59 53.1246 104.632 53.1763 103.656H52.0486C52.0116 104.452 51.8387 105.235 51.5375 105.972C49.4294 106.891 47.2024 107.508 44.9221 107.806C41.877 107.44 38.9 106.64 36.0815 105.431L35.4801 106.378C38.4723 107.71 41.652 108.572 44.907 108.934L44.9822 108.859Z" fill="white"/>
<path d="M11.5145 92.5178L12.2512 91.6608C10.4743 90.0935 8.89409 88.3164 7.54529 86.3685C7.69052 84.3636 8.20002 82.4021 9.04878 80.58L7.99634 80.1741C7.36487 81.7978 5.96662 85.6769 6.49284 86.8496C7.91168 88.9504 9.59997 90.8561 11.5145 92.5178Z" fill="white"/>
<path d="M156.797 42.5251C158.152 44.4014 158.973 46.6096 159.173 48.915C158.12 50.6741 157.248 51.922 155.339 52.0874C156.143 51.3733 156.751 50.4647 157.104 49.4486C157.456 48.4324 157.543 47.3428 157.354 46.2839C157.023 44.8105 156.797 42.5251 156.797 42.5251Z" fill="#5B73FF"/>
<path d="M79.2771 82.6698C78.8789 82.6161 78.4954 82.4832 78.1495 82.2789C77.8187 82.0082 78.0592 81.0009 78.6306 80.6401C79.2019 80.2792 80.7806 81.0761 81.0362 80.9408C81.2918 80.8054 82.9155 81.4971 82.9155 81.4971L82.3893 82.6397L79.2771 82.6698Z" fill="#5B73FF"/>
<path d="M82.4795 78.4889C80.976 78.113 79.4725 78.6092 79.262 80.2931C79.0214 82.3529 79.9235 82.6836 80.4648 82.9392C82.0902 83.6804 83.8507 84.0796 85.6368 84.1119C88.2228 84.1119 88.5386 82.7588 88.5386 81.8417C88.5386 81.7214 88.5386 81.7214 88.5386 81.6011C88.5386 80.2931 87.9973 79.9022 87.1103 79.6315C85.1858 79.0752 82.4795 78.4889 82.4795 78.4889Z" fill="#5B73FF"/>
<path d="M79.8486 79.3472C81.3224 79.2143 82.808 79.3675 84.2237 79.7982C85.9678 80.1741 87.2307 80.1591 87.4111 81.843C87.5916 83.5269 87.0052 83.9479 86.2835 84.0682C84.8748 84.1929 83.4556 84.0187 82.1188 83.557C80.044 82.9556 79.7583 82.6248 79.4276 82.0535C79.0968 81.4821 78.9916 79.5877 79.8486 79.3472Z" fill="#5B84FF"/>
<path d="M68.8729 84.5643C68.8729 84.5643 62.002 83.8877 61.0096 83.587C51.0347 80.4773 41.8457 75.2572 34.067 68.2814C32.3831 66.7779 32.5635 60.5685 32.5635 60.5685L34.067 58.8244L39.3744 57.4863L55.1009 67.4244L57.5967 73.8744L71.1282 81.1965L68.8729 84.5643Z" fill="#4A4963"/>
<g style="mix-blend-mode:screen">
<path d="M49.2825 80.9247C50.786 81.6915 52.1842 82.4282 53.6426 83.0898C56.9353 84.5932 61.6713 85.0142 64.6632 85.9163C65.7157 86.2321 71.9402 86.5478 71.9402 86.5478L72.286 85.9314L72.5416 85.4653L73.6091 83.6009C73.7143 83.4205 73.8346 83.2251 73.9398 83.0146C74.0451 82.8041 73.9398 83.0146 73.9398 83.0146L74.1954 82.5635C74.2261 82.5218 74.2513 82.4763 74.2706 82.4282L74.9923 81.1954L76.7363 78.3086L77.0972 77.7072L77.8639 76.4744L78.2548 75.8429C78.5255 75.3918 78.8111 74.9558 79.0968 74.5048C79.9087 73.2268 80.7657 71.9037 81.6377 70.5807C82.0888 69.9041 82.5548 69.2275 83.0209 68.566L83.9381 67.2279L85.4416 65.2282L86.058 64.4163L86.7195 63.5443C86.93 63.2737 87.1255 63.0031 87.336 62.7475L87.8171 62.146L88.193 61.5447L88.629 61.0335L89.1702 60.3719L89.2755 60.2517L90.3429 59.0338L90.6587 58.7031C91.8353 57.3791 93.1452 56.18 94.5678 55.1247C101.153 50.4188 118.353 39.6989 130.411 32.5723L133.087 30.9786C133.223 30.9034 133.343 30.8132 133.478 30.7531L134.801 29.9713L135.177 29.7608L136.681 28.9188L137.703 28.3475L138.725 27.7761L138.921 27.6709L139.222 27.4905C141.204 26.3802 143.117 25.15 144.95 23.8069C146.649 22.3936 147.446 21.1908 145.927 19.0709C144.89 17.5674 141.146 14.7559 136.711 11.8391C133.289 13.1934 129.959 14.7705 126.743 16.5601C112.339 24.273 90.3881 38.3006 78.7961 45.9384C74.6615 48.6898 71.8349 50.5992 71.1734 51.1255C68.2265 53.3506 54.0336 71.167 49.2825 80.9247Z" fill="#131317"/>
</g>
<g style="mix-blend-mode:screen">
<path d="M87.0502 40.4949L96.6274 46.0278C97.434 46.577 98.3813 46.8831 99.3568 46.9097C100.332 46.9364 101.295 46.6825 102.13 46.1781C103.348 45.3512 104.626 44.5243 105.934 43.6673C113.286 38.9463 122.036 33.7142 131.343 28.6324C131.552 28.5174 131.733 28.3574 131.872 28.164C132.012 27.9706 132.107 27.7485 132.15 27.514C132.193 27.2794 132.184 27.0382 132.122 26.8078C132.061 26.5773 131.949 26.3635 131.794 26.1816C131.217 25.4564 130.589 24.7731 129.915 24.1369C127.518 22.2505 125.007 20.5133 122.397 18.9348C111.467 25.039 97.6197 33.6991 87.0502 40.4949Z" fill="#131317"/>
</g>
<g style="mix-blend-mode:screen">
<path d="M50.1696 79.2256C53.646 80.9989 57.2738 82.4581 61.0098 83.5858C62.0021 83.8865 68.8731 84.563 68.8731 84.563L86.043 58.5376C86.043 58.5376 81.9384 56.8687 81.0213 56.4627C78.1496 55.2148 74.4661 53.4557 70.7073 51.426C68.8301 53.3238 67.0678 55.3321 65.4301 57.44C59.7666 64.2804 54.6632 71.5658 50.1696 79.2256Z" fill="#131317"/>
</g>
<path d="M35.5706 104.062C37.5075 102.654 39.7766 101.774 42.1559 101.506C46.3056 101.04 52.6804 100.378 53.4923 100.469C54.8003 100.604 54.244 104.829 53.4923 106.633C52.7405 108.437 45.9748 109.926 43.5993 109.64C40.282 109.05 37.0535 108.04 33.992 106.633C33.8473 106.573 33.7222 106.474 33.6307 106.347C33.5392 106.22 33.485 106.07 33.474 105.914C33.4631 105.758 33.4959 105.601 33.5688 105.463C33.6417 105.324 33.7518 105.209 33.8867 105.129L35.5706 104.062Z" fill="#B7C8D9"/>
<path d="M33.7514 106.558C33.6629 106.473 33.5944 106.369 33.551 106.254C33.5076 106.139 33.4903 106.016 33.5003 105.894C33.5104 105.771 33.5476 105.653 33.6092 105.547C33.6709 105.44 33.7554 105.349 33.8566 105.28L35.5706 104.062C37.5075 102.654 39.7766 101.774 42.1559 101.506C46.3056 101.04 52.6804 100.378 53.4923 100.469C54.3042 100.559 54.3793 101.972 54.1989 103.611C53.2527 104.254 52.2455 104.803 51.1919 105.25C49.8791 105.861 48.3896 105.979 46.9972 105.58C42.9077 104.949 42.8325 104.693 40.5923 104.829C38.2645 105.198 35.9749 105.776 33.7514 106.558Z" fill="#9BACBF"/>
<path d="M12.2363 76.8196V78.0825C12.2034 80.4009 12.5383 82.7099 13.2286 84.9234C13.7758 87.0192 13.8119 89.2157 13.3338 91.3283C13.2286 91.8696 13.1083 92.3657 13.0181 92.8318C12.984 92.9701 12.9172 93.0981 12.8233 93.2051C12.7293 93.3121 12.611 93.3949 12.4782 93.4465C12.3455 93.4981 12.2023 93.517 12.0608 93.5016C11.9192 93.4862 11.7834 93.437 11.6649 93.358C9.41305 91.842 7.51543 89.8571 6.102 87.5395C5.86518 86.7237 5.92375 85.8506 6.26738 85.0738C7.70167 81.9606 9.72911 79.1569 12.2363 76.8196Z" fill="#B7C8D9"/>
<path d="M6.04174 85.598C6.09202 85.3552 6.16761 85.1183 6.26727 84.8913C7.72992 81.8227 9.77205 79.0658 12.2812 76.7725C11.9137 77.907 11.451 79.0085 10.898 80.0651C9.11669 81.7601 7.49138 83.6118 6.04174 85.598Z" fill="#F7FBFF"/>
<g style="mix-blend-mode:screen">
<path d="M12.567 81.8694C12.7174 82.7113 12.9279 83.7036 13.2286 84.8764C13.7758 86.9721 13.8119 89.1686 13.3338 91.2813C13.2286 91.8225 13.1083 92.3187 13.0181 92.7848C12.9851 92.922 12.9198 93.0494 12.8276 93.1563C12.7355 93.2633 12.6191 93.3467 12.4883 93.3996C12.3574 93.4525 12.2158 93.4735 12.0752 93.4607C11.9346 93.4479 11.7991 93.4017 11.68 93.326C10.4372 92.2337 9.48643 90.8488 8.91353 89.2967C8.73311 87.7932 10.1013 86.0491 12.567 81.9596V81.8694Z" fill="#565E66"/>
</g>
<g style="mix-blend-mode:screen">
<path d="M33.646 106.451C33.5291 106.269 33.4873 106.048 33.5293 105.835C33.5714 105.622 33.694 105.433 33.8716 105.309L35.5705 104.061C37.5074 102.653 39.7765 101.773 42.1558 101.505C44.3208 101.264 47.0723 100.964 49.3425 100.753C48.5607 101.535 44.5013 105.534 42.9527 106.887C41.4041 108.241 35.4352 107.444 33.9317 106.722C33.8488 106.685 33.7764 106.629 33.7212 106.557C33.6897 106.527 33.6643 106.491 33.646 106.451Z" fill="#565E66"/>
</g>
<path d="M40.577 104.618V104.002C40.5802 103.718 40.6903 103.446 40.8854 103.239C41.0805 103.033 41.3462 102.908 41.6294 102.889L48.6057 102.513C48.7612 102.503 48.9172 102.525 49.0639 102.578C49.2105 102.631 49.3446 102.713 49.4576 102.821C49.5707 102.928 49.6602 103.058 49.7206 103.202C49.781 103.345 49.8109 103.5 49.8085 103.656V104.543C49.8099 104.811 49.7548 105.076 49.6469 105.322C49.5389 105.567 49.3805 105.787 49.182 105.967C48.9834 106.147 48.7491 106.284 48.4944 106.367C48.2397 106.451 47.9702 106.48 47.7036 106.452L41.6896 105.881C41.3813 105.844 41.0975 105.695 40.8922 105.462C40.687 105.229 40.5748 104.929 40.577 104.618Z" fill="white"/>
<path d="M12.6274 88.4099L12.7326 87.3123C12.8261 86.3456 12.729 85.37 12.447 84.4407L11.4096 80.8323C11.2742 80.3512 10.5977 80.1557 10.4473 80.6218C9.75969 82.6378 9.80762 84.8321 10.5826 86.8162L11.2893 88.5903C11.3527 88.7273 11.4584 88.8403 11.5908 88.9129C11.7231 88.9854 11.8753 89.0137 12.0249 88.9935C12.1745 88.9734 12.3137 88.9058 12.4221 88.8008C12.5305 88.6958 12.6025 88.5588 12.6274 88.4099Z" fill="white"/>
<path d="M44.9673 108.858C46.4708 108.858 52.0488 107.355 52.4848 106.468C52.8815 105.58 53.1109 104.627 53.1614 103.656L52.1089 103.641C52.0737 104.437 51.9007 105.22 51.5978 105.956C49.4953 106.879 47.2734 107.502 44.9974 107.806C41.9524 107.431 38.976 106.626 36.1569 105.415L35.5555 106.362C38.549 107.693 41.7278 108.56 44.9824 108.933L44.9673 108.858Z" fill="white"/>
<path d="M11.5145 92.4997L12.2512 91.6577C10.4773 90.0875 8.89742 88.3108 7.54529 86.3654C7.68872 84.3555 8.19825 82.3887 9.04878 80.5619L7.99634 80.156C7.36487 81.7798 5.96662 85.6738 6.49284 86.8466C7.91623 88.9394 9.60409 90.8395 11.5145 92.4997Z" fill="white"/>
<defs>
<linearGradient id="paint0_linear_4154_12108" x1="133.989" y1="79.0587" x2="143.912" y2="61.8587" gradientUnits="userSpaceOnUse">
<stop offset="0.27" stop-color="#ECEEF7"/>
<stop offset="0.77" stop-color="#9C9AA8"/>
</linearGradient>
<linearGradient id="paint1_linear_4154_12108" x1="139.086" y1="73.5995" x2="134.2" y2="65.1198" gradientUnits="userSpaceOnUse">
<stop offset="0.26" stop-color="#393843"/>
<stop offset="0.78" stop-color="#23222E"/>
</linearGradient>
<linearGradient id="paint2_linear_4154_12108" x1="138.334" y1="67.3149" x2="134.41" y2="68.4425" gradientUnits="userSpaceOnUse">
<stop stop-color="#ADAEB8"/>
<stop offset="0.08" stop-color="#BABCC5"/>
<stop offset="0.2" stop-color="#C9CBD4"/>
<stop offset="0.34" stop-color="#D2D4DC"/>
<stop offset="0.55" stop-color="#D5D7DF"/>
<stop offset="0.66" stop-color="#C0C1CA"/>
<stop offset="1" stop-color="#868490"/>
</linearGradient>
<linearGradient id="paint3_linear_4154_12108" x1="136.515" y1="74.7727" x2="133.328" y2="73.4797" gradientUnits="userSpaceOnUse">
<stop stop-color="#ADAEB8"/>
<stop offset="0.08" stop-color="#BABCC5"/>
<stop offset="0.2" stop-color="#C9CBD4"/>
<stop offset="0.34" stop-color="#D2D4DC"/>
<stop offset="0.55" stop-color="#D5D7DF"/>
<stop offset="0.66" stop-color="#C0C1CA"/>
<stop offset="1" stop-color="#868490"/>
</linearGradient>
<linearGradient id="paint4_linear_4154_12108" x1="141.898" y1="68.2779" x2="140.063" y2="65.1056" gradientUnits="userSpaceOnUse">
<stop stop-color="#ADAEB8"/>
<stop offset="0.08" stop-color="#BABCC5"/>
<stop offset="0.2" stop-color="#C9CBD4"/>
<stop offset="0.34" stop-color="#D2D4DC"/>
<stop offset="0.55" stop-color="#D5D7DF"/>
<stop offset="0.66" stop-color="#C0C1CA"/>
<stop offset="1" stop-color="#868490"/>
</linearGradient>
<linearGradient id="paint5_linear_4154_12108" x1="64.1519" y1="119.371" x2="74.075" y2="102.186" gradientUnits="userSpaceOnUse">
<stop offset="0.27" stop-color="#ECEEF7"/>
<stop offset="0.77" stop-color="#9C9AA8"/>
</linearGradient>
<linearGradient id="paint6_linear_4154_12108" x1="69.2637" y1="113.929" x2="64.3623" y2="105.45" gradientUnits="userSpaceOnUse">
<stop offset="0.26" stop-color="#393843"/>
<stop offset="0.78" stop-color="#23222E"/>
</linearGradient>
<linearGradient id="paint7_linear_4154_12108" x1="68.4971" y1="107.644" x2="64.5729" y2="108.772" gradientUnits="userSpaceOnUse">
<stop stop-color="#ADAEB8"/>
<stop offset="0.08" stop-color="#BABCC5"/>
<stop offset="0.2" stop-color="#C9CBD4"/>
<stop offset="0.34" stop-color="#D2D4DC"/>
<stop offset="0.55" stop-color="#D5D7DF"/>
<stop offset="0.66" stop-color="#C0C1CA"/>
<stop offset="1" stop-color="#868490"/>
</linearGradient>
<linearGradient id="paint8_linear_4154_12108" x1="66.6779" y1="115.087" x2="63.4905" y2="113.809" gradientUnits="userSpaceOnUse">
<stop stop-color="#ADAEB8"/>
<stop offset="0.08" stop-color="#BABCC5"/>
<stop offset="0.2" stop-color="#C9CBD4"/>
<stop offset="0.34" stop-color="#D2D4DC"/>
<stop offset="0.55" stop-color="#D5D7DF"/>
<stop offset="0.66" stop-color="#C0C1CA"/>
<stop offset="1" stop-color="#868490"/>
</linearGradient>
<linearGradient id="paint9_linear_4154_12108" x1="72.0606" y1="108.607" x2="70.2263" y2="105.42" gradientUnits="userSpaceOnUse">
<stop stop-color="#ADAEB8"/>
<stop offset="0.08" stop-color="#BABCC5"/>
<stop offset="0.2" stop-color="#C9CBD4"/>
<stop offset="0.34" stop-color="#D2D4DC"/>
<stop offset="0.55" stop-color="#D5D7DF"/>
<stop offset="0.66" stop-color="#C0C1CA"/>
<stop offset="1" stop-color="#868490"/>
</linearGradient>
</defs>
</svg>
