<svg width="101" height="130" viewBox="0 0 101 130" fill="none" xmlns="http://www.w3.org/2000/svg">
<g clip-path="url(#clip0_4154_12103)">
<path d="M26.3905 126.612C20.6561 129.933 11.3137 129.909 5.53143 126.612C-0.250807 123.315 -0.274698 117.879 5.45975 114.57C11.1942 111.26 20.5485 111.272 26.3307 114.57C32.113 117.867 32.1369 123.303 26.3905 126.612Z" fill="#E6E6E6"/>
<path d="M58.3217 114.228C58.3472 109.524 51.7622 105.675 43.6138 105.63C35.4653 105.586 28.8391 109.364 28.8137 114.069C28.7882 118.773 35.3732 122.622 43.5216 122.666C51.67 122.71 58.2963 118.933 58.3217 114.228Z" fill="#E6E6E6"/>
<path d="M29.401 111.823C23.6546 115.144 14.3123 115.12 8.54197 111.823C2.77168 108.526 2.7239 103.09 8.47029 99.7805C14.2167 96.4713 23.559 96.4713 29.3413 99.7805C35.1235 103.09 35.1832 108.502 29.401 111.823Z" fill="#E6E6E6"/>
<path d="M10.0951 103.77C9.77761 104.016 9.50999 104.32 9.30658 104.666C9.24685 104.762 9.18712 105.013 9.04375 105.001C8.90039 104.989 8.78092 104.774 8.81676 104.678C8.48521 105.504 8.35816 106.397 8.44642 107.282C8.41559 107.673 8.47254 108.066 8.6131 108.432C8.75367 108.798 8.97431 109.127 9.25882 109.397C9.5322 109.539 9.83328 109.618 10.1409 109.631C10.4485 109.643 10.755 109.588 11.0389 109.469C11.9733 109.175 12.8445 108.709 13.6074 108.095C13.994 107.774 14.3499 107.418 14.6707 107.032C15.038 106.491 15.5041 106.025 16.0446 105.658C16.845 105.216 17.7649 105.06 18.6012 104.666C19.0154 104.492 19.3875 104.232 19.6926 103.902C19.9976 103.572 20.2283 103.181 20.3693 102.755C20.4725 102.43 20.5288 102.092 20.5365 101.751C20.5338 100.85 20.3211 99.9627 19.9153 99.1586C19.9153 99.1586 19.6525 99.6126 19.6286 99.6723C19.6047 99.7321 19.3658 99.8993 19.1866 99.756C19.0163 99.6119 18.8274 99.4914 18.6251 99.3976C18.1664 99.1567 17.661 99.0181 17.1437 98.9914C16.6344 98.9723 16.1287 99.0833 15.6742 99.3139C15.1964 99.5648 15.0172 99.9591 14.6707 100.329C13.8095 101.219 12.8609 102.019 11.8393 102.719C11.2778 103.065 10.6327 103.364 10.0951 103.77Z" fill="#CF2935"/>
<path d="M16.0447 104.272C17.1676 103.639 18.5893 103.555 19.5092 102.671C19.9256 102.245 20.1989 101.699 20.291 101.111C20.383 100.522 20.2893 99.9189 20.0229 99.3858C19.7405 98.8624 19.3263 98.4217 18.8213 98.1074C18.3164 97.7931 17.7381 97.6161 17.1437 97.5938C16.635 97.5807 16.1308 97.6914 15.6743 97.9164C15.1964 98.1792 15.0172 98.5615 14.6708 98.9319C13.816 99.8282 12.8666 100.629 11.8394 101.321C11.2779 101.715 10.6447 102.014 10.0952 102.42C9.22509 103.213 8.68729 104.306 8.58985 105.479C8.47038 106.363 8.43457 107.498 9.2589 108.059C9.53212 108.202 9.83397 108.282 10.1421 108.292C10.4503 108.302 10.7568 108.243 11.039 108.119C11.9734 107.825 12.8445 107.359 13.6075 106.745C13.991 106.425 14.3467 106.074 14.6708 105.694C15.0299 105.133 15.4969 104.65 16.0447 104.272Z" fill="#FF5853"/>
<path d="M20.6082 87.033C20.668 85.7308 20.7277 84.4405 20.7516 83.1383C20.7857 80.6319 20.658 78.1258 20.3693 75.6358C20.1303 73.5093 19.9989 71.3827 19.7719 69.2562C19.5449 67.1297 19.7719 65.1585 19.6763 63.1395C19.6763 61.8134 19.5808 60.4873 19.4852 59.1612C19.455 58.1728 19.2779 57.1944 18.9596 56.2581C18.5983 55.4284 18.1062 54.662 17.5021 53.9882C16.2357 52.4949 14.4556 51.121 12.5083 51.36C11.6224 51.4891 10.8169 51.9451 10.2504 52.6383C9.80041 53.3038 9.51015 54.0643 9.40215 54.8604C9.11213 55.8105 8.91604 56.7869 8.81674 57.7754C8.65521 59.7417 8.77592 61.721 9.17516 63.6532C9.17516 63.8204 9.23488 63.9877 9.27072 64.1669C9.91584 67.3806 10.9194 70.4748 11.6601 73.6526C12.4063 76.8852 12.8858 80.1737 13.0937 83.4848C13.2968 86.6387 14.8857 97.9284 14.6109 98.8961C14.5989 98.9351 14.5989 98.9767 14.6109 99.0156C14.6178 99.041 14.6298 99.0647 14.6463 99.0853C14.6627 99.1059 14.6832 99.1228 14.7065 99.1351C15.4168 99.6284 16.2609 99.8927 17.1257 99.8927C17.9905 99.8927 18.8346 99.6284 19.5449 99.1351C19.6676 99.0516 19.7698 98.9413 19.8436 98.8125C19.9082 98.6907 19.9449 98.556 19.9511 98.4183C20.0348 97.8209 20.1542 97.2236 20.1901 96.5904C20.2259 95.9572 20.4409 91.298 20.5007 89.721C20.5246 88.8489 20.5604 87.9409 20.6082 87.033Z" fill="#1E3B4E"/>
<path d="M15.9132 37.2389C15.7106 36.4317 15.2592 35.7086 14.623 35.1721C14.5934 35.1243 14.5462 35.09 14.4915 35.0765C14.4453 35.0591 14.3944 35.0591 14.3482 35.0765C14.0147 35.0964 13.6892 35.1859 13.3925 35.3394C12.8689 35.6552 12.4041 36.0595 12.0186 36.5341C11.2519 37.3027 10.4293 38.0135 9.55756 38.6606L9.42612 39.0787C9.23498 39.1862 9.28276 39.473 9.42612 39.688C9.56948 39.903 9.68896 40.3092 9.80843 40.6198C10.6566 40.2186 11.5998 40.0614 12.5323 40.1659C12.9967 40.2196 13.4657 40.2196 13.93 40.1659C14.5885 40.0574 15.1771 39.6922 15.5668 39.1504C15.7512 38.872 15.877 38.5589 15.9366 38.2303C15.9961 37.9017 15.9882 37.5644 15.9132 37.2389Z" fill="#FFAD97"/>
<path d="M4.12178 40.6546C3.31558 41.2373 2.62657 41.9669 2.09085 42.8051C1.74967 43.3186 1.52911 43.9026 1.44572 44.5135C1.41444 44.6919 1.43949 44.8756 1.51739 45.0391C1.6175 45.1739 1.75345 45.2778 1.90976 45.3391C2.06607 45.4003 2.23642 45.4164 2.40144 45.3856C2.78206 45.3421 3.15548 45.2498 3.51248 45.1108C4.37265 44.8002 5.24477 44.4657 6.09299 44.0953C6.41941 43.9905 6.71216 43.8008 6.94123 43.5458C7.21136 43.2288 7.44759 42.8844 7.64609 42.5183C8.43366 41.2288 9.60861 40.2211 11.0031 39.6392C11.0031 39.6392 10.812 38.994 10.7881 38.9104C10.6582 38.6539 10.4934 38.4167 10.2983 38.2056C10.2745 38.1623 10.2365 38.1286 10.1908 38.11C10.1665 38.0983 10.14 38.0923 10.1131 38.0923C10.0862 38.0923 10.0597 38.0983 10.0354 38.11C7.92184 38.5791 5.91558 39.4424 4.12178 40.6546Z" fill="#FA8E79"/>
<path d="M10.2026 39.6753H10.9314C10.7283 39.6753 10.2863 40.2607 10.1549 40.416C9.90916 40.6999 9.69299 41.0082 9.50973 41.3359C9.1353 41.9801 8.9529 42.7179 8.98407 43.4624C8.99961 44.3444 8.95569 45.2265 8.85264 46.1026C8.7929 47.0464 8.74512 47.9902 8.74512 48.946C7.57398 48.9782 6.40605 48.8085 5.29252 48.4442C4.17725 48.0757 3.17131 47.4352 2.36555 46.5805C2.03819 46.2289 1.77171 45.8251 1.57706 45.3858C1.42227 44.9649 1.37724 44.5116 1.44621 44.0684C1.51519 43.6253 1.69592 43.2071 1.97133 42.8531C3.10694 41.6726 4.53859 40.8186 6.11685 40.3801C7.44729 39.9895 8.81819 39.753 10.2026 39.6753Z" fill="#FA8E79"/>
<path d="M29.1382 101.931C29.0956 101.994 29.0388 102.046 28.9725 102.083C28.9061 102.121 28.8319 102.142 28.7559 102.146C28.6006 102.146 28.4214 102.146 28.2661 102.146C28.111 102.223 27.9349 102.248 27.7643 102.217C27.595 102.176 27.4308 102.116 27.2745 102.038C26.9911 101.899 26.6951 101.787 26.3905 101.704C26.0597 101.628 25.7153 101.638 25.3893 101.732C25.0634 101.826 24.7667 102.001 24.5268 102.241C23.8816 102.97 23.2484 103.711 22.6272 104.451C22.006 105.192 21.2653 106.148 20.6321 107.02C20.3215 107.462 20.0109 107.904 19.7122 108.358L19.2821 109.039C19.1627 109.23 19.0074 109.385 18.8162 109.158C18.7493 109.056 18.7008 108.943 18.6728 108.824C18.2812 109.606 18.2043 110.508 18.4578 111.345C18.4913 111.533 18.5696 111.71 18.6861 111.862C18.8025 112.014 18.9536 112.136 19.1268 112.217C19.4755 112.365 19.8476 112.45 20.2259 112.468C21.7812 112.646 23.3562 112.424 24.8015 111.822C25.5178 111.516 26.1584 111.057 26.6785 110.477C27.1986 109.897 27.5855 109.211 27.8121 108.465C27.8557 108.224 27.9362 107.99 28.051 107.773C28.2072 107.557 28.3968 107.367 28.6125 107.211C29.2601 106.473 29.6775 105.562 29.8134 104.59C29.9492 103.617 29.7976 102.627 29.3771 101.739C29.3207 101.597 29.2569 101.457 29.186 101.321C29.23 101.525 29.2134 101.737 29.1382 101.931Z" fill="#CF2935"/>
<path d="M28.3857 100.76C28.0512 101.25 26.8326 100.449 26.3786 100.378C26.0479 100.302 25.7034 100.312 25.3775 100.406C25.0516 100.5 24.7549 100.675 24.515 100.915C22.4865 103.135 20.6632 105.535 19.0672 108.083L18.888 108.382C18.5376 108.936 18.4056 109.6 18.5177 110.246C18.7208 110.986 19.5451 111.118 20.2141 111.178C21.7694 111.356 23.3444 111.134 24.7897 110.532C25.506 110.226 26.1467 109.767 26.6667 109.187C27.1868 108.607 27.5737 107.921 27.8003 107.175C27.8419 106.937 27.9226 106.707 28.0392 106.494C28.195 106.275 28.3845 106.081 28.6007 105.921C30.1538 104.463 29.7954 101.74 28.6007 100.175C28.5737 100.383 28.5002 100.583 28.3857 100.76Z" fill="#FF5853"/>
<path d="M31.444 84.6555C31.2289 83.4608 30.9541 82.1944 30.7271 80.94C30.2456 78.3251 30.0851 75.6612 30.2493 73.0074C30.4763 69.268 31.5037 65.6362 31.6351 61.873C31.7897 59.4648 31.4356 57.0509 30.5957 54.7886C28.2817 55.1703 25.9403 55.3621 23.595 55.362C22.4619 55.2322 21.3167 55.4621 20.3215 56.0191C18.9118 57.0585 18.7326 59.3761 18.876 60.9889C19.1662 63.3378 19.6132 65.6647 20.214 67.9539C20.5246 69.2561 20.8114 70.5702 21.0145 71.8963C21.3251 73.9273 21.4326 75.9821 21.779 78.0011C22.4122 81.6807 23.4755 85.2409 23.9056 88.9802C24.3556 92.8385 24.4356 96.7309 24.1445 100.604C24.1445 100.987 24.0131 101.178 24.3476 101.393C24.6233 101.569 24.926 101.698 25.2436 101.775C25.9079 101.94 26.5989 101.969 27.2746 101.859C27.7756 101.779 28.2677 101.651 28.744 101.477C29.5922 101.166 29.652 99.8637 29.8192 99.1469C30.0701 98.012 30.3449 96.889 30.5957 95.766C31.1564 93.5312 31.528 91.2533 31.7068 88.9563V88.2753C31.7342 87.0631 31.6462 85.851 31.444 84.6555Z" fill="#C0CAD5"/>
<path d="M24.1684 37.5837C24.1684 37.3208 24.2759 36.5324 23.9414 36.389C23.4891 36.2877 23.0199 36.2877 22.5676 36.389C22.1375 36.5085 21.7313 36.7235 21.3012 36.843C20.8711 36.9711 20.4484 37.1227 20.0349 37.297C19.5902 37.5308 19.1266 37.7266 18.649 37.8823C18.0405 37.9763 17.4237 38.0043 16.8092 37.966C16.6192 37.9536 16.4285 37.9779 16.2477 38.0377C16.0081 38.1438 15.7987 38.3081 15.6385 38.5155L13.6553 40.6659C13.4358 40.8809 13.254 41.1313 13.1177 41.4066C13.0413 41.5436 13.0012 41.6978 13.0012 41.8546C13.0012 42.0115 13.0413 42.1657 13.1177 42.3026C13.3805 42.6849 13.942 42.6969 14.3123 42.9358C14.6624 43.1619 14.9273 43.4982 15.065 43.8916C15.2084 44.25 15.3517 44.6801 15.7221 44.7517C15.826 44.7681 15.9323 44.7593 16.0321 44.726C16.1319 44.6928 16.2222 44.636 16.2955 44.5606C16.4419 44.4078 16.5593 44.2297 16.642 44.0349C16.9624 43.3037 17.4691 42.6693 18.1114 42.1951C18.3623 42.0637 18.6251 41.9681 18.888 41.8487C19.3949 41.6269 19.8384 41.2819 20.1782 40.8451C20.2857 40.7257 20.3694 40.5823 20.4769 40.4629C20.8216 40.0832 21.2702 39.8131 21.7671 39.6863C22.2652 39.5702 22.7733 39.5022 23.2844 39.4832C23.7497 38.9444 24.0558 38.2866 24.1684 37.5837Z" fill="#FFAD97"/>
<path d="M22.0061 36.4266C21.8511 36.4853 21.712 36.5794 21.5999 36.7014C21.513 36.796 21.4513 36.9111 21.4207 37.0359C21.2188 37.637 21.2081 38.286 21.3899 38.8935C21.5717 39.501 21.9372 40.0373 22.4362 40.4287C22.5948 40.5581 22.784 40.6445 22.9857 40.6796C23.1361 40.7033 23.2893 40.7033 23.4397 40.6796L24.6344 40.4287L34.801 38.2066C34.8161 36.8771 35.1134 35.5659 35.6732 34.3598C35.9479 33.5594 36.151 32.7231 36.3541 31.8988C36.4071 31.6628 36.4071 31.418 36.3541 31.182C36.1988 30.5846 35.709 30.7758 35.3386 30.9908C34.9683 31.2059 34.4307 31.5045 33.9648 31.7435C33.0449 32.2094 32.1011 32.6156 31.1334 32.9381C29.1861 33.7027 27.179 34.3359 25.16 35.0766C24.1206 35.4947 23.0454 35.9368 22.0061 36.4266Z" fill="#FF5853"/>
<path d="M15.1248 39.9382C15.0866 39.9725 15.0543 40.0129 15.0292 40.0577C15.0224 40.1132 15.0224 40.1694 15.0292 40.225C14.96 40.5503 14.8123 40.8537 14.5991 41.109C14.4361 41.2453 14.3124 41.4227 14.2408 41.6227C14.2235 41.6731 14.2235 41.7277 14.2408 41.778C14.2752 41.8364 14.3308 41.8792 14.3961 41.8975C14.5457 41.9258 14.6995 41.9223 14.8477 41.8873C14.9959 41.8523 15.1351 41.7866 15.2562 41.6944C15.4762 41.5781 15.6742 41.4245 15.8416 41.2404C16.0099 40.9735 16.2062 40.7252 16.427 40.4997C16.5938 40.3916 16.7807 40.3185 16.9766 40.2847L17.777 40.0935C18.013 40.0471 18.2296 39.9305 18.3982 39.759C18.4983 39.6086 18.5444 39.4287 18.5292 39.2487C18.5141 39.0686 18.4384 38.899 18.3146 38.7675C18.0636 38.5042 17.722 38.3462 17.3589 38.3254C17.0353 38.2729 16.7037 38.3409 16.427 38.5166C16.303 38.6368 16.1909 38.7688 16.0925 38.9108C15.9591 39.0864 15.8155 39.2539 15.6624 39.4126C15.4929 39.5975 15.3134 39.7729 15.1248 39.9382Z" fill="#FFC1AF"/>
<path d="M13.2252 41.9462C13.4066 42.3762 13.7437 42.7218 14.169 42.9139C14.169 42.9139 14.2288 42.9139 14.2527 42.9139C14.2515 42.9378 14.2515 42.9617 14.2527 42.9856C14.3309 43.1472 14.4445 43.2892 14.5852 43.4009C14.7258 43.5126 14.8898 43.5911 15.065 43.6307C15.065 43.7895 15.1152 43.9442 15.2084 44.0727C15.311 44.1891 15.4228 44.297 15.5429 44.3953C15.5625 44.3902 15.5831 44.3902 15.6026 44.3953C15.6084 44.4309 15.6084 44.4672 15.6026 44.5028C15.5943 44.5734 15.6113 44.6446 15.6507 44.7037C15.6901 44.7628 15.7493 44.806 15.8177 44.8254C15.8912 44.8357 15.9662 44.8269 16.0353 44.7996C16.1043 44.7724 16.1652 44.7278 16.2119 44.6701C16.3227 44.5724 16.4038 44.4456 16.4461 44.3041C16.4883 44.1626 16.49 44.012 16.4509 43.8696C16.4455 43.8584 16.4428 43.8462 16.4428 43.8338C16.4428 43.8214 16.4455 43.8091 16.4509 43.7979C16.4509 43.7979 16.4509 43.7979 16.5225 43.7979C16.7016 43.7148 16.8455 43.5709 16.9287 43.3918C16.939 43.3405 16.939 43.2877 16.9287 43.2365C16.9216 43.1732 16.9013 43.1121 16.869 43.0572C16.7517 42.8914 16.6005 42.7524 16.4254 42.6494C16.2504 42.5465 16.0554 42.4819 15.8535 42.4599C15.4556 42.4366 15.0567 42.4366 14.6588 42.4599C14.6588 42.2927 14.5513 42.1254 14.4916 41.9701C14.3774 41.6032 14.1303 41.2921 13.7987 41.098C13.6949 41.0396 13.5727 41.0231 13.4571 41.052C13.3416 41.0809 13.2415 41.1529 13.1775 41.2533C13.1285 41.4842 13.145 41.7242 13.2252 41.9462Z" fill="#FFC1AF"/>
<path d="M32.1846 53.6181C31.8621 50.954 31.6231 48.2899 31.4917 45.6138C31.2766 41.0746 31.3364 36.5265 31.6709 31.9945C31.9576 28.1238 32.3877 24.2769 32.4594 20.3823C32.5169 19.8268 32.4 19.2673 32.1249 18.7814C31.8059 18.4199 31.3921 18.1551 30.9302 18.0168C29.7356 17.515 28.4334 17.0372 27.167 16.6071C25.0524 15.8783 22.914 15.2571 20.7396 14.7195L19.1149 14.3491C18.6003 14.1587 18.0613 14.0421 17.514 14.0027C17.1198 14.0027 16.5941 14.5403 16.2238 14.7314C15.7685 14.9753 15.2822 15.1562 14.7782 15.269C14.4474 15.3085 14.12 15.3724 13.7986 15.4602C13.4972 15.557 13.2085 15.6894 12.9384 15.8544C10.4346 17.2835 8.0099 18.8469 5.6748 20.5376C5.49662 20.6446 5.34215 20.7869 5.22081 20.9557C5.08823 21.2391 5.05455 21.5588 5.12522 21.8636C5.30954 23.4403 5.62524 24.9988 6.06902 26.5229C8.28765 35.344 9.09411 44.461 8.45838 53.5345C8.3628 54.9562 8.3628 56.3778 8.3389 57.7995C8.31466 58.0487 8.339 58.3003 8.41058 58.5402C8.53267 58.7936 8.70787 59.0177 8.92428 59.1973C11.4902 61.4201 14.8022 62.5896 18.195 62.4707C21.5628 62.3536 24.8699 61.5401 27.9077 60.0813C28.9977 59.6516 29.9893 59.0054 30.8227 58.1818C31.403 57.5887 31.8302 56.8633 32.0675 56.0682C32.3047 55.2731 32.3449 54.4322 32.1846 53.6181Z" fill="#0047BA"/>
<path d="M14.4197 17.4782C13.8671 17.2271 13.3492 16.9059 12.8786 16.5225C12.6277 16.3194 12.2932 15.722 12.5322 15.3278C11.4092 17.0123 9.68882 18.5295 9.5813 20.7038C9.56938 21.3291 9.66639 21.9517 9.86801 22.5436C10.8176 25.0422 12.5105 27.1896 14.7184 28.6962C14.8626 28.8827 15.0431 29.0381 15.2491 29.1529C15.455 29.2677 15.6821 29.3396 15.9166 29.3641C16.1511 29.3887 16.3881 29.3655 16.6134 29.2958C16.8387 29.2262 17.0475 29.1116 17.2272 28.959C18.9697 27.9053 20.5109 26.5501 21.7789 24.9569C23.0452 23.3469 23.6364 21.3078 23.4276 19.2702C23.0029 17.2185 21.9157 15.3632 20.3334 13.9897C19.7136 15.0695 18.9042 16.0286 17.944 16.8211C17.4625 17.2241 16.8852 17.4962 16.268 17.6113C15.6507 17.7264 15.0141 17.6806 14.4197 17.4782Z" fill="#F5B2C3"/>
<path d="M12.6756 19.0689C12.6353 19.2928 12.5543 19.5074 12.4367 19.7021C12.353 19.8335 12.4964 19.9649 12.592 20.0486C12.6876 20.1322 12.7473 20.2517 12.8429 20.3592C13.4466 21.0303 14.1238 21.6314 14.8619 22.1512C15.0021 22.2248 15.1342 22.3129 15.2561 22.414C15.349 22.5557 15.4139 22.7139 15.4473 22.88C15.4585 22.9938 15.4825 23.106 15.519 23.2145C15.5347 23.2683 15.5638 23.3173 15.6034 23.357C15.6431 23.3966 15.6921 23.4257 15.7459 23.4415C15.7623 23.4509 15.7808 23.4559 15.7997 23.4559C15.8186 23.4559 15.8371 23.4509 15.8535 23.4415L15.9132 23.3817C15.9912 23.2799 16.0444 23.1613 16.0685 23.0353C16.0627 22.9478 16.0627 22.8599 16.0685 22.7724C16.0685 22.6171 16.176 22.6171 16.3074 22.5932C16.46 22.5586 16.6055 22.498 16.7375 22.414C16.9989 22.2437 17.236 22.0388 17.4424 21.8047C17.8068 21.392 18.1346 20.9483 18.422 20.4787C18.5654 20.2278 18.7087 19.9649 18.8282 19.7141C18.9412 19.4484 19.0688 19.1891 19.2105 18.9375C19.5382 18.4937 19.8933 18.0708 20.2737 17.6712C20.5861 17.3425 20.8736 16.9911 21.1339 16.6198C21.1714 16.5651 21.1996 16.5045 21.2175 16.4407C21.2126 16.3651 21.1894 16.2919 21.1498 16.2274C21.1103 16.1629 21.0556 16.109 20.9906 16.0703C20.5294 15.7322 20.1481 15.297 19.8735 14.7953C19.599 14.2937 19.4379 13.7379 19.4017 13.1672C19.3127 13.7902 19.0474 14.3747 18.637 14.8517C18.2223 15.3108 17.7482 15.7126 17.2273 16.0464C16.5356 16.5939 15.7112 16.9484 14.838 17.0738C14.2187 17.1316 13.5976 16.9847 13.0698 16.6557C12.6802 16.2057 12.4384 15.6469 12.377 15.0548C12.4725 15.9508 12.5681 16.8468 12.6517 17.7548C12.7227 18.1894 12.7308 18.632 12.6756 19.0689Z" fill="#FFAD97"/>
<path d="M17.06 20.4417C17.2153 20.2386 17.3825 20.0355 17.5259 19.8324L17.6693 19.6293C18.2694 18.7715 18.7478 17.8348 19.0909 16.8457C19.2462 16.4037 19.4493 15.9975 19.5927 15.5435C19.5927 15.4121 20.1661 13.9785 20.1422 13.9666C20.5273 14.208 20.853 14.5332 21.095 14.9179C21.337 15.3026 21.4891 15.737 21.54 16.1886C21.6714 17.3833 21.0502 18.578 21.098 19.8682C21.1596 20.3597 21.1915 20.8544 21.1936 21.3497C20.9842 21.1822 20.7885 20.9985 20.6082 20.8001C20.3317 20.5247 19.9771 20.3412 19.5927 20.2744C19.4689 20.2502 19.3408 20.2608 19.2226 20.3051C19.1045 20.3494 19.001 20.4256 18.9237 20.5253C18.8095 20.6705 18.7169 20.8315 18.6489 21.0032C18.3474 21.6381 17.9438 22.2193 17.4542 22.7235C16.9678 23.2311 16.365 23.6125 15.698 23.8346C15.6771 23.2809 15.7665 22.7286 15.9609 22.2098C16.2319 21.5662 16.6028 20.9695 17.06 20.4417Z" fill="#FFD1DD"/>
<path d="M15.3996 21.8154C15.6297 22.2805 15.7561 22.79 15.77 23.3088C15.7469 23.4992 15.7469 23.6918 15.77 23.8822C14.7635 22.4046 13.2283 21.3697 11.4811 20.9911C11.2767 20.9441 11.0643 20.9441 10.8599 20.9911C10.7098 21.035 10.5739 21.1174 10.4656 21.23C10.1856 20.236 10.1977 19.1824 10.5007 18.1951C10.8037 17.2078 11.3846 16.3287 12.174 15.6628C12.0558 16.4202 12.1006 17.1941 12.3054 17.9327C12.5603 18.5664 12.9712 19.1253 13.5001 19.5575C13.9937 20.0091 14.4492 20.5005 14.862 21.0269C15.0689 21.2698 15.2491 21.5341 15.3996 21.8154Z" fill="#FFD1DD"/>
<path d="M11.6242 2.65296C10.0831 4.9109 10.0711 7.73033 10.2981 10.3586C10.443 11.7661 10.7149 13.1576 11.1105 14.5161C11.3019 15.3919 11.6156 16.2365 12.0423 17.0249C12.4082 17.7593 13.045 18.3229 13.8183 18.597C14.5916 18.8712 15.4412 18.8344 16.1879 18.4944C16.851 18.2065 17.4801 17.8459 18.0635 17.4192C18.5739 17.0855 19.0361 16.6836 19.4374 16.2245C20.1845 15.1475 20.6262 13.8884 20.7157 12.5807C21.0263 12.6643 21.313 12.4015 21.5042 12.1506C22.0226 11.4458 22.3628 10.6261 22.4958 9.76128C22.5289 9.63568 22.5342 9.50437 22.5115 9.37647C22.4889 9.24858 22.4386 9.12714 22.3643 9.02058C22.2926 8.9489 22.1971 8.88918 22.1254 8.80555C22.04 8.68736 21.9939 8.54521 21.994 8.39935C21.8148 6.94185 22.448 5.46045 22.2091 4.00295C22.0841 3.36974 21.8227 2.77135 21.4431 2.24938C21.0635 1.72741 20.5748 1.29438 20.0109 0.980416C18.8682 0.368004 17.5773 0.0866555 16.2834 0.168035C15.1825 0.169735 14.1034 0.475682 13.1653 1.05209C12.548 1.4752 12.0235 2.01997 11.6242 2.65296Z" fill="#FFC1AF"/>
<path d="M16.6539 10.5856C16.8415 10.5064 17.0381 10.4503 17.2393 10.4184C17.4644 10.3768 17.6952 10.3768 17.9203 10.4184C18.3319 10.4936 18.7329 10.6179 19.1149 10.7887C18.3148 10.6387 17.4889 10.7088 16.7256 10.9918C16.5464 11.0635 15.5309 11.6011 15.4473 11.2188C15.4473 11.0157 15.7459 10.9201 15.8893 10.8604L16.6539 10.5856Z" fill="#C0CAD5"/>
<path d="M18.3504 14.3124C18.3147 14.5641 18.1826 14.792 17.982 14.948C17.7813 15.1041 17.5279 15.176 17.2752 15.1487C17.1504 15.1325 17.03 15.0918 16.9209 15.029C16.8118 14.9661 16.7162 14.8823 16.6396 14.7824C16.563 14.6825 16.5069 14.5684 16.4745 14.4468C16.4422 14.3251 16.4341 14.1983 16.4509 14.0735C16.4656 13.9492 16.505 13.829 16.5666 13.72C16.6282 13.611 16.7109 13.5153 16.8099 13.4386C16.9088 13.3619 17.0221 13.3057 17.143 13.2731C17.2639 13.2406 17.3901 13.2325 17.5142 13.2492C17.6389 13.264 17.7596 13.3032 17.8692 13.3647C17.9787 13.4262 18.0751 13.5087 18.1528 13.6074C18.2304 13.7062 18.2879 13.8193 18.3218 13.9402C18.3557 14.0612 18.3655 14.1877 18.3504 14.3124Z" fill="#F6755F"/>
<path d="M12.8667 13.9909C12.8548 14.0979 12.8219 14.2014 12.7697 14.2955C12.7175 14.3897 12.6471 14.4725 12.5626 14.5392C12.4781 14.6059 12.3813 14.6551 12.2776 14.684C12.1739 14.713 12.0655 14.721 11.9587 14.7077C11.8512 14.6944 11.7474 14.66 11.6532 14.6066C11.559 14.5532 11.4763 14.4817 11.4097 14.3963C11.3431 14.3108 11.2941 14.2131 11.2653 14.1087C11.2365 14.0043 11.2285 13.8953 11.2419 13.7878C11.2902 13.5917 11.4088 13.4201 11.5752 13.3056C11.7416 13.1911 11.9442 13.1417 12.1446 13.1668C12.345 13.1918 12.5293 13.2896 12.6624 13.4415C12.7955 13.5934 12.8682 13.7889 12.8667 13.9909Z" fill="#F6755F"/>
<path d="M22.8663 6.70404C22.8887 5.93808 22.8205 5.17215 22.6632 4.4222C22.4772 3.64688 22.104 2.92901 21.5761 2.33152L21.2893 2.02091C21.2893 2.02091 20.9787 1.78197 20.9787 1.77002C20.8202 2.42954 20.5919 3.07032 20.2977 3.68151C19.9854 4.28574 19.5146 4.79367 18.9358 5.15096C19.1018 5.5337 19.2221 5.9347 19.2942 6.34563C19.3381 7.01662 19.2735 7.69028 19.1031 8.34074C19.0732 8.45429 19.0732 8.57364 19.1031 8.6872C19.1505 8.79214 19.2246 8.88277 19.3181 8.95003C19.6436 9.22792 19.929 9.54956 20.1663 9.90577C20.2883 10.0721 20.3812 10.2579 20.4411 10.4553C20.5008 10.6823 20.5725 10.9212 20.6561 11.1482C20.6418 10.7141 20.7066 10.2809 20.8473 9.86993C20.9191 9.61239 21.05 9.37514 21.2296 9.17702C21.3133 9.09123 21.4138 9.02361 21.5248 8.97839C21.6358 8.93317 21.7549 8.91132 21.8747 8.91419C22.2809 8.91419 22.4959 9.55931 22.4959 9.89382C22.7187 8.86434 22.8467 7.81661 22.8782 6.76377L22.8663 6.70404Z" fill="#C0CAD5"/>
<path d="M11.5885 2.71227C11.6617 2.61526 11.7415 2.52346 11.8274 2.4375C11.5782 2.76655 11.403 3.14554 11.3137 3.54855C11.1917 3.94083 11.092 4.33969 11.015 4.74323C10.8836 5.44808 10.8956 6.16489 10.7761 6.86975C10.7761 7.08479 10.6686 7.28788 10.6208 7.50292C10.5252 7.92322 10.4653 8.35084 10.4416 8.78123C10.4416 9.17547 10.4416 9.55777 10.3819 9.9759C10.3221 10.394 10.3819 10.7286 10.3819 11.0989C10.3221 10.621 10.1549 10.1671 10.0832 9.70113C9.88976 8.48354 9.9181 7.24099 10.1668 6.03347V5.86621C10.3718 4.71327 10.8604 3.62942 11.5885 2.71227Z" fill="#C0CAD5"/>
<path d="M16.833 15.9622C16.7888 15.7708 16.6981 15.5933 16.5689 15.4453C16.4397 15.2974 16.2759 15.1836 16.0923 15.114C15.9136 15.0447 15.7219 15.0162 15.5308 15.0303C15.3713 15.0685 15.2154 15.1205 15.0649 15.1856C14.8607 15.2514 14.6454 15.2758 14.4317 15.2573C14.145 15.2573 13.8821 15.0542 13.5954 15.0184C12.6994 14.8989 12.2813 15.8666 12.3052 16.6073C12.3068 16.8454 12.3389 17.0823 12.4007 17.3122C12.4402 17.4328 12.4922 17.5489 12.556 17.6586C12.556 17.7303 12.7233 17.8737 12.7352 17.9573C12.6897 17.5604 12.6897 17.1595 12.7352 16.7626C12.7923 16.4131 12.9454 16.0864 13.1773 15.8188C13.2602 15.7128 13.3797 15.6417 13.5124 15.6196C13.6451 15.5975 13.7813 15.626 13.8941 15.6993C14.0043 15.7756 14.1298 15.8269 14.2619 15.8496C14.3939 15.8723 14.5294 15.8659 14.6587 15.8308C14.814 15.8308 14.9574 15.6993 15.1127 15.6635C15.71 15.556 16.0565 16.1653 16.164 16.6551C16.2414 17.1856 16.2892 17.7201 16.3073 18.2559C16.4916 17.9574 16.6362 17.6361 16.7374 17.3002C16.8711 16.8674 16.9039 16.4096 16.833 15.9622Z" fill="#C0CAD5"/>
<path d="M20.5126 9.76154C20.5244 9.90466 20.5244 10.0485 20.5126 10.1916C20.4744 10.5288 20.4185 10.8638 20.3454 11.1952C20.2259 11.7089 20.0945 12.2345 19.9511 12.7482C19.7426 13.535 19.4668 14.3025 19.1268 15.042C18.8647 15.7266 18.4571 16.3462 17.9321 16.8579C17.6337 17.1154 17.2997 17.3287 16.9405 17.4911C16.4575 17.734 15.9361 17.8916 15.3994 17.957C14.947 18.0108 14.4899 18.0108 14.0375 17.957C13.3768 17.8318 12.7761 17.4916 12.3291 16.9893C12.0875 16.7204 11.879 16.4236 11.7079 16.1053C11.6219 15.9569 11.5499 15.801 11.4928 15.6393C11.4146 15.4781 11.366 15.3041 11.3495 15.1256C11.3297 15.6354 11.4151 16.1437 11.6003 16.619C11.7687 17.1568 12.0056 17.6708 12.3052 18.1482C12.5655 18.6425 12.9668 19.0484 13.4581 19.3142C13.9494 19.5801 14.5087 19.694 15.0649 19.6415C15.9299 19.5389 16.762 19.2483 17.5029 18.7902C18.2438 18.332 18.8755 17.7174 19.3538 16.9893C19.7373 16.4437 20.0541 15.8541 20.2976 15.2332C20.6483 14.3273 20.854 13.3717 20.9069 12.4018C20.9389 11.5743 20.8869 10.7457 20.7516 9.92879C20.7278 9.69853 20.6588 9.47523 20.5485 9.27173C20.5574 9.43586 20.5453 9.60045 20.5126 9.76154Z" fill="#C0CAD5"/>
<path d="M37.3218 21.2185C39.9603 22.4637 42.7347 23.3979 45.589 24.0021C45.8731 25.3136 45.9136 26.6662 45.7085 27.9923C45.4016 29.1636 44.8834 30.2689 44.1793 31.2538C43.6423 30.8189 43.0062 30.5234 42.3275 30.3936C40.3085 29.856 38.2537 29.4021 36.1988 29.0317C35.3417 28.8686 34.4763 28.7529 33.6064 28.6853C33.1644 28.6853 32.7223 28.6853 32.2683 28.6853C31.8144 28.6853 31.5635 28.8286 31.2887 28.4344C30.4496 26.9769 29.8449 25.3966 29.4967 23.7512C28.9742 22.2146 28.7432 20.5939 28.8158 18.9725C28.8755 18.4827 29.0427 17.7062 29.5923 17.5509C30.1418 17.3956 30.6078 17.8495 31.014 18.0287C32.3878 18.638 33.7258 19.3548 35.0639 20.0477C35.8046 20.4778 36.5692 20.8601 37.3218 21.2185Z" fill="#F5B2C3"/>
<path d="M57.2848 35.6858C57.4401 35.9487 57.6194 36.1876 57.7866 36.4265C58.1148 36.8501 58.325 37.3529 58.3959 37.884C58.4075 37.9432 58.4075 38.0041 58.3959 38.0632C58.3759 38.1278 58.3388 38.1856 58.2884 38.2305C58.1738 38.3552 58.05 38.471 57.918 38.577C57.6697 38.7369 57.4678 38.9594 57.3326 39.2221C57.1726 39.582 56.9931 39.933 56.795 40.2734C56.6137 40.576 56.3789 40.8431 56.1021 41.0619C55.985 41.1416 55.8803 41.2382 55.7915 41.3486C55.7079 41.4681 55.6123 41.6114 55.457 41.6234C55.3841 41.6199 55.3133 41.5984 55.2508 41.5609C55.1882 41.5234 55.136 41.471 55.0986 41.4083C54.672 40.7603 54.4095 40.0181 54.334 39.246C54.2404 38.826 54.1884 38.3978 54.1787 37.9677C54.1787 37.6093 54.1787 37.2509 54.1787 36.8925C54.1479 36.573 54.0879 36.2571 53.9995 35.9487C53.8994 35.6009 53.7633 35.2646 53.5933 34.9451C53.5933 34.8376 53.1632 34.0252 53.0676 34.0252C53.3531 34.0331 53.6374 33.9844 53.9039 33.8819C54.1532 33.7255 54.3925 33.554 54.6207 33.3682C54.8944 33.2093 55.1969 33.1063 55.5107 33.0653C55.8245 33.0243 56.1433 33.046 56.4486 33.1292C56.7234 33.2009 56.6994 33.3204 56.7114 33.5593C56.7156 33.8083 56.7436 34.0563 56.795 34.3C56.8606 34.6697 56.9688 35.0305 57.1176 35.3752C57.166 35.4826 57.2219 35.5864 57.2848 35.6858Z" fill="#FFAD97"/>
<path d="M53.1752 28.5056C51.419 26.2715 49.9257 23.8464 48.0978 21.684C47.9155 21.4379 47.6934 21.224 47.4408 21.0508C46.8035 20.7202 46.0634 20.6475 45.374 20.8477C44.3911 21.035 43.4637 21.4436 42.6621 22.0424C41.8396 22.6236 41.2376 23.4655 40.9537 24.4317C40.8934 24.5815 40.8771 24.7454 40.9067 24.9041C40.9364 25.0628 41.0107 25.2098 41.1209 25.3277C42.6604 27.8165 44.5699 30.0563 46.7837 31.9702C49.0536 33.7502 51.9328 34.9091 53.5695 37.2865C53.3542 36.8898 53.2556 36.4403 53.2852 35.99C53.3148 35.5396 53.4714 35.1069 53.7367 34.7418C54.04 34.3551 54.4584 34.0748 54.9314 33.9414C55.3285 33.821 55.7568 33.8596 56.1261 34.0489C56.3107 34.1449 56.4865 34.2568 56.6517 34.3834C56.9504 34.5865 57.0938 34.6701 57.1177 34.2161C57.0457 33.4873 56.7349 32.8027 56.2336 32.2688C55.696 31.5879 55.1464 30.9308 54.5849 30.2737C54.0234 29.6166 53.6172 29.079 53.1752 28.5056Z" fill="#F5B2C3"/>
<path d="M57.9659 40.5485C58.1742 40.3366 58.344 40.09 58.4676 39.8197C58.6313 39.5272 58.7406 39.2074 58.7902 38.8759C58.7992 38.5468 58.7209 38.2212 58.5632 37.9321C58.4676 37.7529 58.3123 37.5498 58.1092 37.5618C57.9621 37.5894 57.8303 37.6702 57.7389 37.7888C57.3805 38.1711 57.1057 38.637 56.7592 38.9834C56.2145 39.5958 55.5677 40.1091 54.8478 40.5007C54.6104 40.5988 54.389 40.7317 54.1907 40.8949C54.0947 40.98 54.0323 41.0966 54.0148 41.2237C53.9973 41.3508 54.0258 41.4799 54.0951 41.5878C53.7875 41.6369 53.4964 41.7599 53.2469 41.9462C53.1261 42.0444 53.0433 42.1816 53.0128 42.3343C52.9822 42.4869 53.0059 42.6454 53.0797 42.7825C52.9903 42.818 52.9127 42.8778 52.8557 42.9551C52.7986 43.0325 52.7644 43.1243 52.7569 43.2201C52.7495 43.3159 52.769 43.4119 52.8134 43.4972C52.8578 43.5825 52.9252 43.6536 53.008 43.7024C52.9736 43.7399 52.9545 43.7889 52.9545 43.8398C52.9545 43.8907 52.9736 43.9397 53.008 43.9772C53.0688 44.0637 53.1573 44.1269 53.2588 44.1564C53.6219 44.3213 54.0187 44.3986 54.4171 44.382C54.8156 44.3654 55.2045 44.2554 55.5526 44.0608C55.6349 44.0246 55.7023 43.9614 55.7438 43.8816C55.7385 43.842 55.7385 43.8018 55.7438 43.7621H55.8154C56.1068 43.6502 56.3902 43.5185 56.6637 43.3679C56.798 43.2865 56.9098 43.1728 56.9891 43.0372C57.0684 42.9016 57.1126 42.7484 57.1177 42.5914C57.112 42.5118 57.112 42.432 57.1177 42.3524C57.1299 42.2682 57.1595 42.1876 57.2048 42.1155C57.2501 42.0435 57.3099 41.9818 57.3805 41.9343C57.5231 41.8406 57.6589 41.7368 57.7867 41.6237C57.8822 41.5092 57.9448 41.371 57.9679 41.2237C57.9911 41.0764 57.9738 40.9257 57.9181 40.7874C57.9062 40.7611 57.9001 40.7326 57.9001 40.7038C57.9001 40.6749 57.9062 40.6464 57.9181 40.6202C57.9269 40.5922 57.9435 40.5674 57.9659 40.5485Z" fill="#FFC1AF"/>
<path d="M58.0734 36.1034C57.9804 36.0199 57.8699 35.9583 57.75 35.9232C57.6301 35.888 57.5038 35.8802 57.3805 35.9003C57.1841 35.9734 56.9991 36.074 56.8309 36.1989C56.4725 36.402 56.0185 36.2945 55.6362 36.402C55.5634 36.4215 55.4946 36.4539 55.4332 36.4976C55.3501 36.5961 55.2997 36.718 55.289 36.8465C55.2783 36.9749 55.3078 37.1035 55.3734 37.2144C55.5064 37.4765 55.7193 37.6894 55.9813 37.8226C56.2433 37.9557 56.5408 38.0021 56.8309 37.9551C56.9333 37.9421 57.0315 37.9064 57.1183 37.8506C57.2051 37.7948 57.2784 37.7203 57.3327 37.6325C57.3327 37.5489 57.3924 37.4653 57.4402 37.3817C57.5676 37.2117 57.7486 37.0896 57.9539 37.0352C58.1451 36.9396 58.3482 36.8082 58.3721 36.5932C58.3697 36.4925 58.3408 36.3942 58.2884 36.3082C58.236 36.2222 58.1618 36.1516 58.0734 36.1034Z" fill="#FFC1AF"/>
<path d="M33.5584 34.1325C33.118 35.66 33.1978 37.2906 33.7854 38.7678C34.8299 38.1813 35.6998 37.3279 36.3062 36.2948C36.8959 35.2822 37.3841 34.2137 37.7637 33.1051C38.3039 31.7058 38.7392 30.2682 39.0659 28.8042C39.2705 27.9308 39.303 27.0259 39.1615 26.1401C39.0927 25.7234 38.9013 25.3366 38.6119 25.029C38.2774 24.7662 37.7876 25.029 37.477 25.2441C36.5241 25.9516 35.7944 26.9177 35.3743 28.0277C34.9526 29.058 34.6013 30.1157 34.323 31.1936C34.0602 32.1613 33.7615 33.1051 33.5584 34.1325Z" fill="#FF5853"/>
<path d="M44.5734 104.785C44.5018 104.917 44.442 105.024 44.43 105.06C44.2986 105.347 44.0717 105.371 43.773 105.227C43.5145 105.13 43.246 105.062 42.9725 105.024C42.0065 104.819 40.9988 104.977 40.1412 105.466C39.4841 105.848 39.1496 106.661 38.6359 107.163C38.2292 107.578 37.7808 107.95 37.2978 108.274C36.2704 108.99 35.1355 109.528 34.0722 110.173C33.905 110.269 33.7377 110.364 33.5824 110.472C33.4271 110.579 33.3076 110.735 33.1523 110.735C32.997 110.735 32.555 110.352 32.6864 110.113C32.124 111.218 31.9195 112.471 32.101 113.697C32.1607 114.199 32.2922 115.059 32.8417 115.262C33.917 115.636 35.0822 115.666 36.1749 115.346C37.1998 115.014 38.1467 114.478 38.9584 113.769C39.7131 113.146 40.4236 112.471 41.085 111.75C41.7159 111.232 42.4613 110.871 43.2593 110.699C43.754 110.553 44.2279 110.345 44.669 110.078C45.1476 109.723 45.5229 109.247 45.756 108.699C45.9892 108.151 46.0717 107.55 45.9951 106.959C45.8393 105.934 45.4689 104.953 44.9079 104.08C44.8181 104.325 44.7061 104.561 44.5734 104.785Z" fill="#254288"/>
<path d="M44.5974 103.303C44.5974 103.805 44.1673 103.924 43.7731 103.733C43.5168 103.627 43.2477 103.555 42.9726 103.518C42.0051 103.317 40.9973 103.479 40.1412 103.972C39.4842 104.355 39.1497 105.167 38.636 105.669C38.2261 106.081 37.7781 106.453 37.2979 106.78C36.2705 107.485 35.1355 108.034 34.0723 108.667C33.5605 108.925 33.118 109.302 32.782 109.766C32.5645 110.131 32.4299 110.539 32.3878 110.961C32.2803 111.654 32.0174 113.47 32.8418 113.781C33.9183 114.151 35.0835 114.176 36.1749 113.852C37.1993 113.525 38.1463 112.992 38.9585 112.287C39.7103 111.661 40.4206 110.986 41.085 110.268C41.7129 109.745 42.4595 109.384 43.2594 109.217C43.7523 109.067 44.2255 108.858 44.6691 108.596C45.1368 108.325 45.499 107.904 45.6965 107.401C45.8402 106.708 45.7906 105.989 45.5531 105.322C45.3299 104.608 45.0082 103.929 44.5974 103.303Z" fill="#C0CAD5"/>
<path d="M43.7371 80.3424C43.7315 80.422 43.7315 80.5018 43.7371 80.5814C42.9857 77.7993 42.545 74.9425 42.423 72.0633C42.423 69.2439 42.8172 66.4245 42.8889 63.605C43.1043 60.7712 42.4899 57.9359 41.1208 55.4454C40.7249 54.7868 40.2057 54.2108 39.5916 53.749C38.9763 53.3439 38.2855 53.0676 37.5606 52.9366C37.0418 52.817 36.5025 52.817 35.9837 52.9366C34.2275 53.4503 33.5226 55.5649 33.1762 57.1179C32.7712 59.2351 32.6627 61.3982 32.8536 63.5453C33.0052 66.9124 33.5015 70.255 34.335 73.5208C35.2669 77.0451 36.0195 80.6889 36.7244 84.2729C37.3217 87.2357 37.3814 90.318 37.919 93.3166C38.7111 96.8517 39.1908 100.45 39.3526 104.069C39.3343 104.171 39.3343 104.277 39.3526 104.379C39.404 104.489 39.482 104.583 39.5796 104.654C39.9308 104.921 40.3402 105.101 40.7743 105.18C41.9618 105.408 43.1915 105.213 44.2508 104.63C44.4971 104.521 44.6992 104.331 44.8243 104.093C44.8936 103.906 44.9221 103.706 44.9079 103.507C44.8243 101.88 44.8243 100.249 44.9079 98.621C45.0513 96.9365 45.2305 95.252 45.3499 93.5556C45.7464 89.0868 45.1969 84.5846 43.7371 80.3424Z" fill="#254288"/>
<path d="M41.097 117.126C40.8939 117.126 40.5714 116.816 40.655 116.66C40.3078 117.338 40.2145 118.118 40.3922 118.859C40.4541 119.212 40.611 119.543 40.8461 119.814C41.1044 120.052 41.4157 120.224 41.7541 120.316C42.3848 120.483 43.0389 120.544 43.6895 120.495C44.8694 120.501 46.0361 120.246 47.106 119.748C48.1758 119.251 49.1224 118.523 49.8779 117.616C50.6067 116.601 50.977 115.37 51.646 114.307C51.9925 113.757 52.3867 113.22 52.7332 112.67C53.0903 112.026 53.2405 111.288 53.1633 110.556C53.0932 109.787 52.9204 109.032 52.6495 108.31C52.6149 108.473 52.5544 108.631 52.4703 108.776C52.2433 109.134 52.1239 108.656 51.9805 108.501C51.7419 108.234 51.4484 108.022 51.1203 107.88C50.3859 107.627 49.5891 107.619 48.8501 107.858C48.111 108.098 47.4697 108.57 47.0226 109.206C45.6965 110.866 44.3465 112.491 43.128 114.235C42.674 114.856 42.2439 115.502 41.8138 116.147L41.4913 116.637C41.4175 116.807 41.3166 116.964 41.1926 117.102L41.097 117.126Z" fill="#254288"/>
<path d="M41.0849 115.729C40.838 116.015 40.6627 116.356 40.5734 116.724C40.4841 117.092 40.4833 117.475 40.5712 117.843C40.6909 118.075 40.8599 118.277 41.0663 118.436C41.2728 118.595 41.5116 118.707 41.7659 118.763C42.3955 118.936 43.0506 118.997 43.7013 118.942C44.8804 118.951 46.0468 118.698 47.1167 118.202C48.1866 117.706 49.1336 116.98 49.8897 116.075C50.6185 115.048 50.9888 113.817 51.6578 112.754C52.0326 112.247 52.3681 111.712 52.6614 111.153C53.0455 110.219 53.0668 109.175 52.7211 108.226C52.602 107.817 52.3993 107.437 52.1258 107.11C51.8523 106.783 51.514 106.516 51.1322 106.327C50.3977 106.074 49.6009 106.066 48.8619 106.305C48.1228 106.545 47.4815 107.017 47.0344 107.653C45.7084 109.313 44.3584 110.95 43.1398 112.682C42.411 113.674 41.7301 114.701 41.0849 115.729Z" fill="#C0CAD5"/>
<path d="M54.4894 93.5669C54.3081 91.5506 53.9604 89.5526 53.45 87.5935C53.2111 86.602 52.9841 85.6223 52.781 84.6308C52.5539 83.134 52.5539 81.6116 52.781 80.1149C53.0916 77.1879 53.7726 74.3207 54.0712 71.3937C54.5484 66.2128 53.963 60.989 52.3509 56.0421C51.7478 56.5889 51.0393 57.0065 50.2689 57.2695C49.4984 57.5324 48.6824 57.6352 47.8709 57.5713C46.2512 57.4329 44.6874 56.9129 43.3072 56.0541C42.6823 55.5778 41.9293 55.299 41.1448 55.2537C40.7694 55.3068 40.414 55.4555 40.1128 55.6857C39.8115 55.9158 39.5745 56.2196 39.4245 56.5678C39.1234 57.2687 38.9806 58.0275 39.0064 58.7899L39.1497 60.6536C39.4297 66.4458 40.4125 72.1824 42.0767 77.7375C42.5426 79.3025 43.0683 80.8556 43.6537 82.3848C45.3373 86.9261 46.5425 91.6307 47.2496 96.4222C47.566 98.4267 47.7456 100.45 47.7873 102.479C47.8014 103.516 47.7615 104.553 47.6678 105.585C47.5842 106.434 47.0824 107.162 48.1098 107.604C48.8442 107.946 49.6326 108.156 50.4394 108.226C51.2522 108.299 52.0656 108.092 52.7452 107.64C52.8224 107.597 52.888 107.535 52.9363 107.461C52.9802 107.372 53.0007 107.273 52.996 107.174C53.0954 105.595 53.2909 104.023 53.5814 102.467C54.0288 100.264 54.3281 98.0326 54.4774 95.789C54.4894 95.0483 54.4894 94.3076 54.4894 93.5669Z" fill="#0047BA"/>
<path d="M53.9398 58.492L51.5505 50.5116C51.3604 49.9674 51.24 49.4015 51.192 48.8271C51.2085 48.1349 51.3335 47.4496 51.5624 46.7961L52.996 41.8741C53.5933 39.8431 54.1907 37.7883 54.6327 35.7095C54.9816 34.433 55.0469 33.0955 54.8239 31.791C54.5221 30.7673 54.0495 29.802 53.4261 28.9357C51.6115 26.1403 49.6161 23.4665 47.4527 20.9314L41.5749 23.8703L40.1652 24.4318C39.3791 24.4886 38.6212 24.7486 37.9657 25.1863C37.3102 25.624 36.7796 26.2244 36.4259 26.9287C36.1202 27.6471 35.8919 28.396 35.7449 29.1627C35.2883 31.011 34.5977 32.7935 33.69 34.4671C33.0169 35.4728 32.6062 36.631 32.4954 37.8361C32.4954 39.3891 33.69 40.6555 34.2396 42.1369C34.8728 43.9648 34.3949 45.9718 33.9887 47.8594C33.4473 50.4037 33.0485 52.9763 32.794 55.5651C32.7463 56.1256 32.7463 56.6891 32.794 57.2496C32.8417 57.8357 33.0574 58.3957 33.4152 58.8624C33.9191 59.4909 34.545 60.0111 35.2551 60.3916C37.6756 61.7799 40.3989 62.555 43.1877 62.6495C45.9649 62.7521 48.7413 62.4257 51.419 61.6818C52.0736 61.5525 52.6952 61.2925 53.2469 60.9172C53.5973 60.633 53.8518 60.2478 53.9758 59.8139C54.0998 59.38 54.0872 58.9185 53.9398 58.492Z" fill="#CF2935"/>
<path d="M39.1018 18.4467C38.3611 19.9878 39.3049 21.9591 39.735 23.4643C39.8305 23.8227 39.8664 24.205 39.9858 24.5754C40.0781 24.787 40.1307 25.0138 40.1412 25.2444C40.0063 26.0502 39.8269 26.8479 39.6036 27.6338C39.3889 28.5679 39.4343 29.5431 39.735 30.4532C39.7622 30.5754 39.8303 30.6847 39.9281 30.7629C40.0259 30.8411 40.1474 30.8836 40.2726 30.8833C40.7606 30.8877 41.2375 30.7371 41.6345 30.4532C43.2756 29.3571 44.8257 28.1305 46.2698 26.7855C47.0889 26.245 47.7096 25.4524 48.038 24.5276C48.1813 23.8108 47.799 23.3927 47.3928 22.879C46.941 22.3192 46.5411 21.7193 46.1982 21.0869C45.4484 19.7082 45.0891 18.1509 45.1588 16.583C44.8284 16.9202 44.4171 17.167 43.9641 17.2998C42.6195 17.8019 41.1941 18.0529 39.7589 18.0405C39.5805 18.0203 39.4004 18.058 39.2451 18.148C39.1776 18.2369 39.1289 18.3385 39.1018 18.4467Z" fill="#FFAD97"/>
<path d="M41.6824 20.2396C41.962 19.9644 42.2252 19.6732 42.4709 19.3675C42.6798 18.9816 42.8634 18.5825 43.0204 18.1728C43.3867 17.3102 43.5853 16.3858 43.6058 15.4489C43.5978 14.6388 43.473 13.8341 43.2355 13.0596C43.0622 12.3852 42.7884 11.7408 42.4231 11.1481C42.0104 10.522 41.4636 9.99552 40.8222 9.60695C40.0464 9.18177 39.2008 8.89856 38.3254 8.77067C37.3292 8.67537 36.3243 8.79925 35.3811 9.13359C34.438 9.46793 33.5794 10.0046 32.8657 10.706C31.852 11.6796 31.1389 12.9235 30.8108 14.2901C30.7378 14.5829 30.7057 14.8844 30.7153 15.1861C30.7206 16.0492 30.7805 16.9111 30.8945 17.7666C30.9539 18.1931 31.0377 18.6159 31.1453 19.0329C31.1871 19.4048 31.3559 19.7508 31.6232 20.0126C31.8383 20.1679 32.113 20.2515 32.2445 20.4785C32.3039 20.6772 32.3039 20.889 32.2445 21.0878L32.0533 22.4497C32.0064 22.6079 31.9949 22.7745 32.0197 22.9376C32.0445 23.1007 32.1049 23.2564 32.1967 23.3935C32.6148 23.8355 33.5227 23.3935 33.905 23.9072C34.0484 24.0984 34.0843 24.397 34.2993 24.4926C34.5144 24.5882 34.586 24.4926 34.6697 24.6121C34.7533 24.7315 34.6697 24.7554 34.7533 24.8271C34.8608 25.1019 35.255 25.078 35.5059 25.2214C35.9479 25.4603 35.9241 26.1413 36.3064 26.416C36.4587 26.5097 36.63 26.568 36.8078 26.5866C36.9857 26.6052 37.1654 26.5837 37.3338 26.5236C38.8412 25.9899 40.1082 24.9348 40.9059 23.5488C41.2501 23.0711 41.5275 22.5486 41.7302 21.9957C41.9379 21.4255 41.9208 20.7976 41.6824 20.2396Z" fill="#FFC1AF"/>
<path d="M37.2739 21.8404C37.2506 21.9958 37.1968 22.145 37.1157 22.2796C37.0346 22.4142 36.9277 22.5315 36.8012 22.6247C36.6747 22.7179 36.531 22.7853 36.3784 22.8229C36.2259 22.8605 36.0674 22.8676 35.912 22.8439C35.6006 22.7966 35.3204 22.6283 35.1324 22.3754C34.9445 22.1226 34.864 21.8058 34.9085 21.4939C34.9312 21.337 34.9847 21.1861 35.0657 21.0499C35.1468 20.9137 35.2539 20.7947 35.3809 20.6999C35.5079 20.605 35.6524 20.5361 35.806 20.4971C35.9597 20.4581 36.1195 20.4497 36.2764 20.4725C36.4333 20.4952 36.5842 20.5486 36.7204 20.6297C36.8566 20.7107 36.9756 20.8178 37.0704 20.9449C37.1653 21.0719 37.2342 21.2163 37.2732 21.37C37.3122 21.5236 37.3206 21.6835 37.2978 21.8404H37.2739Z" fill="#F6755F"/>
<path d="M32.985 18.0998C33.2562 17.9658 33.5522 17.8892 33.8544 17.8748C34.1566 17.8604 34.4585 17.9086 34.7412 18.0162C34.258 17.9822 33.7763 18.1012 33.3646 18.3564C32.9528 18.6116 32.6319 18.99 32.4474 19.4379C32.422 19.496 32.3806 19.5458 32.328 19.5812C32.1965 19.6649 31.9456 19.5812 31.8979 19.4618C31.8501 19.3423 32.0173 19.0675 32.089 18.9361C32.3008 18.5768 32.6119 18.2864 32.985 18.0998Z" fill="#C0CAD5"/>
<path d="M41.9571 18.8999C41.5343 19.9058 40.9842 20.8533 40.3204 21.7193C39.7988 22.3999 39.395 23.1631 39.1258 23.9773C38.8866 24.8573 38.8866 25.7853 39.1258 26.6653C39.3765 27.7652 40.0228 28.7346 40.9417 29.3892C41.8763 29.9547 42.9436 30.2638 44.0359 30.2852C45.2676 30.3768 46.5054 30.2266 47.6796 29.8431C47.8349 29.8431 47.9902 29.7237 48.1455 29.6639L48.3009 29.5803C49.116 29.1409 49.8543 28.572 50.4871 27.8958C51.1052 27.2787 51.6177 26.5644 52.0044 25.7812C52.7978 24.2277 53.074 22.4613 52.7928 20.7397C52.6727 19.8322 52.2521 18.991 51.5981 18.3504C50.5713 17.6666 49.3673 17.2971 48.1336 17.2871C46.5088 17.0482 44.7288 16.415 44.0717 14.8977C43.8071 13.9494 43.6389 12.9768 43.5699 11.9947C43.3891 11.2427 43.0549 10.5362 42.5882 9.9195C42.1215 9.30276 41.5325 8.78908 40.858 8.41066C39.8181 7.81114 38.642 7.48763 37.4417 7.4709C36.2415 7.45417 35.0569 7.74477 34.0006 8.31508H33.905C32.3693 9.21476 31.23 10.6613 30.7152 12.365C30.4419 13.138 30.4419 13.9814 30.7152 14.7544C30.8982 15.0773 31.1591 15.3493 31.4743 15.5455C31.7894 15.7417 32.1486 15.8558 32.5192 15.8774C33.4869 16.0088 34.4784 15.7579 35.47 15.8057C36.2567 15.8567 37.0186 16.1016 37.6877 16.5185C38.3568 16.9354 38.9124 17.5114 39.305 18.195C39.3051 17.5726 39.4101 16.9547 39.6155 16.3672C39.7227 16.0752 39.8995 15.8138 40.1306 15.6056C40.3617 15.3974 40.6401 15.2487 40.9417 15.1725C41.1998 15.1153 41.4701 15.1623 41.6938 15.3032C41.9175 15.4441 42.0765 15.6676 42.1363 15.9252C42.3831 16.9117 42.3205 17.9502 41.9571 18.8999Z" fill="#C0CAD5"/>
<path d="M13.3325 39.9042C13.2982 39.9635 13.274 40.0281 13.2608 40.0953C13.2679 40.1586 13.2883 40.2197 13.3205 40.2745C13.5156 40.5492 13.7664 40.7796 14.0567 40.9505C14.3471 41.1214 14.6702 41.2289 15.005 41.2661C17.0875 41.7205 19.2472 41.6837 21.3129 41.1586C21.4015 40.3309 21.7202 39.5446 22.2328 38.8887C22.7461 38.2439 23.318 37.648 23.9412 37.1086C23.5534 36.9111 23.209 36.6381 22.9279 36.3058C22.6469 35.9735 22.4349 35.5885 22.3045 35.1733C22.0486 34.3426 21.6438 33.5653 21.1098 32.8795C20.7728 32.5599 20.3748 32.3116 19.9396 32.1495C19.5045 31.9873 19.041 31.9146 18.5771 31.9357C17.6431 31.9803 16.7283 32.2162 15.8891 32.6286C14.9386 32.9809 14.1093 33.5987 13.4997 34.4087C13.2902 34.7391 13.155 35.111 13.1034 35.4988C13.0518 35.8866 13.0852 36.281 13.2011 36.6547C13.4022 37.255 13.5344 37.8762 13.5953 38.5064C13.623 38.9868 13.5327 39.4667 13.3325 39.9042Z" fill="#FFAD97"/>
<path d="M12.2814 114.344C11.5844 114.346 10.8945 114.484 10.2504 114.75C9.63474 115.007 9.09574 115.419 8.68537 115.945C8.38091 116.319 8.10913 116.719 7.873 117.139C7.81401 117.291 7.72457 117.429 7.61017 117.545C7.61017 117.545 7.09646 117.641 7.12035 117.545C6.60003 118.799 6.45477 120.177 6.70221 121.512C6.72792 121.673 6.76383 121.833 6.80972 121.99C6.85623 122.196 6.9449 122.39 7.07015 122.56C7.19539 122.73 7.35449 122.872 7.53744 122.978C7.72038 123.083 7.92319 123.15 8.1331 123.173C8.343 123.196 8.55546 123.176 8.75705 123.113C9.55866 122.9 10.2475 122.386 10.6805 121.679C11.0107 120.848 11.2783 119.993 11.4809 119.122C11.8216 118.43 12.3016 117.816 12.8906 117.318C13.2371 116.996 13.6433 116.757 13.9778 116.411C14.1609 116.207 14.3008 115.969 14.3891 115.711C14.4774 115.452 14.5122 115.178 14.4915 114.905C14.4643 114.429 14.2889 113.974 13.9897 113.603C13.9897 113.603 13.9897 113.997 13.9897 114.081C13.9995 114.138 13.9959 114.197 13.9793 114.253C13.9628 114.309 13.9336 114.361 13.8941 114.403C13.6433 114.69 13.488 114.511 13.1893 114.403C12.8909 114.341 12.5853 114.321 12.2814 114.344Z" fill="#254288"/>
<path d="M12.2455 112.947C11.5447 112.95 10.8511 113.088 10.2025 113.353C9.59041 113.611 9.05538 114.022 8.64948 114.548C8.34502 114.922 8.07324 115.322 7.83711 115.742C7.75348 115.886 7.70569 116.065 7.57428 116.149C7.44286 116.232 7.04862 116.244 7.08446 116.149C6.55841 117.396 6.40489 118.77 6.64243 120.103C6.64243 120.258 6.70215 120.414 6.73799 120.581C6.78592 120.787 6.87591 120.982 7.00235 121.152C7.12879 121.322 7.28897 121.464 7.47285 121.569C7.65673 121.675 7.86035 121.741 8.07103 121.764C8.28171 121.787 8.49491 121.767 8.69728 121.704C9.49888 121.491 10.1877 120.978 10.6207 120.27C10.9387 119.438 11.1943 118.584 11.3853 117.714C11.7174 117.02 12.1939 116.405 12.783 115.91C13.249 115.492 13.9777 115.157 14.145 114.512C14.1827 114.283 14.1531 114.049 14.0597 113.836C13.9664 113.624 13.8134 113.444 13.6193 113.317C13.2096 113.057 12.7304 112.928 12.2455 112.947Z" fill="#E8EAF7"/>
<path d="M11.9586 114.81C10.9017 111.408 10.3385 107.872 10.286 104.309C10.1785 100.725 10.286 90.3435 10.286 88.7784C10.286 87.3687 10.286 85.947 10.4174 84.5612C10.9025 81.2388 11.1263 77.8834 11.0865 74.5259C11.1109 73.3421 10.8743 72.1674 10.3935 71.0853C9.97026 70.3052 9.33813 69.6584 8.56795 69.2174C7.79777 68.7764 6.91998 68.5586 6.03298 68.5884C1.87551 68.8393 0.943665 73.7136 0.84809 77.0348C0.815052 78.9937 1.0933 80.9454 1.67242 82.817C2.73774 86.355 3.28108 90.0295 3.28524 93.7244C3.03076 97.3899 3.28807 101.073 4.04981 104.668C4.63521 106.926 5.65067 109.076 6.20022 111.346C6.54281 112.969 6.7783 114.614 6.90511 116.268C6.91042 116.441 6.95976 116.609 7.04846 116.758C7.16337 116.893 7.31799 116.99 7.49049 117.033C8.27424 117.278 9.11516 117.271 9.89511 117.014C10.6751 116.757 11.3549 116.262 11.8391 115.599C11.9031 115.517 11.9517 115.424 11.9825 115.324C12.0222 115.154 12.0139 114.976 11.9586 114.81Z" fill="#254288"/>
<path d="M16.2596 121.226C16.2511 121.245 16.2383 121.263 16.2222 121.277C16.2061 121.291 16.187 121.301 16.1664 121.307C16.1458 121.313 16.1241 121.314 16.103 121.31C16.0819 121.306 16.062 121.298 16.0446 121.285C16.0446 121.285 15.8654 121.166 15.8893 121.106C15.6612 121.643 15.4968 122.204 15.3994 122.779C15.2437 123.77 15.2924 124.782 15.5428 125.753C15.7698 126.59 16.0924 127.569 17.072 127.737C17.5983 127.778 18.1235 127.643 18.5653 127.354C18.9907 127.112 19.3909 126.828 19.76 126.506C19.915 126.351 20.0874 126.215 20.2737 126.1C20.5692 125.978 20.8861 125.918 21.2056 125.921C22.8411 125.952 24.4481 125.49 25.817 124.595C26.1847 124.325 26.5072 123.998 26.7728 123.627C27.2739 122.92 27.5901 122.098 27.6927 121.238C27.8523 120.565 27.7407 119.857 27.382 119.266C27.382 119.266 27.2148 119.135 27.2148 119.099C27.2242 119.244 27.2047 119.389 27.1575 119.527C27.1104 119.664 27.0364 119.791 26.94 119.9C26.8206 120.031 26.7369 119.959 26.5936 119.9C26.0958 119.81 25.5861 119.81 25.0883 119.9C23.7369 120.176 22.357 120.289 20.9786 120.234C20.2641 120.07 19.5365 119.97 18.8043 119.935C18.0988 119.974 17.43 120.262 16.9167 120.748C16.7255 120.915 16.4986 121.369 16.2596 121.226Z" fill="#254288"/>
<path d="M27.5254 120.15C27.5804 119.838 27.5197 119.517 27.3548 119.246C27.1899 118.976 26.932 118.775 26.6294 118.681C26.1127 118.579 25.5811 118.579 25.0644 118.681C23.713 118.957 22.3331 119.07 20.9547 119.015C20.2402 118.851 19.5126 118.751 18.7804 118.716C18.0762 118.751 17.4073 119.035 16.8928 119.517C16.7256 119.684 16.4986 120.138 16.2477 119.995C15.7251 120.944 15.4422 122.006 15.4233 123.089C15.4233 124.284 15.6026 126.255 17.0601 126.506C17.5864 126.547 18.1115 126.412 18.5534 126.123C18.9788 125.881 19.379 125.597 19.7481 125.275C19.9031 125.12 20.0755 124.984 20.2618 124.869C20.5573 124.748 20.8742 124.687 21.1936 124.69C22.8284 124.716 24.4337 124.254 25.8051 123.364C26.1731 123.089 26.4957 122.759 26.7608 122.384C27.232 121.732 27.4981 120.954 27.5254 120.15Z" fill="#E8EAF7"/>
<path d="M21.6834 104.273C21.6834 96.1496 22.5555 88.0616 21.6834 79.9736C21.5639 78.779 21.4325 77.6799 21.2891 76.5449C21.1527 74.8496 20.8281 73.1747 20.3214 71.5512C20.2874 71.4032 20.2081 71.2696 20.0944 71.1689C19.6524 70.8344 18.8998 71.5273 18.613 71.7782C18.1518 72.1724 17.596 72.44 17.0002 72.5547C15.9436 72.6796 14.8735 72.4971 13.918 72.0291C12.9503 71.599 12.0543 71.0255 11.0985 70.5716C10.7087 70.3448 10.2779 70.1975 9.83096 70.138C9.38396 70.0785 8.92962 70.1081 8.49413 70.2251C8.49413 70.2251 6.86937 71.4198 6.96494 70.703C6.57328 72.8825 6.48483 75.1058 6.70211 77.3095C6.98605 78.7249 7.46026 80.0953 8.11182 81.3834C8.70916 82.7931 9.41404 84.167 10.0353 85.5647C11.2833 88.2422 12.2405 91.0458 12.8905 93.9275C13.1772 95.3372 13.2728 96.8305 13.452 98.2641C13.9777 102.505 14.4795 106.746 14.9215 110.987C15.361 114.108 15.6163 117.251 15.6861 120.402C15.6642 120.512 15.6854 120.627 15.7453 120.722C15.8053 120.818 15.8995 120.887 16.0087 120.915C16.8061 121.232 17.6763 121.319 18.5208 121.167C19.3652 121.015 20.1503 120.63 20.7874 120.055C20.9006 119.968 20.9942 119.858 21.0621 119.732C21.0981 119.571 21.0981 119.404 21.0621 119.243C20.9546 115.539 21.6714 105.468 21.6834 104.273Z" fill="#0047BA"/>
<path d="M7.47856 40.1785C6.90378 40.2547 6.36603 40.5048 5.93742 40.8953C5.63757 41.2659 5.46204 41.7215 5.43568 42.1975C5.33031 43.6398 5.37433 45.089 5.56707 46.5222C5.82789 50.9615 5.42523 55.4149 4.3724 59.7353C3.41666 64.1198 1.98305 68.3848 0.943683 72.7334C0.872667 72.9357 0.857383 73.1533 0.899423 73.3635C0.941462 73.5737 1.03929 73.7687 1.18263 73.9281C1.51419 74.3412 1.91921 74.6895 2.37731 74.9555C3.10768 75.319 3.883 75.5842 4.68303 75.744C9.07207 76.6475 13.5933 76.7043 18.0037 75.9113C18.8638 75.7679 19.724 75.6245 20.5722 75.4453C21.0859 75.3378 21.1576 75.302 21.3607 74.8241C21.5356 74.4352 21.6872 74.0363 21.8147 73.6294C22.3403 72.0883 22.6032 70.4755 23.0094 68.8507C23.4155 67.226 28.1943 52.5195 28.696 50.6797C29.0186 49.485 29.3173 48.2903 29.5682 47.0957C29.7474 46.2236 30.3447 45.0528 30.0102 44.1687C29.8415 43.823 29.5863 43.5267 29.2695 43.3086C27.9504 42.3492 26.475 41.6257 24.9089 41.1701C23.3678 40.6683 21.7789 40.286 20.2616 39.7006C19.8771 39.5338 19.4769 39.4058 19.0669 39.3183C18.754 39.2742 18.4351 39.3028 18.1351 39.402C17.8715 39.4903 17.5863 39.4903 17.3227 39.402C16.6178 39.2113 15.8906 39.1149 15.1603 39.1152C14.0732 39.1152 12.9621 39.3183 11.875 39.4378C10.4414 39.617 8.94802 39.8679 7.47856 40.1785Z" fill="#AC4733"/>
<path d="M3.24954 61.2891C3.37428 62.0584 3.54181 62.8202 3.75132 63.5709C3.98186 64.33 4.39161 65.0225 4.946 65.5899C5.02962 65.6736 5.18493 65.7691 5.2805 65.6736C5.32275 65.6324 5.34827 65.5771 5.35218 65.5183C5.35218 65.2913 5.42388 65.0643 5.44778 64.8373L5.87784 65.339C6.1995 65.8061 6.65892 66.1611 7.19199 66.3545C7.3712 66.3545 7.62206 66.3545 7.6579 66.1873C7.96841 66.3563 8.33213 66.399 8.67338 66.3067C8.78846 66.2861 8.89119 66.222 8.96013 66.1275C9.04376 65.9722 8.96013 65.7811 8.96013 65.6138C8.98921 65.3283 9.0659 65.0497 9.18708 64.7895C9.24747 64.417 9.19765 64.035 9.04373 63.6904C8.51807 62.1612 7.5265 60.8232 6.85749 59.3418C6.77333 59.2108 6.73937 59.0538 6.76189 58.8997C6.84287 58.9078 6.92115 58.9333 6.99129 58.9745C7.06143 59.0158 7.12177 59.0718 7.16811 59.1387L7.69374 59.7599C7.81622 59.9124 7.96127 60.0454 8.12384 60.1542C8.20776 60.2012 8.3024 60.226 8.39863 60.226C8.49486 60.226 8.58946 60.2012 8.67338 60.1542C8.76393 60.0815 8.83138 59.9841 8.86745 59.8738C8.90352 59.7634 8.90666 59.645 8.87649 59.5329C8.80558 59.3115 8.70935 59.0991 8.58975 58.8997C8.12382 57.9321 8.20745 56.6896 7.39507 55.9489C7.12546 55.7332 6.83766 55.5414 6.5349 55.3754C6.09305 55.0907 5.70819 54.7261 5.39998 54.3002C5.35429 54.2284 5.29787 54.1639 5.23271 54.1091C5.15375 54.0688 5.06918 54.0406 4.98184 54.0255C4.32745 53.9147 3.65479 54.019 3.06466 54.3227C2.47452 54.6264 1.99869 55.1131 1.70843 55.71C1.69647 55.7651 1.69647 55.8221 1.70843 55.8772C1.71833 55.9546 1.74705 56.0285 1.79207 56.0923C2.18037 56.819 2.46963 57.5945 2.6522 58.398C2.81946 59.3896 3.11813 60.3214 3.24954 61.2891Z" fill="#FFAD97"/>
<path d="M5.42381 49.3419C5.26598 51.3816 5.59775 53.4296 6.39149 55.3152C5.91106 55.266 5.42566 55.3195 4.96749 55.4722C4.50932 55.6249 4.08885 55.8734 3.73406 56.201C3.37927 56.5287 3.09825 56.9281 2.90966 57.3727C2.72106 57.8173 2.62924 58.297 2.64023 58.7798C1.28356 56.936 0.498394 54.7342 0.382273 52.448C0.203071 50.9905 0.08363 49.545 0.0358429 48.0994C-0.0659084 45.3912 0.0419208 42.6791 0.358392 39.9875C0.609274 37.873 1.14688 35.7942 1.48139 33.6916L2.55659 26.8103C2.74312 25.5677 3.11356 24.3598 3.65571 23.2262C4.03637 22.4471 4.52725 21.7269 5.11322 21.0878C5.14199 21.053 5.17398 21.021 5.20877 20.9922C5.08722 21.2704 5.0579 21.5802 5.12514 21.8762C5.3083 23.457 5.62402 25.0196 6.06894 26.5474C6.81369 29.4805 7.39993 32.4516 7.82512 35.4478L7.46673 37.2756C7.07249 39.3066 6.8216 41.3495 6.37957 43.3565C5.89693 45.322 5.57725 47.3239 5.42381 49.3419Z" fill="#F5B2C3"/>
<path d="M12.9981 39.9505C13.3767 40.1066 13.7832 40.1839 14.1927 40.1775C14.9334 40.1775 15.6742 40.2611 16.4149 40.2611C17.8963 40.2611 19.3657 40.1894 20.8471 40.2611C21.8307 40.2352 22.8095 40.4057 23.7263 40.7629C23.0957 40.2153 22.3819 39.7717 21.6117 39.4487C20.883 39.1023 20.1661 38.7678 19.4374 38.4452C19.0909 38.3018 18.7445 38.1465 18.398 38.0271C18.0693 37.9249 17.734 37.845 17.3945 37.7881C16.3671 37.5731 15.3038 37.6448 14.3003 37.3819C14.2135 37.3646 14.1242 37.3646 14.0375 37.3819C13.9388 37.3879 13.8438 37.421 13.7627 37.4775C13.3334 37.7258 12.9786 38.0847 12.7352 38.5169C12.5805 38.829 12.5547 39.1895 12.6636 39.5204C12.7231 39.6975 12.841 39.8492 12.9981 39.9505Z" fill="#E8EAF7"/>
<path d="M22.9976 29.1875C23.0934 29.3434 23.1658 29.5125 23.2127 29.6893C23.228 29.8309 23.256 29.9708 23.2963 30.1074C23.3946 30.2795 23.5395 30.4204 23.7144 30.5136L25.1839 31.4813C25.2743 31.54 25.3549 31.6126 25.4228 31.6964C25.5542 31.9353 25.4228 32.222 25.2436 32.449C25.1695 32.5581 25.1177 32.6807 25.091 32.8099C25.0644 32.939 25.0635 33.0721 25.0883 33.2016C25.1392 33.3411 25.2074 33.4735 25.2914 33.5959C25.6663 34.3073 25.867 35.0975 25.8768 35.9016C25.9377 36.1789 25.9038 36.4687 25.7803 36.7243C25.6568 36.98 25.4509 37.1867 25.1958 37.3113C24.6738 37.6538 24.0739 37.8593 23.4516 37.9087C22.8962 37.9477 22.3387 37.8704 21.8149 37.6817C21.4445 37.5503 20.7994 37.1799 20.429 37.383C20.3375 37.4403 20.2533 37.5085 20.1782 37.5861C19.8398 37.8381 19.4522 38.0162 19.0406 38.1089C18.629 38.2015 18.2025 38.2065 17.7888 38.1237C15.9285 38.0539 14.1627 37.2862 12.8429 35.9733C12.5374 35.6099 12.2803 35.2083 12.0783 34.7786C11.4256 33.5182 11.1714 32.0891 11.3495 30.6809C11.5144 29.4289 12.0656 28.2596 12.9265 27.3358C13.8371 26.4395 15.0003 25.8434 16.2596 25.6274C17.2622 25.4207 18.3018 25.4867 19.2702 25.8186C20.0511 26.0885 20.7789 26.4928 21.4206 27.0132C22.0707 27.6391 22.6046 28.3753 22.9976 29.1875Z" fill="#FFC1AF"/>
<path d="M24.4311 33.4762C24.4121 33.7234 24.2957 33.9529 24.1075 34.1142C23.9193 34.2755 23.6748 34.3554 23.4276 34.3364C23.1805 34.3174 22.951 34.201 22.7897 34.0128C22.6284 33.8246 22.5484 33.58 22.5675 33.3329C22.5865 33.0858 22.7029 32.8563 22.8911 32.695C23.0793 32.5337 23.3238 32.4537 23.571 32.4727C23.8181 32.4917 24.0476 32.6081 24.2089 32.7963C24.3702 32.9845 24.4502 33.2291 24.4311 33.4762Z" fill="#F6755F"/>
<path d="M22.878 29.7019C22.878 29.6183 22.9736 29.5705 23.0452 29.6302C23.1158 29.7082 23.165 29.803 23.188 29.9056C23.211 30.0082 23.2071 30.115 23.1767 30.2156C23.1045 30.4117 23.0124 30.5998 22.9019 30.7771C22.7405 31.103 22.6664 31.4653 22.6869 31.8284C22.5419 31.4855 22.4963 31.1088 22.5554 30.7413C22.5945 30.4808 22.6709 30.2273 22.7824 29.9886C22.8088 29.8913 22.8407 29.7956 22.878 29.7019Z" fill="#6A3C36"/>
<path d="M17.4543 36.7852C17.4568 35.7905 17.7794 34.8229 18.3742 34.0255C18.6774 33.7486 19.0614 33.576 19.4699 33.533C19.8783 33.49 20.2898 33.5789 20.6441 33.7866C20.6156 32.9096 20.9234 32.0549 21.5043 31.3973C21.7432 31.0986 22.0299 30.7402 21.9463 30.3698C21.9021 30.2156 21.8246 30.0728 21.7193 29.9517C20.8113 28.8287 19.1388 28.3867 18.5414 27.0845C17.686 28.1008 16.7512 29.0476 15.7459 29.9159C14.9987 30.5347 14.1553 31.0271 13.249 31.3734C12.8069 31.5495 12.3459 31.6738 11.8751 31.7437C11.7807 31.7524 11.6857 31.736 11.5997 31.6962C11.5137 31.6563 11.4397 31.5944 11.3853 31.5167C11.3853 31.445 11.0986 31.1225 11.1822 31.015C10.7905 31.6682 10.6267 32.4329 10.7163 33.1893C10.8261 34.0462 11.1372 34.865 11.6243 35.5786C12.13 36.349 12.7367 37.0482 13.4282 37.6574C13.9295 38.1836 14.5417 38.5917 15.2202 38.852C15.4985 38.9065 15.7858 38.8914 16.0568 38.808C16.3277 38.7247 16.5739 38.5756 16.7733 38.3742C17.173 37.9365 17.413 37.3765 17.4543 36.7852Z" fill="#6A3C36"/>
<path d="M20.9545 28.3278C21.133 28.1226 21.2818 27.8934 21.3965 27.6468C21.5437 27.3467 21.6091 27.0129 21.586 26.6794C21.563 26.3459 21.4523 26.0243 21.2651 25.7473C20.8349 25.3435 20.2771 25.1027 19.6882 25.0663C18.8943 24.9759 18.0927 24.9759 17.2988 25.0663C16.1127 25.1481 14.9511 25.4436 13.8701 25.9384C13.5396 26.1204 13.224 26.3281 12.9263 26.5597C12.3995 26.9432 11.9359 27.4068 11.5524 27.9335C11.159 28.4553 10.9339 29.0846 10.9073 29.7375C10.5641 29.9571 10.2772 30.2542 10.0697 30.6049C9.86226 30.9555 9.73992 31.35 9.7126 31.7565C9.70327 32.1611 9.78925 32.5623 9.96358 32.9275C10.1379 33.2928 10.3957 33.6119 10.7161 33.8591C11.8656 33.8138 12.9689 33.3943 13.8581 32.6645C14.2608 32.374 14.5484 31.951 14.6705 31.4698C14.6705 31.4698 15.244 31.5773 15.3156 31.5773C15.6286 31.5599 15.936 31.487 16.2236 31.3623C17.908 30.7572 19.435 29.7814 20.6917 28.507L20.9545 28.3278Z" fill="#6A3C36"/>
<path d="M50.714 40.2746C50.5319 39.9498 50.4363 39.5837 50.4363 39.2114C50.4363 38.839 50.5319 38.4729 50.714 38.1481C51.0468 37.7039 51.3274 37.2229 51.5503 36.7145C51.622 36.4397 51.61 36.153 51.7056 35.8782C51.739 35.7415 51.8197 35.621 51.9333 35.5379C52.047 35.4548 52.1864 35.4146 52.3268 35.4243C52.5896 35.4243 52.721 35.7827 52.7688 36.0574C52.8099 36.3107 52.8099 36.5688 52.7688 36.822C52.7452 37.0204 52.7452 37.221 52.7688 37.4194C52.8688 37.8063 53.0616 38.163 53.3303 38.4587C53.7032 39.0029 53.9632 39.6163 54.0949 40.2627C54.2975 41.0506 54.2684 41.8802 54.0113 42.652C53.8865 43.0358 53.6666 43.3816 53.372 43.6574C53.0775 43.9331 52.7179 44.1298 52.3268 44.229C52.3625 43.9594 52.3625 43.6863 52.3268 43.4166C52.2993 43.1409 52.1768 42.8833 51.9803 42.6879C51.8011 42.5087 51.5383 42.4251 51.4069 42.21C51.2755 41.995 51.4069 41.6246 51.2994 41.314C51.1918 41.0034 50.9051 40.5614 50.714 40.2746Z" fill="#FFC1AF"/>
<path d="M53.9754 41.0034C53.7372 40.5773 53.3501 40.254 52.8883 40.0955C52.3949 40.1264 51.9159 40.2738 51.4905 40.5255L49.9852 41.1826C47.9782 42.0667 45.9591 42.9507 43.8924 43.6795C41.9356 44.4826 39.8295 44.8574 37.7159 44.7786C36.7243 44.695 35.7207 44.5874 34.7292 44.4202C32.7505 44.1228 30.8138 43.5935 28.9589 42.8432C28.3138 42.5684 26.9399 41.8875 26.3426 42.4968C25.0762 43.7631 24.9448 45.8896 25.0882 47.5622C25.0633 48.0727 25.1794 48.5802 25.4239 49.0291C25.6683 49.4779 26.0316 49.8508 26.4739 50.1069C28.7833 51.1035 31.2702 51.6236 33.7854 51.636C37.0543 51.8027 40.3289 51.4478 43.4862 50.5847C46.6457 49.71 49.5633 48.1245 52.0161 45.9494C52.9471 45.1209 53.6643 44.0799 54.1068 42.9149C54.2281 42.6065 54.2792 42.275 54.2564 41.9443C54.2337 41.6137 54.1377 41.2923 53.9754 41.0034Z" fill="#FA8E79"/>
<path d="M28.6603 54.8365C28.0725 55.1604 27.4074 55.3174 26.7368 55.2905C26.0797 55.1949 25.5422 54.7529 24.8254 54.6932C24.0043 54.7609 23.1984 54.9544 22.436 55.2666C21.9581 55.3741 21.4564 55.3502 20.9665 55.4219C20.8231 55.4299 20.6874 55.4893 20.5842 55.5892C20.4289 55.7803 20.5842 56.067 20.7396 56.2343C21.1766 56.5249 21.6972 56.6634 22.2209 56.6285C21.8061 57.3519 21.1572 57.9124 20.3812 58.2175C19.6086 58.6529 18.8662 59.1398 18.159 59.675C17.9679 59.8303 17.2392 60.6188 17.8007 60.7382C18.0925 60.771 18.3876 60.717 18.6489 60.5829C19.0588 60.4173 19.4579 60.2257 19.8435 60.0095C20.2544 59.7104 20.7157 59.4878 21.2055 59.3524C20.3931 60.3201 19.0909 60.7382 18.2546 61.6701C18.1486 61.7836 18.0672 61.9178 18.0157 62.0643C17.9973 62.2143 18.0211 62.3664 18.0844 62.5036C18.1477 62.6408 18.248 62.7576 18.3741 62.8409C18.3098 63.0044 18.3112 63.1865 18.3779 63.349C18.4447 63.5115 18.5718 63.6419 18.7325 63.713C19.0604 63.8326 19.4201 63.8326 19.748 63.713C20.9988 63.3155 22.1399 62.6325 23.0811 61.7179C23.1886 61.8254 23.0811 62.0046 23.0094 62.136C22.6621 62.5851 22.2272 62.9591 21.7311 63.2351C21.3162 63.4361 20.9169 63.6677 20.5364 63.928C20.4753 63.9701 20.4265 64.0277 20.3951 64.0949C20.3636 64.1621 20.3505 64.2364 20.3572 64.3103C20.375 64.3571 20.4039 64.399 20.4413 64.4323C20.4788 64.4656 20.5237 64.4893 20.5723 64.5015C20.7847 64.564 21.0077 64.5826 21.2275 64.5559C21.4473 64.5291 21.6594 64.4578 21.8506 64.3461C23.8999 63.5012 25.8282 62.3885 27.5851 61.0369C28.3616 60.4396 29.1023 59.8422 29.9147 59.2688C30.7157 58.7017 31.642 58.3369 32.6146 58.2055C32.7732 57.568 32.8613 56.915 32.8775 56.2582C32.8811 55.5925 32.653 54.9463 32.2323 54.4303C32.0392 54.2062 31.7915 54.0356 31.5131 53.9352C31.2348 53.8347 30.9352 53.8078 30.6434 53.8569C30.3185 53.9626 30.0091 54.1113 29.7235 54.2989L28.6603 54.8365Z" fill="#FFC1AF"/>
<path d="M54.4892 32.6275C54.1906 31.6359 53.2946 30.1426 52.1835 29.9514C51.5051 29.9126 50.8289 30.0589 50.2271 30.3745C49.6253 30.6901 49.1205 31.1633 48.7667 31.7434C48.155 32.5967 47.6458 33.519 47.2495 34.4912C46.7836 35.5784 46.4371 36.7013 46.0548 37.8243C45.0513 41.0022 44.0358 44.18 43.0323 47.3817L42.7336 47.4773C41.5389 47.9432 28.8873 54.2631 28.4931 54.4303C28.3019 54.502 27.7285 54.5976 27.7404 54.8843C27.7467 54.9379 27.7651 54.9894 27.794 55.0349C27.823 55.0804 27.8618 55.1187 27.9077 55.1471C28.0028 55.1972 28.1029 55.2372 28.2064 55.2666C28.6922 55.4686 29.1078 55.8094 29.401 56.2463C29.688 56.6974 29.8678 57.2082 29.9267 57.7396C29.9864 58.1338 30.0103 58.5281 30.0342 58.9343C30.0581 59.3405 30.0342 59.4838 30.3926 59.5913C30.716 59.6652 31.0544 59.6359 31.3603 59.5077C32.0652 59.2927 44 54.3228 45.0035 53.9166L45.9234 53.5702C47.7393 52.9609 48.8265 51.1808 49.7225 49.6397C50.7857 47.784 51.7082 45.8512 52.4822 43.8575C52.745 43.2004 52.9839 42.5433 53.2229 41.8743C54.1126 39.5197 54.5973 37.0315 54.6565 34.5151C54.6881 33.8812 54.6318 33.246 54.4892 32.6275Z" fill="#FF5853"/>
<path d="M5.65077 20.5488C5.49609 20.6717 5.35222 20.8076 5.2207 20.955C5.33649 20.7931 5.48252 20.6552 5.65077 20.5488Z" fill="#D6C9B7"/>
</g>
<defs>
<clipPath id="clip0_4154_12103">
<rect width="58.79" height="128.894" fill="white" transform="translate(0 0.191406)"/>
</clipPath>
</defs>
</svg>
