<svg width="168" height="133" viewBox="0 0 168 133" fill="none" xmlns="http://www.w3.org/2000/svg">
<g clip-path="url(#clip0_4154_12113)">
<path d="M87.9326 41.7828C87.0049 42.0351 86.0771 42.3525 85.1575 42.7024C69.8904 44.5579 55.0464 38.4869 39.8281 37.7138C32.6014 37.3394 25.4317 37.2255 18.2864 38.3811C14.8847 38.9345 4.64689 39.5367 5.26539 43.4349C5.5665 45.2985 9.42398 45.6484 10.7668 46.4867C6.37218 46.9994 -1.78224 48.7247 1.08239 51.9636C2.44959 53.5099 5.06194 53.5099 7.8289 54.2016C6.28515 54.6402 4.80913 55.2892 3.44245 56.1304C2.16476 56.9442 -3.48311 63.2024 3.18203 66.8483C0.944037 68.2481 -0.235994 70.1036 0.260433 72.545C0.838241 75.3689 4.6062 74.311 6.07106 74.3517C3.05181 81.0982 7.63359 84.2232 10.547 83.3036C10.3273 87.9749 16.5286 88.6178 20.15 87.0065C28.1498 83.385 35.5555 77.6151 42.6439 72.5857C49.9682 67.361 57.1949 61.9491 64.6168 56.8791C68.4174 54.2912 72.283 51.7927 76.2462 49.4652C80.2095 47.1377 84.6041 45.3962 88.3395 42.8571C88.4663 42.7924 88.5648 42.6833 88.6161 42.5505C88.6674 42.4177 88.6679 42.2707 88.6175 42.1376C88.567 42.0045 88.4693 41.8947 88.3429 41.8292C88.2165 41.7638 88.0704 41.7472 87.9326 41.7828Z" fill="#56CCF2"/>
<path opacity="0.5" d="M26.5304 49.0581C26.3937 48.9536 26.2824 48.8195 26.2048 48.6659C26.1273 48.5123 26.0856 48.3431 26.0828 48.171C25.9852 46.6573 27.8407 45.6807 29.0207 45.3064C32.2759 44.2566 35.5963 44.1264 38.4365 42.8649C33.7164 42.8649 26.9455 42.0511 22.3149 42.3522C19.6456 42.5394 16.5612 42.7429 15.137 45.2413C14.5999 46.1853 16.3008 46.8689 19.4991 47.5607C18.3335 47.9481 17.146 48.2661 15.9427 48.5128C10.0995 49.8963 11.3853 52.704 13.664 52.9807C11.7635 53.9323 10.0749 55.2582 8.69975 56.8788C8.29485 57.2844 8.03602 57.8129 7.96385 58.3814C7.89168 58.9499 8.01026 59.5263 8.30098 60.0201C5.18408 62.0954 7.82083 64.8298 11.5562 65.7168C10.5146 64.431 11.7353 62.6895 13.2734 61.4443C11.4667 60.5003 12.3701 58.3844 13.8431 57.1067C15.3237 55.9224 17.1044 55.1729 18.9864 54.9419C18.0993 54.356 18.4492 52.8667 19.5642 51.7355C21.2488 50.0265 23.8855 49.3429 26.5304 49.0581Z" fill="white"/>
<path d="M17.2121 31.082C15.9426 31.2692 10.0099 31.7168 10.0994 34.5326C10.1889 37.1693 15.4543 35.9486 16.6587 35.7859C22.274 34.972 27.6045 33.9141 33.2768 33.5072C29.6228 31.1959 21.5335 30.3821 17.2121 31.082Z" fill="#56CCF2"/>
<path d="M24.2516 28.4528C24.3004 30.0316 26.1559 30.0805 27.2464 30.0235C29.4193 29.9828 31.5759 29.6817 33.7569 29.6898C36.0001 29.6366 38.2441 29.7482 40.4709 30.0235C37.9318 28.3226 24.1458 24.8802 24.2516 28.4528Z" fill="#56CCF2"/>
<path d="M107.733 44.1039V42.4763L107.106 42.3623C106.751 41.9631 106.329 41.6274 105.861 41.3695C103.224 39.8639 99.2041 39.5954 89.5848 42.7448C86.533 43.7458 82.9278 45.0723 78.6227 46.8139C60.6537 54.1382 34.6768 69.5519 24.0321 78.9514L23.7147 79.2362C19.4178 83.0856 17.7251 85.8932 17.2042 87.879H17.0577V88.7416C17.0413 88.9909 17.0413 89.241 17.0577 89.4903C17.0808 89.9609 17.2117 90.4199 17.4403 90.8319C17.6689 91.244 17.989 91.598 18.3761 91.8666C19.1248 92.2898 25.0819 94.5522 40.7478 88.6114L40.8699 88.5626C57.1625 82.3532 83.823 67.4604 96.4127 57.1249C99.2367 54.8056 101.442 52.8361 103.127 51.1515C106.414 47.8474 107.708 45.6583 107.733 44.1039Z" fill="#254288"/>
<path d="M78.175 55.2291L50.6274 71.1391C41.6755 76.2987 29.5415 77.3974 23.6658 77.6497C13.8024 86.4795 17.6436 89.8569 18.3597 90.28C19.1084 90.7032 25.0655 92.9656 40.7315 87.0248L40.8535 86.976C41.3744 83.4196 43.5229 76.8603 52.0109 71.9611L79.5911 56.0429C84.4251 53.2515 94.2397 50.0125 103.127 49.5324C108.953 43.7136 108.522 41.321 105.861 39.7666C103.224 38.2529 99.204 37.9925 89.5847 41.1338C89.0069 46.3992 83.1719 52.3482 78.175 55.2291Z" fill="#EE2A24"/>
<path d="M52.0353 71.9526C43.5472 76.8355 41.3988 83.4111 40.8779 86.9675C57.1623 80.7744 83.8229 65.849 96.4126 55.4973C99.2365 53.178 101.442 51.2085 103.127 49.5239C94.1746 50.0122 84.4088 53.2512 79.5911 56.0344L52.0353 71.9526Z" fill="#0047BA"/>
<path d="M23.9832 77.3326L23.6658 77.6175C29.5415 77.3977 41.6836 76.2991 50.6274 71.107L78.175 55.2295C83.1718 52.3486 89.0069 46.3996 89.5684 41.1179C86.5166 42.1189 82.9114 43.4536 78.6063 45.187C60.6048 52.495 34.6604 67.9331 23.9832 77.3326Z" fill="#0047BA"/>
<path d="M28.7522 81.3269C28.6752 81.5287 28.6752 81.7517 28.7522 81.9535C28.5871 81.9373 28.4208 81.9373 28.2558 81.9535C27.442 82.043 27.0839 82.3686 26.9781 82.8243C26.8723 83.28 27.2385 83.6381 27.8489 83.8578C27.6788 83.9421 27.5435 84.0831 27.4664 84.2566C27.2873 84.7123 27.5803 85.1925 28.1825 85.4285C28.8348 85.6994 29.5574 85.7508 30.2415 85.575C30.6654 85.4389 31.0227 85.1484 31.2425 84.7612C31.4173 84.892 31.6089 84.9987 31.8121 85.0786C32.6091 85.2867 33.4554 85.1849 34.1803 84.7937C35.0837 84.3054 34.9941 83.7276 34.4001 83.3614C34.7034 83.3381 35.002 83.2723 35.2871 83.1661C36.1823 82.8162 36.3044 82.1488 35.9219 81.6931C35.6261 81.4225 35.2773 81.2162 34.8977 81.0874C34.5181 80.9585 34.1159 80.9098 33.7165 80.9444C33.4405 80.9618 33.1674 81.011 32.9026 81.0909C32.9066 81.0448 32.9066 80.9986 32.9026 80.9525C32.7724 80.3666 31.6575 80.1875 30.7135 80.3015C30.3274 80.2976 29.9463 80.3892 29.6042 80.5681C29.262 80.747 28.9694 81.0076 28.7522 81.3269Z" fill="#C0CAD5"/>
<path d="M29.566 82.2148C28.7522 82.2148 27.7593 82.6136 27.8081 83.1426C27.8081 83.4844 28.215 83.7529 28.744 83.8587C28.744 83.8587 28.0848 84.2738 28.9637 84.876C29.3846 85.023 29.8391 85.0451 30.2723 84.9397C30.7054 84.8343 31.0989 84.6059 31.4052 84.2819C31.6544 84.4913 31.9572 84.6267 32.2794 84.6728C32.6016 84.7188 32.9303 84.6736 33.2281 84.5423C33.9362 84.2331 33.9362 83.7285 33.5699 83.3053H33.7897C34.4733 83.1751 34.8313 82.7764 34.7662 82.402C34.6523 81.7184 33.3909 81.4743 32.3736 81.8079C32.3628 81.7021 32.326 81.6006 32.2663 81.5126C32.2067 81.4245 32.1261 81.3526 32.0318 81.3034C31.7831 81.1411 31.5006 81.0377 31.2058 81.001C30.9111 80.9644 30.6119 80.9954 30.331 81.0918C29.7613 81.2627 29.3707 81.5882 29.566 82.2148Z" fill="#254288"/>
<path d="M29.8101 82.3522C29.8752 82.5964 30.4855 82.808 30.8762 82.8649C30.2947 83.0043 29.6999 83.0807 29.1021 83.0928C29.2567 83.3207 29.7124 83.28 30.1193 83.2718C30.2902 83.2718 30.632 83.1905 30.8111 83.166C30.3024 83.4442 29.8432 83.8044 29.452 84.2321C30.1519 83.8496 30.8111 83.4671 30.9169 83.4183C30.863 83.717 30.863 84.0229 30.9169 84.3217C31.1203 84.045 31.3645 83.4346 31.4458 83.3451C31.4555 83.4266 31.4775 83.5061 31.5109 83.5811C31.6245 83.8448 31.7938 84.0808 32.0074 84.2728C31.8596 83.9874 31.7736 83.6741 31.7551 83.3532C32.1001 83.641 32.5347 83.7993 32.9839 83.8008C32.5935 83.6009 32.2475 83.324 31.9667 82.987C32.3534 83.0891 32.76 83.0891 33.1467 82.987C32.7757 82.9149 32.4089 82.8226 32.0481 82.7103C32.4224 82.7103 32.9351 82.458 33.0002 82.279C32.6387 82.3781 32.2719 82.4569 31.9016 82.515C31.9114 82.2683 31.9666 82.0255 32.0643 81.7988C31.7469 81.929 31.5435 82.2383 31.6656 82.4499C31.397 82.3441 31.3319 82.2871 30.8518 81.8151C30.6646 81.9941 31.0389 82.4987 31.2261 82.6289C30.7419 82.617 30.2632 82.5235 29.8101 82.3522Z" fill="white"/>
<path d="M47.5676 76.5013C47.4941 76.701 47.4941 76.9202 47.5676 77.1198C47.4051 77.1076 47.2418 77.1076 47.0793 77.1198C46.2655 77.2175 45.9074 77.543 45.7935 77.9906C45.6796 78.4382 46.062 78.8044 46.6643 79.0242C46.497 79.116 46.3631 79.2584 46.2818 79.4311C46.1109 79.8868 46.4038 80.3588 46.9979 80.603C47.6518 80.8671 48.3722 80.9184 49.0569 80.7495C49.4816 80.611 49.8407 80.3214 50.066 79.9356C50.2371 80.0655 50.4263 80.1697 50.6275 80.2449C51.4156 80.4373 52.2473 80.3239 52.9551 79.9275C53.8584 79.4392 53.7689 78.8614 53.1748 78.487C53.4782 78.4698 53.7773 78.4067 54.0618 78.2999C54.9652 77.9499 55.0872 77.2826 54.6966 76.8269C54.4014 76.5554 54.0527 76.3486 53.6729 76.2197C53.2932 76.0908 52.8907 76.0426 52.4912 76.0782C52.2011 76.0887 51.9137 76.1379 51.6367 76.2246C51.641 76.1786 51.641 76.1323 51.6367 76.0863C51.5065 75.4922 50.3915 75.3213 49.4475 75.4352C49.0718 75.4497 48.705 75.5541 48.3779 75.7396C48.0508 75.9251 47.7729 76.1863 47.5676 76.5013Z" fill="white"/>
<path d="M48.3814 77.3879C47.5676 77.3879 46.5747 77.7785 46.6236 78.3157C46.6236 78.6493 47.0305 78.926 47.5594 79.0318C47.5594 79.0318 46.9084 79.4469 47.7792 80.0491C48.2003 80.194 48.6542 80.2151 49.0869 80.1098C49.5197 80.0045 49.9132 79.7772 50.2206 79.455C50.4681 79.6646 50.7696 79.8002 51.0906 79.8462C51.4116 79.8923 51.739 79.847 52.0354 79.7154C52.7434 79.4062 52.7434 78.8609 52.3772 78.4703C52.4504 78.4752 52.5238 78.4752 52.597 78.4703C53.2887 78.3319 53.6468 77.9413 53.5817 77.567C53.4596 76.8752 52.1982 76.6392 51.1809 76.9729C51.1732 76.8672 51.1384 76.7654 51.08 76.677C51.0216 76.5887 50.9414 76.5168 50.8473 76.4683C50.598 76.3036 50.314 76.1988 50.0176 76.1621C49.7211 76.1254 49.4201 76.1578 49.1382 76.2567C48.5767 76.4276 48.1861 76.7613 48.3814 77.3879Z" fill="#254288"/>
<path d="M48.6255 77.5099C48.6987 77.754 49.3091 77.9656 49.6916 78.0307C49.1087 78.1622 48.5147 78.2384 47.9175 78.2586C48.0802 78.4864 48.5278 78.4457 48.9347 78.4295C49.1669 78.4095 49.3978 78.3769 49.6265 78.3318C49.1215 78.6121 48.6631 78.969 48.2674 79.3898C48.9673 79.0154 49.6265 78.6248 49.7323 78.576C49.6785 78.8774 49.6785 79.186 49.7323 79.4874C49.9357 79.2026 50.1799 78.6004 50.2613 78.5108C50.2709 78.5923 50.2929 78.6719 50.3264 78.7469C50.442 79.0094 50.6111 79.245 50.8228 79.4386C50.679 79.1492 50.5959 78.8335 50.5787 78.5108C50.9186 78.8028 51.3513 78.9643 51.7994 78.9666C51.3843 78.6736 50.9367 78.4457 50.7821 78.1528C51.1688 78.2549 51.5754 78.2549 51.9621 78.1528C51.5901 78.0818 51.2231 77.9866 50.8635 77.8679C51.2378 77.8679 51.7505 77.6238 51.8156 77.4366C51.4554 77.5429 51.0883 77.6245 50.717 77.6808C50.7268 77.4341 50.782 77.1913 50.8798 76.9646C50.5624 77.0948 50.3589 77.4041 50.481 77.6075C50.2124 77.5099 50.1473 77.4529 49.6672 76.9727C49.4881 77.1599 49.8625 77.6645 50.0415 77.7866C49.5571 77.7765 49.0781 77.6829 48.6255 77.5099Z" fill="white"/>
<path d="M62.6638 73.7018C62.3071 73.7464 61.9463 73.7464 61.5896 73.7018C61.6101 73.7957 61.6101 73.8928 61.5896 73.9867C61.435 74.4587 60.8653 74.6621 60.084 74.7272C59.7669 74.7833 59.4412 74.767 59.1312 74.6796C58.8212 74.5923 58.5349 74.4361 58.2936 74.2227C58.0778 74.3444 57.8399 74.4219 57.5938 74.4505C56.8902 74.567 56.1685 74.4192 55.5674 74.0355C55.193 73.7181 54.9489 73.2217 55.3151 72.8473C55.7079 72.5294 56.1812 72.3266 56.6823 72.2614C56.4844 72.1824 56.3004 72.0726 56.137 71.9359C55.6894 71.5534 56.137 70.9511 56.6986 70.5931C57.064 70.3731 57.478 70.2469 57.904 70.2256C58.3299 70.2043 58.7545 70.2886 59.14 70.471C59.1965 70.2701 59.3129 70.0913 59.4737 69.9583C59.8451 69.7133 60.266 69.5535 60.7063 69.4902C61.1467 69.4269 61.5956 69.4617 62.0209 69.5921C62.8347 69.8118 63.38 70.3082 63.3149 70.8616C63.288 71.0487 63.2025 71.2225 63.0707 71.358C63.1494 71.354 63.2281 71.354 63.3067 71.358C64.3322 71.4394 64.6251 72.0823 64.4298 72.6195C64.2511 72.9346 63.9953 73.1992 63.6865 73.3885C63.3776 73.5778 63.0257 73.6856 62.6638 73.7018Z" fill="white"/>
<path d="M61.1665 73.2301C61.1665 73.7184 60.4747 74.2718 59.5389 74.2474C59.303 74.2611 59.0673 74.2189 58.8509 74.1242C58.6345 74.0294 58.4435 73.8848 58.2937 73.7021C58.0112 73.819 57.7055 73.8689 57.4005 73.8477C57.0955 73.8265 56.7995 73.7349 56.5359 73.58C56.1534 73.3929 56.0395 72.6604 57.5694 72.164C56.9753 71.9687 56.5847 71.5211 57.1137 71.1142C57.4418 70.9332 57.8053 70.8257 58.1791 70.799C58.5528 70.7723 58.9279 70.8271 59.2784 70.9596L59.3273 70.8293C59.5226 70.616 59.7669 70.4533 60.0391 70.3555C60.3114 70.2577 60.6033 70.2276 60.8898 70.2678C62.0861 70.3329 62.5174 71.0816 61.9233 71.6513C62.2278 71.6439 62.5295 71.711 62.8022 71.8466C63.1522 72.0663 63.6161 72.3837 63.1685 72.8313C62.8856 73.0429 62.559 73.1885 62.2126 73.2575C61.8662 73.3265 61.5088 73.3171 61.1665 73.2301Z" fill="#254288"/>
<path d="M60.9467 73.0916C60.7596 73.0653 60.5812 72.9958 60.4258 72.8884C60.2704 72.781 60.1422 72.6388 60.0515 72.4731C59.8323 72.774 59.6975 73.128 59.6608 73.4985C59.2621 73.409 59.3272 73.1485 59.3516 72.9125C59.3941 72.7726 59.4543 72.6386 59.5306 72.5138C58.9488 72.8564 58.3288 73.1295 57.6833 73.3276L59.1074 72.5138C58.5871 72.5459 58.0653 72.5459 57.5449 72.5138C58.0251 72.3917 59.0749 72.2533 59.2295 72.2045C59.0969 72.2174 58.9634 72.2174 58.8307 72.2045C58.4169 72.1566 58.01 72.0611 57.6182 71.9197C58.1564 72.0083 58.7004 72.0573 59.2458 72.0662C59.2458 72.0662 58.318 71.6837 58.432 71.3582C58.8651 71.6196 59.3339 71.817 59.8236 71.9441C59.736 71.8518 59.6872 71.7295 59.6872 71.6023C59.6872 71.4751 59.736 71.3527 59.8236 71.2605C59.8806 71.4558 60.1735 71.7081 60.3038 71.8953C60.378 71.7528 60.4843 71.6294 60.6142 71.5349C60.7441 71.4403 60.8941 71.377 61.0525 71.35C60.8891 71.5442 60.7498 71.7573 60.6374 71.9848C61.0456 71.9393 61.4506 71.8687 61.85 71.7732C61.5189 71.9837 61.123 72.0675 60.7351 72.0092C60.9141 72.1638 61.0036 72.1964 61.8337 72.4568C61.3746 72.5019 60.9117 72.4262 60.4909 72.2371C60.4959 72.405 60.5397 72.5695 60.6187 72.7177C60.6978 72.8659 60.81 72.9939 60.9467 73.0916Z" fill="white"/>
<path d="M68.0024 65.2624C67.9289 65.4621 67.9289 65.6813 68.0024 65.8809C67.8399 65.8687 67.6767 65.8687 67.5141 65.8809C66.7003 65.9705 66.3422 66.296 66.2283 66.7436C66.1144 67.1912 66.4969 67.5574 67.0991 67.7853C66.929 67.8695 66.7937 68.0106 66.7166 68.184C66.5457 68.6398 66.8387 69.1118 67.4328 69.3559C68.0866 69.62 68.8071 69.6713 69.4917 69.5024C69.9164 69.3639 70.2755 69.0743 70.5008 68.6886C70.6716 68.821 70.8608 68.928 71.0624 69.006C71.8517 69.1911 72.6816 69.075 73.3899 68.6804C74.2932 68.1922 74.2037 67.6144 73.6096 67.24C73.913 67.2227 74.2121 67.1596 74.4967 67.0528C75.4 66.7029 75.5221 66.0356 75.1314 65.5798C74.8365 65.308 74.4878 65.1009 74.108 64.9719C73.7281 64.843 73.3255 64.795 72.926 64.8311C72.6364 64.8461 72.3496 64.8953 72.0715 64.9776C72.0799 64.9319 72.0799 64.885 72.0715 64.8393C71.9413 64.2533 70.8264 64.0743 69.8823 64.1882C69.5058 64.2036 69.1386 64.3092 68.8114 64.4961C68.4843 64.6831 68.2068 64.9459 68.0024 65.2624Z" fill="white"/>
<path d="M68.8162 66.1167C68.0024 66.1167 67.0095 66.5155 67.0584 67.0444C67.0584 67.3862 67.4734 67.6548 68.0024 67.7606C68.0024 67.7606 67.3432 68.1756 68.214 68.7779C68.6351 68.9228 69.089 68.9439 69.5218 68.8386C69.9545 68.7333 70.348 68.506 70.6554 68.1838C70.9029 68.3933 71.2044 68.5289 71.5254 68.575C71.8464 68.6211 72.1738 68.5757 72.4702 68.4442C73.1783 68.135 73.1783 67.6304 72.812 67.2072H73.0318C73.7235 67.077 74.0816 66.6782 74.0165 66.3039C73.8944 65.6203 72.633 65.3761 71.6157 65.7098C71.6065 65.6046 71.5711 65.5033 71.5129 65.4152C71.4546 65.3271 71.3753 65.2549 71.2821 65.2052C71.0321 65.0423 70.7482 64.9385 70.452 64.9018C70.1559 64.8652 69.8552 64.8966 69.5731 64.9936C69.0115 65.1564 68.6209 65.4901 68.8162 66.1167Z" fill="#254288"/>
<path d="M69.0603 66.2386C69.1336 66.4828 69.7439 66.7025 70.1264 66.7595C69.5443 66.8952 68.9499 66.9716 68.3523 66.9873C68.5151 67.2152 68.9627 67.1745 69.3696 67.1664C69.5486 67.1664 69.8904 67.085 70.0613 67.0606C69.5541 67.3409 69.0953 67.7008 68.7022 68.1267C69.4021 67.7442 70.0694 67.3617 70.1671 67.3128C70.1133 67.6116 70.1133 67.9175 70.1671 68.2162C70.3706 67.9395 70.6147 67.3291 70.6961 67.2396C70.7058 67.3211 70.7277 67.4007 70.7612 67.4756C70.8749 67.7414 71.0474 67.9779 71.2658 68.1674C71.1134 67.8808 71.0272 67.5638 71.0135 67.2396C71.3534 67.5316 71.7861 67.6931 72.2342 67.6953C71.8191 67.4024 71.3715 67.1826 71.2169 66.8815C71.6036 66.9836 72.0102 66.9836 72.397 66.8815C72.0259 66.8095 71.6592 66.7171 71.2983 66.6048C71.6727 66.5641 72.1854 66.3526 72.2505 66.1735C71.8893 66.2743 71.5225 66.3531 71.1518 66.4095C71.1663 66.1635 71.2213 65.9215 71.3146 65.6934C70.9972 65.8236 70.7937 66.1328 70.9158 66.3363C70.6473 66.2386 70.5821 66.1816 70.1427 65.7015C69.9555 65.8887 70.3299 66.3932 70.5089 66.5153C70.0135 66.5091 69.5231 66.4154 69.0603 66.2386Z" fill="white"/>
<path d="M86.8667 53.8114C86.7932 54.011 86.7932 54.2303 86.8667 54.4299C86.7041 54.4177 86.5409 54.4177 86.3784 54.4299C85.5646 54.5194 85.2065 54.8531 85.0926 55.3007C84.9786 55.7483 85.3611 56.1145 85.9633 56.3342C85.7961 56.426 85.6622 56.5685 85.5809 56.7411C85.41 57.1968 85.7029 57.6689 86.297 57.9049C86.9484 58.1785 87.671 58.2327 88.356 58.0595C88.7833 57.926 89.144 57.6351 89.3651 57.2457C89.5339 57.3811 89.7235 57.4883 89.9266 57.5631C90.7155 57.7572 91.5488 57.6407 92.2541 57.2375C93.1575 56.7574 93.0679 56.1796 92.4739 55.8052C92.7763 55.7809 93.0744 55.718 93.3609 55.618C94.2642 55.2681 94.3863 54.5926 93.9957 54.145C93.7031 53.8697 93.3547 53.6604 92.9743 53.5312C92.5938 53.402 92.19 53.3561 91.7903 53.3963C91.5146 53.4118 91.2417 53.4582 90.9764 53.5347C90.9843 53.4889 90.9843 53.4421 90.9764 53.3963C90.8462 52.8104 89.7313 52.6395 88.7954 52.7534C88.4122 52.7599 88.0363 52.8596 87.7002 53.0439C87.3642 53.2283 87.0781 53.4917 86.8667 53.8114Z" fill="white"/>
<path d="M87.6886 54.682C86.8748 54.682 85.8738 55.0808 85.9226 55.6179C85.9226 55.9516 86.3377 56.2283 86.8666 56.3341C86.8666 56.3341 86.2075 56.741 87.0782 57.3513C87.4994 57.4963 87.9533 57.5173 88.386 57.412C88.8188 57.3067 89.2122 57.0795 89.5197 56.7572C89.7689 56.9634 90.0702 57.0968 90.3904 57.1428C90.7106 57.1887 91.0373 57.1454 91.3345 57.0177C92.0425 56.7003 92.0425 56.2038 91.6844 55.7725H91.9041C92.5878 55.6342 92.9458 55.2354 92.8807 54.8692C92.7587 54.1775 91.4972 53.9333 90.4881 54.2751C90.4796 54.1687 90.4436 54.0662 90.3837 53.9778C90.3238 53.8894 90.242 53.818 90.1463 53.7705C89.8978 53.6041 89.6138 53.4983 89.317 53.4615C89.0202 53.4248 88.7189 53.4581 88.4373 53.559C87.892 53.738 87.4851 54.0717 87.6886 54.682Z" fill="#254288"/>
<path d="M87.8921 54.8204C87.9653 55.0645 88.5757 55.2761 88.9582 55.3331C88.377 55.474 87.782 55.5504 87.1841 55.561C87.3468 55.7888 87.7944 55.7563 88.2013 55.74C88.4342 55.7213 88.6653 55.686 88.8931 55.6342C88.3895 55.9199 87.9314 56.2792 87.534 56.7003C88.2339 56.326 88.9012 55.9353 89.007 55.8865C88.9485 56.1848 88.9485 56.4916 89.007 56.7898C89.2105 56.5131 89.4546 55.9109 89.536 55.8214C89.5501 55.8993 89.5719 55.9756 89.6011 56.0493C89.7175 56.3158 89.8896 56.5544 90.1057 56.7491C89.959 56.4604 89.8732 56.1446 89.8534 55.8214C90.1933 56.1134 90.626 56.2749 91.0741 56.2771C90.6897 56.068 90.3453 55.7924 90.0569 55.4633C90.4463 55.5654 90.8555 55.5654 91.245 55.4633C90.8712 55.3885 90.5017 55.2934 90.1382 55.1785C90.5207 55.1785 91.0334 54.9343 91.0904 54.7472C90.7303 54.852 90.3631 54.9309 89.9917 54.9832C90.0069 54.739 90.0647 54.4993 90.1626 54.2751C89.8371 54.4054 89.6337 54.7146 89.7557 54.9181C89.4872 54.8123 89.4302 54.7634 88.9419 54.2833C88.7547 54.4705 89.1291 54.975 89.3081 55.0971C88.8237 55.0871 88.3447 54.9935 87.8921 54.8204Z" fill="white"/>
<path d="M82.6755 62.169C82.3189 62.2136 81.958 62.2136 81.6013 62.169C81.6213 62.2629 81.6213 62.36 81.6013 62.4539C81.4467 62.9259 80.877 63.1293 80.0958 63.1945C79.7786 63.2511 79.4527 63.2351 79.1426 63.1477C78.8325 63.0603 78.5463 62.9038 78.3054 62.6899C78.0875 62.8053 77.8502 62.8797 77.6055 62.9096C76.9018 63.0342 76.1771 62.8858 75.5791 62.4946C75.2047 62.1853 74.9606 61.6808 75.3268 61.3145C75.7196 60.9966 76.1929 60.7938 76.694 60.7286C76.4962 60.6497 76.3121 60.5398 76.1488 60.4031C75.7012 60.0206 76.1488 59.4184 76.7103 59.0603C77.075 58.8391 77.4887 58.7114 77.9147 58.6887C78.3406 58.666 78.7656 58.7489 79.1517 58.9301C79.2087 58.7314 79.3217 58.5534 79.4773 58.4174C79.8519 58.1763 80.2741 58.0189 80.715 57.9557C81.156 57.8925 81.6054 57.925 82.0326 58.0511C82.8465 58.279 83.3917 58.7754 83.3266 59.3288C83.2981 59.5154 83.2129 59.6888 83.0825 59.8253C83.1609 59.8172 83.24 59.8172 83.3185 59.8253C84.3357 59.8985 84.6368 60.5414 84.4415 61.0867C84.2594 61.3989 84.0028 61.6611 83.6946 61.8499C83.3865 62.0388 83.0364 62.1484 82.6755 62.169Z" fill="white"/>
<path d="M81.1457 61.6972C81.1457 62.1855 80.4539 62.7389 79.5181 62.7145C79.2835 62.7276 79.0491 62.685 78.8341 62.5903C78.6191 62.4955 78.4296 62.3512 78.2811 62.1692C77.995 62.2889 77.6849 62.3401 77.3755 62.3189C77.0661 62.2977 76.7659 62.2047 76.4988 62.0471C76.1245 61.86 76.0105 61.1194 77.5405 60.6311C76.9464 60.4358 76.5558 59.9882 77.0848 59.5813C77.4077 59.3961 77.7669 59.2828 78.1377 59.2491C78.5085 59.2154 78.8821 59.2621 79.2332 59.386C79.2446 59.3409 79.2609 59.2972 79.2821 59.2558C79.4761 59.0407 79.7202 58.8768 79.9928 58.7789C80.2654 58.6809 80.558 58.6518 80.8446 58.6942C82.0409 58.7593 82.4722 59.508 81.87 60.0777C82.1772 60.0696 82.4817 60.1367 82.757 60.273C83.107 60.4846 83.5709 60.802 83.1151 61.2577C82.8395 61.4715 82.52 61.6217 82.1796 61.6977C81.8391 61.7737 81.4861 61.7735 81.1457 61.6972Z" fill="#254288"/>
<path d="M80.9259 61.5582C80.7394 61.5302 80.5618 61.4599 80.4067 61.3527C80.2515 61.2455 80.1229 61.1042 80.0307 60.9397C79.7995 61.2501 79.6612 61.6198 79.6319 62.0058C79.2413 61.9163 79.3064 61.6559 79.3308 61.4199C79.3717 61.2793 79.432 61.1451 79.5099 61.0211C78.9263 61.3604 78.3067 61.6333 77.6625 61.8349C78.3217 61.428 78.989 61.0211 79.0867 61.0211C78.5663 61.0523 78.0445 61.0523 77.5242 61.0211C78.0043 60.9072 79.0541 60.7688 79.2088 60.72H78.8019C78.3922 60.6635 77.9889 60.5681 77.5974 60.4352C78.1356 60.5238 78.6796 60.5727 79.225 60.5816C79.225 60.5816 78.2973 60.191 78.4112 59.8736C78.8479 60.1338 79.3192 60.3311 79.811 60.4596C79.7436 60.4174 79.6871 60.3598 79.6462 60.2916C79.6052 60.2234 79.581 60.1465 79.5754 60.0672C79.5699 59.9878 79.5832 59.9083 79.6142 59.835C79.6452 59.7618 79.6931 59.6969 79.754 59.6458C79.8191 59.8411 80.1121 60.0933 80.2423 60.2805C80.315 60.1369 80.4208 60.0125 80.551 59.9177C80.6812 59.823 80.832 59.7604 80.991 59.7353C80.8175 59.9264 80.6747 60.1432 80.5678 60.3782C80.9815 60.3665 81.3944 60.3339 81.8048 60.2805C81.4727 60.4882 81.0769 60.5691 80.6899 60.5084C80.8689 60.663 80.9585 60.7037 81.7886 60.9641C81.3268 61.0095 80.8612 60.9338 80.4376 60.7444C80.4552 60.9073 80.508 61.0645 80.5923 61.205C80.6766 61.3455 80.7904 61.466 80.9259 61.5582Z" fill="white"/>
<path d="M42.0093 73.2855C41.6526 73.3304 41.2917 73.3304 40.9351 73.2855C40.9546 73.3794 40.9546 73.4764 40.9351 73.5703C40.7804 74.0423 40.2108 74.2458 39.4295 74.3109C39.1123 74.3675 38.7865 74.3515 38.4764 74.2642C38.1663 74.1768 37.88 74.0202 37.6391 73.8063C37.4212 73.9217 37.184 73.9962 36.9392 74.0261C36.2356 74.1465 35.5124 73.9984 34.9128 73.611C34.5385 73.3018 34.2943 72.7972 34.6606 72.4229C35.0541 72.1075 35.5274 71.9075 36.0278 71.845C35.8299 71.7661 35.6459 71.6562 35.4825 71.5195C35.0349 71.137 35.4825 70.5348 36.044 70.1767C36.4087 69.9555 36.8225 69.8278 37.2484 69.8051C37.6744 69.7824 38.0993 69.8653 38.4855 70.0465C38.5407 69.8471 38.654 69.6686 38.811 69.5338C39.185 69.2913 39.6072 69.1329 40.0484 69.0697C40.4896 69.0065 40.9393 69.0399 41.3664 69.1676C42.1802 69.3955 42.7254 69.8919 42.6603 70.4453C42.6334 70.63 42.5478 70.8012 42.4162 70.9336H42.6522C43.6695 71.0068 43.9706 71.6497 43.7753 72.195C43.5958 72.5101 43.3401 72.7751 43.0315 72.9657C42.7229 73.1562 42.3714 73.2662 42.0093 73.2855Z" fill="white"/>
<path d="M40.4793 72.8222C40.4793 73.3105 39.7875 73.8639 38.8516 73.8395C38.6175 73.8488 38.3844 73.8045 38.17 73.71C37.9556 73.6155 37.7657 73.4733 37.6146 73.2942C37.3299 73.4088 37.0227 73.4566 36.7165 73.434C36.4104 73.4115 36.1135 73.3191 35.8487 73.164C35.4743 72.985 35.3604 72.2444 36.8904 71.7561C36.2963 71.5608 35.9056 71.1132 36.4346 70.7063C36.7576 70.5211 37.1167 70.4078 37.4875 70.3741C37.8583 70.3404 38.232 70.3871 38.5831 70.511C38.5944 70.4659 38.6108 70.4222 38.6319 70.3808C38.8259 70.1657 39.0701 70.0018 39.3427 69.9039C39.6153 69.8059 39.9079 69.7768 40.1944 69.8192C41.3907 69.8843 41.8221 70.633 41.2198 71.1946C41.5273 71.1925 41.8311 71.2622 42.1069 71.398C42.4568 71.6096 42.9207 71.927 42.465 72.3827C42.1874 72.5989 41.8652 72.7505 41.5217 72.8265C41.1782 72.9025 40.8221 72.901 40.4793 72.8222Z" fill="#254288"/>
<path d="M40.2597 72.6755C40.0731 72.6507 39.895 72.5826 39.7395 72.4766C39.5841 72.3706 39.4556 72.2297 39.3645 72.0651C39.1403 72.364 39.0023 72.7187 38.9657 73.0905C38.5751 72.9929 38.6402 72.7324 38.6646 72.5046C38.707 72.362 38.7671 72.2253 38.8436 72.0977C38.2617 72.4401 37.6417 72.7132 36.9963 72.9115C37.6554 72.5046 38.3228 72.0977 38.4204 72.0977C37.9001 72.1289 37.3783 72.1289 36.8579 72.0977C37.3381 71.9837 38.3879 71.8373 38.5425 71.7966H38.1356C37.726 71.7401 37.3227 71.6447 36.9312 71.5117C37.4694 71.6004 38.0134 71.6493 38.5588 71.6582C38.5181 71.6582 37.631 71.2676 37.745 70.9502C38.1833 71.2071 38.6541 71.4041 39.1447 71.5361C39.052 71.4493 38.9955 71.3306 38.9864 71.2039C38.9774 71.0772 39.0165 70.9517 39.0959 70.8525C39.161 71.0479 39.454 71.3001 39.5842 71.4873C39.6569 71.3437 39.7627 71.2193 39.8929 71.1245C40.023 71.0297 40.1739 70.9672 40.3329 70.9421C40.1629 71.1312 40.023 71.3453 39.9178 71.5768C40.3316 71.5651 40.7444 71.5325 41.1548 71.4792C40.8227 71.6868 40.4269 71.7677 40.0399 71.707C40.219 71.8617 40.3085 71.9024 41.1386 72.1546C40.6774 72.2065 40.2108 72.1334 39.7876 71.943C39.8131 72.0906 39.868 72.2314 39.9491 72.3573C40.0302 72.4831 40.1358 72.5913 40.2597 72.6755Z" fill="white"/>
<path d="M46.8597 64.5539C46.7783 64.7521 46.7783 64.9743 46.8597 65.1724C46.6944 65.1603 46.5285 65.1603 46.3632 65.1724C45.5494 65.262 45.1913 65.5875 45.0774 66.0351C44.9635 66.4827 45.346 66.8489 45.9563 67.0768C45.7876 67.1656 45.651 67.305 45.5657 67.4755C45.3948 67.9313 45.6878 68.4114 46.29 68.6474C46.9437 68.9121 47.6643 68.9634 48.3489 68.7939C48.7729 68.6579 49.1302 68.3674 49.3499 67.9801C49.5248 68.1109 49.7164 68.2176 49.9196 68.2975C50.7089 68.4826 51.5389 68.3665 52.2471 67.972C53.1423 67.4837 53.0609 66.9059 52.4668 66.5315C52.7703 66.5142 53.0694 66.4511 53.3539 66.3443C54.2491 65.9944 54.3712 65.3271 53.9887 64.8713C53.6929 64.6007 53.3441 64.3945 52.9645 64.2656C52.5849 64.1367 52.1826 64.088 51.7832 64.1226C51.491 64.1376 51.2014 64.1868 50.9206 64.2691C50.9287 64.2233 50.9287 64.1765 50.9206 64.1308C50.7904 63.5448 49.6755 63.3658 48.7314 63.4797C48.3559 63.4943 47.9895 63.5997 47.6635 63.7868C47.3376 63.9738 47.0617 64.2371 46.8597 64.5539Z" fill="white"/>
<path d="M47.6734 65.4411C46.8596 65.4411 45.8667 65.8399 45.9156 66.3689C45.9156 66.7107 46.3225 66.9793 46.8514 67.085C46.8514 67.085 46.1922 67.5001 47.0712 68.1023C47.4921 68.2493 47.9465 68.2714 48.3797 68.166C48.8129 68.0606 49.2063 67.8322 49.5126 67.5082C49.7613 67.7185 50.0642 67.8545 50.3866 67.9005C50.7091 67.9466 51.0379 67.9009 51.3356 67.7687C52.0436 67.4594 52.0436 66.9548 51.6774 66.5317H51.8971C52.5807 66.4014 52.9388 66.0027 52.8737 65.6283C52.7597 64.9447 51.4983 64.7006 50.481 65.0342C50.4703 64.9284 50.4334 64.8269 50.3737 64.7389C50.3141 64.6508 50.2335 64.5789 50.1392 64.5297C49.8905 64.3674 49.608 64.264 49.3133 64.2273C49.0185 64.1907 48.7193 64.2217 48.4384 64.3181C47.8606 64.4483 47.4781 64.8145 47.6734 65.4411Z" fill="#254288"/>
<path d="M47.9176 65.5638C47.9827 65.8161 48.593 66.0277 48.9837 66.0847C48.3987 66.2202 47.8016 66.2965 47.2014 66.3125C47.3642 66.5404 47.8199 66.4997 48.2187 66.4916C48.3977 66.4916 48.7395 66.4102 48.9186 66.3858C48.4099 66.6639 47.9507 67.0241 47.5595 67.4519C48.2594 67.0694 48.9186 66.6869 49.0244 66.638C48.9705 66.9368 48.9705 67.2427 49.0244 67.5414C49.2197 67.2647 49.472 66.6543 49.5533 66.5648C49.5587 66.6471 49.5808 66.7274 49.6184 66.8008C49.732 67.0646 49.9013 67.3006 50.1149 67.4925C49.9671 67.2071 49.8811 66.8938 49.8626 66.5729C50.2051 66.8595 50.6367 67.0178 51.0833 67.0205C50.6683 66.7276 50.2695 66.5078 50.0742 66.2067C50.4609 66.3088 50.8675 66.3088 51.2542 66.2067C50.8832 66.1347 50.5164 66.0423 50.1556 65.93C50.5299 65.93 51.0426 65.6777 51.0996 65.4987C50.7385 65.5995 50.3716 65.6783 50.0009 65.7347C50.0202 65.4885 50.0779 65.2469 50.1718 65.0186C49.8463 65.1488 49.651 65.458 49.7649 65.6615C49.5045 65.5638 49.4394 65.5068 48.9511 65.0348C48.7639 65.2139 49.1383 65.7184 49.3255 65.8486C48.8432 65.8364 48.3667 65.74 47.9176 65.5638Z" fill="white"/>
<path d="M61.5245 61.4946C61.1678 61.5392 60.8069 61.5392 60.4502 61.4946C60.4747 61.5879 60.4747 61.686 60.4502 61.7794C60.2875 62.2514 59.7178 62.4549 58.9447 62.52C58.6218 62.5795 58.2897 62.5642 57.9737 62.4753C57.6577 62.3864 57.3662 62.2263 57.1217 62.0073C56.9057 62.1217 56.6718 62.1988 56.43 62.2351C55.7253 62.354 55.0018 62.2029 54.4036 61.812C54.0292 61.5027 53.777 60.9981 54.1432 60.6319C54.5377 60.3169 55.0101 60.1144 55.5104 60.046C55.3135 59.9651 55.1297 59.8554 54.9651 59.7205C54.5175 59.338 54.9651 58.7357 55.5267 58.3777C55.8985 58.1515 56.3207 58.0212 56.7554 57.9985C57.19 57.9757 57.6235 58.0613 58.0169 58.2474C58.0707 58.0474 58.1843 57.8685 58.3425 57.7347C58.7171 57.4937 59.1393 57.3363 59.5802 57.2731C60.0212 57.2099 60.4706 57.2424 60.8978 57.3685C61.7116 57.5964 62.2488 58.0928 62.1918 58.6462C62.1563 58.8322 62.0689 59.0044 61.9395 59.1426C62.0207 59.1345 62.1025 59.1345 62.1837 59.1426C63.2009 59.2159 63.502 59.8669 63.3067 60.4041C63.1252 60.721 62.8668 60.987 62.5553 61.1776C62.2438 61.3682 61.8892 61.4772 61.5245 61.4946Z" fill="white"/>
<path d="M59.9946 61.0222C59.9946 61.5105 59.311 62.0638 58.367 62.0394C58.1322 62.0546 57.8971 62.0129 57.6818 61.918C57.4665 61.8231 57.2772 61.6777 57.13 61.4942C56.846 61.6106 56.539 61.6601 56.2328 61.6389C55.9266 61.6178 55.6293 61.5265 55.364 61.3721C54.9815 61.1849 54.8676 60.4444 56.3976 59.9561C55.8116 59.7608 55.4128 59.3132 55.95 58.9063C56.2779 58.7248 56.6414 58.6169 57.0153 58.5902C57.3891 58.5635 57.7643 58.6186 58.1147 58.7516C58.1223 58.7054 58.1389 58.6612 58.1635 58.6214C58.358 58.4069 58.6022 58.2435 58.8747 58.1456C59.1472 58.0476 59.4395 58.0182 59.7261 58.0599C60.9142 58.125 61.3537 58.8737 60.7515 59.4434C61.0562 59.434 61.3583 59.5011 61.6304 59.6387C61.9885 59.8503 62.4442 60.1758 61.9966 60.6234C61.7135 60.8344 61.3869 60.9797 61.0406 61.0487C60.6943 61.1177 60.337 61.1086 59.9946 61.0222Z" fill="#254288"/>
<path d="M59.7748 60.8836C59.5881 60.8561 59.4103 60.7861 59.255 60.6788C59.0998 60.5715 58.9713 60.43 58.8796 60.2651C58.6638 60.5678 58.5293 60.9209 58.489 61.2905C58.0902 61.201 58.1634 60.9405 58.1797 60.7045C58.2242 60.5653 58.2842 60.4315 58.3588 60.3058C57.7798 60.6484 57.1625 60.9215 56.5195 61.1196C57.1706 60.7127 57.8461 60.3058 57.9437 60.3058C57.4205 60.3337 56.8962 60.3337 56.373 60.3058C56.8532 60.1837 57.903 60.0453 58.0658 59.9965C57.9303 60.005 57.7944 60.005 57.6589 59.9965C57.2486 59.9438 56.8449 59.8484 56.4544 59.7117C56.9926 59.8011 57.5366 59.8501 58.0821 59.8582C58.0821 59.8582 57.1543 59.4675 57.2682 59.1501C57.7021 59.4102 58.1706 59.6075 58.6599 59.7361C58.5758 59.6421 58.5293 59.5204 58.5293 59.3943C58.5293 59.2682 58.5758 59.1465 58.6599 59.0525C58.7168 59.2478 59.0098 59.5001 59.1482 59.6873C59.2196 59.5442 59.324 59.4202 59.4527 59.3254C59.5815 59.2306 59.7309 59.1677 59.8887 59.142C59.7221 59.332 59.5849 59.546 59.4818 59.7768C59.6609 59.7768 59.9701 59.7768 60.7188 59.6791C60.3855 59.8915 59.9863 59.9754 59.5958 59.9151C59.7748 60.0698 59.8725 60.1023 60.6944 60.3627C60.2353 60.4075 59.7725 60.3317 59.3516 60.143C59.3915 60.4353 59.5432 60.7008 59.7748 60.8836Z" fill="white"/>
<path d="M81.3084 50.6139C80.9517 50.6589 80.5908 50.6589 80.2341 50.6139C80.2537 50.7079 80.2537 50.8048 80.2341 50.8988C80.0795 51.3708 79.5098 51.5742 78.7286 51.6393C78.4114 51.6954 78.0857 51.6791 77.7757 51.5917C77.4657 51.5044 77.1794 51.3482 76.9382 51.1348C76.7203 51.2501 76.4831 51.3246 76.2383 51.3545C75.5347 51.475 74.8115 51.3268 74.2119 50.9395C73.8376 50.6221 73.5934 50.1256 73.9596 49.7513C74.3531 49.4359 74.8264 49.2359 75.3268 49.1735C75.129 49.0945 74.9449 48.9847 74.7816 48.848C74.334 48.4655 74.7816 47.8632 75.3431 47.5052C75.7078 47.2839 76.1215 47.1563 76.5475 47.1336C76.9734 47.1108 77.3984 47.1938 77.7846 47.3749C77.8429 47.1749 77.9589 46.9966 78.1182 46.8622C78.4905 46.6194 78.9114 46.4608 79.3513 46.3975C79.7913 46.3343 80.2398 46.3679 80.6655 46.496C81.4793 46.7158 82.0245 47.2203 81.9594 47.7656C81.9342 47.9532 81.8485 48.1275 81.7153 48.262H81.9513C82.9767 48.3352 83.2697 48.9782 83.0743 49.5234C82.8966 49.8401 82.6413 50.1063 82.3324 50.2971C82.0234 50.4878 81.6711 50.5969 81.3084 50.6139Z" fill="white"/>
<path d="M79.754 50.126C79.754 50.6143 79.0622 51.1758 78.1263 51.1432C77.8987 51.1514 77.6722 51.108 77.4637 51.0164C77.2551 50.9248 77.0699 50.7874 76.9219 50.6143C76.6384 50.7281 76.3326 50.7756 76.0279 50.753C75.7232 50.7305 75.4277 50.6385 75.1641 50.4841C74.7816 50.305 74.6676 49.5644 76.1976 49.0762C75.6035 48.8808 75.2129 48.4332 75.7419 48.0263C76.0648 47.8413 76.4236 47.7275 76.7941 47.6924C77.1646 47.6573 77.5384 47.7018 77.8903 47.8229L77.9392 47.7008C78.1341 47.4865 78.3781 47.3228 78.6503 47.2235C78.9224 47.1243 79.2146 47.0926 79.5017 47.1311C80.698 47.2044 81.1293 47.945 80.5352 48.5146C80.8389 48.5154 81.1387 48.582 81.4142 48.7099C81.7641 48.9297 82.228 49.2471 81.7804 49.6947C81.4982 49.917 81.1688 50.0716 80.8174 50.1464C80.4661 50.2212 80.1022 50.2142 79.754 50.126Z" fill="#254288"/>
<path d="M79.5587 49.9877C79.3728 49.9611 79.1954 49.8923 79.0402 49.7865C78.885 49.6807 78.7562 49.5407 78.6635 49.3773C78.4426 49.6773 78.3076 50.0318 78.2729 50.4027C77.8741 50.305 77.9392 50.0446 77.9637 49.8168C78.006 49.6742 78.0662 49.5374 78.1427 49.4099C77.5608 49.7523 76.9408 50.0254 76.2953 50.2237C76.9545 49.8168 77.6218 49.4099 77.7195 49.4099C77.1991 49.441 76.6774 49.441 76.157 49.4099C76.6371 49.2959 77.687 49.1494 77.8416 49.1087L77.4428 49.068C77.0304 49.0124 76.6243 48.917 76.2302 48.7832C76.7687 48.8688 77.3127 48.9151 77.8579 48.9216C77.8579 48.9216 76.9301 48.5391 77.044 48.2217C77.4789 48.4798 77.9472 48.6769 78.4357 48.8076C78.3424 48.7207 78.2861 48.6012 78.2786 48.474C78.271 48.3467 78.3127 48.2214 78.395 48.124C78.4519 48.3112 78.7449 48.5716 78.8751 48.7588C78.949 48.6152 79.0549 48.4905 79.1848 48.3946C79.3146 48.2986 79.4649 48.2339 79.6238 48.2054C79.4605 48.3996 79.3211 48.6127 79.2088 48.8402C79.6227 48.8381 80.0359 48.8082 80.4458 48.7507C80.1137 48.9583 79.7178 49.0392 79.3309 48.9785C79.5099 49.1332 79.5994 49.1738 80.4295 49.4261C79.9711 49.4738 79.5082 49.4008 79.0867 49.2145C79.1054 49.3697 79.1572 49.519 79.2386 49.6524C79.3201 49.7858 79.4292 49.9001 79.5587 49.9877Z" fill="white"/>
<path d="M66.8387 53.055C66.7573 53.2531 66.7573 53.4753 66.8387 53.6735C66.6734 53.6613 66.5075 53.6613 66.3422 53.6735C65.5284 53.7711 65.1703 54.0967 65.0564 54.5443C64.9425 54.9919 65.325 55.3581 65.9353 55.5778C65.766 55.6696 65.6295 55.8118 65.5447 55.9847C65.3738 56.4404 65.6668 56.9125 66.269 57.1566C66.9338 57.4246 67.6676 57.4703 68.3605 57.2868C68.7867 57.1511 69.1467 56.8608 69.3696 56.473C69.5436 56.603 69.7355 56.7071 69.9393 56.7822C70.7247 56.975 71.554 56.8615 72.2587 56.4649C73.162 55.9766 73.0725 55.3988 72.4865 55.0244C72.7899 55.0063 73.0888 54.9432 73.3736 54.8372C74.2688 54.4873 74.3909 53.82 74.0084 53.3642C73.7126 53.0936 73.3638 52.8874 72.9842 52.7585C72.6046 52.6296 72.2023 52.5809 71.8029 52.6155C71.5102 52.6265 71.2202 52.6758 70.9403 52.762C70.9485 52.7163 70.9485 52.6694 70.9403 52.6237C70.8101 52.0296 69.687 51.8587 68.7511 51.9726C68.3679 51.9816 67.9928 52.085 67.6591 52.2739C67.3255 52.4627 67.0436 52.731 66.8387 53.055Z" fill="white"/>
<path d="M67.6524 53.9101C66.8386 53.9101 65.8458 54.3008 65.8865 54.8379C65.8865 55.1716 66.3015 55.4482 66.8305 55.554C66.8305 55.554 66.1713 55.9691 67.0502 56.5713C67.4711 56.7183 67.9255 56.7404 68.3587 56.635C68.7919 56.5296 69.1854 56.3012 69.4917 55.9772C69.7404 56.1875 70.0433 56.3235 70.3657 56.3695C70.6881 56.4156 71.017 56.3699 71.3146 56.2376C72.0226 55.9284 72.0226 55.4238 71.6564 54.9925H71.8761C72.5597 54.8542 72.9178 54.4554 72.8527 54.0892C72.7306 53.3974 71.4692 53.1614 70.4601 53.4951C70.4508 53.3889 70.4145 53.2868 70.3547 53.1985C70.2949 53.1102 70.2135 53.0386 70.1183 52.9905C69.869 52.8258 69.5851 52.7211 69.2886 52.6844C68.9921 52.6476 68.6912 52.68 68.4093 52.7789C67.8396 52.9498 67.449 53.2835 67.6524 53.9101Z" fill="#254288"/>
<path d="M67.8884 54.0315C67.9617 54.2756 68.572 54.4872 68.9545 54.5523C68.3717 54.6845 67.7777 54.7608 67.1804 54.7802C67.3432 55.0081 67.7908 54.9674 68.1977 54.9511C68.4325 54.9306 68.6661 54.898 68.8976 54.8535C68.3941 55.1324 67.9381 55.4895 67.5466 55.9114C68.2465 55.5371 68.9057 55.1464 69.0115 55.0976C68.9434 55.3965 68.9296 55.7053 68.9708 56.0091C69.1743 55.7242 69.4265 55.122 69.5079 55.0325C69.5132 55.1122 69.5354 55.1899 69.573 55.2604C69.6864 55.5265 69.8557 55.7652 70.0695 55.9602C69.9228 55.6715 69.837 55.3557 69.8172 55.0325C70.1571 55.3245 70.5898 55.486 71.0379 55.4882C70.6425 55.2847 70.2869 55.0118 69.9881 54.6826C70.3776 54.7846 70.7868 54.7846 71.1762 54.6826C70.8051 54.6077 70.4383 54.5127 70.0776 54.3977C70.452 54.3977 70.9646 54.1536 71.0216 53.9664C70.6603 54.0686 70.2935 54.1501 69.923 54.2105C69.9378 53.9637 69.9956 53.7213 70.0939 53.4944C69.7683 53.6246 69.573 53.9338 69.687 54.1373C69.4184 54.0396 69.3614 53.9827 68.8731 53.5025C68.686 53.6897 69.0603 54.1943 69.2394 54.3163C68.7764 54.2964 68.32 54.2002 67.8884 54.0315Z" fill="white"/>
<path opacity="0.5" d="M67.1804 54.7798C65.3331 55.5936 59.3515 59.4267 54.9163 61.2903C50.481 63.154 47.8035 65.1153 47.2013 66.3116C46.5991 67.5079 48.5685 69.4366 51.2215 72.0978C54.2001 75.0845 56.788 73.2534 60.8897 70.226C64.9913 67.1986 75.4895 61.8926 76.1568 59.4999C76.637 57.7421 75.6115 56.4888 73.7154 55.4309C71.0461 53.9823 68.922 54.0148 67.1804 54.7798Z" fill="#0047BA"/>
<path d="M57.2761 30.7068C59.9031 32.6 62.3717 34.7038 64.6574 36.9976C65.7627 38.1205 66.7474 39.3561 67.5953 40.6841C68.466 42.3118 68.2626 44.4602 68.4091 45.9984C68.6964 48.7056 69.1971 51.386 69.9065 54.0144C70.232 54.8282 71.9166 55.5037 73.5524 56.4559C75.1881 57.408 74.708 58.8973 74.293 60.0529C73.8779 61.2085 72.6653 60.3622 72.2991 60.0529C71.518 59.3798 70.7032 58.7469 69.8577 58.1567C69.231 57.7905 68.3847 56.9116 67.6929 56.4803C67.0012 56.049 66.8791 54.576 66.6187 53.9249C66.1304 52.4438 64.5679 49.7744 63.9087 48.3177C63.4176 47.0212 63.25 45.6245 63.4204 44.2487C63.4204 44.2487 57.39 40.7004 55.5834 38.8124C54.5993 37.828 53.7582 36.7103 53.085 35.492L57.2761 30.7068Z" fill="#FFAD97"/>
<path d="M62.9972 13.9107C62.9972 13.9107 63.9331 13.4142 67.3918 14.3827C68.6613 14.7489 71.0946 15.8882 73.5686 16.5393C76.1076 17.273 78.5625 18.2713 80.893 19.5178C82.1645 20.1309 83.551 20.4692 84.962 20.5107C85.6049 20.5107 87.8266 19.3551 89.3159 19.1435C90.8052 18.9319 92.5712 19.0621 91.9852 19.7457C91.619 20.2014 90.0321 20.1445 89.1125 20.7223C88.1687 21.4527 87.2642 22.2323 86.4025 23.0579C86.1551 23.2576 85.8626 23.3938 85.5506 23.4548C85.2386 23.5158 84.9165 23.4997 84.6121 23.4079C83.8123 23.11 83.0299 22.7676 82.2683 22.3825C81.251 22.0163 76.4414 21.2675 75.3672 20.8606C71.0621 19.233 68.6613 19.29 66.0734 18.6471C64.9666 18.3704 61.8497 20.3723 61.8497 20.3723L60.7673 14.3745L62.9972 13.9107Z" fill="#FFAD97"/>
<path d="M62.2649 15.4644C62.2649 15.4644 63.1275 18.6627 62.981 19.7288C62.8345 20.7949 60.7593 22.7887 60.7593 22.7887C60.0865 23.0495 59.3574 23.1303 58.6438 23.0233C57.9303 22.9163 57.2569 22.625 56.6903 22.1784C54.9487 20.6484 55.5265 15.4644 55.5265 15.4644C55.5265 15.4644 56.6577 14.7645 56.7554 14.1053C57.089 11.7778 57.1704 11.1187 60.4501 11.1187C60.9139 11.1187 60.7919 11.1187 60.7593 13.1369C60.7837 14.26 62.2649 15.4644 62.2649 15.4644Z" fill="#FFAD97"/>
<path d="M47.1279 33.8977C47.7057 32.4328 49.8949 30.7319 51.2377 28.7625C51.9538 27.7208 51.7585 23.8796 52.0515 23.0088C52.5723 21.4951 52.3201 21.1289 52.3201 21.1289C52.3201 21.1289 50.2937 17.1982 54.0616 15.7333C55.2661 15.2695 55.3393 15.4648 55.8683 15.2206C56.7879 16.2054 57.146 17.6621 58.6434 19.0863C61.0197 21.2998 62.9973 19.4036 62.7125 18.484C62.3951 17.3121 61.3941 14.9277 61.215 14.2766C61.215 14.2766 61.6382 14.179 62.0289 14.1057C62.9038 16.0648 63.6647 18.0728 64.3075 20.1198C64.6005 21.3324 64.4947 23.1228 62.216 25.5561C61.2164 26.6512 60.3928 27.8949 59.7746 29.2427C59.1968 30.3983 59.5793 31.5457 59.7176 32.5956C59.5793 33.6454 58.1632 35.273 57.0239 36.8437C55.8846 38.4143 55.5509 38.5283 55.5509 38.5283C55.5509 38.5283 51.905 33.1652 50.6273 34.0848C49.3496 35.0045 50.0251 40.1966 50.0251 40.1966C50.0251 40.1966 45.305 38.4876 47.1279 33.8977Z" fill="#F2C94C"/>
<path d="M60.5722 48.2372C60.2874 46.8211 58.4807 40.6524 57.317 38.5284C55.5754 35.3464 53.4107 33.1328 51.9621 32.7584C48.0476 31.7412 47.2501 35.3545 47.2419 36.8275C47.2419 38.862 48.601 39.6433 51.311 43.0451C52.4015 44.4367 54.2896 46.3654 55.6324 47.9279C54.8837 48.7418 53.4351 49.7916 52.6294 51.4762C51.2785 54.3245 51.2622 56.9531 50.896 58.8493C50.7413 59.6631 50.0822 62.4952 49.8136 63.8706C49.6653 64.4019 49.4106 64.8975 49.0649 65.3273C48.8126 65.7043 48.7198 66.1659 48.8067 66.6111C48.8936 67.0564 49.1532 67.4491 49.5288 67.7036C50.1635 68.1105 50.5216 69.4045 52.312 71.0402C53.313 71.9436 54.4116 71.6913 55.5022 71.4634C56.3648 71.2844 57.1298 70.9426 57.1298 70.4462C57.1298 69.73 56.4055 69.5672 55.551 68.7127C54.1431 67.3211 53.1095 66.2713 52.8654 64.7088C52.7352 63.9519 53.7931 60.3386 54.371 59.1586C55.5266 56.8311 57.5692 54.2757 58.7655 52.5178C59.262 51.7773 59.6363 51.1995 59.9293 50.7519C60.2696 50.4408 60.5117 50.0371 60.6259 49.5904C60.7402 49.1437 60.7215 48.6734 60.5722 48.2372Z" fill="#FFC1AF"/>
<path d="M59.1563 50.516C58.6621 50.7648 58.1322 50.935 57.5856 51.0205C57.0917 51.0993 56.6047 51.2163 56.1289 51.3705C56.3047 50.8554 56.6307 50.4047 57.0648 50.0765C57.667 49.751 59.1563 50.516 59.1563 50.516Z" fill="#FFAD97"/>
<path d="M57.7808 5.35685C57.7808 5.35685 57.7808 3.21652 58.8387 2.63871C59.1169 2.46475 59.4384 2.3725 59.7665 2.3725C60.0946 2.3725 60.416 2.46475 60.6942 2.63871C60.6942 2.63871 61.2069 1.08433 61.9719 1.01109C62.7369 0.937842 63.4775 1.78421 63.4775 1.78421C63.6971 1.68387 63.9358 1.63194 64.1773 1.63194C64.4189 1.63194 64.6575 1.68387 64.8772 1.78421C65.7968 2.41898 64.8772 3.76178 64.8772 3.76178C64.8772 3.76178 66.57 3.62343 66.7327 5.19409C66.8222 6.21949 66.7327 6.48805 67.164 6.82172C66.7327 7.31814 65.6503 7.08214 65.6503 7.08214C65.6503 7.08214 66.1875 8.00989 65.9759 8.53073C65.7518 8.88906 65.426 9.17241 65.04 9.34454C65.04 9.34454 65.4388 8.33541 64.8121 7.90409C64.2913 9.10853 62.4927 9.52358 62.4439 9.30385C62.3951 9.08412 57.7808 5.35685 57.7808 5.35685Z" fill="#491D1D"/>
<path d="M55.4288 6.48081C53.7117 8.29562 54.379 14.6434 56.9669 15.0584C58.6434 15.327 61.036 13.8296 61.8498 10.8998C62.566 8.44211 58.7655 3.01397 55.4288 6.48081Z" fill="#FFC1AF"/>
<path d="M54.6232 7.99354C56.1693 8.68357 57.8757 8.93418 59.5549 8.71783C59.8776 9.16896 60.1047 9.6813 60.2222 10.2234C61.6627 9.30378 61.8498 10.8989 61.036 11.7696C60.9801 11.9335 60.9591 12.1072 60.9745 12.2796C60.99 12.4521 61.0414 12.6193 61.1255 12.7706C61.1255 12.7706 63.3798 10.9721 63.0299 8.37603C63.0814 8.08732 63.0664 7.79066 62.986 7.50862C62.9056 7.22658 62.762 6.96658 62.566 6.7484C62.5766 6.5507 62.5431 6.35312 62.4679 6.16996C62.3928 5.98681 62.2778 5.82267 62.1313 5.68946C61.9848 5.55624 61.8106 5.45727 61.6211 5.39973C61.4317 5.3422 61.2318 5.32752 61.036 5.35678C60.6535 4.54297 59.7827 4.54297 58.9771 4.54297C57.8018 4.5961 56.6474 4.87228 55.5753 5.35678C54.1349 6.01597 54.6232 7.99354 54.6232 7.99354Z" fill="#592625"/>
<path d="M53.9151 21.5432C53.9368 22.505 53.8687 23.4668 53.7116 24.416C53.1543 24.7433 52.5076 24.8858 51.8643 24.8229C51.791 24.0904 51.4981 22.7314 51.2783 21.7629C52.1631 21.8081 53.05 21.7342 53.9151 21.5432Z" fill="#FFAD97"/>
<path d="M63.2334 20.1526C63.2334 20.1526 63.445 20.5269 63.6322 20.9664C63.7361 21.1989 63.8152 21.4416 63.8682 21.6907C63.8682 21.6907 62.7207 22.358 61.8499 22.8382C60.9791 23.3183 59.6607 23.9857 59.6607 23.9857L58.9446 22.358C58.9446 22.358 60.4176 21.6907 61.2721 21.2431C62.1266 20.7955 63.2334 20.1526 63.2334 20.1526Z" fill="white"/>
<path d="M54.8917 15.5625C53.8512 15.5249 52.8174 15.7429 51.8806 16.1973C51.1688 16.5315 50.4994 16.9495 49.8868 17.4424C48.6823 18.2562 47.5918 18.3213 46.0944 19.2491C45.191 19.8106 44.2633 20.7139 43.4332 21.2429C43.0699 21.4144 42.7519 21.6687 42.5046 21.9852C42.2573 22.3018 42.0875 22.6719 42.009 23.0659C42.0655 23.5151 42.1947 23.9521 42.3915 24.3598C42.8554 25.841 45.0527 27.5337 46.2002 29.2427C46.7617 30.0565 44.3854 32.6038 45.5084 33.1083C46.6315 33.6129 46.8105 34.3942 48.1045 33.1083C48.5714 32.382 48.8844 31.5677 49.0241 30.7157C49.0397 29.9623 48.9184 29.2122 48.666 28.5021C48.1859 27.4198 47.0384 25.1655 46.1188 23.5216C47.8197 23.5623 51.0017 21.7556 51.2702 21.7719C52.1577 21.8178 53.0474 21.7438 53.9151 21.5522C53.9363 22.5113 53.8682 23.4703 53.7117 24.4168C54.4896 23.9763 55.1468 23.3507 55.6252 22.5955C56.1035 21.8403 56.3883 20.9788 56.4542 20.0873C56.6007 17.9795 55.5102 15.8962 54.8917 15.5625Z" fill="#FFC1AF"/>
<path d="M83.0088 118.421C88.8194 113.489 95.1021 112.391 102.54 112.879C108.628 113.269 121.201 116.468 122.226 120.276C122.739 122.164 114.569 121.041 110.89 120.211C111.784 120.633 112.654 121.106 113.494 121.627C115.203 122.702 119.696 125.289 119.028 127.943C118.271 130.986 114.479 127.999 113.201 127.283C110.223 125.656 109.409 125.159 106.333 123.711C106.414 123.784 110.524 128.016 108.384 129.261C105.747 130.791 102.435 129.481 100.514 128.496C97.8121 127.112 95.4927 125.11 92.8397 123.613C89.9344 121.985 86.7768 121.375 83.7657 120.065C83.6029 120.016 82.5612 118.82 83.0088 118.421Z" fill="#56CCF2"/>
<path d="M66.2199 108.45C64.2912 108.003 62.2403 107.042 62.6961 104.804C63.2413 102.078 67.3592 102.46 69.2798 102.566C70.2647 102.626 71.2455 102.74 72.2177 102.908C71.6318 102.656 71.0539 102.387 70.4924 102.094C68.6125 101.093 67.7987 99.0994 69.6216 97.4555C71.8352 95.4617 75.5706 96.9428 77.6947 98.2693C80.4644 100.196 82.7556 102.733 84.3924 105.683L86.2723 106.326C86.3984 106.356 86.5154 106.416 86.6136 106.501C86.7119 106.586 86.7885 106.692 86.837 106.813C86.8856 106.933 86.9048 107.063 86.8929 107.192C86.881 107.321 86.8384 107.446 86.7687 107.555C85.8898 109.183 86.8419 110.42 85.3852 111.754C83.9285 113.089 81.0313 113.317 79.2816 113.732C73.3001 115.172 68.3521 116.881 62.2729 115.97C61.7959 115.929 61.3475 115.725 61.0024 115.394C60.6573 115.062 60.4364 114.622 60.3767 114.147C60.922 110.916 63.2495 109.207 66.2199 108.45Z" fill="#56CCF2"/>
<path opacity="0.5" d="M97.7064 115.319C97.7096 115.299 97.7192 115.28 97.7338 115.265C97.7485 115.251 97.7673 115.241 97.7878 115.238C100.869 114.693 104.031 114.823 107.057 115.62C107.733 115.791 111.305 116.515 110.947 117.956C110.638 119.168 108.392 118.517 107.741 118.42C104.99 117.988 102.247 117.24 99.5131 116.556C102.597 117.736 107.187 119.852 105.722 121.358C104.966 122.171 102.573 120.739 101.832 120.454C98.3574 119.128 95.5254 117.199 91.7005 116.963C91.4644 116.955 95.7858 114.904 97.7064 115.319Z" fill="white"/>
<path opacity="0.5" d="M70.5413 104.603C71.1191 103.333 73.4873 103.512 74.5371 103.61C75.1274 103.673 75.7122 103.779 76.2868 103.927C75.6068 103.557 74.9492 103.146 74.3174 102.699C73.6338 102.161 72.5921 100.941 73.7559 100.371C75.0417 99.7281 76.8158 100.819 77.8249 101.616C79.2403 102.812 80.2989 104.375 80.8849 106.133C80.9 106.157 80.908 106.185 80.908 106.214C80.908 106.243 80.9 106.271 80.8849 106.296C80.9243 106.367 80.9482 106.446 80.9551 106.527C80.962 106.608 80.9516 106.689 80.9247 106.766C80.8978 106.843 80.855 106.913 80.799 106.973C80.7431 107.032 80.6753 107.078 80.6 107.109C79.3956 107.573 71.4202 111.48 70.9401 108.802C70.761 107.817 71.6155 107.085 72.4619 106.735C71.3877 106.475 69.9879 105.848 70.5413 104.603Z" fill="white"/>
<path d="M73.7151 91.8166C74.4231 90.7261 76.1077 91.2062 77.0843 91.5725C78.7416 92.3406 80.0408 93.7155 80.7139 95.4137C79.0863 94.8765 76.4007 94.1929 74.8138 93.7372C73.9349 93.4768 73.0966 92.7688 73.7151 91.8166Z" fill="#56CCF2"/>
<path d="M124.041 113.587C124.247 113.686 124.429 113.826 124.577 114C124.725 114.173 124.835 114.376 124.899 114.595C124.963 114.813 124.981 115.043 124.951 115.269C124.921 115.495 124.844 115.712 124.725 115.906C124.049 116.802 122.56 116.452 121.706 116.077C120.234 115.279 118.815 114.388 117.458 113.408C119.403 113.66 122.666 112.741 124.041 113.587Z" fill="#56CCF2"/>
<path d="M92.1724 131.84C90.5041 132.523 88.9822 131.026 88.2335 129.724C87.0453 127.632 87.0616 126.265 85.5398 124.027C88.4207 124.898 96.3228 130.139 92.1724 131.84Z" fill="#56CCF2"/>
<path d="M156 76.9589V75.3313L155.365 75.2092C155.007 74.8124 154.586 74.4769 154.12 74.2164C151.483 72.7027 147.463 72.4423 137.844 75.5917C134.8 76.5846 131.195 77.9192 126.89 79.6608C108.913 86.9851 82.9437 102.399 72.299 111.79L71.9816 112.083C67.6766 115.924 65.9838 118.74 65.4711 120.726H65.3328V121.58C65.3083 121.829 65.3083 122.08 65.3328 122.329C65.3546 122.799 65.4851 123.257 65.7138 123.668C65.9425 124.079 66.2634 124.431 66.6512 124.697C67.3917 125.129 73.357 127.383 89.0148 121.442L89.1368 121.393C105.413 115.2 132.066 100.275 144.68 89.923C147.504 87.6036 149.709 85.6342 151.394 83.9496C154.681 80.7269 155.975 78.5214 156 76.9589Z" fill="#CF2935"/>
<path d="M154.12 72.6285C151.483 71.123 147.463 70.8544 137.843 74.0039C134.8 74.9967 131.194 76.3314 126.889 78.0729C108.912 85.3973 82.9434 100.811 72.2987 110.21L71.9813 110.495C62.1098 119.325 65.9591 122.702 66.6753 123.126C67.4159 123.557 73.3811 125.819 89.0389 119.87L89.161 119.83C105.437 113.637 132.09 98.6706 144.704 88.3595C147.528 86.032 149.733 84.0707 151.418 82.3861C157.212 76.5674 156.789 74.2155 154.12 72.6285Z" fill="#EE2A24"/>
<path d="M100.913 105.309C100.53 105.634 100.261 106.073 100.144 106.562C100.026 107.05 100.068 107.564 100.262 108.027C100.474 108.586 100.724 109.13 101.01 109.655C101.173 109.997 101.295 110.77 101.963 110.941C103.037 111.217 103.948 110.306 104.917 110.127C106.471 109.817 107.619 110.021 109.043 109.223C110.359 108.489 111.331 107.263 111.745 105.814C112.015 105.013 111.968 104.139 111.614 103.372C111.475 104.05 111.144 104.674 110.662 105.171C110.223 105.687 109.729 106.153 109.189 106.562C108.725 106.831 107.741 107.116 107.635 106.692C107.635 106.522 107.765 106.342 107.879 106.172C107.993 106.001 107.676 105.993 107.562 106.025C106.969 106.308 106.31 106.42 105.657 106.351C104.673 106.066 105.202 105.366 106.024 105.154L106.837 104.853C107.78 104.563 108.677 104.138 109.499 103.592C106.821 104.658 102.996 103.421 100.913 105.309Z" fill="#F2C94C"/>
<path d="M115.952 103.512C116.463 103.694 116.988 103.833 117.523 103.927C117.523 103.927 119.712 104.252 118.76 104.643C118.32 104.814 117.352 104.456 117.189 104.44C116.489 104.366 115.911 104.488 115.773 104.969C115.747 105.11 115.767 105.255 115.83 105.384C116.05 105.994 114.544 105.856 114.202 105.555C113.698 105.074 113.991 104.48 113.144 103.569C112.705 104.773 111.891 106.328 112.103 107.5C112.158 107.741 112.275 107.963 112.441 108.146C112.608 108.328 112.82 108.465 113.055 108.541C114.91 107.434 118.751 105.571 123.634 102.535C123.024 102.478 122.365 102.47 121.763 102.462C119.321 102.462 116.522 102.535 114.324 102.006C114.495 102.6 115.008 103.105 115.952 103.512Z" fill="#F2C94C"/>
<path d="M93.1408 104.862C92.8234 105.595 93.6128 106.156 94.8905 106.067C96.7622 105.937 98.2352 104.716 100.05 104.333C102.19 103.886 104.42 103.886 106.561 103.642C108.237 103.446 110.63 103.088 111.842 102.242C112.884 101.51 112.884 100.313 111.102 100.313C108.571 100.313 106.756 102.299 104.323 102.999C102.918 103.409 101.464 103.625 100.001 103.642C98.8619 103.642 97.7714 103.471 96.6239 103.512C95.216 103.552 93.5314 103.935 93.1408 104.862Z" fill="#F2C94C"/>
<path d="M119.085 95.1042C117.479 96.9701 115.573 98.5544 113.445 99.7918C116.815 99.4011 118.996 97.1306 120.005 97.5619C120.436 97.7409 120.485 97.9118 120.436 98.2699C120.436 98.4734 120.582 98.5548 120.892 98.6931C121.201 98.8315 122.088 98.6931 122.3 98.8315C122.511 98.9698 122.999 99.4825 121.16 100.174C119.443 100.809 116.888 100.687 114.837 101.175C117.612 101.582 121.901 101.891 124.505 100.679C125.913 100.02 125.978 98.9291 126.776 98.0746C127.573 97.2201 128.403 96.5202 128.192 95.6332C127.858 94.0055 124.782 93.0696 121.966 93.5172C121.404 93.5756 120.86 93.7462 120.365 94.0188C119.87 94.2914 119.435 94.6604 119.085 95.1042Z" fill="#F2C94C"/>
<path d="M104.982 94.8528C103.623 96.7653 108.359 98.8242 110.345 99.6706C110.105 98.9279 109.727 98.2375 109.23 97.6361C108.799 97.0257 108.554 96.1305 109.555 95.9027C110.369 95.7236 110.247 96.1468 110.98 96.2038C111.362 96.2038 112.143 95.39 112.916 95.5364C113.917 95.6666 113.315 96.1875 113.185 96.3503C112.677 96.7873 112.219 97.2785 111.818 97.8151C111.68 98.1348 111.656 98.4923 111.751 98.8273C111.846 99.1624 112.054 99.4545 112.339 99.6543C111.948 98.5313 114.349 97.4733 115.594 96.5456C116.53 95.8457 117.807 95.0807 118.149 94.2181C118.808 92.5904 115.252 92.2079 113.063 92.6393C112.672 92.7206 112.07 92.9404 111.753 93.038C111.168 93.2438 110.544 93.3107 109.93 93.2334C109.171 93.2134 108.412 93.2789 107.667 93.4287C106.636 93.5846 105.689 94.0869 104.982 94.8528Z" fill="#F2C94C"/>
<path d="M96.0787 99.719C96.0787 100.297 97.7064 100.533 98.5934 101.233C99.7165 102.16 100.311 102.616 101.596 102.73C104.306 102.974 107.082 101.314 108.685 100.362C107.176 100.878 105.627 101.268 104.054 101.526C102.923 101.68 102.426 101.298 102.426 101.013C102.426 100.728 103.045 100.533 103.053 100.329C103.061 100.126 102.483 99.8899 102.516 99.6051C102.573 99.1656 104.201 98.9133 104.778 98.9378C106.235 99.0029 107.521 99.6458 108.904 99.8818C107.627 98.8157 105.438 97.2613 102.882 97.2125C100.717 97.1799 96.0299 98.5634 96.0787 99.719Z" fill="#F2C94C"/>
<path d="M117.612 82.9947C117.226 83.3176 116.953 83.7559 116.835 84.2452C116.716 84.7345 116.757 85.2489 116.953 85.7129C117.169 86.2835 117.419 86.8406 117.702 87.3812C117.864 87.723 117.986 88.488 118.662 88.6589C119.736 88.9356 120.639 88.0322 121.616 87.8451C123.162 87.5358 124.318 87.7311 125.734 86.9417C126.389 86.5807 126.966 86.0924 127.43 85.5055C127.894 84.9185 128.236 84.2447 128.436 83.5237C128.705 82.7238 128.662 81.8513 128.314 81.0823C128.174 81.7644 127.841 82.3918 127.353 82.8889C126.913 83.4008 126.422 83.867 125.889 84.2806C125.417 84.5491 124.432 84.834 124.326 84.4026C124.285 84.2399 124.464 84.0527 124.578 83.8818C124.692 83.7109 124.367 83.7109 124.261 83.7434C123.666 84.0268 123.003 84.1368 122.348 84.0608C121.364 83.7841 121.893 83.0761 122.723 82.8645L123.537 82.5716C124.477 82.2765 125.37 81.849 126.19 81.302C123.52 82.3518 119.687 81.1067 117.612 82.9947Z" fill="#F2C94C"/>
<path d="M132.651 81.1721C133.164 81.3582 133.692 81.4971 134.23 81.5871C134.23 81.5871 136.419 81.9208 135.459 82.3033C135.02 82.4823 134.059 82.1242 133.888 82.1079C133.188 82.0347 132.619 82.1079 132.48 82.6288C132.447 82.7685 132.464 82.9157 132.529 83.0438C132.749 83.6623 131.252 83.524 130.902 83.2229C130.405 82.7346 130.69 82.1405 129.852 81.2372C129.404 82.4416 128.59 83.9879 128.81 85.1679C128.916 85.762 129.51 86.3561 130.657 86.3642C131.123 86.3498 131.583 86.2676 132.025 86.12C133.154 85.7877 134.336 85.6745 135.508 85.7864C136.866 86.0023 138.254 85.919 139.577 85.5422C142.075 84.7284 144.094 81.9452 142.246 80.7245C141.384 80.1548 139.805 80.1467 138.535 80.1304C136.094 80.1304 133.286 80.1955 131.089 79.6665C131.195 80.285 131.707 80.7896 132.651 81.1721Z" fill="#F2C94C"/>
<path d="M118.54 81.7343C120.11 81.5471 121.714 81.4983 123.284 81.3192C124.855 81.1402 127.353 80.7658 128.566 79.9195C129.608 79.187 129.616 77.9989 127.834 77.9907C127.444 77.9911 127.056 78.0376 126.678 78.1291C125.758 78.5116 124.79 78.9429 124.139 79.2196C122.967 79.877 121.735 80.422 120.46 80.8472C119.826 81.1809 118.987 81.539 118.54 81.7343Z" fill="#F2C94C"/>
<path d="M132.586 75.8418C131.81 76.439 130.995 76.9828 130.145 77.4694C133.522 77.0706 135.695 74.8082 136.704 75.2314C137.144 75.4186 137.192 75.5895 137.135 75.9394C137.135 76.151 137.282 76.2324 137.591 76.3707C137.9 76.5091 138.787 76.3707 138.999 76.501C139.211 76.6312 139.699 77.1601 137.86 77.8438C136.151 78.4785 133.595 78.3565 131.536 78.8529C134.32 79.2516 138.6 79.569 141.213 78.3483C142.612 77.6973 142.686 76.6068 143.475 75.7522C144.264 74.8977 145.103 74.1979 144.899 73.3108C144.786 72.881 144.531 72.5023 144.175 72.2366C140.204 72.9609 134.173 75.2395 132.586 75.8418Z" fill="#F2C94C"/>
<path opacity="0.5" d="M107.944 93.5997C105.608 92.5987 102.964 91.8988 98.6423 94.1531C94.3209 96.4073 96.331 98.2872 99.0329 99.6707C102.288 101.355 105.006 101.03 107.895 104C110.784 106.971 114.072 106.23 115.952 103.496C117.832 100.761 118.166 99.4266 114.992 96.9119C111.818 94.3972 109.661 94.324 107.944 93.5997Z" fill="#CF2935"/>
<path d="M108.367 35.6157C106.552 36.0284 104.871 36.8966 103.484 38.1385C101.466 40.0998 99.7246 39.8394 98.1865 41.288C97.0928 42.5364 96.2402 43.9768 95.6718 45.5361C95.4358 46.0976 96.5752 47.2126 98.1865 47.0173C101.027 46.6673 101.653 44.9095 103.126 44.7304C105.991 44.3805 107.757 42.997 107.749 42.7691C107.741 42.5413 108.367 35.6157 108.367 35.6157Z" fill="#FFAD97"/>
<path d="M99.2201 95.9605C99.6188 95.6431 101.613 94.2596 101.873 93.9585C102.134 93.6574 103.818 91.81 103.745 90.8172C103.541 88.2618 102.931 82.0443 102.752 81.2467C102.516 80.2213 102.703 75.55 102.752 73.9956C102.752 73.3039 102.874 72.6284 102.972 71.9692C104.119 72.3517 105.283 72.6284 106.487 72.9377C106.883 73.0867 107.32 73.0815 107.712 72.9233C108.104 72.765 108.422 72.4651 108.603 72.0832C108.506 73.9061 108.262 77.3648 108.148 79.1634C108.034 80.9619 106.927 87.5945 106.683 90.0196C106.553 91.2973 106.487 92.4041 106.821 92.9901C107.089 93.3636 107.202 93.8262 107.137 94.2811C107.071 94.736 106.833 95.1482 106.471 95.4315C105.527 96.0825 103.981 96.5301 103.493 96.9045C103.063 97.3317 102.582 97.7035 102.06 98.0113C100.587 98.6054 98.6097 98.2392 98.3005 97.8404C97.9912 97.4416 98.8132 96.2779 99.2201 95.9605Z" fill="#FFC1AF"/>
<path d="M104.005 59.3955C104.005 59.3955 102.89 64.726 102.508 67.6557C102.223 69.8449 101.995 75.7125 101.995 75.7125C101.995 75.7125 105.633 78.4632 108.978 76.5263C109.737 72.5982 110.256 68.6276 110.532 64.6365L104.005 59.3955Z" fill="#CF2935"/>
<path d="M104.168 42.533C104.746 39.9369 107.773 36.7061 107.773 36.7061L113.633 37.9756C114.288 38.5791 115.05 39.0564 115.879 39.3835C118.019 39.8148 120.07 40.7914 120.55 44.478C120.623 45.0314 119.932 44.3234 119.419 46.1056C119.3 46.1337 119.183 46.169 119.069 46.2114C117.677 46.6753 117.498 49.6538 116.872 51.6314C116.245 53.609 115.358 55.7005 114.959 56.5957C114.56 57.4909 115.399 60.8763 115.399 60.8763C115.399 60.8763 110.19 63.6189 108.359 62.8458C106.977 62.1498 105.725 61.2222 104.656 60.1032C104.594 55.9497 104.244 51.8055 103.606 47.7007C103.293 45.9599 103.488 44.1658 104.168 42.533Z" fill="#FFC1AF"/>
<path d="M107.781 36.7062L107.545 39.4162C107.841 39.935 108.316 40.3274 108.882 40.5194C109.447 40.7113 110.063 40.6895 110.613 40.4579C111.853 39.9607 112.91 39.0942 113.641 37.9758L112.827 35.6157L107.781 36.7062Z" fill="#FFAD97"/>
<path d="M113.755 29.5441C112.567 28.2338 108.506 27.2247 106.789 30.4474C106.481 31.3699 106.343 32.3404 106.382 33.312C106.219 36.258 108.115 39.261 109.564 38.8704C111.3 38.3366 112.777 37.1764 113.706 35.6151C114.674 33.5887 115.293 31.2531 113.755 29.5441Z" fill="#FFC1AF"/>
<path d="M104.005 45.3091C104.081 45.6574 104.233 45.9844 104.451 46.2661C104.67 46.5478 104.948 46.7769 105.267 46.9367C106.357 47.4576 107.358 45.3091 107.358 45.3091C107.358 45.3091 104.673 46.7821 104.005 45.3091Z" fill="#FFAD97"/>
<path d="M108.978 46.4148C108.978 46.4148 109.132 49.6701 110.98 50.4839C111.521 50.7379 112.111 50.8696 112.709 50.8696C113.307 50.8696 113.897 50.7379 114.438 50.4839C113.351 50.3731 112.298 50.0378 111.346 49.4992C110.425 48.5789 109.629 47.5419 108.978 46.4148Z" fill="#FFAD97"/>
<path d="M107.423 56.3682C107.305 56.5162 107.222 56.6888 107.18 56.8734C107.138 57.0579 107.137 57.2496 107.179 57.4343C107.326 58.069 107.993 57.7516 107.879 57.4343C107.756 57.0674 107.603 56.7109 107.423 56.3682Z" fill="#FFAD97"/>
<path d="M111.614 98.8811C111.993 97.8908 112.154 96.8305 112.086 95.7723C111.956 93.2088 111.549 86.975 111.395 86.1775C111.191 85.1439 110.963 79.6669 110.866 78.1451C110.809 77.1848 109.881 74.5643 109.165 71.8381C111.758 71.5525 114.381 71.9276 116.79 72.9286C116.341 74.6468 116.09 76.4106 116.042 78.1858C115.952 79.4553 117.083 82.1084 116.855 84.2568C116.701 85.9659 115.374 92.6473 115.049 95.0724C114.895 96.0556 114.914 97.0582 115.106 98.0347C115.423 99.3287 115.26 103.17 114.292 103.788C113.323 104.407 111.037 103.788 110.735 103.398C110.434 103.007 110.849 101.453 111.614 98.8811Z" fill="#FFC1AF"/>
<path d="M111.492 78.9596C111.175 79.1712 111.834 80.5221 111.834 80.5221C111.917 80.0557 112.097 79.612 112.363 79.22C112.681 78.9352 112.363 77.926 112.363 77.926L111.492 78.9596Z" fill="#FFAD97"/>
<path d="M104.013 59.3954L104.575 57.2876C104.575 57.2876 104.868 58.7769 107.781 59.5581C110.196 60.157 112.729 60.0838 115.106 59.3466C115.106 59.3466 117.132 62.6018 117.27 65.0432C117.27 65.0432 117.751 71.0085 117.401 73.7592C117.192 75.1595 117.118 76.5766 117.181 77.991C115.908 78.7704 114.433 79.1555 112.941 79.0978C111.693 79.0414 110.484 78.6476 109.442 77.9585C109.442 77.9585 109.051 74.0359 108.937 72.8152C108.799 71.2445 107.985 66.3942 107.985 66.3942C104.648 65.0432 104.013 59.3954 104.013 59.3954Z" fill="#EE2A24"/>
<path d="M112.624 33.3288C112.501 33.4515 112.35 33.5412 112.183 33.5894C112.017 33.6377 111.841 33.643 111.672 33.6048C111.503 33.5666 111.346 33.4861 111.216 33.371C111.087 33.2558 110.989 33.1097 110.931 32.9463C110.636 32.3312 110.422 31.68 110.296 31.0094C109.361 31.4211 108.372 31.6952 107.358 31.8232C106.492 31.7989 105.642 31.585 104.868 31.1966C105.182 31.1117 105.46 30.9268 105.66 30.6698C105.859 30.4129 105.97 30.0978 105.975 29.7724C106.064 28.568 106.072 27.6321 107.545 27.2659C108.701 26.9729 109.173 27.2659 110.166 26.9973C111.704 26.5253 112.176 25.8498 113.641 26.859C114.87 27.6728 114.902 28.5598 114.902 28.5598C114.902 28.5598 116.31 28.5598 116.31 29.7724C116.31 30.985 117.376 31.5465 116.31 32.4906C115.537 33.1904 115.627 33.4997 115.496 34.9727C115.441 35.1739 115.344 35.3612 115.212 35.5225C115.08 35.6838 114.915 35.8155 114.728 35.9091C114.542 36.0027 114.338 36.0561 114.13 36.0659C113.921 36.0756 113.713 36.0414 113.519 35.9655C113.346 35.7675 113.218 35.5342 113.144 35.2819C113.144 35.2819 114.634 33.3288 112.624 33.3288Z" fill="#592625"/>
<path d="M114.902 58.2399L115.667 60.3151C115.667 60.3151 111.72 62.0404 107.863 60.7139C104.005 59.3874 104.323 58.2725 104.323 58.2725L104.575 57.3203C105.645 58.2951 106.953 58.9715 108.367 59.2816C110.939 59.9164 114.902 58.2399 114.902 58.2399Z" fill="#592625"/>
<path d="M117.547 48.8883C117.23 48.2137 117.005 47.4992 116.88 46.7643L116.668 45.5354C116.261 45.7151 115.934 46.0383 115.749 46.4434C115.565 46.8486 115.535 47.3074 115.667 47.7327C116.047 48.8137 116.521 49.8594 117.083 50.8577L117.547 48.8883Z" fill="#FFAD97"/>
<path d="M109.694 43.3875C110.033 43.5616 110.3 43.8493 110.449 44.2003C110.597 44.5512 110.618 44.9433 110.508 45.3081C110.219 45.9652 109.706 46.4982 109.06 46.8114C108.415 47.1246 107.678 47.1975 106.984 47.0171C105.811 46.8078 104.602 47.0397 103.59 47.6681C103.382 46.8539 103.382 46.0002 103.59 45.186C103.997 44.2257 109.694 43.3875 109.694 43.3875Z" fill="#FFAD97"/>
<path d="M143.036 103.438C140.008 97.3023 131.097 89.5222 131.097 89.5222L130.487 89.8559L131.39 91.4835C131.968 95.1294 133.36 103.072 135.158 107.548C137.103 112.39 140.35 115.979 143.085 115.336L143.174 115.426L143.833 115.06H143.882C146.682 113.351 145.933 109.306 143.036 103.438Z" fill="#592625"/>
<path d="M130.487 89.8562C130.487 89.8562 132.163 101.917 134.556 107.866C136.68 113.156 140.383 116.972 143.239 115.369C146.096 113.766 145.355 109.673 142.425 103.781C139.406 97.6444 130.487 89.8562 130.487 89.8562Z" fill="#6D3030"/>
<path d="M107.586 42.9229L131.903 91.1413C132.049 91.4343 133.172 94.0711 133.53 95.0639C134.531 97.66 135.736 100.403 135.972 101.224C134.466 99.0353 130.845 91.6133 130.641 91.2146L106.609 43.4274L107.586 42.9229Z" fill="#491D1D"/>
<path d="M99.7002 42.7688C101.873 42.069 104.005 43.07 106.089 41.955C106.968 41.483 108.53 42.1585 109.214 42.7688C109.897 43.3792 110.369 44.3965 108.978 45.5358C107.122 47.0169 106.382 45.8939 105.722 45.9264C103.883 46.1724 102.072 46.6032 100.319 47.2123C99.0573 47.6273 96.7298 47.5215 96.2496 46.5287C95.7695 45.5358 98.4714 43.1676 99.7002 42.7688Z" fill="#FFC1AF"/>
<path d="M118.817 64.9621C119.045 64.4575 118.914 61.5848 118.752 57.0762C118.483 55.294 119.297 54.4476 118.882 53.1455C118.28 51.29 117.14 48.5149 116.855 46.7652C117.376 45.1376 118.223 42.6961 119.574 41.6138C120.384 43.2073 121.083 44.8552 121.665 46.5455C122.145 47.9127 121.893 49.76 122.43 52.5596C122.821 54.5371 123.692 56.1892 122.365 60.5349C121.478 63.4403 121.38 64.1564 121.502 66.5653C121.592 68.1929 121.502 69.2509 120.566 69.6497C118.304 70.6588 117.474 68.1767 117.922 66.5653C117.572 66.1828 119.858 67.257 118.817 64.9621Z" fill="#FFC1AF"/>
</g>
<defs>
<clipPath id="clip0_4154_12113">
<rect width="156" height="131.04" fill="white" transform="translate(0 0.973389)"/>
</clipPath>
</defs>
</svg>
