<svg width="61" height="61" viewBox="0 0 61 61" fill="none" xmlns="http://www.w3.org/2000/svg">
<path d="M32.8893 28.1097L14.9197 46.0793" stroke="#CF2935" stroke-width="3" stroke-linecap="round" stroke-linejoin="round"/>
<path d="M16.8589 33.0382L8.05715 30.9591C7.08877 30.7303 6.74819 29.5281 7.44969 28.8241L14.4494 21.8243C14.9196 21.3541 15.5576 21.0847 16.2261 21.0796L24.1179 21.011" stroke="#CF2935" stroke-width="3" stroke-linecap="round" stroke-linejoin="round"/>
<path fill-rule="evenodd" clip-rule="evenodd" d="M50.5258 22.8106L52.5795 12.9286C53.1386 10.2395 50.7596 7.86047 48.0706 8.41964L38.1886 10.4733C35.2784 11.0782 32.6096 12.5193 30.5102 14.6213L22.4023 22.7267C19.3091 25.8199 17.2961 29.8306 16.6606 34.1591L16.6327 34.3446C16.2311 37.1074 17.1563 39.8956 19.1286 41.8705V41.8705C21.1009 43.8428 23.8917 44.768 26.6545 44.3639L26.84 44.3359C31.1685 43.7031 35.1792 41.6875 38.2724 38.5943L46.3778 30.4889C48.4798 28.3895 49.9209 25.7208 50.5258 22.8106V22.8106Z" stroke="#CF2935" stroke-width="3" stroke-linecap="round" stroke-linejoin="round"/>
<path d="M34.0583 11.9811C39.9321 15.9867 45.0129 21.0675 49.0186 26.9413" stroke="#CF2935" stroke-width="3" stroke-linecap="round" stroke-linejoin="round"/>
<path d="M27.9583 44.1405L30.0373 52.9423C30.2661 53.9106 31.4683 54.2512 32.1723 53.5497L39.1721 46.55C39.6423 46.0798 39.9117 45.4418 39.9168 44.7733L39.9854 36.8815" stroke="#CF2935" stroke-width="3" stroke-linecap="round" stroke-linejoin="round"/>
</svg>
