<svg width="60" height="60" viewBox="0 0 60 60" fill="none" xmlns="http://www.w3.org/2000/svg">
<g clip-path="url(#clip0_4235_11970)">
<mask id="path-1-outside-1_4235_11970" maskUnits="userSpaceOnUse" x="6.80005" y="9.2002" width="46" height="42" fill="black">
<rect fill="white" x="6.80005" y="9.2002" width="46" height="42"/>
<path fill-rule="evenodd" clip-rule="evenodd" d="M7.80005 13.2002C7.80005 11.5505 9.15034 10.2002 10.8 10.2002H49.2C50.8498 10.2002 52.2 11.5505 52.2 13.2002V31.8002V32.4002V34.8002V39.4002V44.0002V46.8002C52.2 48.4499 50.8498 49.8002 49.2 49.8002H10.8C9.15034 49.8002 7.80005 48.4499 7.80005 46.8002V46.2002V41.6002V37.0002V32.4002V31.8002V13.2002ZM49.2 11.4002H10.8C9.79896 11.4002 9.00005 12.1991 9.00005 13.2002V31.8002V32.4002C9.00005 33.4013 9.79896 34.2002 10.8 34.2002H49.2C50.2011 34.2002 51 33.4013 51 32.4002V31.8002V13.2002C51 12.1991 50.2011 11.4002 49.2 11.4002ZM13.8 14.1002C13.8001 13.9345 13.9344 13.8002 14.1 13.8002H20.6915C20.6944 13.8002 20.6972 13.8002 20.7 13.8002H21.3C21.3029 13.8002 21.3057 13.8002 21.3086 13.8002H22.4915C22.4944 13.8002 22.4972 13.8002 22.5 13.8002H24.7745C24.7773 13.8002 24.7802 13.8002 24.783 13.8002H45.9C46.0657 13.8002 46.2 13.9345 46.2 14.1002C46.2 15.6271 47.1774 16.8002 48.3 16.8002C48.4657 16.8002 48.6 16.9345 48.6 17.1002V28.5002C48.6 28.6659 48.4657 28.8002 48.3 28.8002C47.1774 28.8002 46.2 29.9733 46.2 31.5002C46.2 31.6659 46.0657 31.8002 45.9 31.8002H14.1C13.9344 31.8002 13.8001 31.6659 13.8 31.5002C13.8 29.9733 12.8227 28.8002 11.7 28.8002C11.5344 28.8002 11.4001 28.6659 11.4 28.5002V17.1002C11.4001 16.9345 11.5344 16.8002 11.7 16.8002C12.8227 16.8002 13.8 15.6271 13.8 14.1002ZM24.7745 14.4002H22.5C22.4972 14.4002 22.4944 14.4002 22.4915 14.4002H21.3086C21.3057 14.4002 21.3029 14.4002 21.3 14.4002H20.7C20.6972 14.4002 20.6944 14.4002 20.6915 14.4002H14.3508C14.2327 15.9234 13.2832 17.1451 12 17.3252V28.2752C13.2832 28.4553 14.2327 29.6769 14.3508 31.2002H45.6493C45.7674 29.6769 46.7169 28.4553 48 28.2752V17.3252C46.7169 17.1451 45.7674 15.9234 45.6493 14.4002H24.783C24.7802 14.4002 24.7773 14.4002 24.7745 14.4002ZM24.6 22.8002C24.6 19.8214 27.0213 17.4002 30 17.4002C32.9788 17.4002 35.4 19.8214 35.4 22.8002C35.4 25.779 32.9788 28.2002 30 28.2002C27.0213 28.2002 24.6 25.779 24.6 22.8002ZM34.8 22.8002C34.8 20.1457 32.6546 18.0002 30 18.0002C27.3455 18.0002 25.2 20.1457 25.2 22.8002C25.2 25.4547 27.3455 27.6002 30 27.6002C32.6546 27.6002 34.8 25.4547 34.8 22.8002ZM18.0012 21.1572C18.4062 20.7016 19.025 20.4002 19.8 20.4002C20.575 20.4002 21.1939 20.7016 21.5989 21.1572C22.0039 21.6128 22.2 22.2085 22.2 22.8002C22.2 23.3919 22.0039 23.9876 21.5989 24.4432C21.1939 24.8988 20.575 25.2002 19.8 25.2002C19.0251 25.2002 18.4062 24.8988 18.0012 24.4432C17.5962 23.9876 17.4 23.3919 17.4 22.8002C17.4 22.2085 17.5962 21.6128 18.0012 21.1572ZM38.4012 21.1572C38.8062 20.7016 39.425 20.4002 40.2 20.4002C40.975 20.4002 41.5939 20.7016 41.9989 21.1572C42.4039 21.6128 42.6 22.2085 42.6 22.8002C42.6 23.3919 42.4039 23.9876 41.9989 24.4432C41.5939 24.8988 40.975 25.2002 40.2 25.2002C39.425 25.2002 38.8062 24.8988 38.4012 24.4432C37.9962 23.9876 37.8 23.3919 37.8 22.8002C37.8 22.2085 37.9962 21.6128 38.4012 21.1572ZM21.1512 21.5557C20.8562 21.2238 20.425 21.0002 19.8 21.0002C19.175 21.0002 18.7439 21.2238 18.4489 21.5557C18.1539 21.8876 18 22.3419 18 22.8002C18 23.2585 18.1539 23.7128 18.4489 24.0447C18.7439 24.3766 19.175 24.6002 19.8 24.6002C20.425 24.6002 20.8562 24.3766 21.1512 24.0447C21.4462 23.7128 21.6 23.2585 21.6 22.8002C21.6 22.3419 21.4462 21.8876 21.1512 21.5557ZM41.5512 21.5557C41.2562 21.2238 40.825 21.0002 40.2 21.0002C39.575 21.0002 39.1439 21.2238 38.8489 21.5557C38.5539 21.8876 38.4 22.3419 38.4 22.8002C38.4 23.2585 38.5539 23.7128 38.8489 24.0447C39.1439 24.3766 39.575 24.6002 40.2 24.6002C40.825 24.6002 41.2562 24.3766 41.5512 24.0447C41.8462 23.7128 42 23.2585 42 22.8002C42 22.3419 41.8462 21.8876 41.5512 21.5557ZM10.8 35.4002C10.1233 35.4002 9.50348 35.1645 9.00005 34.7826V34.8002V37.0002C9.00005 38.0013 9.79896 38.8002 10.8 38.8002H49.2C50.2011 38.8002 51 38.0013 51 37.0002V34.8002V34.7826C50.4966 35.1645 49.8768 35.4002 49.2 35.4002H10.8ZM10.8 40.0002C10.1233 40.0002 9.50348 39.7645 9.00005 39.3826V39.4002V41.6002C9.00005 42.6013 9.79896 43.4002 10.8 43.4002H49.2C50.2011 43.4002 51 42.6013 51 41.6002V39.4002V39.3826C50.4966 39.7645 49.8768 40.0002 49.2 40.0002H10.8ZM9.00005 46.2002V44.0002V43.9826C9.50348 44.3645 10.1233 44.6002 10.8 44.6002H49.2C49.8768 44.6002 50.4966 44.3645 51 43.9826V44.0002L51 46.1934C51 46.1946 51 46.1959 51 46.1972C50.998 47.198 50.1999 48.6002 49.2 48.6002H10.8C9.79896 48.6002 9.00005 47.2013 9.00005 46.2002Z"/>
</mask>
<path fill-rule="evenodd" clip-rule="evenodd" d="M7.80005 13.2002C7.80005 11.5505 9.15034 10.2002 10.8 10.2002H49.2C50.8498 10.2002 52.2 11.5505 52.2 13.2002V31.8002V32.4002V34.8002V39.4002V44.0002V46.8002C52.2 48.4499 50.8498 49.8002 49.2 49.8002H10.8C9.15034 49.8002 7.80005 48.4499 7.80005 46.8002V46.2002V41.6002V37.0002V32.4002V31.8002V13.2002ZM49.2 11.4002H10.8C9.79896 11.4002 9.00005 12.1991 9.00005 13.2002V31.8002V32.4002C9.00005 33.4013 9.79896 34.2002 10.8 34.2002H49.2C50.2011 34.2002 51 33.4013 51 32.4002V31.8002V13.2002C51 12.1991 50.2011 11.4002 49.2 11.4002ZM13.8 14.1002C13.8001 13.9345 13.9344 13.8002 14.1 13.8002H20.6915C20.6944 13.8002 20.6972 13.8002 20.7 13.8002H21.3C21.3029 13.8002 21.3057 13.8002 21.3086 13.8002H22.4915C22.4944 13.8002 22.4972 13.8002 22.5 13.8002H24.7745C24.7773 13.8002 24.7802 13.8002 24.783 13.8002H45.9C46.0657 13.8002 46.2 13.9345 46.2 14.1002C46.2 15.6271 47.1774 16.8002 48.3 16.8002C48.4657 16.8002 48.6 16.9345 48.6 17.1002V28.5002C48.6 28.6659 48.4657 28.8002 48.3 28.8002C47.1774 28.8002 46.2 29.9733 46.2 31.5002C46.2 31.6659 46.0657 31.8002 45.9 31.8002H14.1C13.9344 31.8002 13.8001 31.6659 13.8 31.5002C13.8 29.9733 12.8227 28.8002 11.7 28.8002C11.5344 28.8002 11.4001 28.6659 11.4 28.5002V17.1002C11.4001 16.9345 11.5344 16.8002 11.7 16.8002C12.8227 16.8002 13.8 15.6271 13.8 14.1002ZM24.7745 14.4002H22.5C22.4972 14.4002 22.4944 14.4002 22.4915 14.4002H21.3086C21.3057 14.4002 21.3029 14.4002 21.3 14.4002H20.7C20.6972 14.4002 20.6944 14.4002 20.6915 14.4002H14.3508C14.2327 15.9234 13.2832 17.1451 12 17.3252V28.2752C13.2832 28.4553 14.2327 29.6769 14.3508 31.2002H45.6493C45.7674 29.6769 46.7169 28.4553 48 28.2752V17.3252C46.7169 17.1451 45.7674 15.9234 45.6493 14.4002H24.783C24.7802 14.4002 24.7773 14.4002 24.7745 14.4002ZM24.6 22.8002C24.6 19.8214 27.0213 17.4002 30 17.4002C32.9788 17.4002 35.4 19.8214 35.4 22.8002C35.4 25.779 32.9788 28.2002 30 28.2002C27.0213 28.2002 24.6 25.779 24.6 22.8002ZM34.8 22.8002C34.8 20.1457 32.6546 18.0002 30 18.0002C27.3455 18.0002 25.2 20.1457 25.2 22.8002C25.2 25.4547 27.3455 27.6002 30 27.6002C32.6546 27.6002 34.8 25.4547 34.8 22.8002ZM18.0012 21.1572C18.4062 20.7016 19.025 20.4002 19.8 20.4002C20.575 20.4002 21.1939 20.7016 21.5989 21.1572C22.0039 21.6128 22.2 22.2085 22.2 22.8002C22.2 23.3919 22.0039 23.9876 21.5989 24.4432C21.1939 24.8988 20.575 25.2002 19.8 25.2002C19.0251 25.2002 18.4062 24.8988 18.0012 24.4432C17.5962 23.9876 17.4 23.3919 17.4 22.8002C17.4 22.2085 17.5962 21.6128 18.0012 21.1572ZM38.4012 21.1572C38.8062 20.7016 39.425 20.4002 40.2 20.4002C40.975 20.4002 41.5939 20.7016 41.9989 21.1572C42.4039 21.6128 42.6 22.2085 42.6 22.8002C42.6 23.3919 42.4039 23.9876 41.9989 24.4432C41.5939 24.8988 40.975 25.2002 40.2 25.2002C39.425 25.2002 38.8062 24.8988 38.4012 24.4432C37.9962 23.9876 37.8 23.3919 37.8 22.8002C37.8 22.2085 37.9962 21.6128 38.4012 21.1572ZM21.1512 21.5557C20.8562 21.2238 20.425 21.0002 19.8 21.0002C19.175 21.0002 18.7439 21.2238 18.4489 21.5557C18.1539 21.8876 18 22.3419 18 22.8002C18 23.2585 18.1539 23.7128 18.4489 24.0447C18.7439 24.3766 19.175 24.6002 19.8 24.6002C20.425 24.6002 20.8562 24.3766 21.1512 24.0447C21.4462 23.7128 21.6 23.2585 21.6 22.8002C21.6 22.3419 21.4462 21.8876 21.1512 21.5557ZM41.5512 21.5557C41.2562 21.2238 40.825 21.0002 40.2 21.0002C39.575 21.0002 39.1439 21.2238 38.8489 21.5557C38.5539 21.8876 38.4 22.3419 38.4 22.8002C38.4 23.2585 38.5539 23.7128 38.8489 24.0447C39.1439 24.3766 39.575 24.6002 40.2 24.6002C40.825 24.6002 41.2562 24.3766 41.5512 24.0447C41.8462 23.7128 42 23.2585 42 22.8002C42 22.3419 41.8462 21.8876 41.5512 21.5557ZM10.8 35.4002C10.1233 35.4002 9.50348 35.1645 9.00005 34.7826V34.8002V37.0002C9.00005 38.0013 9.79896 38.8002 10.8 38.8002H49.2C50.2011 38.8002 51 38.0013 51 37.0002V34.8002V34.7826C50.4966 35.1645 49.8768 35.4002 49.2 35.4002H10.8ZM10.8 40.0002C10.1233 40.0002 9.50348 39.7645 9.00005 39.3826V39.4002V41.6002C9.00005 42.6013 9.79896 43.4002 10.8 43.4002H49.2C50.2011 43.4002 51 42.6013 51 41.6002V39.4002V39.3826C50.4966 39.7645 49.8768 40.0002 49.2 40.0002H10.8ZM9.00005 46.2002V44.0002V43.9826C9.50348 44.3645 10.1233 44.6002 10.8 44.6002H49.2C49.8768 44.6002 50.4966 44.3645 51 43.9826V44.0002L51 46.1934C51 46.1946 51 46.1959 51 46.1972C50.998 47.198 50.1999 48.6002 49.2 48.6002H10.8C9.79896 48.6002 9.00005 47.2013 9.00005 46.2002Z" fill="#CF2935"/>
<path d="M22.2367 13.949L21.9776 13.7977L22.2367 13.949ZM22.2367 14.2514L21.9776 14.4027L22.2367 14.2514ZM25.0378 14.2514L24.7787 14.1002L25.0378 14.2514ZM25.0378 13.949L25.2969 13.7977L25.0378 13.949ZM20.4367 13.949L20.6958 14.1002L20.4367 13.949ZM20.4367 14.2514L20.6958 14.1002L20.4367 14.2514ZM21.5634 14.2514L21.8225 14.4027L21.5634 14.2514ZM21.5634 13.949L21.8225 13.7977L21.5634 13.949ZM9.00005 48.5826H8.70005V48.7316L8.81873 48.8216L9.00005 48.5826ZM51 48.5826L51.1814 48.8216L51.3 48.7316V48.5826H51ZM20.6915 13.8002V13.5002L20.6873 13.5002L20.6915 13.8002ZM21.3086 13.8002L21.3128 13.5002H21.3086V13.8002ZM22.4915 13.8002V13.5002L22.4873 13.5002L22.4915 13.8002ZM24.783 13.8002L24.7872 13.5002H24.783V13.8002ZM22.4915 14.4002L22.4873 14.7002H22.4915V14.4002ZM21.3086 14.4002V14.7002L21.3128 14.7002L21.3086 14.4002ZM20.6915 14.4002L20.6873 14.7002H20.6915V14.4002ZM24.783 14.4002V14.7002L24.7872 14.7002L24.783 14.4002ZM21.9776 13.7977C21.8685 13.9846 21.8685 14.2158 21.9776 14.4027L22.4958 14.1002V14.1002L21.9776 13.7977ZM25.2969 14.4027C25.406 14.2158 25.406 13.9846 25.2969 13.7977L24.7787 14.1002V14.1002L25.2969 14.4027ZM20.1776 13.7977C20.0685 13.9846 20.0685 14.2158 20.1776 14.4027L20.6958 14.1002V14.1002L20.1776 13.7977ZM21.8225 14.4027C21.9316 14.2158 21.9316 13.9846 21.8225 13.7977L21.3043 14.1002V14.1002L21.8225 14.4027ZM8.81873 48.8216C9.36935 49.2393 10.0518 49.5002 10.8 49.5002V48.9002C10.1947 48.9002 9.63761 48.6897 9.18137 48.3436L8.81873 48.8216ZM10.8 49.5002H49.2V48.9002H10.8V49.5002ZM49.2 49.5002C49.9483 49.5002 50.6307 49.2393 51.1814 48.8216L50.8187 48.3436C50.3625 48.6897 49.8054 48.9002 49.2 48.9002V49.5002ZM8.70005 46.2002V48.5826H9.30005V46.2002H8.70005ZM50.7 44.0002V46.1972H51.3V44.0002H50.7ZM50.7 46.1972V46.2002H51.3V46.1972H50.7ZM24.7872 14.7002C24.9971 14.6972 25.1907 14.5846 25.2969 14.4027L24.7787 14.1002L24.7787 14.1002L24.7872 14.7002ZM20.1776 14.4027C20.2838 14.5846 20.4774 14.6972 20.6873 14.7002L20.6958 14.1002L20.6958 14.1002L20.1776 14.4027ZM21.3128 14.7002C21.5227 14.6972 21.7163 14.5846 21.8225 14.4027L21.3043 14.1002L21.3043 14.1002L21.3128 14.7002ZM51.3 48.5826V46.1972H50.7V48.5826H51.3ZM51.3 46.1975L51.3 46.1937L50.7001 46.1931L50.7 46.1968L51.3 46.1975ZM21.9776 14.4027C22.0838 14.5846 22.2774 14.6972 22.4873 14.7002L22.4958 14.1002L22.4958 14.1002L21.9776 14.4027ZM22.5 14.7002H24.783V14.1002H22.5V14.7002ZM25.2969 13.7977C25.1907 13.6158 24.9971 13.5032 24.7872 13.5002L24.7787 14.1002L24.7787 14.1002L25.2969 13.7977ZM21.8225 13.7977C21.7163 13.6158 21.5227 13.5032 21.3128 13.5002L21.3043 14.1002L21.3043 14.1002L21.8225 13.7977ZM24.783 13.5002H22.5V14.1002H24.783V13.5002ZM20.6915 14.7002H21.3086V14.1002H20.6915V14.7002ZM22.4915 14.7002H24.7745V14.1002H22.4915V14.7002ZM22.4873 13.5002C22.2774 13.5032 22.0838 13.6158 21.9776 13.7977L22.4958 14.1002L22.4958 14.1002L22.4873 13.5002ZM20.6873 13.5002C20.4774 13.5032 20.2838 13.6158 20.1776 13.7977L20.6958 14.1002L20.6958 14.1002L20.6873 13.5002ZM24.7745 13.5002H22.4915V14.1002H24.7745V13.5002ZM21.3086 13.5002H20.6915V14.1002H21.3086V13.5002ZM14.1 13.8002V13.2002L14.1 13.2002L14.1 13.8002ZM13.8 14.1002L13.2 14.1001V14.1002H13.8ZM11.7 16.8002V16.2002H11.7L11.7 16.8002ZM11.4 17.1002L10.8 17.1001V17.1002H11.4ZM11.4 28.5002H10.8L10.8 28.5003L11.4 28.5002ZM11.7 28.8002L11.7 29.4002H11.7V28.8002ZM13.8 31.5002H13.2V31.5003L13.8 31.5002ZM14.1 31.8002L14.1 32.4002H14.1V31.8002ZM45.9 31.8002V32.4002H45.9001L45.9 31.8002ZM46.2 31.5002L46.8 31.5003V31.5002H46.2ZM48.3 28.8002V29.4002H48.3001L48.3 28.8002ZM48.6 28.5002L49.2 28.5003V28.5002H48.6ZM48.6 17.1002H49.2V17.1001L48.6 17.1002ZM48.3 16.8002L48.3001 16.2002H48.3V16.8002ZM46.2 14.1002H46.8V14.1001L46.2 14.1002ZM45.9 13.8002L45.9001 13.2002H45.9V13.8002ZM22.5 13.8002L22.4916 14.4002H22.5V13.8002ZM22.5 14.4002V13.8001L22.4915 13.8003L22.5 14.4002ZM45.6493 14.4002L46.2475 14.3538L46.2045 13.8002H45.6493V14.4002ZM48 17.3252H48.6V16.8035L48.0834 16.731L48 17.3252ZM48 28.2752L48.0834 28.8694L48.6 28.7969V28.2752H48ZM45.6493 31.2002V31.8002H46.2045L46.2475 31.2466L45.6493 31.2002ZM14.3508 31.2002L13.7526 31.2466L13.7955 31.8002H14.3508V31.2002ZM12 28.2752H11.4V28.7969L11.9167 28.8694L12 28.2752ZM12 17.3252L11.9167 16.731L11.4 16.8035V17.3252H12ZM14.3508 14.4002V13.8002H13.7955L13.7526 14.3538L14.3508 14.4002ZM24.7745 14.4002L24.783 13.8002H24.7745V14.4002ZM24.7745 13.8002V14.4003L24.783 14.4001L24.7745 13.8002ZM20.7 13.8002L20.6916 14.4002H20.7V13.8002ZM20.7 14.4002V13.8001L20.6915 13.8003L20.7 14.4002ZM21.3 14.4002L21.3086 13.8002H21.3V14.4002ZM21.3 13.8002V14.4003L21.3085 14.4001L21.3 13.8002ZM18.0012 24.4432L18.4497 24.0445L18.4497 24.0445L18.0012 24.4432ZM21.5989 21.1572L21.1504 21.5558L21.1504 21.5558L21.5989 21.1572ZM38.4012 24.4432L38.8497 24.0445L38.8497 24.0445L38.4012 24.4432ZM41.9989 21.1572L41.5504 21.5558V21.5558L41.9989 21.1572ZM21.1512 24.0447L21.5997 24.4433L21.5997 24.4433L21.1512 24.0447ZM18.4489 21.5557L18.0004 21.157L18.0004 21.157L18.4489 21.5557ZM41.5512 24.0447L41.9997 24.4433L41.9997 24.4433L41.5512 24.0447ZM38.8489 21.5557L38.4004 21.157L38.4004 21.157L38.8489 21.5557ZM9.00005 34.7826L9.36269 34.3046L8.40005 33.5743V34.7826H9.00005ZM51 34.7826H51.6V33.5743L50.6374 34.3046L51 34.7826ZM9.00005 39.3826L9.36269 38.9046L8.40005 38.1743V39.3826H9.00005ZM51 39.3826H51.6V38.1743L50.6374 38.9046L51 39.3826ZM9.00005 43.9826L9.36269 43.5046L8.40005 42.7743V43.9826H9.00005ZM51 43.9826H51.6V42.7743L50.6374 43.5046L51 43.9826ZM51 44.0002H50.4H51ZM51 46.1934H51.6H51ZM20.6915 13.8002V14.4003L20.7 14.4001L20.6915 13.8002ZM21.3086 13.8002L21.3001 14.4002H21.3086V13.8002ZM22.4915 13.8002V14.4003L22.5 14.4001L22.4915 13.8002ZM24.783 13.8002L24.7745 14.4002H24.783V13.8002ZM22.4915 14.4002L22.5 13.8002H22.4915V14.4002ZM21.3086 14.4002V13.8001L21.3001 13.8003L21.3086 14.4002ZM20.6915 14.4002L20.7 13.8002H20.6915V14.4002ZM24.783 14.4002V13.8001L24.7745 13.8003L24.783 14.4002ZM51 46.1972L51.6 46.1984V46.1972H51ZM10.8 9.6002C8.81897 9.6002 7.20005 11.2191 7.20005 13.2002H8.40005C8.40005 11.8819 9.48171 10.8002 10.8 10.8002V9.6002ZM7.20005 13.2002V31.8002H8.40005V13.2002H7.20005ZM7.20005 31.8002V32.4002H8.40005V31.8002H7.20005ZM7.20005 32.4002V37.0002H8.40005V32.4002H7.20005ZM7.20005 37.0002V41.6002H8.40005V37.0002H7.20005ZM7.20005 41.6002V46.2002H8.40005V41.6002H7.20005ZM7.20005 46.2002V46.8002H8.40005V46.2002H7.20005ZM7.20005 46.8002C7.20005 48.7813 8.81897 50.4002 10.8 50.4002V49.2002C9.48171 49.2002 8.40005 48.1185 8.40005 46.8002H7.20005ZM10.8 50.4002H49.2V49.2002H10.8V50.4002ZM49.2 50.4002C51.1811 50.4002 52.8 48.7813 52.8 46.8002H51.6C51.6 48.1185 50.5184 49.2002 49.2 49.2002V50.4002ZM52.8 46.8002V44.0002H51.6V46.8002H52.8ZM52.8 44.0002V39.4002H51.6V44.0002H52.8ZM52.8 39.4002V34.8002H51.6V39.4002H52.8ZM52.8 34.8002V32.4002H51.6V34.8002H52.8ZM52.8 32.4002V31.8002H51.6V32.4002H52.8ZM52.8 31.8002V13.2002H51.6V31.8002H52.8ZM52.8 13.2002C52.8 11.2191 51.1811 9.6002 49.2 9.6002V10.8002C50.5184 10.8002 51.6 11.8819 51.6 13.2002H52.8ZM49.2 9.6002H10.8V10.8002H49.2V9.6002ZM10.8 12.0002H49.2V10.8002H10.8V12.0002ZM49.2 12.0002C49.8698 12.0002 50.4 12.5305 50.4 13.2002H51.6C51.6 11.8677 50.5325 10.8002 49.2 10.8002V12.0002ZM50.4 13.2002V31.8002H51.6V13.2002H50.4ZM50.4 31.8002V32.4002H51.6V31.8002H50.4ZM50.4 32.4002C50.4 33.0699 49.8698 33.6002 49.2 33.6002V34.8002C50.5325 34.8002 51.6 33.7327 51.6 32.4002H50.4ZM49.2 33.6002H10.8V34.8002H49.2V33.6002ZM10.8 33.6002C10.1303 33.6002 9.60005 33.0699 9.60005 32.4002H8.40005C8.40005 33.7327 9.46759 34.8002 10.8 34.8002V33.6002ZM9.60005 32.4002V31.8002H8.40005V32.4002H9.60005ZM9.60005 31.8002V13.2002H8.40005V31.8002H9.60005ZM9.60005 13.2002C9.60005 12.5305 10.1303 12.0002 10.8 12.0002V10.8002C9.46759 10.8002 8.40005 11.8677 8.40005 13.2002H9.60005ZM14.1 13.2002C13.603 13.2002 13.2001 13.6031 13.2 14.1001L14.4 14.1003C14.4 14.2659 14.2658 14.4002 14.1001 14.4002L14.1 13.2002ZM13.2 14.1002C13.2 15.4317 12.37 16.2002 11.7 16.2002V17.4002C13.2755 17.4002 14.4 15.8224 14.4 14.1002H13.2ZM11.7 16.2002C11.203 16.2002 10.8001 16.6031 10.8 17.1001L12 17.1003C12 17.2659 11.8658 17.4002 11.7001 17.4002L11.7 16.2002ZM10.8 17.1002V28.5002H12V17.1002H10.8ZM10.8 28.5003C10.8001 28.9973 11.203 29.4001 11.7 29.4002L11.7001 28.2002C11.8658 28.2002 12 28.3345 12 28.5001L10.8 28.5003ZM11.7 29.4002C12.37 29.4002 13.2 30.1687 13.2 31.5002H14.4C14.4 29.778 13.2755 28.2002 11.7 28.2002V29.4002ZM13.2 31.5003C13.2001 31.9973 13.603 32.4001 14.1 32.4002L14.1001 31.2002C14.2658 31.2002 14.4 31.3345 14.4 31.5001L13.2 31.5003ZM14.1 32.4002H45.9V31.2002H14.1V32.4002ZM45.9001 32.4002C46.3971 32.4001 46.8 31.9973 46.8 31.5003L45.6 31.5001C45.6001 31.3345 45.7343 31.2002 45.9 31.2002L45.9001 32.4002ZM46.8 31.5002C46.8 30.1687 47.6301 29.4002 48.3 29.4002V28.2002C46.7246 28.2002 45.6 29.778 45.6 31.5002H46.8ZM48.3001 29.4002C48.7971 29.4001 49.2 28.9973 49.2 28.5003L48 28.5001C48.0001 28.3345 48.1343 28.2002 48.3 28.2002L48.3001 29.4002ZM49.2 28.5002V17.1002H48V28.5002H49.2ZM49.2 17.1001C49.2 16.6031 48.7971 16.2002 48.3001 16.2002L48.3 17.4002C48.1343 17.4002 48.0001 17.2659 48 17.1003L49.2 17.1001ZM48.3 16.2002C47.6301 16.2002 46.8 15.4317 46.8 14.1002H45.6C45.6 15.8224 46.7246 17.4002 48.3 17.4002V16.2002ZM46.8 14.1001C46.8 13.6031 46.3971 13.2002 45.9001 13.2002L45.9 14.4002C45.7343 14.4002 45.6001 14.2659 45.6 14.1003L46.8 14.1001ZM45.0511 14.4466C45.1841 16.1624 46.2755 17.6891 47.9167 17.9194L48.0834 16.731C47.1583 16.6012 46.3506 15.6845 46.2475 14.3538L45.0511 14.4466ZM47.4001 17.3252V28.2752H48.6V17.3252H47.4001ZM47.9167 27.681C46.2755 27.9113 45.1841 29.438 45.0511 31.1538L46.2475 31.2466C46.3506 29.9159 47.1583 28.9992 48.0834 28.8694L47.9167 27.681ZM45.6493 30.6002H14.3508V31.8002H45.6493V30.6002ZM14.949 31.1538C14.816 29.438 13.7246 27.9113 12.0834 27.681L11.9167 28.8694C12.8418 28.9992 13.6494 29.9159 13.7526 31.2466L14.949 31.1538ZM12.6 28.2752V17.3252H11.4V28.2752H12.6ZM12.0834 17.9194C13.7246 17.6891 14.816 16.1624 14.949 14.4466L13.7526 14.3538C13.6494 15.6845 12.8418 16.6012 11.9167 16.731L12.0834 17.9194ZM20.7 15.0002H21.3V13.8002H20.7V15.0002ZM21.3 13.2002H20.7V14.4002H21.3V13.2002ZM30 16.8002C26.6899 16.8002 24 19.49 24 22.8002H25.2C25.2 20.1528 27.3526 18.0002 30 18.0002V16.8002ZM24 22.8002C24 26.1104 26.6899 28.8002 30 28.8002V27.6002C27.3526 27.6002 25.2 25.4476 25.2 22.8002H24ZM30 28.8002C33.3102 28.8002 36 26.1104 36 22.8002H34.8C34.8 25.4476 32.6475 27.6002 30 27.6002V28.8002ZM36 22.8002C36 19.49 33.3102 16.8002 30 16.8002V18.0002C32.6475 18.0002 34.8 20.1528 34.8 22.8002H36ZM30 18.6002C32.3232 18.6002 34.2 20.477 34.2 22.8002H35.4C35.4 19.8143 32.9859 17.4002 30 17.4002V18.6002ZM34.2 22.8002C34.2 25.1233 32.3232 27.0002 30 27.0002V28.2002C32.9859 28.2002 35.4 25.7861 35.4 22.8002H34.2ZM30 27.0002C27.6769 27.0002 25.8 25.1233 25.8 22.8002H24.6C24.6 25.7861 27.0142 28.2002 30 28.2002V27.0002ZM25.8 22.8002C25.8 20.477 27.6769 18.6002 30 18.6002V17.4002C27.0142 17.4002 24.6 19.8143 24.6 22.8002H25.8ZM19.8 19.8002C18.862 19.8002 18.077 20.1688 17.5528 20.7586L18.4497 21.5558C18.7354 21.2344 19.1881 21.0002 19.8 21.0002V19.8002ZM17.5528 20.7586C17.0385 21.3372 16.8 22.0802 16.8 22.8002H18C18 22.3369 18.154 21.8885 18.4497 21.5558L17.5528 20.7586ZM16.8 22.8002C16.8 23.5202 17.0385 24.2632 17.5528 24.8418L18.4497 24.0445C18.154 23.7119 18 23.2635 18 22.8002H16.8ZM17.5528 24.8418C18.077 25.4316 18.862 25.8002 19.8 25.8002V24.6002C19.1881 24.6002 18.7354 24.366 18.4497 24.0445L17.5528 24.8418ZM19.8 25.8002C20.7381 25.8002 21.5231 25.4316 22.0473 24.8418L21.1504 24.0445C20.8647 24.366 20.412 24.6002 19.8 24.6002V25.8002ZM22.0473 24.8418C22.5616 24.2632 22.8 23.5202 22.8 22.8002H21.6C21.6 23.2635 21.4461 23.7119 21.1504 24.0445L22.0473 24.8418ZM22.8 22.8002C22.8 22.0802 22.5616 21.3372 22.0473 20.7586L21.1504 21.5558C21.4461 21.8885 21.6 22.3369 21.6 22.8002H22.8ZM22.0473 20.7586C21.5231 20.1688 20.7381 19.8002 19.8 19.8002V21.0002C20.412 21.0002 20.8647 21.2344 21.1504 21.5558L22.0473 20.7586ZM40.2 19.8002C39.262 19.8002 38.477 20.1688 37.9528 20.7586L38.8497 21.5558C39.1354 21.2344 39.5881 21.0002 40.2 21.0002V19.8002ZM37.9528 20.7586C37.4385 21.3372 37.2 22.0802 37.2 22.8002H38.4C38.4 22.3369 38.554 21.8885 38.8497 21.5558L37.9528 20.7586ZM37.2 22.8002C37.2 23.5202 37.4385 24.2632 37.9528 24.8418L38.8497 24.0445C38.554 23.7119 38.4 23.2635 38.4 22.8002H37.2ZM37.9528 24.8418C38.477 25.4316 39.262 25.8002 40.2 25.8002V24.6002C39.5881 24.6002 39.1354 24.366 38.8497 24.0445L37.9528 24.8418ZM40.2 25.8002C41.1381 25.8002 41.923 25.4316 42.4473 24.8418L41.5504 24.0445C41.2647 24.366 40.812 24.6002 40.2 24.6002V25.8002ZM42.4473 24.8418C42.9616 24.2632 43.2 23.5202 43.2 22.8002H42C42 23.2635 41.8461 23.7119 41.5504 24.0445L42.4473 24.8418ZM43.2 22.8002C43.2 22.0802 42.9616 21.3372 42.4473 20.7586L41.5504 21.5558C41.8461 21.8885 42 22.3369 42 22.8002H43.2ZM42.4473 20.7586C41.923 20.1688 41.1381 19.8002 40.2 19.8002V21.0002C40.812 21.0002 41.2647 21.2344 41.5504 21.5558L42.4473 20.7586ZM19.8 21.6002C20.2625 21.6002 20.5274 21.757 20.7028 21.9543L21.5997 21.157C21.185 20.6906 20.5876 20.4002 19.8 20.4002V21.6002ZM20.7028 21.9543C20.8878 22.1624 21 22.469 21 22.8002H22.2C22.2 22.2147 22.0047 21.6127 21.5997 21.157L20.7028 21.9543ZM21 22.8002C21 23.1313 20.8878 23.438 20.7028 23.6461L21.5997 24.4433C22.0047 23.9877 22.2 23.3857 22.2 22.8002H21ZM20.7028 23.6461C20.5274 23.8434 20.2625 24.0002 19.8 24.0002V25.2002C20.5876 25.2002 21.185 24.9098 21.5997 24.4433L20.7028 23.6461ZM19.8 24.0002C19.3376 24.0002 19.0727 23.8434 18.8973 23.6461L18.0004 24.4433C18.4151 24.9098 19.0125 25.2002 19.8 25.2002V24.0002ZM18.8973 23.6461C18.7123 23.438 18.6 23.1313 18.6 22.8002H17.4C17.4 23.3857 17.5954 23.9877 18.0004 24.4433L18.8973 23.6461ZM18.6 22.8002C18.6 22.469 18.7123 22.1624 18.8973 21.9543L18.0004 21.157C17.5954 21.6127 17.4 22.2147 17.4 22.8002H18.6ZM18.8973 21.9543C19.0727 21.757 19.3376 21.6002 19.8 21.6002V20.4002C19.0125 20.4002 18.4151 20.6906 18.0004 21.157L18.8973 21.9543ZM40.2 21.6002C40.6625 21.6002 40.9274 21.757 41.1028 21.9543L41.9997 21.157C41.585 20.6906 40.9876 20.4002 40.2 20.4002V21.6002ZM41.1028 21.9543C41.2878 22.1624 41.4001 22.469 41.4001 22.8002H42.6C42.6 22.2147 42.4047 21.6127 41.9997 21.157L41.1028 21.9543ZM41.4001 22.8002C41.4001 23.1313 41.2878 23.438 41.1028 23.6461L41.9997 24.4433C42.4047 23.9877 42.6 23.3857 42.6 22.8002H41.4001ZM41.1028 23.6461C40.9274 23.8434 40.6625 24.0002 40.2 24.0002V25.2002C40.9876 25.2002 41.585 24.9098 41.9997 24.4433L41.1028 23.6461ZM40.2 24.0002C39.7376 24.0002 39.4727 23.8434 39.2973 23.6461L38.4004 24.4433C38.8151 24.9098 39.4125 25.2002 40.2 25.2002V24.0002ZM39.2973 23.6461C39.1123 23.438 39 23.1313 39 22.8002H37.8C37.8 23.3857 37.9954 23.9877 38.4004 24.4433L39.2973 23.6461ZM39 22.8002C39 22.469 39.1123 22.1624 39.2973 21.9543L38.4004 21.157C37.9954 21.6127 37.8 22.2147 37.8 22.8002H39ZM39.2973 21.9543C39.4727 21.757 39.7376 21.6002 40.2 21.6002V20.4002C39.4125 20.4002 38.8151 20.6906 38.4004 21.157L39.2973 21.9543ZM8.63741 35.2606C9.23522 35.7142 9.98037 36.0002 10.8 36.0002V34.8002C10.2662 34.8002 9.77174 34.6149 9.36269 34.3046L8.63741 35.2606ZM10.8 36.0002H49.2V34.8002H10.8V36.0002ZM49.2 36.0002C50.0197 36.0002 50.7649 35.7142 51.3627 35.2606L50.6374 34.3046C50.2283 34.6149 49.7339 34.8002 49.2 34.8002V36.0002ZM50.4 34.7826V34.8002H51.6V34.7826H50.4ZM50.4 34.8002V37.0002H51.6V34.8002H50.4ZM50.4 37.0002C50.4 37.6699 49.8698 38.2002 49.2 38.2002V39.4002C50.5325 39.4002 51.6 38.3327 51.6 37.0002H50.4ZM49.2 38.2002H10.8V39.4002H49.2V38.2002ZM10.8 38.2002C10.1303 38.2002 9.60005 37.6699 9.60005 37.0002H8.40005C8.40005 38.3327 9.46759 39.4002 10.8 39.4002V38.2002ZM9.60005 37.0002V34.8002H8.40005V37.0002H9.60005ZM9.60005 34.8002V34.7826H8.40005V34.8002H9.60005ZM8.63741 39.8606C9.23522 40.3142 9.98037 40.6002 10.8 40.6002V39.4002C10.2662 39.4002 9.77174 39.2149 9.36269 38.9046L8.63741 39.8606ZM10.8 40.6002H49.2V39.4002H10.8V40.6002ZM49.2 40.6002C50.0197 40.6002 50.7649 40.3142 51.3627 39.8606L50.6374 38.9046C50.2283 39.2149 49.7339 39.4002 49.2 39.4002V40.6002ZM50.4 39.3826V39.4002H51.6V39.3826H50.4ZM50.4 39.4002V41.6002H51.6V39.4002H50.4ZM50.4 41.6002C50.4 42.2699 49.8698 42.8002 49.2 42.8002V44.0002C50.5325 44.0002 51.6 42.9327 51.6 41.6002H50.4ZM49.2 42.8002H10.8V44.0002H49.2V42.8002ZM10.8 42.8002C10.1303 42.8002 9.60005 42.2699 9.60005 41.6002H8.40005C8.40005 42.9327 9.46759 44.0002 10.8 44.0002V42.8002ZM9.60005 41.6002V39.4002H8.40005V41.6002H9.60005ZM9.60005 39.4002V39.3826H8.40005V39.4002H9.60005ZM8.63741 44.4606C9.23522 44.9142 9.98037 45.2002 10.8 45.2002V44.0002C10.2662 44.0002 9.77175 43.8149 9.36269 43.5046L8.63741 44.4606ZM10.8 45.2002H49.2V44.0002H10.8V45.2002ZM49.2 45.2002C50.0197 45.2002 50.7649 44.9142 51.3627 44.4606L50.6374 43.5046C50.2283 43.8149 49.7339 44.0002 49.2 44.0002V45.2002ZM50.4 43.9826V44.0002H51.6V43.9826H50.4ZM9.60005 46.2002V44.0002H8.40005V46.2002H9.60005ZM9.60005 44.0002V43.9826H8.40005V44.0002H9.60005ZM49.2 48.0002H10.8V49.2002H49.2V48.0002ZM10.8 48.0002C10.588 48.0002 10.2961 47.8407 10.0198 47.4368C9.75277 47.0464 9.60005 46.5625 9.60005 46.2002H8.40005C8.40005 46.839 8.64678 47.555 9.02943 48.1144C9.40287 48.6603 10.011 49.2002 10.8 49.2002V48.0002ZM14.1 14.4002H20.6915V13.2002H14.1V14.4002ZM20.7 14.4001C20.6972 14.4002 20.6944 14.4002 20.6916 14.4001L20.7085 13.2003C20.7 13.2001 20.6915 13.2001 20.6831 13.2003L20.7 14.4001ZM21.3085 14.4001C21.3057 14.4002 21.3029 14.4002 21.3001 14.4001L21.317 13.2003C21.3086 13.2001 21.3001 13.2001 21.2916 13.2003L21.3085 14.4001ZM21.3086 14.4002H22.4915V13.2002H21.3086V14.4002ZM22.5 14.4001C22.4972 14.4002 22.4944 14.4002 22.4916 14.4001L22.5085 13.2003C22.5 13.2001 22.4915 13.2001 22.483 13.2003L22.5 14.4001ZM22.5 14.4002H24.7745V13.2002H22.5V14.4002ZM24.783 14.4001C24.7801 14.4002 24.7773 14.4002 24.7745 14.4001L24.7915 13.2003C24.783 13.2001 24.7745 13.2001 24.766 13.2003L24.783 14.4001ZM24.783 14.4002H45.9V13.2002H24.783V14.4002ZM24.7745 13.8002H22.5V15.0002H24.7745V13.8002ZM22.4915 13.8003C22.4944 13.8002 22.4972 13.8002 22.5 13.8003L22.4831 15.0001C22.4915 15.0003 22.5 15.0003 22.5086 15.0001L22.4915 13.8003ZM22.4915 13.8002H21.3086V15.0002H22.4915V13.8002ZM21.3001 13.8003C21.3029 13.8002 21.3057 13.8002 21.3086 13.8003L21.2915 15.0001C21.3001 15.0003 21.3086 15.0003 21.317 15.0001L21.3001 13.8003ZM20.6915 13.8003C20.6944 13.8002 20.6972 13.8002 20.7 13.8003L20.6831 15.0001C20.6915 15.0003 20.7 15.0003 20.7086 15.0001L20.6915 13.8003ZM20.6915 13.8002H14.3508V15.0002H20.6915V13.8002ZM45.6493 13.8002H24.783V15.0002H45.6493V13.8002ZM24.7745 13.8003C24.7773 13.8002 24.7801 13.8002 24.783 13.8003L24.7659 15.0001C24.7745 15.0003 24.783 15.0003 24.7915 15.0001L24.7745 13.8003ZM50.4 44.0002L50.4001 46.1934H51.6L51.6 44.0002H50.4ZM50.4001 46.1934C50.4001 46.1935 50.4001 46.1936 50.4 46.1943C50.4 46.1949 50.4 46.196 50.4 46.1972H51.6C51.6 46.197 51.6 46.1969 51.6 46.1962C51.6 46.1956 51.6 46.1945 51.6 46.1934H50.4001ZM50.4 46.1959C50.3993 46.5589 50.246 47.0442 49.9787 47.4357C49.702 47.841 49.4105 48.0002 49.2 48.0002V49.2002C49.9894 49.2002 50.597 48.6583 50.9697 48.1123C51.352 47.5525 51.5988 46.8362 51.6 46.1984L50.4 46.1959Z" fill="#CF2935" mask="url(#path-1-outside-1_4235_11970)"/>
</g>
<defs>
<clipPath id="clip0_4235_11970">
<rect width="60" height="60" fill="white"/>
</clipPath>
</defs>
</svg>
