<svg width="430" height="398" viewBox="0 0 430 398" fill="none" xmlns="http://www.w3.org/2000/svg"><g clip-path="url(#clip0_4146_12107)"><path d="M40.197 172.156l41.52 101.809 107.193-9.107-42.949-105.3-105.765 12.598z" fill="#fff"/><path d="M230.366 94.588l41.284 101.211-82.74 69.059-42.949-105.3 84.405-64.97z" fill="#E6E6E6"/><path d="M188.91 264.858l82.74-69.058-37.023-91.752-88.456 56.784 42.739 104.026z" fill="url(#paint0_linear_4146_12107)"/><path d="M150.757 170.907l-106.828 9.925 37.789 93.133 107.192-9.107-38.153-93.951z" fill="url(#paint1_linear_4146_12107)"/><path d="M76.023 167.493l42.258 103.605a1.395 1.395 0 001.44.884l29.527-1.884a1.374 1.374 0 001.223-1.292 1.383 1.383 0 00-.113-.628l-42.876-105.141a1.413 1.413 0 00-1.556-.894l-28.861 3.443a1.386 1.386 0 00-.98.703 1.389 1.389 0 00-.062 1.204z" fill="url(#paint2_linear_4146_12107)"/><path d="M223.991 235.975L181.23 131.119a1.4 1.4 0 01.412-1.637l22.995-17.898a1.4 1.4 0 011.219-.233 1.392 1.392 0 01.918.834l42.179 103.406a1.412 1.412 0 01-.504 1.71l-22.414 19.349a1.38 1.38 0 01-1.182.148 1.385 1.385 0 01-.862-.823z" fill="url(#paint3_linear_4146_12107)"/><path d="M23.067 144.827l16.474 40.403 111.49-13.249-16.495-40.433-111.469 13.279z" fill="#fff"/><path d="M223.507 63.077l16.474 40.404-88.95 68.499-16.494-40.433 88.97-68.47z" fill="#E6E6E6"/><path d="M151.031 171.981l88.95-68.5-16.599-40.703-88.846 68.77 16.495 40.433z" fill="url(#paint4_linear_4146_12107)"/><path d="M134.536 131.548l-111.594 12.98 16.6 40.703 111.489-13.249-16.495-40.434z" fill="url(#paint5_linear_4146_12107)"/><path d="M60.818 139.909l16.834 41.313a1.468 1.468 0 001.52.94l30.622-3.191a1.453 1.453 0 001.17-2.027l-16.987-41.736a1.496 1.496 0 00-1.619-.907l-30.464 3.59a1.473 1.473 0 00-1.015.754 1.482 1.482 0 00-.061 1.264z" fill="url(#paint6_linear_4146_12107)"/><path d="M188.515 142.809l-16.811-41.23a1.496 1.496 0 01.432-1.738l24.245-18.86a1.469 1.469 0 012.264.627l16.834 41.313a1.48 1.48 0 01-.537 1.809l-24.258 18.791a1.483 1.483 0 01-1.252.155 1.475 1.475 0 01-.917-.867z" fill="url(#paint7_linear_4146_12107)"/><path d="M23.067 144.827l88.501-69.623 111.939-12.126-88.97 68.47-111.47 13.279z" fill="url(#paint8_linear_4146_12107)"/><path d="M60.936 140.314l83.993-70.505c.197-.172.442-.28.702-.308l32.443-3.517a1.284 1.284 0 011.464 1.63 1.285 1.285 0 01-.503.695l-84.56 68.112-33.54 3.893z" fill="url(#paint9_linear_4146_12107)"/><path d="M172.164 102.719l-116.82 16.232a.91.91 0 01-.978-.547.911.911 0 01.288-1.083l26.771-20.987a.85.85 0 01.444-.19l117.01-14.057-26.715 20.632z" fill="url(#paint10_linear_4146_12107)"/><path d="M34.8 96.817c10.789 39.108 87.328 4.25 87.328 4.25-29.628-70.902-98.123-43.32-87.327-4.25zm23.534-20.651c19.585-21.58 63.28 24.643 63.28 24.643-47.185 19.042-80.906-5.171-63.28-24.643z" fill="url(#paint11_linear_4146_12107)"/><path d="M41.099 133.945c26.38 30.776 80.873-33.224 80.873-33.224-56.942-51.632-107.239 2.437-80.873 33.224zm12.533-28.701c8.563-27.84 67.757-4.559 67.757-4.559-34.625 37.284-75.45 29.63-67.757 4.559z" fill="url(#paint12_linear_4146_12107)"/><path d="M122.127 101.065s79.022-28.644 59.422-64.125c-19.6-35.482-87.868-7.254-59.422 64.125zm.111-.569s-1.052-63.557 28.032-61.831c26.18 1.552 19.057 42.482-27.986 61.866l-.046-.035z" fill="url(#paint13_linear_4146_12107)"/><path d="M121.972 100.721s83.728 7.638 81.03-32.813c-2.699-40.45-76.441-43.906-81.03 32.813zm.387-.435s26.018-58.043 51.622-44.148c22.983 12.543-.808 46.582-51.622 44.148z" fill="url(#paint14_linear_4146_12107)"/></g><g filter="url(#filter0_d_4146_12107)"><mask id="a" style="mask-type:alpha" maskUnits="userSpaceOnUse" x="0" y="0" width="301" height="307"><g clip-path="url(#clip1_4146_12107)"><path d="M40.197 172.156l41.52 101.809 107.193-9.107-42.949-105.3-105.765 12.598z" fill="#fff"/><path d="M230.366 94.588l41.284 101.211-82.74 69.059-42.949-105.3 84.405-64.97z" fill="#E6E6E6"/><path d="M188.91 264.858l82.74-69.058-37.023-91.752-88.456 56.784 42.739 104.026z" fill="url(#paint15_linear_4146_12107)"/><path d="M150.757 170.907l-106.828 9.925 37.789 93.133 107.192-9.107-38.153-93.951z" fill="url(#paint16_linear_4146_12107)"/><path d="M76.023 167.493l42.258 103.605a1.395 1.395 0 001.44.884l29.527-1.884a1.374 1.374 0 001.223-1.292 1.383 1.383 0 00-.113-.628l-42.876-105.141a1.413 1.413 0 00-1.556-.894l-28.861 3.443a1.386 1.386 0 00-.98.703 1.389 1.389 0 00-.062 1.204z" fill="url(#paint17_linear_4146_12107)"/><path d="M223.991 235.975L181.23 131.119a1.4 1.4 0 01.412-1.637l22.995-17.898a1.4 1.4 0 011.219-.233 1.392 1.392 0 01.918.834l42.179 103.406a1.412 1.412 0 01-.504 1.71l-22.414 19.349a1.38 1.38 0 01-1.182.148 1.385 1.385 0 01-.862-.823z" fill="url(#paint18_linear_4146_12107)"/><path d="M23.067 144.827l16.474 40.403 111.49-13.249-16.495-40.433-111.469 13.279z" fill="#fff"/><path d="M223.507 63.077l16.474 40.404-88.95 68.499-16.494-40.433 88.97-68.47z" fill="#E6E6E6"/><path d="M151.031 171.981l88.95-68.5-16.599-40.703-88.846 68.77 16.495 40.433z" fill="url(#paint19_linear_4146_12107)"/><path d="M134.536 131.548l-111.594 12.98 16.6 40.703 111.489-13.249-16.495-40.434z" fill="url(#paint20_linear_4146_12107)"/><path d="M60.818 139.909l16.834 41.313a1.468 1.468 0 001.52.94l30.622-3.191a1.453 1.453 0 001.17-2.027l-16.987-41.736a1.496 1.496 0 00-1.619-.907l-30.464 3.59a1.473 1.473 0 00-1.015.754 1.482 1.482 0 00-.061 1.264z" fill="url(#paint21_linear_4146_12107)"/><path d="M188.515 142.809l-16.811-41.23a1.496 1.496 0 01.432-1.738l24.245-18.86a1.469 1.469 0 012.264.627l16.834 41.313a1.48 1.48 0 01-.537 1.809l-24.258 18.791a1.483 1.483 0 01-1.252.155 1.475 1.475 0 01-.917-.867z" fill="url(#paint22_linear_4146_12107)"/><path d="M23.067 144.827l88.501-69.623 111.939-12.126-88.97 68.47-111.47 13.279z" fill="url(#paint23_linear_4146_12107)"/><path d="M60.936 140.314l83.993-70.505c.197-.172.442-.28.702-.308l32.443-3.517a1.284 1.284 0 011.464 1.63 1.285 1.285 0 01-.503.695l-84.56 68.112-33.54 3.893z" fill="url(#paint24_linear_4146_12107)"/><path d="M172.164 102.719l-116.82 16.232a.91.91 0 01-.978-.547.911.911 0 01.288-1.083l26.771-20.987a.85.85 0 01.444-.19l117.01-14.057-26.715 20.632z" fill="url(#paint25_linear_4146_12107)"/><path d="M34.8 96.817c10.789 39.108 87.328 4.25 87.328 4.25-29.628-70.902-98.123-43.32-87.327-4.25zm23.534-20.651c19.585-21.58 63.28 24.643 63.28 24.643-47.185 19.042-80.906-5.171-63.28-24.643z" fill="url(#paint26_linear_4146_12107)"/><path d="M41.099 133.945c26.38 30.776 80.873-33.224 80.873-33.224-56.942-51.632-107.239 2.437-80.873 33.224zm12.533-28.701c8.563-27.84 67.757-4.559 67.757-4.559-34.625 37.284-75.45 29.63-67.757 4.559z" fill="url(#paint27_linear_4146_12107)"/><path d="M122.127 101.065s79.022-28.644 59.422-64.125c-19.6-35.482-87.868-7.254-59.422 64.125zm.111-.569s-1.052-63.557 28.032-61.831c26.18 1.552 19.057 42.482-27.986 61.866l-.046-.035z" fill="url(#paint28_linear_4146_12107)"/><path d="M121.972 100.721s83.728 7.638 81.03-32.813c-2.699-40.45-76.441-43.906-81.03 32.813zm.387-.435s26.018-58.043 51.622-44.148c22.983 12.543-.808 46.582-51.622 44.148z" fill="url(#paint29_linear_4146_12107)"/></g></mask><g style="mix-blend-mode:color-burn" opacity=".25" filter="url(#filter1_f_4146_12107)" mask="url(#a)"><path d="M383.312 294.862l-55.693 94.801-104.778-24.386 57.607-98.052 102.864 27.637z" fill="#fff"/><path d="M206.232 190.822l-55.372 94.244 71.981 80.211 57.607-98.052-74.216-76.403z" fill="#E6E6E6"/><path d="M222.841 365.278l-71.981-80.21 49.799-85.494 79.398 68.883-57.216 96.821z" fill="url(#paint30_linear_4146_12107)"/><path d="M274.774 275.976l102.939 28.952-50.094 84.736-104.778-24.386 51.933-89.302z" fill="url(#paint31_linear_4146_12107)"/><path d="M348.525 285.108l-56.68 96.473a1.387 1.387 0 01-1.552.669l-28.951-6.099a1.373 1.373 0 01-1.025-1.454 1.38 1.38 0 01.202-.606l57.511-97.905a1.416 1.416 0 011.668-.662l28.069 7.547a1.38 1.38 0 01.869.836 1.396 1.396 0 01-.111 1.201z" fill="url(#paint32_linear_4146_12107)"/><path d="M192.265 331.663l57.356-97.64a1.4 1.4 0 00-.172-1.679l-20.191-21.011a1.382 1.382 0 00-.539-.34 1.378 1.378 0 00-1.23.161c-.178.12-.327.28-.433.468l-56.573 96.287a1.416 1.416 0 00.255 1.766l19.407 22.363a1.399 1.399 0 001.149.315 1.38 1.38 0 00.971-.69z" fill="url(#paint33_linear_4146_12107)"/><path d="M404.183 270.272l-22.098 37.623-108.437-29.101 22.122-37.65 108.413 29.128z" fill="#fff"/><path d="M217.539 160.622l-22.098 37.623 78.207 80.549 22.123-37.65-78.232-80.522z" fill="#E6E6E6"/><path d="M273.648 278.793l-78.207-80.548 22.265-37.902 78.064 80.8-22.122 37.65z" fill="url(#paint34_linear_4146_12107)"/><path d="M295.77 241.144l108.58 28.85-22.265 37.902-108.437-29.102 22.122-37.65z" fill="url(#paint35_linear_4146_12107)"/><path d="M240.735 244.549l22.55-38.393a1.492 1.492 0 00-.178-1.782l-21.29-22.142a1.467 1.467 0 00-2.33.295l-22.585 38.472a1.479 1.479 0 00.272 1.867l21.313 22.077a1.47 1.47 0 001.216.332 1.475 1.475 0 001.032-.726z" fill="url(#paint36_linear_4146_12107)"/><path d="M240.735 244.549l22.55-38.393a1.492 1.492 0 00-.178-1.782l-21.29-22.142a1.467 1.467 0 00-2.33.295l-22.585 38.472a1.479 1.479 0 00.272 1.867l21.313 22.077a1.47 1.47 0 001.216.332 1.475 1.475 0 001.032-.726z" fill="url(#paint37_linear_4146_12107)"/><path d="M404.183 270.273l-77.601-81.596-109.043-28.054 78.232 80.521 108.412 29.129z" fill="url(#paint38_linear_4146_12107)"/><path d="M367.354 260.375l-73.014-81.822a1.281 1.281 0 00-.651-.406l-31.603-8.133a1.286 1.286 0 00-1.284 2.163l73.918 79.535 32.634 8.663z" fill="url(#paint39_linear_4146_12107)"/><path d="M262.667 207.216l113.284 32.818a.914.914 0 00.917-1.514l-23.485-24.611a.85.85 0 00-.412-.25l-113.784-30.693 23.48 24.25z" fill="url(#paint40_linear_4146_12107)"/><path d="M312.423 212.759s-74.097-39.68-49.611-71.984c24.486-32.304 88 5.423 49.611 71.984zm-.029-.579s10.157-62.75-18.874-65.212c-26.132-2.219-24.952 39.309 18.824 65.241l.05-.029z" fill="url(#paint41_linear_4146_12107)"/><path d="M312.626 212.439s-83.958-4.449-75.486-44.095c8.472-39.645 81.948-32.49 75.486 44.095zm-.32-.487s-17.426-61.174-44.757-51.094c-24.544 9.117-5.881 46.217 44.757 51.094z" fill="url(#paint42_linear_4146_12107)"/></g></g><path d="M390.312 302.862l-55.693 94.801-104.778-24.386 57.607-98.052 102.864 27.637z" fill="#fff"/><path d="M213.232 198.822l-55.372 94.244 71.981 80.211 57.607-98.052-74.216-76.403z" fill="#E6E6E6"/><path d="M229.841 373.278l-71.981-80.21 49.799-85.494 79.398 68.883-57.216 96.821z" fill="url(#paint43_linear_4146_12107)"/><path d="M281.774 283.976l102.939 28.952-50.094 84.736-104.778-24.386 51.933-89.302z" fill="url(#paint44_linear_4146_12107)"/><path d="M355.525 293.108l-56.68 96.473a1.387 1.387 0 01-1.552.669l-28.951-6.099a1.373 1.373 0 01-1.025-1.454 1.38 1.38 0 01.202-.606l57.511-97.905a1.416 1.416 0 011.668-.662l28.069 7.547a1.38 1.38 0 01.869.836 1.396 1.396 0 01-.111 1.201z" fill="url(#paint45_linear_4146_12107)"/><path d="M199.265 339.663l57.356-97.64a1.4 1.4 0 00-.172-1.679l-20.191-21.011a1.382 1.382 0 00-.539-.34 1.378 1.378 0 00-1.23.161c-.178.12-.327.28-.433.468l-56.573 96.287a1.416 1.416 0 00.255 1.766l19.407 22.363a1.399 1.399 0 001.149.315 1.38 1.38 0 00.971-.69z" fill="url(#paint46_linear_4146_12107)"/><path d="M411.183 278.272l-22.098 37.623-108.437-29.101 22.122-37.65 108.413 29.128z" fill="#fff"/><path d="M224.539 168.622l-22.098 37.623 78.207 80.549 22.123-37.65-78.232-80.522z" fill="#E6E6E6"/><path d="M280.648 286.793l-78.207-80.548 22.265-37.902 78.064 80.8-22.122 37.65z" fill="url(#paint47_linear_4146_12107)"/><path d="M302.77 249.144l108.58 28.85-22.265 37.902-108.437-29.102 22.122-37.65z" fill="url(#paint48_linear_4146_12107)"/><path d="M374.528 267.991l-22.585 38.472a1.465 1.465 0 01-1.64.712l-29.847-7.55a1.455 1.455 0 01-.867-2.173l22.797-38.869a1.494 1.494 0 011.732-.665l29.634 7.921a1.472 1.472 0 01.897.893 1.48 1.48 0 01-.121 1.259z" fill="url(#paint49_linear_4146_12107)"/><path d="M247.735 252.549l22.55-38.393a1.492 1.492 0 00-.178-1.782l-21.29-22.142a1.467 1.467 0 00-2.33.295l-22.585 38.472a1.479 1.479 0 00.272 1.867l21.313 22.077a1.47 1.47 0 001.216.332 1.475 1.475 0 001.032-.726z" fill="url(#paint50_linear_4146_12107)"/><path d="M247.735 252.549l22.55-38.393a1.492 1.492 0 00-.178-1.782l-21.29-22.142a1.467 1.467 0 00-2.33.295l-22.585 38.472a1.479 1.479 0 00.272 1.867l21.313 22.077a1.47 1.47 0 001.216.332 1.475 1.475 0 001.032-.726z" fill="url(#paint51_linear_4146_12107)"/><path d="M411.183 278.273l-77.601-81.596-109.043-28.054 78.232 80.521 108.412 29.129z" fill="url(#paint52_linear_4146_12107)"/><path d="M374.354 268.375l-73.014-81.822a1.281 1.281 0 00-.651-.406l-31.603-8.133a1.286 1.286 0 00-1.284 2.163l73.918 79.535 32.634 8.663z" fill="url(#paint53_linear_4146_12107)"/><path d="M269.667 215.216l113.284 32.818a.914.914 0 00.917-1.514l-23.485-24.611a.85.85 0 00-.412-.25l-113.784-30.693 23.48 24.25z" fill="url(#paint54_linear_4146_12107)"/><path d="M406.457 229.077c-16.286 37.156-87.034-8.318-87.034-8.318 39.489-65.919 103.321-28.801 87.034 8.318zm-20.329-23.813c-16.287-24.166-66.16 15.313-66.16 15.313 43.967 25.613 80.811 6.486 66.16-15.313z" fill="url(#paint55_linear_4146_12107)"/><path d="M394.899 264.919c-30.521 26.674-75.273-44.479-75.273-44.479 63.758-42.932 105.781 17.792 75.273 44.479zm-8.288-30.202c-4.482-28.779-66.403-14.229-66.403-14.229 28.921 41.864 70.422 40.145 66.403 14.229z" fill="url(#paint56_linear_4146_12107)"/><path d="M319.423 220.759s-74.097-39.68-49.611-71.984c24.486-32.304 88 5.423 49.611 71.984zm-.029-.579s10.157-62.75-18.874-65.212c-26.132-2.219-24.952 39.309 18.824 65.241l.05-.029z" fill="url(#paint57_linear_4146_12107)"/><path d="M319.626 220.439s-83.958-4.449-75.486-44.095c8.472-39.645 81.948-32.49 75.486 44.095zm-.32-.487s-17.426-61.174-44.757-51.094c-24.544 9.117-5.881 46.217 44.757 51.094z" fill="url(#paint58_linear_4146_12107)"/><defs><linearGradient id="paint0_linear_4146_12107" x1="215.507" y1="205.198" x2="243.142" y2="234.856" gradientUnits="userSpaceOnUse"><stop stop-color="#CE1618"/><stop offset=".366" stop-color="#C11E19"/><stop offset="1" stop-color="#C11E19"/></linearGradient><linearGradient id="paint1_linear_4146_12107" x1="104.136" y1="214.891" x2="107.76" y2="285.598" gradientUnits="userSpaceOnUse"><stop stop-color="#F52B2A"/><stop offset="1" stop-color="#D01913"/></linearGradient><linearGradient id="paint2_linear_4146_12107" x1="77.118" y1="168.076" x2="154.405" y2="273.962" gradientUnits="userSpaceOnUse"><stop stop-color="#FFD12F"/><stop offset="1" stop-color="#FFA202"/></linearGradient><linearGradient id="paint3_linear_4146_12107" x1="241.393" y1="237.87" x2="126.219" y2="11.399" gradientUnits="userSpaceOnUse"><stop stop-color="#FFA202"/><stop offset="1" stop-color="#FFD12F"/></linearGradient><linearGradient id="paint4_linear_4146_12107" x1="178.037" y1="103.79" x2="210.872" y2="152.474" gradientUnits="userSpaceOnUse"><stop stop-color="#CF1719"/><stop offset="1" stop-color="#BF1813"/></linearGradient><linearGradient id="paint5_linear_4146_12107" x1="84.275" y1="143.102" x2="95.402" y2="205.377" gradientUnits="userSpaceOnUse"><stop stop-color="#F62B2A"/><stop offset="1" stop-color="#DD1F1B"/></linearGradient><linearGradient id="paint6_linear_4146_12107" x1="62.63" y1="133.893" x2="112.688" y2="226.699" gradientUnits="userSpaceOnUse"><stop stop-color="#FFD12F"/><stop offset="1" stop-color="#FFA202"/></linearGradient><linearGradient id="paint7_linear_4146_12107" x1="209.178" y1="146.396" x2="180.409" y2="63.447" gradientUnits="userSpaceOnUse"><stop stop-color="#FFA202"/><stop offset="1" stop-color="#FFD12F"/></linearGradient><linearGradient id="paint8_linear_4146_12107" x1="234.527" y1="81.084" x2="38.361" y2="118.776" gradientUnits="userSpaceOnUse"><stop stop-color="#F32A28"/><stop offset="1" stop-color="#FA4140"/></linearGradient><linearGradient id="paint9_linear_4146_12107" x1="109.805" y1="125.534" x2="197.926" y2="159.438" gradientUnits="userSpaceOnUse"><stop stop-color="#FFD143"/><stop offset="1" stop-color="#FFA505"/></linearGradient><linearGradient id="paint10_linear_4146_12107" x1="65.454" y1="110.963" x2="230.804" y2="153.778" gradientUnits="userSpaceOnUse"><stop stop-color="#FFCB29"/><stop offset="1" stop-color="#FFA505"/></linearGradient><linearGradient id="paint11_linear_4146_12107" x1="51.887" y1="66.357" x2="84.558" y2="107.816" gradientUnits="userSpaceOnUse"><stop stop-color="#FFC01F"/><stop offset="1" stop-color="#FFBB30"/></linearGradient><linearGradient id="paint12_linear_4146_12107" x1="50.932" y1="106.188" x2="119.94" y2="124.346" gradientUnits="userSpaceOnUse"><stop stop-color="#FFC624"/><stop offset="1" stop-color="#FFAF0E"/></linearGradient><linearGradient id="paint13_linear_4146_12107" x1="35.352" y1="6.745" x2="42.058" y2="122.719" gradientUnits="userSpaceOnUse"><stop stop-color="#FFD12F"/><stop offset="1" stop-color="#FFA202"/></linearGradient><linearGradient id="paint14_linear_4146_12107" x1="129.247" y1="69.68" x2="215.76" y2="138.585" gradientUnits="userSpaceOnUse"><stop stop-color="#FFD12F"/><stop offset="1" stop-color="#FFA202"/></linearGradient><linearGradient id="paint15_linear_4146_12107" x1="215.507" y1="205.198" x2="243.142" y2="234.856" gradientUnits="userSpaceOnUse"><stop stop-color="#CE1618"/><stop offset=".366" stop-color="#C11E19"/><stop offset="1" stop-color="#C11E19"/></linearGradient><linearGradient id="paint16_linear_4146_12107" x1="104.136" y1="214.891" x2="107.76" y2="285.598" gradientUnits="userSpaceOnUse"><stop stop-color="#F52B2A"/><stop offset="1" stop-color="#D01913"/></linearGradient><linearGradient id="paint17_linear_4146_12107" x1="77.118" y1="168.076" x2="154.405" y2="273.962" gradientUnits="userSpaceOnUse"><stop stop-color="#FFD12F"/><stop offset="1" stop-color="#FFA202"/></linearGradient><linearGradient id="paint18_linear_4146_12107" x1="241.393" y1="237.87" x2="126.219" y2="11.399" gradientUnits="userSpaceOnUse"><stop stop-color="#FFA202"/><stop offset="1" stop-color="#FFD12F"/></linearGradient><linearGradient id="paint19_linear_4146_12107" x1="178.037" y1="103.79" x2="210.872" y2="152.474" gradientUnits="userSpaceOnUse"><stop stop-color="#CF1719"/><stop offset="1" stop-color="#BF1813"/></linearGradient><linearGradient id="paint20_linear_4146_12107" x1="84.275" y1="143.102" x2="95.402" y2="205.377" gradientUnits="userSpaceOnUse"><stop stop-color="#F62B2A"/><stop offset="1" stop-color="#DD1F1B"/></linearGradient><linearGradient id="paint21_linear_4146_12107" x1="62.63" y1="133.893" x2="112.688" y2="226.699" gradientUnits="userSpaceOnUse"><stop stop-color="#FFD12F"/><stop offset="1" stop-color="#FFA202"/></linearGradient><linearGradient id="paint22_linear_4146_12107" x1="209.178" y1="146.396" x2="180.409" y2="63.447" gradientUnits="userSpaceOnUse"><stop stop-color="#FFA202"/><stop offset="1" stop-color="#FFD12F"/></linearGradient><linearGradient id="paint23_linear_4146_12107" x1="234.527" y1="81.084" x2="38.361" y2="118.776" gradientUnits="userSpaceOnUse"><stop stop-color="#F32A28"/><stop offset="1" stop-color="#FA4140"/></linearGradient><linearGradient id="paint24_linear_4146_12107" x1="109.805" y1="125.534" x2="197.926" y2="159.438" gradientUnits="userSpaceOnUse"><stop stop-color="#FFD143"/><stop offset="1" stop-color="#FFA505"/></linearGradient><linearGradient id="paint25_linear_4146_12107" x1="65.454" y1="110.963" x2="230.804" y2="153.778" gradientUnits="userSpaceOnUse"><stop stop-color="#FFCB29"/><stop offset="1" stop-color="#FFA505"/></linearGradient><linearGradient id="paint26_linear_4146_12107" x1="51.887" y1="66.357" x2="84.558" y2="107.816" gradientUnits="userSpaceOnUse"><stop stop-color="#FFC01F"/><stop offset="1" stop-color="#FFBB30"/></linearGradient><linearGradient id="paint27_linear_4146_12107" x1="50.932" y1="106.188" x2="119.94" y2="124.346" gradientUnits="userSpaceOnUse"><stop stop-color="#FFC624"/><stop offset="1" stop-color="#FFAF0E"/></linearGradient><linearGradient id="paint28_linear_4146_12107" x1="35.352" y1="6.745" x2="42.058" y2="122.719" gradientUnits="userSpaceOnUse"><stop stop-color="#FFD12F"/><stop offset="1" stop-color="#FFA202"/></linearGradient><linearGradient id="paint29_linear_4146_12107" x1="129.247" y1="69.68" x2="215.76" y2="138.585" gradientUnits="userSpaceOnUse"><stop stop-color="#FFD12F"/><stop offset="1" stop-color="#FFA202"/></linearGradient><linearGradient id="paint30_linear_4146_12107" x1="208.507" y1="377.628" x2="193.066" y2="223.22" gradientUnits="userSpaceOnUse"><stop offset=".134" stop-color="#1C4DB0"/><stop offset=".918" stop-color="#215BD2"/></linearGradient><linearGradient id="paint31_linear_4146_12107" x1="310.803" y1="335.81" x2="320.918" y2="375.403" gradientUnits="userSpaceOnUse"><stop stop-color="#1F4AA1"/><stop offset="1" stop-color="#193780"/></linearGradient><linearGradient id="paint32_linear_4146_12107" x1="347.358" y1="285.528" x2="255.684" y2="379.235" gradientUnits="userSpaceOnUse"><stop stop-color="#FFD12F"/><stop offset="1" stop-color="#FFA202"/></linearGradient><linearGradient id="paint33_linear_4146_12107" x1="193.71" y1="449.041" x2="243.168" y2="214.618" gradientUnits="userSpaceOnUse"><stop stop-color="#FFA202"/><stop offset="1" stop-color="#FFD12F"/></linearGradient><linearGradient id="paint34_linear_4146_12107" x1="280.598" y1="195.955" x2="194.111" y2="206.935" gradientUnits="userSpaceOnUse"><stop stop-color="#1A48A4"/><stop offset="1" stop-color="#2E64D3"/></linearGradient><linearGradient id="paint35_linear_4146_12107" x1="281.666" y1="266.968" x2="391.731" y2="348.616" gradientUnits="userSpaceOnUse"><stop stop-color="#1F4DAA"/><stop offset="1" stop-color="#254288"/></linearGradient><linearGradient id="paint36_linear_4146_12107" x1="185.628" y1="273.746" x2="252.525" y2="178.589" gradientUnits="userSpaceOnUse"><stop stop-color="#FFD12F"/><stop offset="1" stop-color="#FFA202"/></linearGradient><linearGradient id="paint37_linear_4146_12107" x1="245.179" y1="307.502" x2="250.479" y2="182.865" gradientUnits="userSpaceOnUse"><stop stop-color="#FFA202"/><stop offset="1" stop-color="#FFD541"/></linearGradient><linearGradient id="paint38_linear_4146_12107" x1="231.366" y1="169.076" x2="423.618" y2="253.664" gradientUnits="userSpaceOnUse"><stop stop-color="#4179E9"/><stop offset="1" stop-color="#22499C"/></linearGradient><linearGradient id="paint39_linear_4146_12107" x1="194.701" y1="307.751" x2="279.568" y2="132.049" gradientUnits="userSpaceOnUse"><stop stop-color="#E1B61E"/><stop offset="1" stop-color="#FFA202"/></linearGradient><linearGradient id="paint40_linear_4146_12107" x1="148.411" y1="277.242" x2="179.672" y2="137.672" gradientUnits="userSpaceOnUse"><stop stop-color="#E1B61E"/><stop offset="1" stop-color="#FFA202"/></linearGradient><linearGradient id="paint41_linear_4146_12107" x1="250.969" y1="101.626" x2="308.903" y2="321.681" gradientUnits="userSpaceOnUse"><stop stop-color="#FFD12F"/><stop offset="1" stop-color="#FFA202"/></linearGradient><linearGradient id="paint42_linear_4146_12107" x1="259.977" y1="90.689" x2="332.951" y2="178.629" gradientUnits="userSpaceOnUse"><stop stop-color="#FFD12F"/><stop offset="1" stop-color="#FFA202"/></linearGradient><linearGradient id="paint43_linear_4146_12107" x1="215.507" y1="385.628" x2="200.066" y2="231.22" gradientUnits="userSpaceOnUse"><stop offset=".134" stop-color="#1C4DB0"/><stop offset=".918" stop-color="#215BD2"/></linearGradient><linearGradient id="paint44_linear_4146_12107" x1="317.803" y1="343.81" x2="327.918" y2="383.403" gradientUnits="userSpaceOnUse"><stop stop-color="#1F4AA1"/><stop offset="1" stop-color="#193780"/></linearGradient><linearGradient id="paint45_linear_4146_12107" x1="354.358" y1="293.528" x2="262.684" y2="387.235" gradientUnits="userSpaceOnUse"><stop stop-color="#FFD12F"/><stop offset="1" stop-color="#FFA202"/></linearGradient><linearGradient id="paint46_linear_4146_12107" x1="200.71" y1="457.041" x2="250.168" y2="222.618" gradientUnits="userSpaceOnUse"><stop stop-color="#FFA202"/><stop offset="1" stop-color="#FFD12F"/></linearGradient><linearGradient id="paint47_linear_4146_12107" x1="287.598" y1="203.955" x2="201.111" y2="214.935" gradientUnits="userSpaceOnUse"><stop stop-color="#1A48A4"/><stop offset="1" stop-color="#2E64D3"/></linearGradient><linearGradient id="paint48_linear_4146_12107" x1="288.666" y1="274.968" x2="398.731" y2="356.616" gradientUnits="userSpaceOnUse"><stop stop-color="#1F4DAA"/><stop offset="1" stop-color="#254288"/></linearGradient><linearGradient id="paint49_linear_4146_12107" x1="381.212" y1="252.499" x2="344.215" y2="331.624" gradientUnits="userSpaceOnUse"><stop stop-color="#FFD12F"/><stop offset="1" stop-color="#FFA202"/></linearGradient><linearGradient id="paint50_linear_4146_12107" x1="192.628" y1="281.746" x2="259.525" y2="186.589" gradientUnits="userSpaceOnUse"><stop stop-color="#FFD12F"/><stop offset="1" stop-color="#FFA202"/></linearGradient><linearGradient id="paint51_linear_4146_12107" x1="252.179" y1="315.502" x2="257.479" y2="190.865" gradientUnits="userSpaceOnUse"><stop stop-color="#FFA202"/><stop offset="1" stop-color="#FFD541"/></linearGradient><linearGradient id="paint52_linear_4146_12107" x1="238.366" y1="177.076" x2="430.618" y2="261.664" gradientUnits="userSpaceOnUse"><stop stop-color="#4179E9"/><stop offset="1" stop-color="#22499C"/></linearGradient><linearGradient id="paint53_linear_4146_12107" x1="201.701" y1="315.751" x2="286.568" y2="140.049" gradientUnits="userSpaceOnUse"><stop stop-color="#E1B61E"/><stop offset="1" stop-color="#FFA202"/></linearGradient><linearGradient id="paint54_linear_4146_12107" x1="155.411" y1="285.242" x2="186.672" y2="145.672" gradientUnits="userSpaceOnUse"><stop stop-color="#E1B61E"/><stop offset="1" stop-color="#FFA202"/></linearGradient><linearGradient id="paint55_linear_4146_12107" x1="359.621" y1="154.018" x2="394.735" y2="237.493" gradientUnits="userSpaceOnUse"><stop stop-color="#FFD12F"/><stop offset="1" stop-color="#FFA202"/></linearGradient><linearGradient id="paint56_linear_4146_12107" x1="336.46" y1="164.312" x2="481.089" y2="265.116" gradientUnits="userSpaceOnUse"><stop stop-color="#FFD12F"/><stop offset="1" stop-color="#FFA202"/></linearGradient><linearGradient id="paint57_linear_4146_12107" x1="257.969" y1="109.626" x2="315.903" y2="329.681" gradientUnits="userSpaceOnUse"><stop stop-color="#FFD12F"/><stop offset="1" stop-color="#FFA202"/></linearGradient><linearGradient id="paint58_linear_4146_12107" x1="266.977" y1="98.689" x2="339.951" y2="186.629" gradientUnits="userSpaceOnUse"><stop stop-color="#FFD12F"/><stop offset="1" stop-color="#FFA202"/></linearGradient><clipPath id="clip0_4146_12107"><path fill="#fff" transform="rotate(11.062 22.588 260.178)" d="M0 0h254.671v262.365H0z"/></clipPath><clipPath id="clip1_4146_12107"><path fill="#fff" transform="rotate(11.062 22.588 260.178)" d="M0 0h254.671v262.365H0z"/></clipPath><filter id="filter0_d_4146_12107" x="146.86" y="129.034" width="157.419" height="191.821" filterUnits="userSpaceOnUse" color-interpolation-filters="sRGB"><feFlood flood-opacity="0" result="BackgroundImageFix"/><feColorMatrix in="SourceAlpha" values="0 0 0 0 0 0 0 0 0 0 0 0 0 0 0 0 0 0 127 0" result="hardAlpha"/><feOffset dy="10"/><feGaussianBlur stdDeviation="2"/><feComposite in2="hardAlpha" operator="out"/><feColorMatrix values="0 0 0 0 0 0 0 0 0 0 0 0 0 0 0 0 0 0 0.25 0"/><feBlend in2="BackgroundImageFix" result="effect1_dropShadow_4146_12107"/><feBlend in="SourceGraphic" in2="effect1_dropShadow_4146_12107" result="shape"/></filter><filter id="filter1_f_4146_12107" x="134.86" y="113.034" width="285.49" height="292.631" filterUnits="userSpaceOnUse" color-interpolation-filters="sRGB"><feFlood flood-opacity="0" result="BackgroundImageFix"/><feBlend in="SourceGraphic" in2="BackgroundImageFix" result="shape"/><feGaussianBlur stdDeviation="8" result="effect1_foregroundBlur_4146_12107"/></filter></defs></svg>