<svg width="24" height="24" viewBox="0 0 24 24" fill="none" xmlns="http://www.w3.org/2000/svg"><path clip-rule="evenodd" d="M21 16.556h-4.021a1 1 0 00-.832.445l-.517.775a1 1 0 01-.832.445H9.201a1 1 0 01-.832-.445l-.517-.775a1 1 0 00-.832-.445H3a1 1 0 00-1 1V19a2 2 0 002 2h16a2 2 0 002-2v-1.444a1 1 0 00-1-1v0z" stroke="#254288" stroke-width="1.5" stroke-linecap="round" stroke-linejoin="round"/><path d="M20.89 16.556V4.746c0-.965-.886-1.746-1.977-1.746H5.087c-1.09 0-1.976.781-1.976 1.746v11.81" stroke="#254288" stroke-width="1.5" stroke-linecap="round" stroke-linejoin="round"/><path clip-rule="evenodd" d="M11.206 8.543l2.91 1.722a.562.562 0 010 .968l-2.91 1.722a.563.563 0 01-.85-.484V9.028c0-.436.475-.707.85-.485z" stroke="#254288" stroke-width="1.5" stroke-linecap="round" stroke-linejoin="round"/></svg>