<svg width="24" height="24" viewBox="0 0 24 24" fill="none" xmlns="http://www.w3.org/2000/svg"><path d="M16 2v4M8 2v4M3 9h18" stroke="#254288" stroke-width="1.5" stroke-linecap="round" stroke-linejoin="round"/><path clip-rule="evenodd" d="M19 4H5a2 2 0 00-2 2v13a2 2 0 002 2h14a2 2 0 002-2V6a2 2 0 00-2-2z" stroke="#254288" stroke-width="1.5" stroke-linecap="round" stroke-linejoin="round"/><path d="M7.013 12.729a.25.25 0 10.002.5.25.25 0 00-.002-.5m5 0a.25.25 0 10.002.5.25.25 0 00-.002-.5m5 0a.25.25 0 10.002.5.25.25 0 00-.002-.5m-10 4a.25.25 0 10.002.5.25.25 0 00-.002-.5m5 0a.25.25 0 10.002.5.25.25 0 00-.002-.5" stroke="#254288" stroke-width="1.5" stroke-linecap="round" stroke-linejoin="round"/></svg>