<svg width="164" height="134" viewBox="0 0 164 134" fill="none" xmlns="http://www.w3.org/2000/svg"><path d="M96.928 43.503L11.83 92.638C4.463 96.878.178 102.636.193 108.665a6.495 6.495 0 00.767 3.533c4.676 6.946 24.492 18.373 36.505 21.049 2.026.345 4.08.491 6.134.436a56.518 56.518 0 0027.755-6.706l85.113-49.149s7.938-7.773 6.901-10.524c-3.594-9.608-31.574-25.755-48.217-27.845-4.782-.586-18.223 3.984-18.223 3.984v.06z" fill="#D9DEE6"/><path d="M150.212 67.951l-11.096-5.668-16.749 14.539-42.143 31.423-7.908-4.631-22.131 15.185L48.8 59.066l104.147-19.997-2.736 28.882z" fill="#292929"/><path d="M67.129 94.003l8.735 5.037-13.832 23.5-8.75-5.052 2.887-15.561 10.96-7.924zm69.822-40.321l8.736 5.037-13.712 23.575-8.751-5.052 3.549-15.802 10.178-7.758z" fill="#333"/><path d="M36.954 53.502a3.84 3.84 0 01-.105 1.007.586.586 0 01-.136.255l-.18.15a3.007 3.007 0 01-2.045.632h-.135a2.39 2.39 0 01-.752-.225l-.165-.105-.166-.106a8.795 8.795 0 01-3.007-3.127 2.37 2.37 0 01-.195-.511 4.497 4.497 0 01-.136-.647v-.676a2.984 2.984 0 010-.376 1.148 1.148 0 010-.226c.015-.24.06-.477.136-.706.093-.435.313-.833.631-1.143a1.082 1.082 0 01.872-.24 10.871 10.871 0 013.609 1.97 4.405 4.405 0 011.669 2.194 1.7 1.7 0 010 .376v.571c.105.361.12.647.105.932z" fill="#5B73FF"/><path d="M35.48 52.81v.255a4.03 4.03 0 01-.27 1.429 1.323 1.323 0 01-.632.721 1.504 1.504 0 01-1.157 0l-.18-.09a6.75 6.75 0 01-3.008-3.127 2.373 2.373 0 01-.195-.511 2.89 2.89 0 01-.136-.602v-.676a3.022 3.022 0 010-.376.915.915 0 010-.21c.02-.247.07-.49.15-.722.121-.316.271-.497.437-.527.12-.021.241-.021.36 0a5.894 5.894 0 012.406 1.173 4.509 4.509 0 012.225 3.263z" fill="#5B84FF"/><path d="M115.166 35.205c-1.669 2.736-3.368 6.014-6.796 7.923l-.962.572v-4.345c0-7.127-5.052-9.999-11.262-6.405a24.808 24.808 0 00-11.26 19.41v4.33L37.57 84.008v-4.33c0-7.126-5.037-10.013-11.261-6.42a24.838 24.838 0 00-11.261 19.426v7.412c-1.609.932-1.248 2.165-1.248 2.165s-5.172 1.037-7.698-.12c-.481-.226-2.27-8.63-1.594-11.442a21.966 21.966 0 015.458-11.397c3.834-4.72 19.17-17.47 19.17-17.47s18.132-22.553 27.063-28.927C66.422 25.613 102.22 3.797 104.67 3.36c4.811-.887 9.608 6.21 10.675 8.585 0 .105 1.067 7.653 1.203 8.074.481 1.503 1.503 3.307 1.879 4.51.376 1.203-1.669 7.923-3.262 10.675z" fill="#2E2F35"/><path d="M4.508 90.7a19.365 19.365 0 012.15-6.45s3.699-4.737 5.593-7.428c1.895-2.691 19.636-18.282 19.636-18.282l-1.413 19.29L4.508 90.7z" fill="#5B73FF"/><path d="M118.383 24.454c-.331-1.128-1.398-3.007-1.879-4.51-.121-.361-.932-6.27-1.143-7.744-4.029 2.316-13.907 6.6-18.854 9.728-6.585 4.18-25.56 17.44-29.288 20.027-3.728 2.586-27.409 20.312-36.88 25.213-9.473 4.902-16.75 15.125-18.208 17.005a26.944 26.944 0 01-7.623 6.45c-.676 2.811 1.113 11.216 1.594 11.441 2.526 1.158 7.698.121 7.698.121s-.36-1.233 1.248-2.165v-7.413a24.839 24.839 0 0111.261-19.425c6.224-3.593 11.261-.706 11.261 6.42v4.33L84.885 56.69v-4.33a24.807 24.807 0 0111.261-19.38c6.21-3.594 11.262-.722 11.262 6.405v4.345l.962-.572c3.428-1.97 5.127-5.187 6.796-7.923a34.602 34.602 0 003.217-10.78z" fill="#495DCF"/><path d="M35.992 80.595a21.29 21.29 0 01-9.683 16.69c-5.338 3.006-9.668.616-9.668-5.519a21.32 21.32 0 019.668-16.688c5.352-3.007 9.683-.617 9.683 5.517zm69.822-40.323a21.323 21.323 0 01-9.667 16.764c-5.338 3.082-9.668.616-9.668-5.518a21.32 21.32 0 019.668-16.674c5.337-3.157 9.667-.691 9.667 5.428z" fill="#1F2024"/><path d="M116.504 20.02c-.482-1.504-.151-5.699-1.203-8.074-1.053-2.376-5.864-9.472-10.675-8.585a115.024 115.024 0 00-12.69 7.066s11.066-5.864 12.284-5.608c1.218.256 8.029 4.766 9.156 8.615 1.128 3.849.316 4.992.812 6.931.496 1.94 3.338 2.09 3.338 2.09a22.863 22.863 0 01-1.022-2.436z" fill="#2E2F35"/><path d="M39.029 78.836v4.33l-1.504.842v-4.33c0-7.126-5.037-10.013-11.261-6.42a24.838 24.838 0 00-11.261 19.425v7.413l-1.504.842v-7.413c0-8.058 5.699-17.876 12.72-21.936 7.021-4.059 12.81-.811 12.81 7.247zm69.837-40.323v4.315a3.993 3.993 0 01-.496.3l-.963.572v-4.345c0-7.127-5.051-9.999-11.26-6.405a24.808 24.808 0 00-11.262 19.41v4.33l-1.504.842v-4.33c0-8.059 5.699-17.877 12.72-21.936 7.021-4.06 12.765-.812 12.765 7.247z" fill="#5B73FF"/><path d="M115.677 14.487c-.09-.541-.151-1.053-.211-1.504 0-.315-.09-.556-.105-.751l-2.345 1.353-1.82 1.082-3.548 2.045c-1.173.692-3.623.677-4.796 1.383.105.15.677.963.932 1.023a34.963 34.963 0 007.999-2.346c.887-.466 2.977-1.729 3.894-2.285z" fill="#FF4566"/><path d="M112.715 39.07c.932-1.278 1.699-2.617 2.451-3.864a34.593 34.593 0 003.217-10.75c-2.075 2.781-3.954 4.51-4.706 6.765a27.29 27.29 0 00-.962 7.848z" fill="#2E2F35"/><path d="M31.887 60.282s11.532-4.09 12.915-4.886c1.383-.797 38.625-26.07 38.625-26.07l12.72-12.886s-.903-6.014-2.617-5.397c-1.503.556-30.49 18.312-38.685 24.326-7.878 7.292-22.958 24.913-22.958 24.913z" fill="#1F2024"/><path d="M70.858 24.74l-4.691 16.24 3.367-2.286 2.857-14.914-1.533.962zM54.229 35.881l-13.772 21.29 3.458-1.263 11.637-21.124-1.323 1.097z" fill="#2E2F35"/><path d="M107.393 3.645s5.848 2.21 7.141 2.781c7.518 3.308 22.222 11.322 28.567 16.539 1.323 1.082 9.021 8.284 9.021 8.284l-57.54 23.875a37.27 37.27 0 01-4.885-.796C78.043 50.298 61.22 41.157 57.28 35.609a17.435 17.435 0 01-1.142-2.691s35.377-21.59 46.503-28.04a14.79 14.79 0 014.751-1.233z" fill="#2E2F35"/><path d="M29.136 61.831L71.94 86.55s-25.905 28.565-27.063 28.85c-.376.09-5.142 5.638-10.75 2.21-7.607-4.631-17.726-11.006-24.056-15.035-3.653-2.316-5.548-11.893-5.548-11.893l7.428-12.374L29.136 61.83z" fill="#5B73FF"/><path d="M6.102 102.137c.258.66.636 1.266 1.113 1.789 6.675 5.864 25.56 16.343 28.566 17.772a55.35 55.35 0 0010.81 3.518s3.97-13.712 1.233-12.795c-8.374 2.812-39.361-17.62-42.248-20.432a10.707 10.707 0 01-1.053-1.293l1.58 11.441z" fill="#495DCF"/><path d="M67.88 85.947c-6.915 3.759-15.034 13.186-19.876 15.516-4.84 2.331-4.39 10.104-14.027 5.277C17.754 98.607 11.68 93.209 11.68 93.209s-.451-7.292.902-11.367c1.353-4.074 18.313-18.147 18.313-18.147s11.471 14.87 36.986 22.252z" fill="#5B84FF"/><path d="M31.676 58.705a6.75 6.75 0 00-1.503 5.413 8.358 8.358 0 003.368 6.72 118.593 118.593 0 0020.071 12.254c3.293 1.503 8.029 1.924 11.021 2.826 1.053.316 7.277.632 7.277.632l22.688-31.438L56.153 32.98s-15.38 14.765-24.477 25.725z" fill="#2E2F35"/><path d="M86.043 58.539c4.24-4.962 23.199-17.802 45.345-29.95a1.615 1.615 0 00.807-1.118 1.604 1.604 0 00-.356-1.333 19.542 19.542 0 00-1.879-2.045c-5.548-4.51-18.237-11.606-24.868-14.358a20.05 20.05 0 00-1.909-.601 9.924 9.924 0 00-7.097.767 276.638 276.638 0 00-40.354 25.694 30.295 30.295 0 00-3.623 3.398l5.443 18.042 28.49 1.504z" fill="#3D3C51"/><path d="M43.84 117.174c0 .617.15 1.263.24 1.895a26.697 26.697 0 001.308 5.593.27.27 0 00.09.12c.236.099.477.184.722.256h.331l.466.075h1.819a25.603 25.603 0 004.315-.421l.812-.211h.21l.707-.21.346-.105 1.143-.406c.517-.188 1.02-.414 1.503-.677v-5.924a24.79 24.79 0 0111.262-19.425c6.224-3.593 11.26-.721 11.26 6.42l-.15 3.849 1.504-.842 45.856-26.476.151-3.85a24.799 24.799 0 0111.261-19.424c6.209-3.579 11.261-.722 11.261 6.42v3.879a33.05 33.05 0 004.691-3.88 20.755 20.755 0 003.383-6.3c.56-2.919.857-5.882.887-8.855-.195-1.894-1.503-3.112-1.924-4.766a433.267 433.267 0 00-2.346-8.675l-.195-.662a11.057 11.057 0 00-2.571-3.578 33.493 33.493 0 00-6.435-5.292.274.274 0 01-.106-.12 4.925 4.925 0 00-.902-.226h-.436a3.81 3.81 0 00-.827 0h-.466l-.195.075h-.241l-.3.136-.527.27-.406.196-.676.36-.376.21-.391.211-.556.301-.737.406-.782.451-1.022.572-1.504.841-.496.587-1.172.676-.391.24a9.263 9.263 0 00-.647.392l-1.323.782-.646.376c-12.028 7.156-29.258 17.876-35.844 22.552a25.772 25.772 0 00-3.909 3.578l-.316.331-1.067 1.218-.105.12-.542.662-.646.646-.436.556-.481.602c-.21.255-.406.526-.617.797l-.661.872-.617.812-1.503 2-.917 1.337a95.574 95.574 0 00-1.383 2.015 78.378 78.378 0 00-1.925 3.007l-.616.962-.842 1.323-.391.632-.767 1.233-.36.601c-.632 1.023-1.204 2-1.745 2.887-.255.436-.481.842-.722 1.233a.616.616 0 01-.075.135L73.88 83s-.226.406-.331.586l-1.068 1.865-.255.466-.346.631s-14.915 10.976-18.463 13.923a31.995 31.995 0 00-9.307 12.028c-.12.345-.225.661-.3.947a13.86 13.86 0 00.03 3.728z" fill="#546AEB"/><path d="M43.81 117.175c0 .616.165 1.263.27 1.894a28.797 28.797 0 001.308 5.593c.019.048.05.09.09.121.271.122.553.217.843.285h.21l.466.075h1.819a25.498 25.498 0 004.315-.42l.812-.211h.21l.707-.21.346-.106 1.143-.406a11.01 11.01 0 001.503-.676v-5.924a24.788 24.788 0 0111.262-19.425c6.224-3.594 11.26-.722 11.26 6.42l-.15 3.849 1.504-.842 45.856-26.477.151-3.849a24.8 24.8 0 0111.261-19.425c6.209-3.578 11.261-.722 11.261 6.42v3.879a33.037 33.037 0 004.691-3.879 20.754 20.754 0 003.383-6.3c.56-2.919.857-5.883.887-8.855-.195-1.895-1.503-3.112-1.924-4.766a433.46 433.46 0 00-2.346-8.675l-.195-.662-.286.24c-7.954 6.691-10.224 8.57-15.11 11.653-6.585 4.18-25.56 17.455-29.288 20.041-3.729 2.586-18.599 13.712-28.19 18.358-15.382 7.517-27.184 22.297-28.567 24.161-1.383 1.864-5.052 3.383-9.021 3.218h-.451a16.294 16.294 0 00-.03 4.901z" fill="#495DCF"/><path d="M4.599 95.629a16.059 16.059 0 001.503 6.51 5.79 5.79 0 001.113 1.789c6.675 5.849 25.56 16.343 28.566 17.771a54.733 54.733 0 0010.525 3.459h.21l.466.075h1.819a25.602 25.602 0 004.315-.421l.812-.211h.21l.708-.21.345-.106 1.143-.405c.517-.188 1.02-.414 1.503-.677v-5.924A24.792 24.792 0 0169.1 97.854c6.224-3.593 11.26-.722 11.26 6.42l-.15 3.849 1.504-.842 44.368-25.514 1.504-.842.15-3.85a24.799 24.799 0 0111.261-19.424c6.21-3.579 11.261-.722 11.261 6.42v3.879c.346-.256.872-.632 1.504-1.083a22.325 22.325 0 003.232-2.797 20.755 20.755 0 003.383-6.3c.56-2.919.857-5.882.887-8.855-.301 1.504-3.864 4.676-4.931 5.097-2.646.602-5.263-5.262-14.93-.24-9.667 5.021-13.531 12.208-14.253 17.56-.722 5.353-1.083 9.021-3.172 10.525-2.09 1.503-34.055 19.124-38.776 21.349a21.049 21.049 0 00-1.668-4.976c-3.158-5.909-8.21-5.187-12.029-3.007-13.651 7.878-13.711 19.666-13.952 20.929-.24 1.263-3.729 2.796-7.412 2.856-.316 0-7.518-2.541-8.81-2.586-1.67 0-17.426-8.104-25.77-14.088a58.218 58.218 0 01-5.203-4.12C5.501 95.75 4.764 95.735 4.6 95.63z" fill="#4052B5"/><path d="M56.5 116.315c1.383-16.313 10.043-22.116 15.44-23.815 4.797-1.504 10.66 1.639 9.893 9.938-2.721-7.202-6.615-7.638-10.299-6.615-3.683 1.022-11.727 7.818-15.035 20.492zm69.731-38.593c0-13.652 6.601-21.05 12.449-24.733a7.959 7.959 0 018.08-.526 7.957 7.957 0 014.354 6.826c-3.533-3.549-7.908-5.217-11.396-3.188-3.488 2.03-10.931 7.758-13.487 21.62zm-2.45.692a8.108 8.108 0 01-3.443 4.015c-7.698 4.51-32.43 19.154-33.077 19.139-3.954-.105 19.335-14.93 24.221-17.53 3.158-1.715 13.426-8.45 12.299-5.624z" fill="#5B73FF"/><path d="M71.94 86.55l2.737-1.504 64.274-43.962s6.27-4.21 11.863-8.75l1.323-1.098a33.46 33.46 0 00-6.435-5.293 5.61 5.61 0 00-2.496-.39h-.241l-.375.15c-.346.15-.797.376-1.369.661l-1.503.782-.556.301-1.504.857-1.022.571-1.504.842-.331.256-1.172.676-.391.241-2.676 1.503c-12.028 7.157-29.258 17.877-35.844 22.553a25.77 25.77 0 00-3.909 3.578l-.316.331-1.067 1.218-.105.12-.542.662-.586.691-.436.556-.481.602c-.21.255-.406.526-.617.797l-.661.872-.617.812-1.503 2-.917 1.337a95.08 95.08 0 00-1.383 2.015 281.45 281.45 0 00-2.541 3.924l-.842 1.323-.391.632-.767 1.233-.36.601c-.632 1.022-1.204 2-1.745 2.887l-.721 1.233a.62.62 0 01-.076.135l-.255.451s-.226.406-.331.586l-1.067 1.865c-.106.165-.18.33-.256.466l-.286.676z" fill="#5B84FF"/><path d="M62.231 122.665c-3.756-2.195-3.72-9.246.081-15.748 3.801-6.502 9.928-9.993 13.684-7.797 3.756 2.196 3.72 9.247-.08 15.749-3.802 6.502-9.928 9.992-13.684 7.796zm86.387-57.677a21.322 21.322 0 01-9.667 16.689c-5.337 3.082-9.683.616-9.683-5.518a21.338 21.338 0 019.683-16.689c5.337-3.082 9.667-.616 9.667 5.518z" fill="#1F2024"/><path d="M84.66 104.17c1.428 0 28.777-16.042 40.594-22.989l.135-.09v-.15a35.907 35.907 0 019.713-24.928 26.559 26.559 0 004.51-9.262c.421-3.007-5.908-10.93-6.179-11.26l-.406.33c.075.075 6.45 8.044 6.014 10.855a25.92 25.92 0 01-4.39 9.021 36.487 36.487 0 00-9.848 25.154c-15.035 8.9-37.587 21.996-39.963 22.823-.481-1.504-3.007-11.788-2.691-17.065 0-.947 2.48-7.442 3.413-9.863l-.481-.18c-.136.36-3.383 8.78-3.458 9.998-.346 5.608 2.42 16.674 2.811 17.501v.105h.226z" fill="#4255BA"/><path d="M112.64 88.171l.511-.105a14.92 14.92 0 01-.135-4.766c.616-3.534-.136-16.629-.481-17.922-.346-1.293-1.97-9.667-1.985-9.758l-.511.106c0 .345 1.624 8.374 1.984 9.787.361 1.414 1.098 14.208.481 17.697a14.894 14.894 0 00.136 4.961z" fill="#4255BA"/><path d="M130.486 32.497c1.233-.646 9.352-4.886 10.525-4.66a28.933 28.933 0 019.803 4.51 39.059 39.059 0 013.608 2.721l.346.3.135.121-.195-.662a11.057 11.057 0 00-2.571-3.578 33.497 33.497 0 00-6.435-5.292.274.274 0 01-.106-.12 4.953 4.953 0 00-.902-.226h-.902a3.223 3.223 0 00-.676 0h-.151l-.195.075h-.241l-.3.136-.527.27-.406.196-.676.36-.376.21-.391.211-.556.301-.737.406-.782.451-1.022.571-1.504.842-.451.331-1.172.677-.391.24c-.226.12-.436.256-.647.391l-1.323.782-.782.436z" fill="#2E2F35"/><path d="M56.394 118.224v5.774c.517-.188 1.02-.414 1.504-.677v-5.924a24.791 24.791 0 0111.26-19.425c6.225-3.593 11.262-.721 11.262 6.42l-.15 3.849 1.503-.842.15-3.849c0-8.058-5.683-11.306-12.719-7.247-7.036 4.06-12.81 13.863-12.81 21.921zm69.837-40.306l-.15 3.85 1.504-.843.15-3.849a24.799 24.799 0 0111.261-19.425c6.21-3.578 11.261-.722 11.261 6.42v3.88c.346-.256.872-.632 1.504-1.083v-3.639c0-8.059-5.699-11.306-12.72-7.247-7.021 4.06-12.81 13.878-12.81 21.936z" fill="#495DCF"/><path d="M74.662 84.984s11.531-4.075 12.914-4.872c1.384-.796.888-.436 37.377-26.807l13.968-12.223s-5.262-8.555-6.976-7.909c-1.504.557-30.491 18.313-38.685 24.312-7.85 7.367-18.6 27.499-18.6 27.499z" fill="#2E2F35"/><path d="M76.496 83.451c4.51-1.594 9.863-3.593 10.69-4.074 1.202-.692 1.278-.737 37.211-26.702l13.411-11.758c-2.3-3.638-4.781-6.705-5.638-6.93-1.939.946-30.07 18.041-38.384 24.145-6.21 5.879-14.404 20.117-17.29 25.32z" fill="#3D3C51"/><path d="M108.039 48.255l1.564 15.501 3.367-2.285-3.397-14.178-1.534.962zM91.5 59.621l-8.239 22.252 3.458-1.248 6.12-22.101L91.5 59.62z" fill="#2E2F35"/><path d="M35.57 104.061a13.797 13.797 0 016.586-2.54c4.15-.467 10.524-1.143 11.336-1.053 1.308.15.752 4.375 0 6.179-.752 1.805-7.517 3.278-9.893 3.007a40.213 40.213 0 01-9.607-3.007.834.834 0 01-.518-.719.844.844 0 01.413-.784l1.684-1.083z" fill="#B7C8D9"/><path d="M33.766 106.647a.822.822 0 01-.142-1.011.82.82 0 01.248-.266l1.699-1.309a13.797 13.797 0 016.585-2.54c4.15-.467 10.524-1.143 11.336-1.053.812.09.887 1.504.707 3.142a18.743 18.743 0 01-3.007 1.654 6.164 6.164 0 01-4.195.331c-4.09-.631-4.164-.887-6.405-.752-2.328.38-4.614.984-6.826 1.804z" fill="#9BACBF"/><path d="M12.251 76.82v1.203a21.828 21.828 0 00.993 6.826 13.77 13.77 0 01.12 6.405c-.12.54-.24 1.037-.33 1.503a.903.903 0 01-1.354.541 19.005 19.005 0 01-5.563-5.818A3.668 3.668 0 016.282 85a26.371 26.371 0 015.97-8.18z" fill="#B7C8D9"/><path d="M12.251 76.82v1.203a21.828 21.828 0 00.993 6.826 13.77 13.77 0 01.12 6.405c-.12.54-.24 1.037-.33 1.503a1.066 1.066 0 01-.196.391c-.196-3.458-2.06-6.435-2.496-9.186-.226-1.504.707-4.376 1.624-6.826l.285-.316z" fill="#9BACBF"/><path d="M7.786 103.76c-.767-1.503-1.684-6.57-.496-5.488.12.106 2.21 4 2.526 4.346 3.683 3.818 23.38 15.561 26.627 15.967 3.247.406 4.12-1.203 4.646-.632.526.572.315 4.045 1.097 4.932.782.887-4.405-.963-8.675-2.917-.692-.316-18.057-9.758-25.725-16.208zm80.768-45.463l-17.952 25.71a28.56 28.56 0 01-11.291-.947c-.857-.256 5.457 2.345 5.457 2.345l6.54 1.143s14.765-24.883 18.87-28.25c-.211-.693-1.624 0-1.624 0zM100.221 5.54c6.901-3.999 11.667-5.006 13.952-4.826 2.286.18 9.487 3.308 16.253 7.292s13.862 8.93 15.366 11.05c1.503 2.12.721 3.339-.978 4.752a67.06 67.06 0 01-6.224 3.97 29.086 29.086 0 00-6.796-7.804 156.309 156.309 0 00-18.884-11.05 65.727 65.727 0 00-8.464-2.918c-1.775-.285-4.225-.466-4.225-.466z" fill="#2E2F35"/><path d="M32.564 60.568s-.166 6.21 1.503 7.713a72.813 72.813 0 0026.898 15.306c.992.3 7.863.977 7.863.977L86.043 58.54s-4.105-1.67-5.022-2.075C73.038 52.99 58.89 45.368 53.868 40.798a10.522 10.522 0 01-1.624-2.075s-11.29 11.396-19.68 21.845z" fill="#3D3C51"/><path d="M63.01 50.373l1.683.978a26.71 26.71 0 012.782 1.819 1.037 1.037 0 01.376 1.037l-.196.977a.496.496 0 01-.692.406 26.833 26.833 0 01-2.871-1.428l-1.684-.977a28.216 28.216 0 01-2.782-1.82 1.082 1.082 0 01-.39-1.037l.21-.977a.496.496 0 01.692-.406c.986.415 1.945.892 2.871 1.428z" fill="#585775"/><path d="M62.633 51.62c0-.48.12-1.803.12-1.803h1.67s-.18 1.879-.196 1.954c-.015.075-.511.647-.692.632-.18-.015-.902-.256-.902-.782z" fill="#585775"/><path d="M62.904 49.411a.691.691 0 00.24 1.037.902.902 0 001.158-.225.705.705 0 00-.24-1.053.932.932 0 00-1.158.241z" fill="#626082"/><path d="M72.722 24.259l-.33.21.33-.21z" fill="#1F2024"/><path d="M54.785 36.211L41.013 57.486c-3.773 1.428-8.57 3.112-8.57 3.112s15.035-17.62 22.974-24.988l.691-.496-1.323 1.097z" fill="#626082"/><path d="M56.108 35.114c3.338-2.39 9.187-6.18 15.32-10.043l-4.69 16.222 3.413-2.3 2.857-14.9c10.013-6.284 20.267-12.479 21.139-12.81 1.699-.646 2.6 5.398 2.6 5.398L84.044 29.626S46.802 54.915 45.418 55.712l-.826.376 11.516-20.974z" fill="#626082"/><path d="M86.043 58.538s-4.105-1.669-5.022-2.075C73.038 52.99 58.89 45.367 53.868 40.797a10.526 10.526 0 01-1.624-2.075l-1.729 1.774-1.338-.767L65.16 28.198l35.588 20.567-15.711 11.276 1.007-1.503z" fill="#2E2F35"/><path d="M105.979 43.668l-3.398 2.24a5.155 5.155 0 01-6.014.136L68.542 29.82a1.67 1.67 0 01-.586-3.007l4.946-3.323-3.488 1.263-6.87 4.796L99.89 49.381l7.954-5.442-1.865-.27z" fill="#2E2F35"/><path d="M23.663 99.69a2.045 2.045 0 110-4.09 2.045 2.045 0 010 4.09z" fill="#495DCF"/><path d="M148.062 40.361l2.3.526s3.684-2.526 4.436-3.202c.752-.677.406-1.639.316-2.346a13.696 13.696 0 00-2.015-3.006s1.218 1.864.812 3.007c-.406 1.142-5.849 5.021-5.849 5.021z" fill="#FF4566"/><path d="M129.268 76.156c0 6.135 4.346 8.6 9.683 5.518a21.32 21.32 0 009.667-16.689c0-6.134-4.33-8.6-9.667-5.517a21.338 21.338 0 00-9.683 16.688z" fill="#393843"/><path d="M129.885 76.051c0 5.894 4.165 8.27 9.307 5.308a20.572 20.572 0 009.306-16.058c0-5.894-4.179-8.269-9.306-5.307a20.478 20.478 0 00-9.307 16.057z" fill="#2D2C37"/><path d="M131.193 75.314c0 5.022 3.548 7.051 7.923 4.51a17.467 17.467 0 007.924-13.681c0-5.022-3.549-7.037-7.924-4.51a17.448 17.448 0 00-7.923 13.681z" fill="#504F58"/><path d="M131.433 74.788c0 4.766 3.368 6.675 7.518 4.285a16.542 16.542 0 007.517-12.96c0-4.751-3.368-6.676-7.517-4.27a16.534 16.534 0 00-7.518 12.945z" fill="#BABABE"/><path d="M145.927 67.557a16.013 16.013 0 01-3.849 8.33c-2.165 2.48-4.601 3.728-6.57 3.608a3.38 3.38 0 01-2.24-.993 2.705 2.705 0 01-.527-.676.727.727 0 01-.09-.135 3.54 3.54 0 01-.286-.587 7.135 7.135 0 01-.27-.857 7.9 7.9 0 01-.181-1.714V72.7c.041-.278.096-.555.166-.827.026-.132.061-.263.105-.39l.09-.347c0-.15.105-.33.166-.48a3.28 3.28 0 01.12-.362 15.21 15.21 0 01.646-1.503l.166-.316c.18-.346.361-.692.571-1.037l.15-.24c.092-.162.192-.317.301-.467.386-.577.808-1.13 1.263-1.654.22-.264.456-.515.707-.752.102-.117.213-.228.331-.33l.105-.09.27-.241a9.436 9.436 0 013.338-1.97 3.775 3.775 0 014.586 1.504.8.8 0 01.09.15c.19.322.341.665.451 1.023a8.46 8.46 0 01.391 3.187z" fill="url(#paint0_linear_4154_12108)"/><path d="M136.635 65.272v2.12l-2.315-.241a5.21 5.21 0 01.301-.466c.386-.577.807-1.13 1.263-1.654.22-.265.456-.516.706-.752.103-.117.214-.228.331-.33l.105-.09.271-.241a9.425 9.425 0 013.338-1.97 3.772 3.772 0 014.585 1.504 7.59 7.59 0 00-8.585 2.12z" fill="#393843"/><path d="M145.476 67.556a10.207 10.207 0 01-3.699 3.007c-1.864.631-5.488 5.007-5.488 5.007l.286-8.194c4.24.33 8.901.18 8.901.18z" fill="#393843"/><path d="M141.732 66.052a13.868 13.868 0 01-3.308 7.157 10.087 10.087 0 01-3.187 2.525c-.758.385-1.6.576-2.451.557h-.165a3.004 3.004 0 01-.526-.09 7.902 7.902 0 01-.181-1.714v-1.834c.041-.279.096-.555.166-.828.026-.132.061-.263.105-.39l.09-.346c0-.15.105-.331.166-.481a3.28 3.28 0 01.12-.361c.188-.513.404-1.014.646-1.504l.166-.316c.18-.345.361-.691.571-1.037.211-.346.286-.466.451-.707.386-.577.808-1.13 1.263-1.653.22-.265.456-.516.707-.752.102-.118.213-.228.33-.33l.106-.091.27-.24a9.436 9.436 0 013.338-1.97c.226.222.418.475.571.752.164.274.295.567.391.871.137.49.218.995.241 1.504.066.423.107.85.12 1.278z" fill="url(#paint1_linear_4154_12108)"/><path d="M136.305 70.051l.18 1.639-.18-1.654-1.278-.752-.932-1.909c.135-.225.285-.466.451-.707a16.45 16.45 0 011.262-1.654 8.71 8.71 0 01.707-.751c.103-.118.213-.228.331-.331l.105-.09.466.285-1.593 1.925.481 4z" fill="url(#paint2_linear_4154_12108)"/><path d="M136.305 70.052l.18 1.638-1.263 4.09-.571 1.85c-.196.405.376 1.322.12 1.277a8.618 8.618 0 01-2.045-1.097.724.724 0 01-.09-.136 3.54 3.54 0 01-.286-.586c.017-.104.047-.205.091-.3l.165-.467 2.3-6.81.121-.226 1.278.767z" fill="url(#paint3_linear_4154_12108)"/><path d="M144.063 63.933a.439.439 0 00-.421 0l-6.135 2.6-.18.091v3.308l1.368-.782 5.127-1.955a1.273 1.273 0 00.601-.992c0-.722 1.143-.887 1.008-1.503a8.962 8.962 0 00-1.368-.767z" fill="url(#paint4_linear_4154_12108)"/><path d="M137.598 72.669l-2.676-5.488a1.029 1.029 0 01.195-.977c.256-.346.526-.677.812-1.007.266-.319.552-.62.857-.902.27-.271.586-.301.706-.076l2.677 5.488-2.571 2.962z" fill="#DFDFE3"/><path d="M138.605 70.713v-3.292l.165-.106 6.15-2.6c.27-.15.526-.076.586.195.136.668.186 1.35.15 2.03a1.361 1.361 0 01-.601.992l-5.097 2-1.353.781z" fill="#DFDFE3"/><path d="M133.764 78.383c-.181-.135-.181-.481 0-.842l2.466-7.277.105-.21 2.285.661-.812 1.73-1.849 6.013c-.18.391-.541.662-.812.617a3.352 3.352 0 01-1.383-.692z" fill="#DFDFE3"/><path d="M135.132 78.203c.039-.048.074-.098.105-.15l1.88-6.014 2.345-2.692 5.217-2.06a.669.669 0 00.196-.345c.023-.406.023-.813 0-1.218l-6.345 2.706-1.413-3.293c-.196.196-.376.406-.572.617-.195.21-.511.616-.752.947a.654.654 0 00-.105.196l1.504 3.367-2.661 7.668c.188.114.39.205.601.27z" fill="#4B4A4B"/><path d="M59.446 116.483c0 6.134 4.33 8.6 9.668 5.518a21.322 21.322 0 009.682-16.689c0-6.134-4.33-8.6-9.682-5.518a21.312 21.312 0 00-9.668 16.689z" fill="#393843"/><path d="M60.048 116.362c0 5.909 4.164 8.284 9.306 5.308a20.484 20.484 0 009.307-16.043c0-5.908-4.165-8.284-9.307-5.307a20.473 20.473 0 00-9.306 16.042z" fill="#2D2C37"/><path d="M61.356 115.672c0 5.022 3.548 7.037 7.923 4.511a17.456 17.456 0 007.923-13.667c0-5.022-3.548-7.036-7.923-4.51a17.453 17.453 0 00-7.923 13.666z" fill="#504F58"/><path d="M61.611 115.116c0 4.766 3.353 6.675 7.518 4.285a16.538 16.538 0 007.517-12.96c0-4.751-3.368-6.676-7.517-4.285a16.538 16.538 0 00-7.518 12.96z" fill="#BABABE"/><path d="M76.09 107.884a16.072 16.072 0 01-3.85 8.329c-2.09 2.466-4.6 3.729-6.6 3.594a3.369 3.369 0 01-2.781-1.654l-.09-.15a3.568 3.568 0 01-.286-.587 6.878 6.878 0 01-.27-.842 7.92 7.92 0 01-.181-1.729 8.099 8.099 0 010-.842 1.912 1.912 0 010-.421v-.571c0-.271.105-.541.165-.812.042-.133.078-.269.106-.406.026-.113.06-.223.105-.331 0-.165.09-.33.15-.496.034-.122.074-.243.12-.361.193-.513.414-1.014.662-1.503.044-.108.094-.214.15-.316.18-.346.361-.676.572-1.022l.15-.256.3-.451a19.34 19.34 0 011.264-1.669c.24-.255.466-.511.706-.737l.331-.33.105-.106.271-.24a9.653 9.653 0 013.353-1.955 3.776 3.776 0 014.51 1.504c.027.047.057.092.09.135.18.331.325.678.437 1.038a8.161 8.161 0 01.51 3.187z" fill="url(#paint5_linear_4154_12108)"/><path d="M66.798 105.599v2.104c-.797 0-1.503-.135-2.315-.24l.3-.451c.391-.579.813-1.136 1.263-1.669.241-.256.466-.511.707-.737l.33-.33.106-.106.27-.24a9.654 9.654 0 013.353-1.955 3.777 3.777 0 014.511 1.504 7.6 7.6 0 00-8.525 2.12z" fill="#393843"/><path d="M75.639 107.855a10.131 10.131 0 01-3.684 3.007c-1.88.646-5.503 5.021-5.503 5.021l.286-8.209a88.98 88.98 0 008.9.181z" fill="#393843"/><path d="M71.895 106.442a13.663 13.663 0 01-3.308 7.141 9.95 9.95 0 01-3.187 2.541 4.95 4.95 0 01-2.451.557h-.165a3.028 3.028 0 01-.527-.091 7.914 7.914 0 01-.18-1.729 8.099 8.099 0 010-.842 1.903 1.903 0 010-.42v-.572c0-.27.105-.541.165-.812.043-.133.078-.269.106-.406a2.01 2.01 0 01.105-.33c0-.166.09-.331.15-.497.033-.122.074-.242.12-.36a15.01 15.01 0 01.662-1.504c.044-.108.094-.213.15-.316.18-.345.361-.676.572-1.022.21-.346.3-.481.45-.707.391-.578.813-1.135 1.264-1.669.24-.255.466-.511.706-.736l.331-.331.105-.105.271-.241a9.635 9.635 0 013.353-1.954c.222.219.414.467.571.736.193.275.36.567.496.872.139.49.22.995.24 1.504.028.43.028.862 0 1.293z" fill="url(#paint6_linear_4154_12108)"/><path d="M66.482 110.381l.18 1.639-.18-1.654-1.278-.752-.932-1.91c.136-.24.3-.481.451-.706.391-.579.813-1.136 1.263-1.669.24-.256.466-.511.707-.737l.33-.33.106-.106.466.301-1.609 1.849.496 4.075z" fill="url(#paint7_linear_4154_12108)"/><path d="M66.482 110.381l.18 1.639-1.262 4.089-.571 1.849c-.196.406.376 1.323.12 1.263a9.096 9.096 0 01-2.045-1.082l-.09-.151a3.52 3.52 0 01-.286-.586.83.83 0 01.105-.225l.15-.467 2.316-6.81.105-.226 1.278.707z" fill="url(#paint8_linear_4154_12108)"/><path d="M74.226 104.247a.423.423 0 00-.406 0l-6.15 2.601-.18.09v3.308l1.368-.797 5.097-1.984a1.353 1.353 0 00.586-1.008c0-.721 1.143-.872 1.008-1.503a7.702 7.702 0 00-1.323-.707z" fill="url(#paint9_linear_4154_12108)"/><path d="M67.76 112.979l-2.676-5.487a1.04 1.04 0 01.196-.978c.26-.34.531-.671.812-.992.266-.318.552-.62.857-.902.285-.271.586-.301.721-.075l2.662 5.488-2.571 2.946z" fill="#DFDFE3"/><path d="M68.783 111.04v-3.293l.165-.105 6.15-2.601c.285-.165.526-.075.586.195a8.02 8.02 0 01.15 2.03 1.327 1.327 0 01-.601.993l-5.082 1.999-1.368.782z" fill="#DFDFE3"/><path d="M63.926 118.677c-.18-.135-.18-.496 0-.842l2.466-7.277.106-.21 2.3.661-.827 1.729-1.834 6.014c-.196.406-.557.677-.812.617a3.107 3.107 0 01-1.399-.692z" fill="#DFDFE3"/><path d="M65.31 118.512a.437.437 0 00.09-.15l1.88-6.014 2.345-2.692 5.217-2.059a.529.529 0 00.195-.346c.03-.406.03-.813 0-1.218l-6.39 2.691-1.413-3.292c-.195.195-.375.391-.556.601-.18.211-.526.631-.767.962a.363.363 0 00-.09.196l1.504 3.368-2.662 7.667c.199.13.417.227.647.286z" fill="#4B4A4B"/><path d="M6.057 85.601c.05-.242.126-.48.225-.706a26.371 26.371 0 016.014-8.12 20.584 20.584 0 01-1.383 3.293 42.098 42.098 0 00-4.856 5.533z" fill="#F7FBFF"/><path d="M12.582 81.873c.15.842.361 1.834.662 3.007a13.77 13.77 0 01.12 6.405c-.12.54-.24 1.037-.33 1.503a.873.873 0 01-1.324.541A9.547 9.547 0 018.944 89.3c-.196-1.503 1.172-3.232 3.638-7.337v-.09zm21.079 24.597a.828.828 0 01.226-1.128l1.684-1.278a13.807 13.807 0 016.585-2.541 424 424 0 017.187-.766c-.782.781-4.842 4.796-6.39 6.149-1.549 1.353-7.518.541-9.021-.166l-.21-.165a.671.671 0 01-.06-.105z" fill="#565E66"/><path d="M40.592 104.634v-.617a1.112 1.112 0 011.053-1.112l6.976-.391a1.142 1.142 0 011.203 1.142v.888a1.923 1.923 0 01-2.105 1.924l-6.014-.586a1.264 1.264 0 01-1.113-1.248zm-27.95-16.221l.106-1.083a7.428 7.428 0 00-.286-2.871l-1.037-3.624c-.136-.466-.812-.676-.963-.21a9.021 9.021 0 00.136 6.21l.706 1.758a.69.69 0 001.338-.18z" fill="#fff"/><path d="M44.982 108.859c1.504 0 7.082-1.504 7.518-2.376a8.028 8.028 0 00.676-2.827H52.05a6.977 6.977 0 01-.511 2.316 24.497 24.497 0 01-6.616 1.834 32.162 32.162 0 01-8.84-2.375l-.602.947a31.831 31.831 0 009.427 2.556l.075-.075zM11.514 92.518l.737-.857a29.293 29.293 0 01-4.706-5.293A16.538 16.538 0 019.05 80.58l-1.053-.406c-.631 1.624-2.03 5.503-1.503 6.676a28.99 28.99 0 005.021 5.668z" fill="#fff"/><path d="M156.797 42.525a12.804 12.804 0 012.376 6.39c-1.053 1.76-1.925 3.007-3.834 3.172a6.291 6.291 0 002.015-5.803c-.331-1.474-.557-3.759-.557-3.759zM79.277 82.67a3.008 3.008 0 01-1.127-.391c-.331-.27-.09-1.278.48-1.639.572-.36 2.15.436 2.406.3.256-.135 1.88.557 1.88.557l-.527 1.143-3.112.03z" fill="#5B73FF"/><path d="M82.48 78.489c-1.504-.376-3.008.12-3.218 1.804-.24 2.06.662 2.39 1.203 2.646a13.034 13.034 0 005.172 1.173c2.586 0 2.902-1.353 2.902-2.27v-.24c0-1.309-.542-1.7-1.429-1.97-1.924-.557-4.63-1.143-4.63-1.143z" fill="#5B73FF"/><path d="M79.849 79.347c1.473-.133 2.959.02 4.375.451 1.744.376 3.007.361 3.187 2.045.18 1.684-.406 2.105-1.127 2.225a10.044 10.044 0 01-4.165-.511c-2.075-.601-2.36-.932-2.691-1.504-.331-.57-.436-2.465.42-2.706z" fill="#5B84FF"/><path d="M68.873 84.564s-6.871-.676-7.863-.977a72.815 72.815 0 01-26.943-15.306c-1.684-1.503-1.504-7.713-1.504-7.713l1.504-1.744 5.307-1.338 15.727 9.938 2.496 6.45 13.531 7.323-2.255 3.367z" fill="#4A4963"/><path d="M49.282 80.925c1.504.767 2.902 1.503 4.36 2.165 3.293 1.503 8.03 1.924 11.021 2.826 1.053.316 7.277.632 7.277.632l.346-.617.256-.466 1.067-1.864c.105-.18.226-.376.33-.586.106-.21 0 0 0 0l.256-.451a.613.613 0 00.076-.136l.721-1.233 1.744-2.886.361-.602.767-1.233.39-.631c.271-.451.557-.887.843-1.338a280.272 280.272 0 012.54-3.924c.452-.677.918-1.353 1.384-2.015l.917-1.338 1.504-2 .616-.812.661-.872c.211-.27.407-.54.617-.796l.481-.602.376-.601.436-.512.541-.661.105-.12 1.068-1.218.316-.33a25.767 25.767 0 013.909-3.58c6.585-4.705 23.785-15.425 35.843-22.552l2.676-1.593c.136-.076.256-.166.391-.226l1.323-.782.376-.21 1.504-.842 1.022-.572 1.022-.57.196-.106.301-.18a55.984 55.984 0 005.728-3.684c1.699-1.413 2.496-2.616.977-4.736-1.037-1.504-4.781-4.315-9.216-7.232a84.291 84.291 0 00-9.968 4.721c-14.404 7.713-36.355 21.74-47.947 29.378-4.135 2.752-6.961 4.661-7.623 5.188-2.947 2.225-17.14 20.041-21.89 29.799z" fill="#131317"/><path d="M87.05 40.495l9.577 5.533a5.096 5.096 0 005.503.15c1.218-.827 2.496-1.654 3.804-2.51 7.352-4.722 16.102-9.954 25.409-15.036a1.603 1.603 0 00.807-1.118 1.604 1.604 0 00-.356-1.332 19.55 19.55 0 00-1.879-2.045 74.486 74.486 0 00-7.518-5.202c-10.93 6.104-24.777 14.764-35.347 21.56zM50.17 79.226a65.53 65.53 0 0010.84 4.36c.992.3 7.863.977 7.863.977l17.17-26.025s-4.105-1.67-5.022-2.075a139.478 139.478 0 01-10.314-5.037 67.038 67.038 0 00-5.277 6.014 165.38 165.38 0 00-15.26 21.786z" fill="#131317"/><path d="M35.57 104.062a13.831 13.831 0 016.586-2.556c4.15-.466 10.524-1.128 11.336-1.037 1.308.135.752 4.36 0 6.164-.752 1.804-7.517 3.293-9.893 3.007a39.619 39.619 0 01-9.607-3.007.843.843 0 01-.105-1.504l1.684-1.067z" fill="#B7C8D9"/><path d="M33.751 106.558a.826.826 0 01.106-1.278l1.714-1.218a13.831 13.831 0 016.585-2.556c4.15-.466 10.524-1.128 11.336-1.037.812.09.887 1.503.707 3.142a17.534 17.534 0 01-3.007 1.639 6.015 6.015 0 01-4.195.33c-4.09-.631-4.164-.887-6.405-.751a39.04 39.04 0 00-6.84 1.729z" fill="#9BACBF"/><path d="M12.236 76.82v1.263a21.933 21.933 0 00.993 6.84 13.53 13.53 0 01.105 6.405c-.105.542-.226 1.038-.316 1.504a.888.888 0 01-1.353.526 18.839 18.839 0 01-5.563-5.819 3.608 3.608 0 01.165-2.465 26.37 26.37 0 015.97-8.254z" fill="#B7C8D9"/><path d="M6.042 85.598c.05-.243.126-.48.225-.707a26.37 26.37 0 016.014-8.119 21.17 21.17 0 01-1.383 3.293 41.014 41.014 0 00-4.856 5.533z" fill="#F7FBFF"/><path d="M12.567 81.87c.15.841.36 1.834.662 3.006a13.53 13.53 0 01.105 6.405c-.105.541-.226 1.038-.316 1.504a.886.886 0 01-1.338.541 9.953 9.953 0 01-2.766-4.03c-.18-1.503 1.187-3.247 3.653-7.336v-.09zm21.079 24.581a.84.84 0 01.226-1.142l1.699-1.248a13.831 13.831 0 016.585-2.556c2.165-.241 4.916-.541 7.187-.752-.782.782-4.842 4.781-6.39 6.134-1.549 1.354-7.518.557-9.021-.165a.543.543 0 01-.21-.165.343.343 0 01-.076-.106z" fill="#565E66"/><path d="M40.577 104.618v-.616a1.13 1.13 0 011.052-1.113l6.977-.376a1.134 1.134 0 011.115.689c.06.143.09.298.088.454v.887a1.913 1.913 0 01-1.315 1.824 1.893 1.893 0 01-.79.085l-6.014-.571a1.263 1.263 0 01-1.113-1.263zM12.627 88.41l.106-1.098a7.427 7.427 0 00-.286-2.871l-1.037-3.609c-.136-.48-.812-.676-.963-.21a9.021 9.021 0 00.136 6.194l.706 1.774a.706.706 0 001.338-.18z" fill="#fff"/><path d="M44.967 108.858c1.504 0 7.082-1.503 7.518-2.39a7.899 7.899 0 00.676-2.812l-1.052-.015a6.88 6.88 0 01-.511 2.315 24.485 24.485 0 01-6.6 1.85 32.446 32.446 0 01-8.841-2.391l-.601.947a32.238 32.238 0 009.426 2.571l-.015-.075zM11.514 92.5l.737-.842a29.721 29.721 0 01-4.706-5.293 16.54 16.54 0 011.504-5.803l-1.053-.406c-.631 1.624-2.03 5.518-1.503 6.69a29.38 29.38 0 005.021 5.654z" fill="#fff"/><defs><linearGradient id="paint0_linear_4154_12108" x1="133.989" y1="79.059" x2="143.912" y2="61.859" gradientUnits="userSpaceOnUse"><stop offset=".27" stop-color="#ECEEF7"/><stop offset=".77" stop-color="#9C9AA8"/></linearGradient><linearGradient id="paint1_linear_4154_12108" x1="139.086" y1="73.6" x2="134.2" y2="65.12" gradientUnits="userSpaceOnUse"><stop offset=".26" stop-color="#393843"/><stop offset=".78" stop-color="#23222E"/></linearGradient><linearGradient id="paint2_linear_4154_12108" x1="138.334" y1="67.315" x2="134.41" y2="68.442" gradientUnits="userSpaceOnUse"><stop stop-color="#ADAEB8"/><stop offset=".08" stop-color="#BABCC5"/><stop offset=".2" stop-color="#C9CBD4"/><stop offset=".34" stop-color="#D2D4DC"/><stop offset=".55" stop-color="#D5D7DF"/><stop offset=".66" stop-color="#C0C1CA"/><stop offset="1" stop-color="#868490"/></linearGradient><linearGradient id="paint3_linear_4154_12108" x1="136.515" y1="74.773" x2="133.328" y2="73.48" gradientUnits="userSpaceOnUse"><stop stop-color="#ADAEB8"/><stop offset=".08" stop-color="#BABCC5"/><stop offset=".2" stop-color="#C9CBD4"/><stop offset=".34" stop-color="#D2D4DC"/><stop offset=".55" stop-color="#D5D7DF"/><stop offset=".66" stop-color="#C0C1CA"/><stop offset="1" stop-color="#868490"/></linearGradient><linearGradient id="paint4_linear_4154_12108" x1="141.898" y1="68.278" x2="140.063" y2="65.106" gradientUnits="userSpaceOnUse"><stop stop-color="#ADAEB8"/><stop offset=".08" stop-color="#BABCC5"/><stop offset=".2" stop-color="#C9CBD4"/><stop offset=".34" stop-color="#D2D4DC"/><stop offset=".55" stop-color="#D5D7DF"/><stop offset=".66" stop-color="#C0C1CA"/><stop offset="1" stop-color="#868490"/></linearGradient><linearGradient id="paint5_linear_4154_12108" x1="64.152" y1="119.371" x2="74.075" y2="102.186" gradientUnits="userSpaceOnUse"><stop offset=".27" stop-color="#ECEEF7"/><stop offset=".77" stop-color="#9C9AA8"/></linearGradient><linearGradient id="paint6_linear_4154_12108" x1="69.264" y1="113.929" x2="64.362" y2="105.45" gradientUnits="userSpaceOnUse"><stop offset=".26" stop-color="#393843"/><stop offset=".78" stop-color="#23222E"/></linearGradient><linearGradient id="paint7_linear_4154_12108" x1="68.497" y1="107.644" x2="64.573" y2="108.772" gradientUnits="userSpaceOnUse"><stop stop-color="#ADAEB8"/><stop offset=".08" stop-color="#BABCC5"/><stop offset=".2" stop-color="#C9CBD4"/><stop offset=".34" stop-color="#D2D4DC"/><stop offset=".55" stop-color="#D5D7DF"/><stop offset=".66" stop-color="#C0C1CA"/><stop offset="1" stop-color="#868490"/></linearGradient><linearGradient id="paint8_linear_4154_12108" x1="66.678" y1="115.087" x2="63.49" y2="113.809" gradientUnits="userSpaceOnUse"><stop stop-color="#ADAEB8"/><stop offset=".08" stop-color="#BABCC5"/><stop offset=".2" stop-color="#C9CBD4"/><stop offset=".34" stop-color="#D2D4DC"/><stop offset=".55" stop-color="#D5D7DF"/><stop offset=".66" stop-color="#C0C1CA"/><stop offset="1" stop-color="#868490"/></linearGradient><linearGradient id="paint9_linear_4154_12108" x1="72.061" y1="108.607" x2="70.226" y2="105.42" gradientUnits="userSpaceOnUse"><stop stop-color="#ADAEB8"/><stop offset=".08" stop-color="#BABCC5"/><stop offset=".2" stop-color="#C9CBD4"/><stop offset=".34" stop-color="#D2D4DC"/><stop offset=".55" stop-color="#D5D7DF"/><stop offset=".66" stop-color="#C0C1CA"/><stop offset="1" stop-color="#868490"/></linearGradient></defs></svg>