<svg width="60" height="60" viewBox="0 0 60 60" fill="none" xmlns="http://www.w3.org/2000/svg"><g clip-path="url(#clip0_4235_11970)"><mask id="a" maskUnits="userSpaceOnUse" x="6.8" y="9.2" width="46" height="42" fill="#000"><path fill="#fff" d="M6.8 9.2h46v42h-46z"/><path fill-rule="evenodd" clip-rule="evenodd" d="M7.8 13.2c0-1.65 1.35-3 3-3h38.4c1.65 0 3 1.35 3 3v33.6c0 1.65-1.35 3-3 3H10.8c-1.65 0-3-1.35-3-3V13.2zm41.4-1.8H10.8c-1.001 0-1.8.8-1.8 1.8v19.2c0 1.001.799 1.8 1.8 1.8h38.4c1.001 0 1.8-.799 1.8-1.8V13.2c0-1-.799-1.8-1.8-1.8zm-35.4 2.7a.3.3 0 01.3-.3h31.8a.3.3 0 01.3.3c0 1.527.977 2.7 2.1 2.7a.3.3 0 01.3.3v11.4a.3.3 0 01-.3.3c-1.123 0-2.1 1.173-2.1 2.7a.3.3 0 01-.3.3H14.1a.3.3 0 01-.3-.3c0-1.527-.977-2.7-2.1-2.7a.3.3 0 01-.3-.3V17.1a.3.3 0 01.3-.3c1.123 0 2.1-1.173 2.1-2.7zm10.974.3H14.351c-.118 1.523-1.068 2.745-2.351 2.925v10.95c1.283.18 2.233 1.402 2.35 2.925h31.3c.117-1.523 1.067-2.745 2.35-2.925v-10.95c-1.283-.18-2.233-1.402-2.35-2.925H24.773zm-.174 8.4c0-2.979 2.421-5.4 5.4-5.4 2.979 0 5.4 2.421 5.4 5.4 0 2.979-2.421 5.4-5.4 5.4a5.405 5.405 0 01-5.4-5.4zm10.2 0c0-2.654-2.145-4.8-4.8-4.8a4.795 4.795 0 00-4.8 4.8c0 2.655 2.146 4.8 4.8 4.8 2.655 0 4.8-2.145 4.8-4.8zm-16.799-1.643c.405-.455 1.024-.757 1.799-.757.775 0 1.394.302 1.799.757A2.47 2.47 0 0122.2 22.8c0 .592-.196 1.188-.601 1.643-.405.456-1.024.757-1.799.757-.775 0-1.394-.301-1.799-.757A2.469 2.469 0 0117.4 22.8c0-.591.196-1.187.601-1.643zm20.4 0c.405-.455 1.024-.757 1.799-.757.775 0 1.394.302 1.799.757A2.47 2.47 0 0142.6 22.8c0 .592-.196 1.188-.601 1.643-.405.456-1.024.757-1.799.757-.775 0-1.394-.301-1.799-.757A2.469 2.469 0 0137.8 22.8c0-.591.196-1.187.601-1.643zm-17.25.399c-.295-.332-.726-.556-1.351-.556s-1.056.224-1.351.556A1.88 1.88 0 0018 22.8c0 .459.154.913.449 1.245.295.332.726.555 1.351.555s1.056-.223 1.351-.555A1.88 1.88 0 0021.6 22.8a1.88 1.88 0 00-.449-1.244zm20.4 0c-.295-.332-.726-.556-1.351-.556s-1.056.224-1.351.556A1.88 1.88 0 0038.4 22.8c0 .459.154.913.449 1.245.295.332.726.555 1.351.555s1.056-.223 1.351-.555A1.88 1.88 0 0042 22.8a1.88 1.88 0 00-.449-1.244zM10.8 35.4a2.97 2.97 0 01-1.8-.617V37c0 1.001.799 1.8 1.8 1.8h38.4c1.001 0 1.8-.799 1.8-1.8v-2.217a2.969 2.969 0 01-1.8.617H10.8zm0 4.6a2.97 2.97 0 01-1.8-.617V41.6c0 1.001.799 1.8 1.8 1.8h38.4c1.001 0 1.8-.799 1.8-1.8v-2.217a2.969 2.969 0 01-1.8.617H10.8zM9 46.2v-2.217a2.97 2.97 0 001.8.617h38.4c.677 0 1.297-.236 1.8-.617v2.214c-.002 1.001-.8 2.403-1.8 2.403H10.8c-1.001 0-1.8-1.399-1.8-2.4z"/></mask><path fill-rule="evenodd" clip-rule="evenodd" d="M7.8 13.2c0-1.65 1.35-3 3-3h38.4c1.65 0 3 1.35 3 3v33.6c0 1.65-1.35 3-3 3H10.8c-1.65 0-3-1.35-3-3V13.2zm41.4-1.8H10.8c-1.001 0-1.8.8-1.8 1.8v19.2c0 1.001.799 1.8 1.8 1.8h38.4c1.001 0 1.8-.799 1.8-1.8V13.2c0-1-.799-1.8-1.8-1.8zm-35.4 2.7a.3.3 0 01.3-.3h31.8a.3.3 0 01.3.3c0 1.527.977 2.7 2.1 2.7a.3.3 0 01.3.3v11.4a.3.3 0 01-.3.3c-1.123 0-2.1 1.173-2.1 2.7a.3.3 0 01-.3.3H14.1a.3.3 0 01-.3-.3c0-1.527-.977-2.7-2.1-2.7a.3.3 0 01-.3-.3V17.1a.3.3 0 01.3-.3c1.123 0 2.1-1.173 2.1-2.7zm10.974.3H14.351c-.118 1.523-1.068 2.745-2.351 2.925v10.95c1.283.18 2.233 1.402 2.35 2.925h31.3c.117-1.523 1.067-2.745 2.35-2.925v-10.95c-1.283-.18-2.233-1.402-2.35-2.925H24.773zm-.174 8.4c0-2.979 2.421-5.4 5.4-5.4 2.979 0 5.4 2.421 5.4 5.4 0 2.979-2.421 5.4-5.4 5.4a5.405 5.405 0 01-5.4-5.4zm10.2 0c0-2.654-2.145-4.8-4.8-4.8a4.795 4.795 0 00-4.8 4.8c0 2.655 2.146 4.8 4.8 4.8 2.655 0 4.8-2.145 4.8-4.8zm-16.799-1.643c.405-.455 1.024-.757 1.799-.757.775 0 1.394.302 1.799.757A2.47 2.47 0 0122.2 22.8c0 .592-.196 1.188-.601 1.643-.405.456-1.024.757-1.799.757-.775 0-1.394-.301-1.799-.757A2.469 2.469 0 0117.4 22.8c0-.591.196-1.187.601-1.643zm20.4 0c.405-.455 1.024-.757 1.799-.757.775 0 1.394.302 1.799.757A2.47 2.47 0 0142.6 22.8c0 .592-.196 1.188-.601 1.643-.405.456-1.024.757-1.799.757-.775 0-1.394-.301-1.799-.757A2.469 2.469 0 0137.8 22.8c0-.591.196-1.187.601-1.643zm-17.25.399c-.295-.332-.726-.556-1.351-.556s-1.056.224-1.351.556A1.88 1.88 0 0018 22.8c0 .459.154.913.449 1.245.295.332.726.555 1.351.555s1.056-.223 1.351-.555A1.88 1.88 0 0021.6 22.8a1.88 1.88 0 00-.449-1.244zm20.4 0c-.295-.332-.726-.556-1.351-.556s-1.056.224-1.351.556A1.88 1.88 0 0038.4 22.8c0 .459.154.913.449 1.245.295.332.726.555 1.351.555s1.056-.223 1.351-.555A1.88 1.88 0 0042 22.8a1.88 1.88 0 00-.449-1.244zM10.8 35.4a2.97 2.97 0 01-1.8-.617V37c0 1.001.799 1.8 1.8 1.8h38.4c1.001 0 1.8-.799 1.8-1.8v-2.217a2.969 2.969 0 01-1.8.617H10.8zm0 4.6a2.97 2.97 0 01-1.8-.617V41.6c0 1.001.799 1.8 1.8 1.8h38.4c1.001 0 1.8-.799 1.8-1.8v-2.217a2.969 2.969 0 01-1.8.617H10.8zM9 46.2v-2.217a2.97 2.97 0 001.8.617h38.4c.677 0 1.297-.236 1.8-.617v2.214c-.002 1.001-.8 2.403-1.8 2.403H10.8c-1.001 0-1.8-1.399-1.8-2.4z" fill="#CF2935"/><path d="M22.237 13.949l-.26-.151.26.151zm0 .302l-.26.152.26-.152zm2.8 0l-.258-.15.259.15zm0-.302l.26-.151-.26.151zm-4.6 0l.259.151-.26-.151zm0 .302l.259-.15-.26.15zm1.126 0l.26.152-.26-.152zm0-.302l.26-.151-.26.151zM9 48.583h-.3v.149l.119.09.181-.24zm42 0l.181.239.119-.09v-.15H51zM20.692 13.8v-.3h-.005l.005.3zm.617 0l.004-.3h-.004v.3zm1.182 0v-.3h-.004l.005.3zm2.292 0l.004-.3h-.004v.3zm-2.292.6l-.004.3h.005v-.3zm-1.182 0v.3h.004l-.004-.3zm-.617 0l-.005.3h.005v-.3zm4.091 0v.3h.004l-.004-.3zm-2.805-.602a.6.6 0 000 .605l.518-.303-.518-.302zm3.319.605a.6.6 0 000-.605l-.518.302.518.303zm-5.12-.605a.6.6 0 000 .605l.519-.303-.518-.302zm1.646.605a.6.6 0 000-.605l-.519.302.519.303zM8.819 48.822c.55.417 1.233.678 1.981.678v-.6c-.605 0-1.162-.21-1.619-.556l-.362.478zm1.981.678h38.4v-.6H10.8v.6zm38.4 0c.748 0 1.43-.26 1.981-.678l-.362-.478a2.669 2.669 0 01-1.619.556v.6zM8.7 46.2v2.383h.6V46.2h-.6zm42-2.2v2.197h.6V44h-.6zm0 2.197v.003h.6v-.003h-.6zM24.787 14.7a.6.6 0 00.51-.297l-.518-.303.008.6zm-4.61-.297a.6.6 0 00.51.297l.009-.6-.518.303zm1.136.297a.6.6 0 00.51-.297l-.519-.303.009.6zM51.3 48.583v-2.386h-.6v2.386h.6zm0-2.386v-.003h-.6v.003h.6zM21.978 14.403a.6.6 0 00.51.297l.008-.6-.518.303zm.522.297h2.283v-.6H22.5v.6zm2.797-.902a.6.6 0 00-.51-.298l-.008.6.518-.302zm-3.474 0a.6.6 0 00-.51-.298l-.009.6.519-.302zm2.96-.298H22.5v.6h2.283v-.6zm-4.091 1.2h.617v-.6h-.617v.6zm1.8 0h2.282v-.6h-2.283v.6zm-.005-1.2a.6.6 0 00-.51.298l.519.302-.009-.6zm-1.8 0a.6.6 0 00-.51.298l.519.302-.009-.6zm4.087 0h-2.283v.6h2.284v-.6zm-3.465 0h-.617v.6h.617v-.6zm-7.209.3v-.6.6zm-.3.3h-.6.6zm-2.1 2.7v-.6.6zm-.3.3h-.6.6zm0 11.4h-.6.6zm.3.3v.6-.6zm2.1 2.7h-.6.6zm.3.3v.6-.6zm31.8 0v.6-.6zm.3-.3h.6-.6zm2.1-2.7v.6-.6zm.3-.3h.6-.6zm0-11.4h.6-.6zm-.3-.3v-.6.6zm-2.1-2.7h.6-.6zm-.3-.3v-.6.6zm-23.4 0l-.008.6h.008v-.6zm0 .6v-.6h-.009l.009.6zm23.15 0l.598-.046-.043-.554h-.556v.6zM48 17.325h.6v-.521l-.517-.073-.083.594zm0 10.95l.083.594.517-.072v-.522H48zM45.65 31.2v.6h.555l.043-.553-.599-.047zm-31.3 0l-.597.047.043.553h.555v-.6zM12 28.275h-.6v.522l.517.072.083-.594zm0-10.95l-.083-.594-.517.072v.522h.6zm2.35-2.925v-.6h-.554l-.043.554.598.046zm10.425 0l.008-.6h-.009v.6zm0-.6v.6h.008l-.009-.6zm-4.075 0l-.008.6h.008v-.6zm0 .6v-.6h-.008l.008.6zm.6 0l.009-.6H21.3v.6zm0-.6v.6h.008l-.008-.6zm-3.299 10.643l.449-.399-.449.4zm3.598-3.286l-.449.399.449-.399zM38.4 24.443l.449-.399-.449.4zm3.6-3.286l-.449.399.449-.399zm-20.85 2.888l.449.398-.449-.398zm-2.702-2.49L18 21.158l.449.399zm23.102 2.49l.449.398-.449-.398zm-2.702-2.49l-.449-.398.449.399zM9 34.784l.363-.478-.963-.73v1.208H9zm42 0h.6v-1.209l-.963.73.363.479zm-42 4.6l.363-.478-.963-.73v1.208H9zm42 0h.6v-1.209l-.963.73.363.479zm-42 4.6l.363-.478-.963-.73v1.208H9zm42 0h.6v-1.209l-.963.73.363.479zM51 44h-.6.6zm0 2.193h.6-.6zM20.692 13.8v.6h.008l-.008-.6zm.617 0l-.009.6h.009v-.6zm1.182 0v.6h.009l-.009-.6zm2.292 0l-.009.6h.009v-.6zm-2.292.6l.009-.6h-.009v.6zm-1.182 0v-.6H21.3l.009.6zm-.617 0l.008-.6h-.008v.6zm4.091 0v-.6h-.009l.009.6zM51 46.197l.6.001H51zM10.8 9.6a3.61 3.61 0 00-3.6 3.6h1.2a2.41 2.41 0 012.4-2.4V9.6zm-3.6 3.6v18.6h1.2V13.2H7.2zm0 18.6v.6h1.2v-.6H7.2zm0 .6V37h1.2v-4.6H7.2zm0 4.6v4.6h1.2V37H7.2zm0 4.6v4.6h1.2v-4.6H7.2zm0 4.6v.6h1.2v-.6H7.2zm0 .6a3.61 3.61 0 003.6 3.6v-1.2a2.41 2.41 0 01-2.4-2.4H7.2zm3.6 3.6h38.4v-1.2H10.8v1.2zm38.4 0a3.61 3.61 0 003.6-3.6h-1.2a2.41 2.41 0 01-2.4 2.4v1.2zm3.6-3.6V44h-1.2v2.8h1.2zm0-2.8v-4.6h-1.2V44h1.2zm0-4.6v-4.6h-1.2v4.6h1.2zm0-4.6v-2.4h-1.2v2.4h1.2zm0-2.4v-.6h-1.2v.6h1.2zm0-.6V13.2h-1.2v18.6h1.2zm0-18.6a3.61 3.61 0 00-3.6-3.6v1.2a2.41 2.41 0 012.4 2.4h1.2zm-3.6-3.6H10.8v1.2h38.4V9.6zM10.8 12h38.4v-1.2H10.8V12zm38.4 0c.67 0 1.2.53 1.2 1.2h1.2c0-1.332-1.068-2.4-2.4-2.4V12zm1.2 1.2v18.6h1.2V13.2h-1.2zm0 18.6v.6h1.2v-.6h-1.2zm0 .6c0 .67-.53 1.2-1.2 1.2v1.2c1.332 0 2.4-1.067 2.4-2.4h-1.2zm-1.2 1.2H10.8v1.2h38.4v-1.2zm-38.4 0c-.67 0-1.2-.53-1.2-1.2H8.4c0 1.333 1.068 2.4 2.4 2.4v-1.2zm-1.2-1.2v-.6H8.4v.6h1.2zm0-.6V13.2H8.4v18.6h1.2zm0-18.6c0-.67.53-1.2 1.2-1.2v-1.2a2.391 2.391 0 00-2.4 2.4h1.2zm4.5 0a.9.9 0 00-.9.9h1.2a.3.3 0 01-.3.3v-1.2zm-.9.9c0 1.332-.83 2.1-1.5 2.1v1.2c1.575 0 2.7-1.578 2.7-3.3h-1.2zm-1.5 2.1a.9.9 0 00-.9.9H12a.3.3 0 01-.3.3v-1.2zm-.9.9v11.4H12V17.1h-1.2zm0 11.4a.9.9 0 00.9.9v-1.2a.3.3 0 01.3.3h-1.2zm.9.9c.67 0 1.5.769 1.5 2.1h1.2c0-1.722-1.125-3.3-2.7-3.3v1.2zm1.5 2.1a.9.9 0 00.9.9v-1.2a.3.3 0 01.3.3h-1.2zm.9.9h31.8v-1.2H14.1v1.2zm31.8 0a.9.9 0 00.9-.9h-1.2a.3.3 0 01.3-.3v1.2zm.9-.9c0-1.331.83-2.1 1.5-2.1v-1.2c-1.575 0-2.7 1.578-2.7 3.3h1.2zm1.5-2.1a.9.9 0 00.9-.9H48a.3.3 0 01.3-.3v1.2zm.9-.9V17.1H48v11.4h1.2zm0-11.4a.9.9 0 00-.9-.9v1.2a.3.3 0 01-.3-.3h1.2zm-.9-.9c-.67 0-1.5-.768-1.5-2.1h-1.2c0 1.722 1.125 3.3 2.7 3.3v-1.2zm-1.5-2.1a.9.9 0 00-.9-.9v1.2a.3.3 0 01-.3-.3h1.2zm-1.749.347c.133 1.715 1.224 3.242 2.866 3.472l.166-1.188c-.925-.13-1.732-1.047-1.835-2.377l-1.197.093zm2.35 2.878v10.95H48.6v-10.95h-1.2zm.516 10.356c-1.642.23-2.733 1.757-2.866 3.473l1.197.093c.103-1.331.91-2.248 1.835-2.378l-.166-1.188zm-2.268 2.92H14.351v1.2h31.298v-1.2zm-30.7.553c-.133-1.716-1.224-3.243-2.866-3.473l-.166 1.188c.925.13 1.732 1.047 1.836 2.378l1.196-.093zM12.6 28.275v-10.95h-1.2v10.95h1.2zm-.517-10.356c1.642-.23 2.733-1.757 2.866-3.472l-1.196-.093c-.104 1.33-.911 2.247-1.836 2.377l.166 1.188zM20.7 15h.6v-1.2h-.6V15zm.6-1.8h-.6v1.2h.6v-1.2zm8.7 3.6c-3.31 0-6 2.69-6 6h1.2c0-2.647 2.153-4.8 4.8-4.8v-1.2zm-6 6c0 3.31 2.69 6 6 6v-1.2a4.805 4.805 0 01-4.8-4.8H24zm6 6c3.31 0 6-2.69 6-6h-1.2c0 2.648-2.152 4.8-4.8 4.8v1.2zm6-6c0-3.31-2.69-6-6-6V18c2.648 0 4.8 2.153 4.8 4.8H36zm-6-4.2c2.323 0 4.2 1.877 4.2 4.2h1.2c0-2.986-2.414-5.4-5.4-5.4v1.2zm4.2 4.2c0 2.323-1.877 4.2-4.2 4.2v1.2c2.986 0 5.4-2.414 5.4-5.4h-1.2zM30 27a4.196 4.196 0 01-4.2-4.2h-1.2c0 2.986 2.414 5.4 5.4 5.4V27zm-4.2-4.2c0-2.323 1.877-4.2 4.2-4.2v-1.2a5.396 5.396 0 00-5.4 5.4h1.2zm-6-3c-.938 0-1.723.369-2.247.959l.897.797c.285-.322.738-.556 1.35-.556v-1.2zm-2.247.959A3.069 3.069 0 0016.8 22.8H18c0-.463.154-.912.45-1.244l-.897-.797zM16.8 22.8c0 .72.238 1.463.753 2.042l.897-.797A1.87 1.87 0 0118 22.8h-1.2zm.753 2.042c.524.59 1.309.958 2.247.958v-1.2c-.612 0-1.065-.234-1.35-.556l-.897.798zm2.247.958c.938 0 1.723-.368 2.247-.958l-.897-.797c-.285.321-.738.555-1.35.555v1.2zm2.247-.958A3.069 3.069 0 0022.8 22.8h-1.2c0 .463-.154.912-.45 1.244l.897.798zM22.8 22.8c0-.72-.238-1.463-.753-2.041l-.897.797c.296.332.45.78.45 1.244h1.2zm-.753-2.041c-.524-.59-1.309-.959-2.247-.959V21c.612 0 1.065.234 1.35.556l.897-.797zM40.2 19.8c-.938 0-1.723.369-2.247.959l.897.797c.285-.322.738-.556 1.35-.556v-1.2zm-2.247.959A3.069 3.069 0 0037.2 22.8h1.2c0-.463.154-.912.45-1.244l-.897-.797zM37.2 22.8c0 .72.238 1.463.753 2.042l.897-.797a1.87 1.87 0 01-.45-1.245h-1.2zm.753 2.042c.524.59 1.309.958 2.247.958v-1.2c-.612 0-1.065-.234-1.35-.556l-.897.798zm2.247.958c.938 0 1.723-.368 2.247-.958l-.897-.797c-.285.321-.738.555-1.35.555v1.2zm2.247-.958A3.069 3.069 0 0043.2 22.8H42c0 .463-.154.912-.45 1.244l.897.798zM43.2 22.8c0-.72-.238-1.463-.753-2.041l-.897.797c.296.332.45.78.45 1.244h1.2zm-.753-2.041c-.524-.59-1.309-.959-2.247-.959V21c.612 0 1.065.234 1.35.556l.897-.797zM19.8 21.6c.462 0 .727.157.903.354l.897-.797c-.415-.466-1.012-.757-1.8-.757v1.2zm.903.354c.185.208.297.515.297.846h1.2c0-.585-.195-1.187-.6-1.643l-.897.797zM21 22.8c0 .331-.112.638-.297.846l.897.797c.405-.455.6-1.057.6-1.643H21zm-.297.846c-.176.197-.44.354-.903.354v1.2c.788 0 1.385-.29 1.8-.757l-.897-.797zM19.8 24c-.462 0-.727-.157-.903-.354l-.897.797c.415.467 1.012.757 1.8.757V24zm-.903-.354a1.282 1.282 0 01-.297-.846h-1.2c0 .586.195 1.188.6 1.643l.897-.797zM18.6 22.8c0-.331.112-.638.297-.846L18 21.157c-.405.456-.6 1.058-.6 1.643h1.2zm.297-.846c.176-.197.44-.354.903-.354v-1.2c-.788 0-1.385.29-1.8.757l.897.797zM40.2 21.6c.462 0 .727.157.903.354l.897-.797c-.415-.466-1.012-.757-1.8-.757v1.2zm.903.354c.185.208.297.515.297.846h1.2c0-.585-.195-1.187-.6-1.643l-.897.797zm.297.846c0 .331-.112.638-.297.846l.897.797c.405-.455.6-1.057.6-1.643h-1.2zm-.297.846c-.176.197-.44.354-.903.354v1.2c.788 0 1.385-.29 1.8-.757l-.897-.797zM40.2 24c-.462 0-.727-.157-.903-.354l-.897.797c.415.467 1.013.757 1.8.757V24zm-.903-.354A1.282 1.282 0 0139 22.8h-1.2c0 .586.195 1.188.6 1.643l.897-.797zM39 22.8c0-.331.112-.638.297-.846l-.897-.797c-.405.456-.6 1.058-.6 1.643H39zm.297-.846c.176-.197.44-.354.903-.354v-1.2c-.788 0-1.385.29-1.8.757l.897.797zM8.637 35.261c.598.453 1.343.74 2.163.74v-1.2a2.37 2.37 0 01-1.437-.496l-.726.956zM10.8 36h38.4v-1.2H10.8V36zm38.4 0c.82 0 1.565-.287 2.163-.74l-.726-.956a2.37 2.37 0 01-1.437.495V36zm1.2-1.218v.017h1.2v-.017h-1.2zm0 .017V37h1.2v-2.2h-1.2zm0 2.2c0 .67-.53 1.2-1.2 1.2v1.2c1.332 0 2.4-1.067 2.4-2.4h-1.2zm-1.2 1.2H10.8v1.2h38.4v-1.2zm-38.4 0c-.67 0-1.2-.53-1.2-1.2H8.4c0 1.333 1.068 2.4 2.4 2.4v-1.2zM9.6 37v-2.2H8.4V37h1.2zm0-2.2v-.017H8.4v.017h1.2zm-.963 5.06c.598.454 1.343.74 2.163.74v-1.2a2.37 2.37 0 01-1.437-.495l-.726.956zm2.163.74h38.4v-1.2H10.8v1.2zm38.4 0c.82 0 1.565-.286 2.163-.74l-.726-.955a2.37 2.37 0 01-1.437.495v1.2zm1.2-1.217v.017h1.2v-.017h-1.2zm0 .017v2.2h1.2v-2.2h-1.2zm0 2.2c0 .67-.53 1.2-1.2 1.2V44c1.332 0 2.4-1.067 2.4-2.4h-1.2zm-1.2 1.2H10.8V44h38.4v-1.2zm-38.4 0c-.67 0-1.2-.53-1.2-1.2H8.4c0 1.333 1.068 2.4 2.4 2.4v-1.2zm-1.2-1.2v-2.2H8.4v2.2h1.2zm0-2.2v-.017H8.4v.017h1.2zm-.963 5.06c.598.454 1.343.74 2.163.74V44a2.37 2.37 0 01-1.437-.495l-.726.956zm2.163.74h38.4V44H10.8v1.2zm38.4 0c.82 0 1.565-.286 2.163-.74l-.726-.955A2.37 2.37 0 0149.2 44v1.2zm1.2-1.217V44h1.2v-.017h-1.2zM9.6 46.2V44H8.4v2.2h1.2zm0-2.2v-.017H8.4V44h1.2zm39.6 4H10.8v1.2h38.4V48zm-38.4 0c-.212 0-.504-.16-.78-.563-.267-.39-.42-.874-.42-1.237H8.4c0 .639.247 1.355.63 1.914.373.546.981 1.086 1.77 1.086V48zm3.3-33.6h6.592v-1.2H14.1v1.2zm6.6 0h-.008l.017-1.2h-.026l.017 1.2zm.608 0H21.3l.017-1.2h-.025l.016 1.2zm0 0h1.183v-1.2H21.31v1.2zm1.192 0h-.008l.017-1.2h-.026l.017 1.2zm0 0h2.274v-1.2H22.5v1.2zm2.283 0a.12.12 0 01-.009 0l.017-1.2h-.025l.017 1.2zm0 0H45.9v-1.2H24.783v1.2zm-.009-.6H22.5V15h2.274v-1.2zm-2.283 0a.12.12 0 01.009 0l-.017 1.2h.026l-.018-1.2zm0 0H21.31V15h1.182v-1.2zm-1.19 0a.12.12 0 01.008 0L21.29 15h.026l-.017-1.2zm-.61 0a.12.12 0 01.009 0l-.017 1.2h.026l-.017-1.2zm0 0h-6.34V15h6.34v-1.2zm24.958 0H24.783V15h20.866v-1.2zm-20.875 0a.12.12 0 01.009 0l-.017 1.2h.026l-.018-1.2zM50.4 44v2.193h1.2V44h-1.2zm0 2.193v.004h1.2v-.004h-1.2zm0 .003c0 .363-.154.848-.421 1.24-.277.405-.569.564-.779.564v1.2c.79 0 1.397-.542 1.77-1.088.382-.56.629-1.276.63-1.914l-1.2-.002z" fill="#CF2935" mask="url(#a)"/></g><defs><clipPath id="clip0_4235_11970"><path fill="#fff" d="M0 0h60v60H0z"/></clipPath></defs></svg>