<svg width="168" height="133" viewBox="0 0 168 133" fill="none" xmlns="http://www.w3.org/2000/svg"><g clip-path="url(#clip0_4154_12113)"><path d="M87.933 41.783c-.928.252-1.856.57-2.776.92-15.267 1.855-30.11-4.216-45.329-4.99-7.227-.374-14.396-.488-21.542.668-3.401.553-13.64 1.156-13.02 5.054.3 1.863 4.158 2.213 5.5 3.052-4.394.512-12.548 2.238-9.684 5.477 1.368 1.546 3.98 1.546 6.747 2.238a17.484 17.484 0 00-4.387 1.928c-1.277.814-6.925 7.072-.26 10.718-2.238 1.4-3.418 3.256-2.922 5.697.578 2.824 4.346 1.766 5.811 1.807-3.02 6.746 1.563 9.871 4.476 8.952-.22 4.67 5.982 5.314 9.603 3.703 8-3.622 15.406-9.392 22.494-14.421 7.324-5.225 14.55-10.637 21.973-15.707 3.8-2.588 7.666-5.086 11.63-7.414 3.963-2.327 8.357-4.069 12.093-6.608a.578.578 0 00-.407-1.074z" fill="#56CCF2"/><path opacity=".5" d="M26.53 49.058a1.142 1.142 0 01-.447-.887c-.098-1.514 1.758-2.49 2.938-2.865 3.255-1.05 6.575-1.18 9.416-2.441-4.72 0-11.491-.814-16.122-.513-2.67.187-5.754.39-7.178 2.89-.537.943 1.164 1.627 4.362 2.319a31.045 31.045 0 01-3.556.952c-5.843 1.383-4.558 4.191-2.279 4.468-1.9.951-3.59 2.277-4.964 3.898a2.588 2.588 0 00-.4 3.141c-3.117 2.075-.48 4.81 3.255 5.697-1.041-1.286.18-3.027 1.717-4.273-1.806-.944-.903-3.06.57-4.337a10.23 10.23 0 015.143-2.165c-.887-.586-.537-2.075.578-3.206 1.685-1.71 4.322-2.393 6.966-2.678z" fill="#fff"/><path d="M17.212 31.082c-1.27.187-7.202.635-7.113 3.45.09 2.637 5.355 1.417 6.56 1.254 5.615-.814 10.946-1.872 16.618-2.279-3.654-2.311-11.744-3.125-16.065-2.425zm7.04-2.629c.048 1.579 1.904 1.628 2.994 1.57 2.173-.04 4.33-.341 6.51-.333a45.859 45.859 0 016.715.333c-2.54-1.7-16.325-5.143-16.22-1.57z" fill="#56CCF2"/><path d="M107.733 44.104v-1.628l-.627-.114a4.706 4.706 0 00-1.245-.992c-2.637-1.506-6.657-1.775-16.276 1.375-3.052 1-6.657 2.327-10.962 4.069-17.97 7.324-43.946 22.738-54.59 32.137l-.318.285c-4.297 3.85-5.99 6.657-6.51 8.643h-.147v.863a5.492 5.492 0 000 .748 3.076 3.076 0 001.318 2.377c.749.423 6.706 2.685 22.372-3.256l.122-.048c16.293-6.21 42.953-21.103 55.543-31.438 2.824-2.32 5.029-4.289 6.714-5.974 3.287-3.304 4.581-5.493 4.606-7.047z" fill="#254288"/><path d="M78.175 55.23L50.627 71.14c-8.952 5.159-21.086 6.257-26.961 6.51-9.864 8.83-6.022 12.207-5.306 12.63.748.423 6.706 2.686 22.371-3.255l.122-.049c.521-3.556 2.67-10.116 11.158-15.015l27.58-15.918c4.834-2.791 14.649-6.03 23.536-6.51 5.826-5.82 5.395-8.212 2.734-9.766-2.637-1.514-6.657-1.775-16.276 1.367-.578 5.265-6.413 11.214-11.41 14.095z" fill="#EE2A24"/><path d="M52.035 71.953C43.547 76.835 41.4 83.41 40.878 86.967c16.284-6.193 42.945-21.118 55.535-31.47 2.824-2.319 5.029-4.288 6.714-5.973-8.952.488-18.718 3.727-23.536 6.51L52.035 71.953zm-28.052 5.38l-.317.285c5.875-.22 18.018-1.319 26.961-6.511L78.175 55.23c4.997-2.881 10.832-8.83 11.393-14.112-3.051 1-6.657 2.336-10.962 4.069-18.001 7.308-43.946 22.746-54.623 32.146z" fill="#0047BA"/><path d="M28.752 81.327a.879.879 0 000 .627 2.541 2.541 0 00-.496 0c-.814.089-1.172.415-1.278.87-.106.456.26.814.87 1.034a.814.814 0 00-.382.399c-.179.455.114.935.716 1.171a3.257 3.257 0 002.06.147 1.775 1.775 0 001-.814c.175.131.367.238.57.318a3.255 3.255 0 002.368-.285c.904-.489.814-1.066.22-1.433.303-.023.602-.089.887-.195.895-.35 1.017-1.017.635-1.473a2.896 2.896 0 00-2.205-.749c-.276.018-.55.067-.814.147a.8.8 0 000-.138c-.13-.586-1.245-.766-2.19-.651a2.343 2.343 0 00-1.96 1.025z" fill="#C0CAD5"/><path d="M29.566 82.215c-.814 0-1.807.399-1.758.928 0 .341.407.61.936.716 0 0-.66.415.22 1.017a2.312 2.312 0 002.441-.594 1.742 1.742 0 001.823.26c.708-.309.708-.814.342-1.237h.22c.683-.13 1.041-.529.976-.903-.114-.684-1.375-.928-2.392-.594a.642.642 0 00-.342-.505 1.953 1.953 0 00-1.701-.211c-.57.17-.96.496-.765 1.123z" fill="#254288"/><path d="M29.81 82.352c.065.244.675.456 1.066.513a8.334 8.334 0 01-1.774.228c.155.228.61.187 1.017.179.171 0 .513-.082.692-.106a5.266 5.266 0 00-1.359 1.066c.7-.382 1.36-.765 1.465-.814a2.544 2.544 0 000 .904c.203-.277.447-.887.529-.977.01.082.031.161.065.236.114.264.283.5.496.692a2.286 2.286 0 01-.252-.92c.345.288.78.446 1.229.448-.39-.2-.736-.477-1.017-.814.386.102.793.102 1.18 0a10.323 10.323 0 01-1.099-.277c.374 0 .887-.252.952-.431-.361.1-.728.178-1.098.236.01-.247.065-.49.162-.716-.317.13-.52.44-.398.65-.269-.105-.334-.162-.814-.634-.187.18.187.684.374.814a4.303 4.303 0 01-1.416-.277zm17.758-5.851a.895.895 0 000 .619 3.262 3.262 0 00-.489 0c-.813.097-1.172.423-1.285.87-.114.448.268.814.87 1.034a.903.903 0 00-.382.407c-.171.456.122.928.716 1.172a3.353 3.353 0 002.059.147 1.823 1.823 0 001.009-.814c.171.13.36.234.561.309.789.192 1.62.079 2.328-.318.903-.488.814-1.066.22-1.44.303-.017.602-.08.887-.187.903-.35 1.025-1.017.635-1.473a2.88 2.88 0 00-2.206-.749c-.29.01-.577.06-.854.147a.743.743 0 000-.139c-.13-.594-1.245-.765-2.19-.65a2.352 2.352 0 00-1.88 1.065z" fill="#fff"/><path d="M48.381 77.388c-.813 0-1.806.39-1.757.928 0 .333.407.61.935.716 0 0-.65.415.22 1.017a2.328 2.328 0 002.442-.594 1.725 1.725 0 001.814.26c.708-.309.708-.854.342-1.245.073.005.147.005.22 0 .692-.138 1.05-.529.985-.903-.122-.692-1.384-.928-2.401-.594a.618.618 0 00-.334-.505 1.937 1.937 0 00-1.709-.211c-.561.17-.952.504-.757 1.13z" fill="#254288"/><path d="M48.626 77.51c.073.244.683.456 1.066.52a9.525 9.525 0 01-1.775.229c.163.227.61.187 1.018.17.232-.02.463-.052.691-.097-.505.28-.963.637-1.359 1.058.7-.375 1.36-.765 1.465-.814a2.63 2.63 0 000 .911c.204-.284.448-.887.53-.976.009.081.03.16.064.236.116.262.285.498.497.692a2.368 2.368 0 01-.244-.928c.34.292.772.453 1.22.456-.415-.293-.862-.521-1.017-.814.387.102.793.102 1.18 0a8.721 8.721 0 01-1.099-.285c.375 0 .888-.244.953-.431-.36.106-.728.188-1.099.244.01-.247.065-.49.163-.716-.318.13-.521.44-.399.642-.269-.097-.334-.154-.814-.634-.179.187.195.692.374.814a4.212 4.212 0 01-1.415-.277zm14.038-3.808a4.329 4.329 0 01-1.074 0c.02.094.02.19 0 .285-.155.472-.725.675-1.506.74a2.138 2.138 0 01-1.79-.504 1.885 1.885 0 01-.7.228 2.889 2.889 0 01-2.027-.415c-.374-.318-.618-.814-.252-1.189a2.74 2.74 0 011.367-.586 2.012 2.012 0 01-.545-.325c-.448-.383 0-.985.562-1.343a2.587 2.587 0 012.441-.122c.056-.2.173-.38.334-.513a3.018 3.018 0 012.547-.366c.814.22 1.359.716 1.294 1.27a.895.895 0 01-.244.496c.078-.004.157-.004.236 0 1.025.081 1.318.724 1.123 1.261a2.14 2.14 0 01-1.766 1.083z" fill="#fff"/><path d="M61.166 73.23c0 .488-.691 1.042-1.627 1.017a1.5 1.5 0 01-1.245-.545 1.977 1.977 0 01-1.758-.122c-.383-.187-.497-.92 1.033-1.416-.594-.195-.984-.643-.455-1.05a2.587 2.587 0 012.164-.154l.05-.13a1.782 1.782 0 011.562-.562c1.196.065 1.627.814 1.033 1.383.305-.007.606.06.88.196.35.22.813.537.366.984a2.368 2.368 0 01-2.002.4z" fill="#254288"/><path d="M60.947 73.092a1.213 1.213 0 01-.896-.619 2.086 2.086 0 00-.39 1.026c-.399-.09-.334-.35-.31-.587.043-.14.103-.273.18-.398a8.63 8.63 0 01-1.848.814l1.424-.814a12.72 12.72 0 01-1.562 0c.48-.122 1.53-.26 1.684-.31a2.06 2.06 0 01-.398 0 5.401 5.401 0 01-1.213-.284c.538.088 1.082.137 1.628.146 0 0-.928-.382-.814-.708.433.262.902.459 1.392.586a.496.496 0 010-.684c.057.196.35.448.48.635a1.04 1.04 0 01.748-.545 3.16 3.16 0 00-.415.635 9.958 9.958 0 001.213-.212c-.331.21-.727.294-1.115.236.18.155.269.187 1.099.448-.46.045-.922-.03-1.343-.22a1.09 1.09 0 00.456.855zm7.055-7.83a.895.895 0 000 .619 3.262 3.262 0 00-.488 0c-.814.09-1.172.415-1.286.863-.114.447.269.813.871 1.041a.814.814 0 00-.382.399c-.171.456.122.928.716 1.172a3.353 3.353 0 002.059.146 1.823 1.823 0 001.009-.813c.17.132.36.239.561.317.79.185 1.62.069 2.328-.326.903-.488.814-1.066.22-1.44.303-.017.602-.08.887-.187.903-.35 1.025-1.017.634-1.473a2.874 2.874 0 00-2.205-.749c-.29.015-.576.064-.855.147a.383.383 0 000-.139c-.13-.586-1.245-.765-2.189-.65a2.353 2.353 0 00-1.88 1.073z" fill="#fff"/><path d="M68.816 66.117c-.814 0-1.806.398-1.758.927 0 .342.415.61.944.717 0 0-.659.415.212 1.017a2.328 2.328 0 002.441-.594 1.726 1.726 0 001.815.26c.708-.309.708-.814.342-1.237h.22c.692-.13 1.05-.529.984-.903-.122-.684-1.383-.928-2.4-.594a.635.635 0 00-.334-.505 1.963 1.963 0 00-1.709-.211c-.561.162-.952.496-.757 1.123z" fill="#254288"/><path d="M69.06 66.239c.074.244.684.463 1.066.52a8.836 8.836 0 01-1.774.228c.163.228.61.188 1.018.18.179 0 .52-.082.691-.106-.507.28-.966.64-1.359 1.066.7-.383 1.367-.765 1.465-.814a2.548 2.548 0 000 .903c.204-.276.448-.887.53-.976.009.081.03.16.064.236.114.265.286.502.505.691a2.171 2.171 0 01-.253-.927c.34.292.773.453 1.221.455-.415-.293-.862-.512-1.017-.813.387.102.793.102 1.18 0a10.301 10.301 0 01-1.099-.277c.375-.04.887-.252.953-.431a9.2 9.2 0 01-1.1.235 2.24 2.24 0 01.164-.716c-.318.13-.521.44-.4.643-.268-.097-.333-.154-.772-.635-.188.188.187.692.366.814a4.207 4.207 0 01-1.449-.276zm17.807-12.428a.895.895 0 000 .619 3.262 3.262 0 00-.489 0c-.813.09-1.171.423-1.285.87-.114.448.268.815.87 1.034a.903.903 0 00-.382.407c-.171.456.122.928.716 1.164a3.256 3.256 0 002.059.154 1.766 1.766 0 001.01-.813c.168.135.358.242.56.317a3.166 3.166 0 002.328-.326c.903-.48.814-1.057.22-1.432.302-.024.6-.087.887-.187.903-.35 1.025-1.025.635-1.473a2.809 2.809 0 00-2.206-.749 3.683 3.683 0 00-.814.139.407.407 0 000-.139c-.13-.586-1.245-.757-2.18-.643a2.361 2.361 0 00-1.93 1.058z" fill="#fff"/><path d="M87.689 54.682c-.814 0-1.815.399-1.766.936 0 .334.415.61.944.716 0 0-.66.407.211 1.017a2.327 2.327 0 002.442-.594 1.758 1.758 0 001.815.26c.708-.317.708-.813.35-1.245h.22c.683-.138 1.04-.537.976-.903-.122-.691-1.384-.936-2.393-.594a.618.618 0 00-.342-.505 1.914 1.914 0 00-1.709-.211c-.545.179-.952.513-.748 1.123z" fill="#254288"/><path d="M87.892 54.82c.073.245.684.456 1.066.513a8.143 8.143 0 01-1.774.228c.163.228.61.195 1.017.179a4.9 4.9 0 00.692-.106 5.812 5.812 0 00-1.359 1.066c.7-.374 1.367-.765 1.473-.814a2.347 2.347 0 000 .904c.203-.277.448-.88.529-.969.014.078.036.155.065.228.117.267.289.505.505.7a2.367 2.367 0 01-.253-.928c.34.292.773.454 1.221.456a3.71 3.71 0 01-1.017-.814c.39.102.799.102 1.188 0-.374-.075-.743-.17-1.107-.285.383 0 .895-.244.952-.43-.36.104-.727.183-1.098.235a2.11 2.11 0 01.17-.708c-.325.13-.528.44-.406.643-.269-.106-.326-.155-.814-.635-.187.188.187.692.366.814a4.207 4.207 0 01-1.416-.277zm-5.217 7.349a4.329 4.329 0 01-1.074 0c.02.094.02.191 0 .285-.154.472-.724.675-1.505.74a2.133 2.133 0 01-1.79-.504c-.218.115-.456.19-.7.22a2.807 2.807 0 01-2.027-.415c-.374-.31-.618-.814-.252-1.18a2.732 2.732 0 011.367-.586 2.01 2.01 0 01-.545-.326c-.448-.382 0-.985.561-1.343a2.588 2.588 0 012.442-.13c.057-.199.17-.377.325-.513a3.1 3.1 0 012.556-.366c.814.228 1.359.724 1.294 1.278a.92.92 0 01-.245.496c.079-.008.158-.008.237 0 1.017.073 1.318.716 1.123 1.262a2.187 2.187 0 01-1.766 1.082z" fill="#fff"/><path d="M81.146 61.697c0 .488-.692 1.042-1.628 1.017a1.49 1.49 0 01-1.237-.545 1.993 1.993 0 01-1.782-.122c-.374-.187-.489-.928 1.041-1.416-.594-.195-.984-.643-.455-1.05a2.587 2.587 0 012.148-.195.617.617 0 01.05-.13 1.757 1.757 0 011.562-.562c1.196.065 1.627.814 1.025 1.384.307-.008.612.059.887.195.35.212.814.529.358.985a2.368 2.368 0 01-1.97.44z" fill="#254288"/><path d="M80.926 61.558a1.236 1.236 0 01-.895-.618c-.232.31-.37.68-.4 1.066-.39-.09-.325-.35-.3-.586.04-.14.101-.275.179-.399a9.057 9.057 0 01-1.848.814c.66-.407 1.327-.814 1.425-.814-.52.031-1.043.031-1.563 0 .48-.114 1.53-.252 1.685-.301h-.407a6.517 6.517 0 01-1.205-.285c.539.089 1.083.138 1.628.147 0 0-.928-.391-.814-.708.437.26.908.457 1.4.586a.504.504 0 01-.057-.814c.065.195.358.447.488.635a1.017 1.017 0 01.749-.546 2.49 2.49 0 00-.423.643c.413-.011.826-.044 1.237-.097a1.627 1.627 0 01-1.115.227c.179.155.269.196 1.099.456a2.67 2.67 0 01-1.351-.22 1.132 1.132 0 00.488.814zM42.01 73.285a4.3 4.3 0 01-1.075 0 .7.7 0 010 .285c-.155.472-.724.676-1.506.74a2.134 2.134 0 01-1.79-.504c-.218.116-.455.19-.7.22a2.849 2.849 0 01-2.026-.415c-.374-.31-.619-.814-.252-1.188a2.726 2.726 0 011.367-.578 2.01 2.01 0 01-.545-.326c-.448-.382 0-.984.561-1.342a2.588 2.588 0 012.442-.13c.055-.2.168-.378.325-.513a3.076 3.076 0 012.555-.366c.814.227 1.36.724 1.294 1.277a.87.87 0 01-.244.489h.236c1.017.073 1.319.716 1.123 1.261a2.166 2.166 0 01-1.766 1.09z" fill="#fff"/><path d="M40.48 72.822c0 .489-.692 1.042-1.628 1.017a1.538 1.538 0 01-1.237-.545 2.009 2.009 0 01-1.766-.13c-.375-.179-.489-.92 1.041-1.408-.594-.195-.984-.643-.455-1.05a2.587 2.587 0 012.148-.195.617.617 0 01.049-.13 1.757 1.757 0 011.562-.562c1.197.065 1.628.814 1.026 1.376.307-.002.611.067.887.203.35.212.814.529.358.985a2.367 2.367 0 01-1.986.44z" fill="#254288"/><path d="M40.26 72.675a1.205 1.205 0 01-.895-.61 2.043 2.043 0 00-.4 1.026c-.39-.098-.325-.359-.3-.586a1.72 1.72 0 01.179-.407 8.655 8.655 0 01-1.848.814c.66-.407 1.327-.814 1.424-.814-.52.03-1.042.03-1.562 0 .48-.114 1.53-.26 1.684-.301h-.406a6.51 6.51 0 01-1.205-.285c.538.088 1.082.137 1.628.146-.04 0-.928-.39-.814-.708.438.257.91.454 1.4.586a.505.505 0 01-.05-.683c.066.195.359.447.49.634a1.017 1.017 0 01.748-.545c-.17.19-.31.403-.415.635.414-.012.826-.044 1.237-.098a1.627 1.627 0 01-1.115.228c.179.155.269.195 1.099.448a2.587 2.587 0 01-1.351-.212 1.115 1.115 0 00.472.733zm6.6-8.121a.814.814 0 000 .618 3.4 3.4 0 00-.497 0c-.814.09-1.172.416-1.286.863-.113.448.269.814.88 1.042a.911.911 0 00-.391.398c-.171.456.122.936.724 1.172a3.344 3.344 0 002.059.147 1.774 1.774 0 001-.814c.176.13.367.238.57.317.79.186 1.62.07 2.328-.325.895-.488.814-1.066.22-1.44.303-.018.602-.08.887-.188.895-.35 1.017-1.017.635-1.473a2.898 2.898 0 00-2.206-.748 3.751 3.751 0 00-.862.146.397.397 0 000-.138c-.13-.586-1.245-.765-2.19-.651a2.327 2.327 0 00-1.871 1.074z" fill="#fff"/><path d="M47.673 65.441c-.813 0-1.806.399-1.757.928 0 .342.407.61.935.716 0 0-.659.415.22 1.017a2.311 2.311 0 002.442-.594 1.733 1.733 0 001.823.26c.708-.309.708-.813.341-1.236h.22c.684-.13 1.042-.53.977-.904-.114-.683-1.376-.927-2.393-.594a.641.641 0 00-.342-.504 1.953 1.953 0 00-1.7-.212c-.578.13-.96.496-.766 1.123z" fill="#254288"/><path d="M47.918 65.564c.065.252.675.464 1.066.52a8.956 8.956 0 01-1.783.228c.163.228.619.188 1.018.18.179 0 .52-.082.7-.106a5.262 5.262 0 00-1.36 1.066c.7-.383 1.36-.765 1.465-.814a2.544 2.544 0 000 .903c.196-.276.448-.887.53-.976a.604.604 0 00.064.236c.114.264.283.5.497.692a2.286 2.286 0 01-.252-.92 1.92 1.92 0 001.22.448c-.415-.293-.813-.513-1.009-.814.387.102.794.102 1.18 0a10.3 10.3 0 01-1.098-.277c.374 0 .887-.252.944-.431-.361.1-.728.18-1.1.236a2.37 2.37 0 01.172-.716c-.326.13-.521.439-.407.642-.26-.097-.326-.154-.814-.626-.187.179.187.683.374.814a4.142 4.142 0 01-1.407-.285zm13.607-4.069a4.33 4.33 0 01-1.075 0 .561.561 0 010 .284c-.163.472-.732.676-1.505.741a2.148 2.148 0 01-1.823-.513c-.216.115-.45.192-.692.228a2.84 2.84 0 01-2.026-.423c-.375-.31-.627-.814-.26-1.18a2.799 2.799 0 011.366-.586c-.197-.08-.38-.19-.545-.325-.448-.383 0-.985.562-1.343a2.628 2.628 0 012.49-.13c.054-.2.167-.38.325-.513a3.1 3.1 0 012.556-.367c.814.228 1.35.725 1.294 1.278a1 1 0 01-.252.497 1.23 1.23 0 01.244 0c1.017.073 1.318.724 1.123 1.261a2.173 2.173 0 01-1.782 1.09z" fill="#fff"/><path d="M59.995 61.022c0 .489-.684 1.042-1.628 1.017a1.465 1.465 0 01-1.237-.545 2.001 2.001 0 01-1.766-.122c-.383-.187-.496-.928 1.034-1.416-.586-.195-.985-.643-.448-1.05a2.579 2.579 0 012.165-.154.358.358 0 01.048-.13 1.766 1.766 0 011.563-.562c1.188.065 1.628.814 1.026 1.383.304-.009.606.058.878.196.358.211.814.537.367.984a2.377 2.377 0 01-2.002.4z" fill="#254288"/><path d="M59.775 60.884a1.23 1.23 0 01-.895-.619 2.18 2.18 0 00-.391 1.026c-.399-.09-.326-.35-.31-.586.045-.14.105-.273.18-.4a8.562 8.562 0 01-1.84.815c.652-.407 1.327-.814 1.425-.814-.524.028-1.048.028-1.571 0 .48-.122 1.53-.26 1.693-.31a3.25 3.25 0 01-.407 0 5.933 5.933 0 01-1.205-.284c.539.09 1.083.138 1.628.146 0 0-.928-.39-.814-.708.434.26.903.458 1.392.586a.513.513 0 010-.683c.057.195.35.447.488.634a1.009 1.009 0 01.74-.545c-.166.19-.303.404-.406.635.179 0 .488 0 1.237-.098a1.628 1.628 0 01-1.123.236c.179.155.277.187 1.098.448a2.653 2.653 0 01-1.342-.22c.04.292.191.558.423.74zm21.533-10.27a4.291 4.291 0 01-1.074 0c.02.094.02.19 0 .285-.154.472-.724.675-1.505.74a2.139 2.139 0 01-1.79-.504 2.02 2.02 0 01-.7.22 2.849 2.849 0 01-2.027-.415c-.374-.318-.619-.814-.252-1.189a2.725 2.725 0 011.367-.578 2.012 2.012 0 01-.545-.325c-.448-.383 0-.985.561-1.343a2.587 2.587 0 012.442-.13c.058-.2.174-.378.333-.513a3.054 3.054 0 012.547-.366c.814.22 1.36.724 1.294 1.27a.87.87 0 01-.244.496h.236c1.026.073 1.319.716 1.123 1.261a2.14 2.14 0 01-1.766 1.09z" fill="#fff"/><path d="M79.754 50.126c0 .488-.692 1.05-1.628 1.017a1.512 1.512 0 01-1.204-.529 2.002 2.002 0 01-1.758-.13c-.382-.179-.496-.92 1.034-1.408-.594-.195-.985-.643-.456-1.05a2.612 2.612 0 012.148-.203l.05-.122a1.79 1.79 0 011.562-.57c1.196.073 1.627.814 1.033 1.384a2.1 2.1 0 01.88.195c.35.22.813.537.365.985a2.345 2.345 0 01-2.026.431z" fill="#254288"/><path d="M79.559 49.988a1.23 1.23 0 01-.895-.61c-.221.3-.356.654-.391 1.025-.399-.098-.334-.358-.31-.586.043-.143.103-.28.18-.407a8.654 8.654 0 01-1.848.814c.66-.407 1.327-.814 1.424-.814a13.13 13.13 0 01-1.562 0c.48-.114 1.53-.26 1.685-.301l-.4-.041a6.455 6.455 0 01-1.212-.285 11.22 11.22 0 001.628.139s-.928-.383-.814-.7c.435.258.903.455 1.392.586a.496.496 0 01-.041-.684c.057.187.35.448.48.635a1.05 1.05 0 01.749-.554 3.16 3.16 0 00-.415.635 9.241 9.241 0 001.237-.09 1.628 1.628 0 01-1.115.228c.179.155.268.196 1.099.448a2.645 2.645 0 01-1.343-.212 1.091 1.091 0 00.472.774zm-12.72 3.067a.814.814 0 000 .618 3.372 3.372 0 00-.497 0c-.814.098-1.172.424-1.286.871-.114.448.269.814.88 1.034a.927.927 0 00-.391.407c-.171.455.122.928.724 1.172a3.32 3.32 0 002.091.13 1.79 1.79 0 001.01-.814c.174.13.365.234.57.31a3.189 3.189 0 002.319-.318c.903-.488.814-1.066.228-1.44.303-.019.602-.082.887-.188.895-.35 1.017-1.017.634-1.473a2.898 2.898 0 00-2.205-.748 3.36 3.36 0 00-.863.146.392.392 0 000-.138c-.13-.594-1.253-.765-2.189-.651a2.327 2.327 0 00-1.912 1.082z" fill="#fff"/><path d="M67.652 53.91c-.813 0-1.806.39-1.766.928 0 .334.416.61.945.716 0 0-.66.415.22 1.017a2.311 2.311 0 002.44-.594 1.733 1.733 0 001.824.26c.708-.309.708-.813.341-1.245h.22c.684-.138 1.042-.537.977-.903-.122-.692-1.384-.928-2.393-.594a.626.626 0 00-.342-.505 1.937 1.937 0 00-1.709-.211c-.57.17-.96.504-.757 1.131z" fill="#254288"/><path d="M67.888 54.032c.074.244.684.455 1.066.52a9.399 9.399 0 01-1.774.228c.163.228.61.187 1.018.171a6.62 6.62 0 00.7-.098c-.504.28-.96.636-1.351 1.058.7-.374 1.359-.765 1.465-.813a2.557 2.557 0 00-.041.911c.203-.285.456-.887.537-.977a.55.55 0 00.065.228c.113.267.283.505.497.7a2.367 2.367 0 01-.253-.928c.34.293.773.454 1.22.456a3.712 3.712 0 01-1.049-.805c.39.102.799.102 1.188 0-.37-.075-.738-.17-1.098-.285.374 0 .887-.244.944-.432a9.872 9.872 0 01-1.099.245 2.12 2.12 0 01.17-.717c-.325.13-.52.44-.406.643-.269-.097-.326-.154-.814-.635-.187.188.187.692.366.814a4.207 4.207 0 01-1.35-.285z" fill="#fff"/><path opacity=".5" d="M67.18 54.78c-1.847.814-7.829 4.647-12.264 6.51-4.435 1.864-7.112 3.825-7.715 5.022-.602 1.196 1.367 3.125 4.02 5.786 2.98 2.987 5.567 1.155 9.669-1.872 4.101-3.027 14.6-8.333 15.267-10.726.48-1.758-.545-3.011-2.442-4.07-2.669-1.448-4.793-1.415-6.535-.65z" fill="#0047BA"/><path d="M57.276 30.707a59.673 59.673 0 017.381 6.29 22.568 22.568 0 012.938 3.687c.871 1.628.668 3.776.814 5.314a51.703 51.703 0 001.497 8.016c.326.814 2.01 1.49 3.646 2.442 1.636.952 1.156 2.441.741 3.597-.415 1.156-1.628.31-1.994 0a30.363 30.363 0 00-2.441-1.896c-.627-.366-1.473-1.245-2.165-1.677-.692-.431-.814-1.904-1.074-2.555-.489-1.481-2.051-4.15-2.71-5.607a8.528 8.528 0 01-.489-4.07s-6.03-3.548-7.837-5.436a14.867 14.867 0 01-2.498-3.32l4.191-4.785zm5.721-16.797s.936-.496 4.395.473c1.27.366 3.703 1.505 6.177 2.156a37.75 37.75 0 017.324 2.979 10.06 10.06 0 004.069.993c.643 0 2.865-1.156 4.354-1.367 1.49-.212 3.255-.082 2.67.602-.367.455-1.954.399-2.874.976-.943.73-1.848 1.51-2.71 2.336a1.953 1.953 0 01-1.79.35c-.8-.298-1.582-.64-2.344-1.026-1.017-.366-5.827-1.115-6.9-1.521-4.306-1.628-6.707-1.571-9.295-2.214-1.106-.277-4.223 1.725-4.223 1.725l-1.083-5.998 2.23-.463z" fill="#FFAD97"/><path d="M62.265 15.464s.862 3.199.716 4.265c-.147 1.066-2.222 3.06-2.222 3.06a4.15 4.15 0 01-4.069-.61c-1.741-1.53-1.163-6.715-1.163-6.715s1.13-.7 1.228-1.359c.334-2.327.415-2.986 3.695-2.986.464 0 .342 0 .31 2.018.024 1.123 1.505 2.327 1.505 2.327z" fill="#FFAD97"/><path d="M47.128 33.898c.578-1.465 2.767-3.166 4.11-5.136.716-1.041.52-4.882.813-5.753.521-1.514.27-1.88.27-1.88s-2.027-3.93 1.74-5.396c1.205-.463 1.278-.268 1.807-.512.92.984 1.278 2.441 2.775 3.865 2.377 2.214 4.354.318 4.07-.602-.318-1.172-1.319-3.556-1.498-4.207 0 0 .423-.098.814-.171a55.598 55.598 0 012.279 6.014c.292 1.212.187 3.003-2.092 5.436a14.33 14.33 0 00-2.441 3.687c-.578 1.155-.196 2.303-.057 3.353-.139 1.05-1.555 2.677-2.694 4.248-1.14 1.57-1.473 1.684-1.473 1.684s-3.646-5.363-4.924-4.443c-1.277.92-.602 6.112-.602 6.112s-4.72-1.71-2.897-6.3z" fill="#F2C94C"/><path d="M60.572 48.237c-.285-1.416-2.091-7.585-3.255-9.709-1.742-3.182-3.906-5.395-5.355-5.77-3.914-1.017-4.712 2.596-4.72 4.07 0 2.034 1.359 2.815 4.069 6.217 1.09 1.392 2.979 3.32 4.321 4.883-.748.814-2.197 1.864-3.003 3.548-1.35 2.849-1.367 5.477-1.733 7.373-.155.814-.814 3.646-1.082 5.022a4.07 4.07 0 01-.75 1.456 1.717 1.717 0 00.465 2.377c.634.407.993 1.7 2.783 3.336 1.001.904 2.1.651 3.19.423.863-.179 1.628-.52 1.628-1.017 0-.716-.724-.879-1.579-1.733-1.408-1.392-2.442-2.442-2.686-4.004-.13-.757.928-4.37 1.506-5.55 1.156-2.328 3.198-4.883 4.395-6.641.496-.74.87-1.319 1.163-1.766a2.369 2.369 0 00.643-2.515z" fill="#FFC1AF"/><path d="M59.156 50.516a5.322 5.322 0 01-1.57.505 9.48 9.48 0 00-1.457.35c.176-.516.502-.966.936-1.294.602-.326 2.091.439 2.091.439z" fill="#FFAD97"/><path d="M57.78 5.357s0-2.14 1.059-2.718a1.75 1.75 0 011.855 0s.513-1.555 1.278-1.628c.765-.073 1.505.773 1.505.773a1.684 1.684 0 011.4 0c.92.635 0 1.978 0 1.978s1.693-.139 1.856 1.432c.09 1.025 0 1.294.431 1.628-.431.496-1.514.26-1.514.26s.537.928.326 1.449c-.224.358-.55.641-.936.814 0 0 .399-1.01-.228-1.44-.52 1.204-2.32 1.619-2.368 1.399-.049-.22-4.663-3.947-4.663-3.947z" fill="#491D1D"/><path d="M55.429 6.48c-1.717 1.816-1.05 8.163 1.538 8.578 1.676.269 4.069-1.228 4.883-4.158.716-2.458-3.084-7.886-6.421-4.42z" fill="#FFC1AF"/><path d="M54.623 7.994c1.546.69 3.253.94 4.932.724.323.451.55.963.667 1.505 1.44-.92 1.628.676.814 1.547a1.238 1.238 0 00.09 1s2.254-1.798 1.904-4.394a1.929 1.929 0 00-.464-1.628 1.335 1.335 0 00-1.53-1.391c-.383-.814-1.253-.814-2.059-.814a9.278 9.278 0 00-3.402.814c-1.44.659-.952 2.637-.952 2.637z" fill="#592625"/><path d="M53.915 21.543a15.44 15.44 0 01-.203 2.873 3.06 3.06 0 01-1.848.407c-.073-.733-.366-2.092-.586-3.06a9.89 9.89 0 002.637-.22z" fill="#FFAD97"/><path d="M63.233 20.153s.212.374.4.813c.103.233.182.476.235.725 0 0-1.147.667-2.018 1.147-.87.48-2.19 1.148-2.19 1.148l-.715-1.628s1.473-.667 2.327-1.115a62.571 62.571 0 001.961-1.09z" fill="#fff"/><path d="M54.892 15.563a6.372 6.372 0 00-3.011.634 9.876 9.876 0 00-1.994 1.245c-1.205.814-2.295.88-3.793 1.807-.903.562-1.83 1.465-2.66 1.994a2.572 2.572 0 00-1.425 1.823c.056.45.186.886.383 1.294.463 1.481 2.66 3.174 3.808 4.883.562.814-1.815 3.36-.692 3.865 1.123.505 1.302 1.286 2.596 0 .467-.726.78-1.54.92-2.392a6.225 6.225 0 00-.358-2.214c-.48-1.082-1.628-3.336-2.547-4.98 1.7.04 4.883-1.766 5.151-1.75a9.896 9.896 0 002.645-.22c.021.96-.047 1.918-.203 2.865a5.436 5.436 0 002.742-4.33c.147-2.107-.944-4.19-1.562-4.524z" fill="#FFC1AF"/><path d="M83.009 118.421c5.81-4.932 12.093-6.03 19.531-5.542 6.088.39 18.661 3.589 19.686 7.397.513 1.888-7.657.765-11.336-.065.894.422 1.764.895 2.604 1.416 1.709 1.075 6.202 3.662 5.534 6.316-.757 3.043-4.549.056-5.827-.66-2.978-1.627-3.792-2.124-6.868-3.572.081.073 4.191 4.305 2.051 5.55-2.637 1.53-5.949.22-7.87-.765-2.702-1.384-5.021-3.386-7.674-4.883-2.906-1.628-6.063-2.238-9.074-3.548-.163-.049-1.205-1.245-.757-1.644zM66.22 108.45c-1.929-.447-3.98-1.408-3.524-3.646.545-2.726 4.663-2.344 6.584-2.238.985.06 1.966.174 2.938.342a25.552 25.552 0 01-1.726-.814c-1.88-1.001-2.693-2.995-.87-4.638 2.213-1.994 5.949-.513 8.073.813a22.082 22.082 0 016.697 7.414l1.88.643a.807.807 0 01.565.487.811.811 0 01-.068.742c-.88 1.628.073 2.865-1.384 4.199-1.457 1.335-4.354 1.563-6.103 1.978-5.982 1.44-10.93 3.149-17.01 2.238a2.096 2.096 0 01-1.895-1.823c.545-3.231 2.872-4.94 5.843-5.697z" fill="#56CCF2"/><path opacity=".5" d="M97.706 115.319a.1.1 0 01.028-.054.1.1 0 01.054-.027 21.61 21.61 0 019.269.382c.676.171 4.248.895 3.89 2.336-.309 1.212-2.555.561-3.206.464-2.751-.432-5.494-1.18-8.228-1.864 3.084 1.18 7.674 3.296 6.209 4.802-.756.813-3.149-.619-3.89-.904-3.475-1.326-6.307-3.255-10.131-3.491-.237-.008 4.085-2.059 6.005-1.644zm-27.165-10.716c.578-1.27 2.946-1.091 3.996-.993.59.063 1.175.169 1.75.317-.68-.37-1.338-.781-1.97-1.228-.683-.538-1.725-1.758-.561-2.328 1.286-.643 3.06.448 4.069 1.245a10.092 10.092 0 013.06 4.517.158.158 0 010 .163.578.578 0 01-.285.813c-1.204.464-9.18 4.371-9.66 1.693-.179-.985.675-1.717 1.522-2.067-1.074-.26-2.474-.887-1.92-2.132z" fill="#fff"/><path d="M73.715 91.817c.708-1.09 2.393-.61 3.37-.244a7.129 7.129 0 013.629 3.84c-1.628-.537-4.313-1.22-5.9-1.676-.88-.26-1.717-.968-1.099-1.92zm50.326 21.77a1.628 1.628 0 01.684 2.319c-.676.896-2.165.546-3.019.171a39.01 39.01 0 01-4.248-2.669c1.945.252 5.208-.667 6.583.179zM92.172 131.84c-1.668.683-3.19-.814-3.938-2.116-1.189-2.092-1.172-3.459-2.694-5.697 2.88.871 10.783 6.112 6.632 7.813z" fill="#56CCF2"/><path d="M156 76.959V75.33l-.635-.122a4.893 4.893 0 00-1.245-.993c-2.637-1.513-6.657-1.774-16.276 1.376-3.044.993-6.649 2.327-10.954 4.069-17.977 7.324-43.946 22.738-54.591 32.129l-.317.293c-4.305 3.841-5.998 6.657-6.51 8.643h-.14v.854c-.024.249-.024.5 0 .749a3.043 3.043 0 001.32 2.368c.74.432 6.705 2.686 22.363-3.255l.122-.049c16.276-6.193 42.929-21.118 55.543-31.47 2.824-2.32 5.029-4.289 6.714-5.973 3.287-3.223 4.581-5.429 4.606-6.991z" fill="#CF2935"/><path d="M154.12 72.629c-2.637-1.506-6.657-1.775-16.277 1.375-3.043.993-6.649 2.327-10.954 4.069-17.977 7.324-43.946 22.738-54.59 32.137l-.318.285c-9.871 8.83-6.022 12.207-5.306 12.631.74.431 6.706 2.693 22.364-3.256l.122-.04c16.276-6.193 42.929-21.16 55.543-31.47 2.824-2.328 5.029-4.29 6.714-5.974 5.794-5.819 5.371-8.17 2.702-9.757z" fill="#EE2A24"/><path d="M100.913 105.309a2.364 2.364 0 00-.651 2.718c.212.559.462 1.103.748 1.628.163.342.285 1.115.953 1.286 1.074.276 1.985-.635 2.954-.814 1.554-.31 2.702-.106 4.126-.904a5.696 5.696 0 002.702-3.409 3.307 3.307 0 00-.131-2.442 3.633 3.633 0 01-.952 1.799 9.326 9.326 0 01-1.473 1.391c-.464.269-1.448.554-1.554.13 0-.17.13-.35.244-.52.114-.171-.203-.179-.317-.147a3.554 3.554 0 01-1.905.326c-.984-.285-.455-.985.367-1.197l.813-.301c.943-.29 1.84-.715 2.662-1.261-2.678 1.066-6.503-.171-8.586 1.717zm15.039-1.797a9.666 9.666 0 001.571.415s2.189.325 1.237.716c-.44.171-1.408-.187-1.571-.203-.7-.074-1.278.048-1.416.529a.668.668 0 00.057.415c.22.61-1.286.472-1.628.171-.504-.481-.211-1.075-1.058-1.986-.439 1.204-1.253 2.759-1.041 3.931a1.434 1.434 0 00.952 1.041c1.855-1.107 5.696-2.97 10.579-6.006-.61-.057-1.269-.065-1.871-.073-2.442 0-5.241.073-7.439-.456.171.594.684 1.099 1.628 1.506z" fill="#F2C94C"/><path d="M93.14 104.862c-.317.733.473 1.294 1.75 1.205 1.872-.13 3.345-1.351 5.16-1.734 2.14-.447 4.37-.447 6.511-.691 1.676-.196 4.069-.554 5.281-1.4 1.042-.732 1.042-1.929-.74-1.929-2.531 0-4.346 1.986-6.779 2.686-1.405.41-2.859.626-4.322.643-1.14 0-2.23-.171-3.377-.13-1.408.04-3.093.423-3.483 1.35zm25.945-9.758a22.096 22.096 0 01-5.64 4.688c3.37-.39 5.551-2.661 6.56-2.23.431.179.48.35.431.708 0 .203.146.285.456.423.309.139 1.196 0 1.408.139.211.138.699.65-1.14 1.342-1.717.635-4.272.513-6.323 1.001 2.775.407 7.064.716 9.668-.496 1.408-.659 1.473-1.75 2.271-2.604.797-.855 1.627-1.555 1.416-2.442-.334-1.627-3.41-2.563-6.226-2.116a4.223 4.223 0 00-2.881 1.587zm-14.103-.251c-1.359 1.912 3.377 3.971 5.363 4.818a6.172 6.172 0 00-1.115-2.035c-.431-.61-.676-1.505.325-1.733.814-.18.692.244 1.425.3.382 0 1.163-.813 1.936-.667 1.001.13.399.651.269.814a9.181 9.181 0 00-1.367 1.465 1.513 1.513 0 00.521 1.84c-.391-1.124 2.01-2.182 3.255-3.11.936-.7 2.213-1.464 2.555-2.327.659-1.628-2.897-2.01-5.086-1.579-.391.082-.993.301-1.31.399a3.99 3.99 0 01-1.823.195c-.759-.02-1.518.046-2.263.196a4.587 4.587 0 00-2.685 1.424z" fill="#F2C94C"/><path d="M96.079 99.719c0 .578 1.627.814 2.514 1.514 1.123.927 1.718 1.383 3.003 1.497 2.71.244 5.486-1.416 7.089-2.368a28.642 28.642 0 01-4.631 1.164c-1.131.154-1.628-.228-1.628-.513 0-.285.619-.48.627-.684.008-.203-.57-.44-.537-.724.057-.44 1.685-.692 2.262-.667 1.457.065 2.743.708 4.126.944-1.277-1.066-3.466-2.62-6.022-2.67-2.165-.032-6.852 1.351-6.803 2.507zm21.533-16.724a2.35 2.35 0 00-.659 2.718c.216.57.466 1.128.749 1.668.162.342.284 1.107.96 1.278 1.074.277 1.977-.627 2.954-.814 1.546-.31 2.702-.114 4.118-.903a5.62 5.62 0 002.702-3.418 3.34 3.34 0 00-.122-2.442 3.615 3.615 0 01-.961 1.807c-.44.512-.931.978-1.464 1.392-.472.268-1.457.553-1.563.122-.041-.163.138-.35.252-.521.114-.171-.211-.171-.317-.139a3.508 3.508 0 01-1.913.318c-.984-.277-.455-.985.375-1.197l.814-.292c.94-.296 1.833-.723 2.653-1.27-2.67 1.05-6.503-.195-8.578 1.693zm15.039-1.823a8.966 8.966 0 001.579.415s2.189.334 1.229.716c-.439.18-1.4-.179-1.571-.195-.7-.073-1.269 0-1.408.52a.608.608 0 00.049.416c.22.618-1.277.48-1.627.179-.497-.488-.212-1.082-1.05-1.986-.448 1.205-1.262 2.75-1.042 3.93.106.595.7 1.19 1.847 1.197a4.781 4.781 0 001.368-.244 9.228 9.228 0 013.483-.334 9.44 9.44 0 004.069-.244c2.498-.814 4.517-3.597 2.669-4.817-.862-.57-2.441-.578-3.711-.595-2.441 0-5.249.066-7.446-.463.106.618.618 1.123 1.562 1.505zm-14.111.562c1.57-.187 3.174-.236 4.744-.415 1.571-.179 4.069-.553 5.282-1.4 1.042-.732 1.05-1.92-.732-1.928-.39 0-.778.047-1.156.138-.92.383-1.888.814-2.539 1.09a21.285 21.285 0 01-3.679 1.628c-.634.334-1.473.692-1.92.887zm14.046-5.892a21.586 21.586 0 01-2.441 1.627c3.377-.398 5.55-2.66 6.559-2.238.44.188.488.359.431.708 0 .212.147.293.456.432.309.138 1.196 0 1.408.13.212.13.7.66-1.139 1.343-1.709.635-4.265.513-6.324 1.009 2.784.399 7.064.716 9.677-.505 1.399-.65 1.473-1.741 2.262-2.596.789-.854 1.628-1.554 1.424-2.441a1.963 1.963 0 00-.724-1.074c-3.971.724-10.002 3.003-11.589 3.605z" fill="#F2C94C"/><path opacity=".5" d="M107.944 93.6c-2.336-1.001-4.98-1.701-9.302.553-4.321 2.254-2.311 4.134.39 5.518 3.256 1.684 5.974 1.359 8.863 4.329 2.889 2.971 6.177 2.23 8.057-.504 1.88-2.735 2.214-4.07-.96-6.584-3.174-2.515-5.331-2.588-7.048-3.312z" fill="#CF2935"/><path d="M108.367 35.616a10.966 10.966 0 00-4.883 2.523c-2.018 1.96-3.76 1.7-5.297 3.149a13.423 13.423 0 00-2.515 4.248c-.236.562.903 1.677 2.514 1.481 2.841-.35 3.467-2.108 4.94-2.287 2.865-.35 4.631-1.733 4.623-1.96-.008-.229.618-7.154.618-7.154z" fill="#FFAD97"/><path d="M99.22 95.96c.399-.317 2.393-1.7 2.653-2.001.261-.302 1.945-2.149 1.872-3.142-.204-2.555-.814-8.773-.993-9.57-.236-1.026-.049-5.697 0-7.251 0-.692.122-1.368.22-2.027 1.147.383 2.311.66 3.515.969a1.686 1.686 0 002.116-.855c-.097 1.823-.341 5.282-.455 7.08-.114 1.799-1.221 8.431-1.465 10.857-.13 1.277-.196 2.384.138 2.97a1.782 1.782 0 01-.35 2.442c-.944.65-2.49 1.098-2.978 1.472-.43.428-.911.8-1.433 1.107-1.473.594-3.45.228-3.76-.17-.309-.4.513-1.563.92-1.88z" fill="#FFC1AF"/><path d="M104.005 59.395s-1.115 5.331-1.497 8.26c-.285 2.19-.513 8.058-.513 8.058s3.638 2.75 6.983.813a98.486 98.486 0 001.554-11.89l-6.527-5.24z" fill="#CF2935"/><path d="M104.168 42.533c.578-2.596 3.605-5.827 3.605-5.827l5.86 1.27a7.233 7.233 0 002.246 1.407c2.14.432 4.191 1.408 4.671 5.095.073.553-.618-.155-1.131 1.628a2.947 2.947 0 00-.35.105c-1.392.464-1.571 3.443-2.197 5.42-.627 1.978-1.514 4.07-1.913 4.965-.399.895.44 4.28.44 4.28s-5.209 2.743-7.04 1.97a13.55 13.55 0 01-3.703-2.743 89.445 89.445 0 00-1.05-12.402 9.205 9.205 0 01.562-5.168z" fill="#FFC1AF"/><path d="M107.781 36.706l-.236 2.71a2.442 2.442 0 003.068 1.042 6.513 6.513 0 003.028-2.482l-.814-2.36-5.046 1.09z" fill="#FFAD97"/><path d="M113.755 29.544c-1.188-1.31-5.249-2.32-6.966.903a8.028 8.028 0 00-.407 2.865c-.163 2.946 1.733 5.949 3.182 5.558a7.326 7.326 0 004.142-3.255c.968-2.026 1.587-4.362.049-6.07z" fill="#FFC1AF"/><path d="M104.005 45.31a2.388 2.388 0 001.262 1.628c1.09.52 2.091-1.629 2.091-1.629s-2.685 1.473-3.353 0zm4.973 1.105s.154 3.255 2.002 4.069a4.067 4.067 0 003.458 0 7.909 7.909 0 01-3.092-.985 14.884 14.884 0 01-2.368-3.084zm-1.555 9.953a1.258 1.258 0 00-.244 1.066c.147.635.814.318.7 0a7.249 7.249 0 00-.456-1.066z" fill="#FFAD97"/><path d="M111.614 98.881c.379-.99.54-2.05.472-3.109-.13-2.563-.537-8.797-.691-9.595-.204-1.033-.432-6.51-.529-8.032-.057-.96-.985-3.58-1.701-6.307a15.46 15.46 0 017.625 1.09 23.282 23.282 0 00-.748 5.258c-.09 1.27 1.041 3.922.813 6.07-.154 1.71-1.481 8.391-1.806 10.816a8.52 8.52 0 00.057 2.963c.317 1.294.154 5.135-.814 5.753-.969.619-3.255 0-3.557-.39-.301-.391.114-1.945.879-4.517z" fill="#FFC1AF"/><path d="M111.492 78.96c-.317.211.342 1.562.342 1.562a3.37 3.37 0 01.529-1.302c.318-.285 0-1.294 0-1.294l-.871 1.034z" fill="#FFAD97"/><path d="M104.013 59.395l.562-2.107s.293 1.489 3.206 2.27c2.415.599 4.948.526 7.325-.211 0 0 2.026 3.255 2.164 5.696 0 0 .481 5.965.131 8.716a22.027 22.027 0 00-.22 4.232 7.56 7.56 0 01-4.24 1.107 6.908 6.908 0 01-3.499-1.14s-.391-3.922-.505-5.143c-.138-1.57-.952-6.42-.952-6.42-3.337-1.352-3.972-7-3.972-7z" fill="#EE2A24"/><path d="M112.624 33.329a1.027 1.027 0 01-1.693-.383 7.82 7.82 0 01-.635-1.937c-.935.412-1.924.686-2.938.814a5.922 5.922 0 01-2.49-.626 1.5 1.5 0 001.107-1.425c.089-1.204.097-2.14 1.57-2.506 1.156-.293 1.628 0 2.621-.269 1.538-.472 2.01-1.147 3.475-.138 1.229.814 1.261 1.7 1.261 1.7s1.408 0 1.408 1.213 1.066 1.775 0 2.719c-.773.7-.683 1.009-.814 2.482a1.488 1.488 0 01-1.977.992 1.816 1.816 0 01-.375-.683s1.49-1.953-.52-1.953zm2.278 24.911l.765 2.075s-3.947 1.725-7.804.399c-3.858-1.327-3.54-2.441-3.54-2.441l.252-.953a8.258 8.258 0 003.792 1.962c2.572.634 6.535-1.042 6.535-1.042z" fill="#592625"/><path d="M117.547 48.888a8.247 8.247 0 01-.667-2.124l-.212-1.229a1.818 1.818 0 00-1.001 2.198c.38 1.08.854 2.126 1.416 3.125l.464-1.97zm-7.853-5.5a1.629 1.629 0 01.814 1.92 3.023 3.023 0 01-3.524 1.71 4.827 4.827 0 00-3.394.65 5.015 5.015 0 010-2.482c.407-.96 6.104-1.798 6.104-1.798z" fill="#FFAD97"/><path d="M143.036 103.438c-3.028-6.136-11.939-13.916-11.939-13.916l-.61.334.903 1.628c.578 3.645 1.97 11.588 3.768 16.064 1.945 4.842 5.192 8.431 7.927 7.788l.089.09.659-.366h.049c2.8-1.709 2.051-5.754-.846-11.622z" fill="#592625"/><path d="M130.487 89.856s1.676 12.061 4.069 18.01c2.124 5.29 5.827 9.106 8.683 7.503 2.857-1.603 2.116-5.696-.814-11.588-3.019-6.137-11.938-13.925-11.938-13.925z" fill="#6D3030"/><path d="M107.586 42.923l24.317 48.218c.146.293 1.269 2.93 1.627 3.923 1.001 2.596 2.206 5.339 2.442 6.16-1.506-2.189-5.127-9.61-5.331-10.01l-24.032-47.787.977-.504z" fill="#491D1D"/><path d="M99.7 42.769c2.173-.7 4.305.301 6.389-.814.879-.472 2.441.203 3.125.814.683.61 1.155 1.628-.236 2.767-1.856 1.48-2.596.358-3.256.39-1.839.246-3.65.677-5.403 1.286-1.262.415-3.59.31-4.07-.683-.48-.993 2.222-3.361 3.451-3.76zm19.117 22.193c.228-.505.097-3.377-.065-7.886-.269-1.782.545-2.628.13-3.93-.602-1.856-1.742-4.631-2.027-6.38.521-1.628 1.368-4.07 2.719-5.152a38.66 38.66 0 012.091 4.931c.48 1.368.228 3.215.765 6.015.391 1.977 1.262 3.63-.065 7.975-.887 2.905-.985 3.621-.863 6.03.09 1.628 0 2.686-.936 3.085-2.262 1.009-3.092-1.473-2.644-3.085-.35-.382 1.936.692.895-1.603z" fill="#FFC1AF"/></g><defs><clipPath id="clip0_4154_12113"><path fill="#fff" transform="translate(0 .973)" d="M0 0h156v131.04H0z"/></clipPath></defs></svg>