<svg width="24" height="24" viewBox="0 0 24 24" fill="none" xmlns="http://www.w3.org/2000/svg"><path d="M20 12v8m-5.3-5.33V20M4 17v3m5.3-6.4V20m6.64-11.491a1.75 1.75 0 11-2.475 2.474 1.75 1.75 0 012.474-2.474m5.403-4.503a1.75 1.75 0 11-2.475 2.474 1.75 1.75 0 012.475-2.474M5.132 9.403a1.75 1.75 0 11-2.474 2.474 1.75 1.75 0 012.474-2.474M10.537 4.9a1.75 1.75 0 11-2.475 2.475 1.75 1.75 0 012.475-2.474M18.77 6.36l-2.73 2.27m-2.8.15l-2.49-1.67M5.24 9.53l2.72-2.27" stroke="#254288" stroke-width="1.5" stroke-linecap="round" stroke-linejoin="round"/></svg>