<svg width="24" height="25" viewBox="0 0 24 25" fill="none" xmlns="http://www.w3.org/2000/svg"><path clip-rule="evenodd" d="M5 14.5v0a2 2 0 01-2-2v0a2 2 0 012-2v0a2 2 0 012 2v0a2 2 0 01-2 2zm7 0v0a2 2 0 01-2-2v0a2 2 0 012-2v0a2 2 0 012 2v0a2 2 0 01-2 2zm7 0v0a2 2 0 01-2-2v0a2 2 0 012-2v0a2 2 0 012 2v0a2 2 0 01-2 2zm-14 7v0a2 2 0 01-2-2v0a2 2 0 012-2v0a2 2 0 012 2v0a2 2 0 01-2 2zm7 0v0a2 2 0 01-2-2v0a2 2 0 012-2v0a2 2 0 012 2v0a2 2 0 01-2 2zm7 0v0a2 2 0 01-2-2v0a2 2 0 012-2v0a2 2 0 012 2v0a2 2 0 01-2 2zM5 7.5v0a2 2 0 01-2-2v0a2 2 0 012-2v0a2 2 0 012 2v0a2 2 0 01-2 2zm7 0v0a2 2 0 01-2-2v0a2 2 0 012-2v0a2 2 0 012 2v0a2 2 0 01-2 2zm7 0v0a2 2 0 01-2-2v0a2 2 0 012-2v0a2 2 0 012 2v0a2 2 0 01-2 2z" stroke="#254288" stroke-width="1.5" stroke-linecap="round" stroke-linejoin="round"/></svg>