<svg width="24" height="24" viewBox="0 0 24 24" fill="none" xmlns="http://www.w3.org/2000/svg"><path d="M17 7h2a2 2 0 012 2v10a2 2 0 01-2 2H5a2 2 0 01-2-2V9a2 2 0 012-2h2" stroke="#254288" stroke-width="1.5" stroke-linecap="round" stroke-linejoin="round"/><path clip-rule="evenodd" d="M8.084 9.767L7.94 8.682l-.665-.871a1.337 1.337 0 010-1.623l.665-.87.145-1.087c.08-.598.55-1.068 1.148-1.148l1.085-.144.871-.665a1.337 1.337 0 011.623 0l.87.665 1.087.145c.598.08 1.068.55 1.148 1.148l.144 1.085.665.871a1.337 1.337 0 010 1.623l-.665.87-.145 1.087a1.337 1.337 0 01-1.148 1.148l-1.085.144-.871.665a1.337 1.337 0 01-1.623 0l-.87-.665-1.087-.145a1.336 1.336 0 01-1.148-1.148z" stroke="#254288" stroke-width="1.5" stroke-linecap="round" stroke-linejoin="round"/><path d="M13.556 6.222l-1.945 1.945L10.445 7M7 15h10m-8 3h6" stroke="#254288" stroke-width="1.5" stroke-linecap="round" stroke-linejoin="round"/></svg>