<svg width="61" height="61" viewBox="0 0 61 61" fill="none" xmlns="http://www.w3.org/2000/svg"><path d="M32.89 28.11L14.92 46.08m1.939-13.042L8.057 30.96a1.272 1.272 0 01-.607-2.135l7-7c.47-.47 1.108-.74 1.776-.744l7.892-.069" stroke="#CF2935" stroke-width="3" stroke-linecap="round" stroke-linejoin="round"/><path clip-rule="evenodd" d="M50.526 22.81l2.053-9.881c.56-2.69-1.82-5.069-4.508-4.51l-9.882 2.054a15.23 15.23 0 00-7.679 4.148l-8.108 8.106a20.35 20.35 0 00-5.741 11.432l-.028.186a8.847 8.847 0 002.496 7.526v0a8.836 8.836 0 007.525 2.493l.186-.028a20.332 20.332 0 0011.432-5.742l8.106-8.105a15.23 15.23 0 004.148-7.678v0z" stroke="#CF2935" stroke-width="3" stroke-linecap="round" stroke-linejoin="round"/><path d="M34.058 11.981a56.97 56.97 0 0114.96 14.96M27.958 44.14l2.08 8.802a1.272 1.272 0 002.134.608l7-7c.47-.47.74-1.108.745-1.777l.068-7.892" stroke="#CF2935" stroke-width="3" stroke-linecap="round" stroke-linejoin="round"/></svg>