<svg width="101" height="130" viewBox="0 0 101 130" fill="none" xmlns="http://www.w3.org/2000/svg"><g clip-path="url(#clip0_4154_12103)"><path d="M26.39 126.612c-5.734 3.321-15.076 3.297-20.859 0-5.782-3.297-5.806-8.733-.071-12.042 5.734-3.31 15.088-3.298 20.87 0 5.783 3.297 5.807 8.733.06 12.042z" fill="#E6E6E6"/><path d="M58.322 114.228c.025-4.704-6.56-8.553-14.708-8.598-8.149-.044-14.775 3.734-14.8 8.439-.026 4.704 6.56 8.553 14.708 8.597 8.148.044 14.774-3.733 14.8-8.438z" fill="#E6E6E6"/><path d="M29.401 111.823c-5.746 3.321-15.089 3.297-20.859 0-5.77-3.297-5.818-8.733-.072-12.042 5.747-3.31 15.089-3.31 20.871 0 5.782 3.309 5.842 8.721.06 12.042z" fill="#E6E6E6"/><path d="M10.095 103.77c-.317.246-.585.55-.788.896-.06.096-.12.347-.263.335-.144-.012-.263-.227-.227-.323a5.519 5.519 0 00-.37 2.604 2.631 2.631 0 00.812 2.115 2.105 2.105 0 001.78.072 7.858 7.858 0 002.568-1.374 8.164 8.164 0 001.064-1.063 5.172 5.172 0 011.374-1.374c.8-.442 1.72-.598 2.556-.992a3.143 3.143 0 001.768-1.911c.104-.325.16-.663.168-1.004a5.791 5.791 0 00-.622-2.592s-.262.454-.286.513c-.024.06-.263.227-.442.084a2.492 2.492 0 00-.562-.358 3.583 3.583 0 00-1.481-.407 3 3 0 00-1.47.323c-.478.25-.657.645-1.003 1.015-.861.89-1.81 1.69-2.832 2.39-.561.346-1.206.645-1.744 1.051z" fill="#CF2935"/><path d="M16.045 104.272c1.123-.633 2.544-.717 3.464-1.601a2.868 2.868 0 00.514-3.285 3.417 3.417 0 00-2.88-1.792 3.14 3.14 0 00-1.469.322c-.478.263-.657.645-1.003 1.016a17.164 17.164 0 01-2.832 2.389c-.561.394-1.194.693-1.744 1.099a4.661 4.661 0 00-1.505 3.059c-.12.884-.155 2.019.669 2.58a2.048 2.048 0 001.78.06 7.86 7.86 0 002.569-1.374 8.84 8.84 0 001.063-1.051 5.007 5.007 0 011.374-1.422z" fill="#FF5853"/><path d="M20.608 87.033c.06-1.302.12-2.593.144-3.895a58.26 58.26 0 00-.383-7.502c-.239-2.127-.37-4.253-.597-6.38-.227-2.126 0-4.097-.096-6.117 0-1.326-.095-2.652-.19-3.978a9.965 9.965 0 00-.526-2.903 8.46 8.46 0 00-1.458-2.27c-1.266-1.493-3.046-2.867-4.994-2.628a3.583 3.583 0 00-2.258 1.278 5.22 5.22 0 00-.848 2.222c-.29.95-.486 1.927-.585 2.915a20.68 20.68 0 00.358 5.878c0 .167.06.335.096.514.645 3.214 1.648 6.308 2.39 9.486a60.597 60.597 0 011.433 9.832c.203 3.154 1.792 14.443 1.517 15.411a.203.203 0 000 .12.192.192 0 00.095.12 4.24 4.24 0 004.839 0 .98.98 0 00.299-.323.93.93 0 00.107-.395c.084-.597.203-1.194.24-1.828.035-.633.25-5.292.31-6.869.024-.872.06-1.78.107-2.688z" fill="#1E3B4E"/><path d="M15.913 37.239a3.967 3.967 0 00-1.29-2.067.215.215 0 00-.131-.095.203.203 0 00-.144 0 2.39 2.39 0 00-.956.262 5.29 5.29 0 00-1.373 1.195 22.03 22.03 0 01-2.461 2.127l-.132.418c-.191.107-.143.394 0 .609.143.215.263.621.382.932a5.054 5.054 0 012.724-.454c.465.054.934.054 1.398 0a2.521 2.521 0 001.637-1.016 2.462 2.462 0 00.346-1.911z" fill="#FFAD97"/><path d="M4.122 40.655a7.908 7.908 0 00-2.031 2.15 4.085 4.085 0 00-.645 1.709.872.872 0 00.071.525.896.896 0 00.884.347 4.475 4.475 0 001.111-.275c.86-.31 1.733-.645 2.581-1.016.326-.105.62-.294.848-.55.27-.316.507-.66.705-1.027a7.168 7.168 0 013.357-2.879l-.215-.729a3.106 3.106 0 00-.49-.704.215.215 0 00-.107-.096.179.179 0 00-.156 0 17.23 17.23 0 00-5.913 2.545z" fill="#FA8E79"/><path d="M10.203 39.675h.728c-.203 0-.645.586-.776.741a5.53 5.53 0 00-.645.92 3.906 3.906 0 00-.526 2.126 19.64 19.64 0 01-.131 2.64c-.06.944-.108 1.888-.108 2.844a10.202 10.202 0 01-3.452-.502 7.072 7.072 0 01-2.927-1.864 4.324 4.324 0 01-.789-1.194 2.64 2.64 0 01.394-2.533 9.152 9.152 0 014.146-2.473c1.33-.39 2.701-.627 4.086-.705z" fill="#FA8E79"/><path d="M29.138 101.931a.486.486 0 01-.382.215h-.49a.805.805 0 01-.502.071 2.319 2.319 0 01-.49-.179 4.982 4.982 0 00-.884-.334 1.998 1.998 0 00-1.863.537c-.645.729-1.279 1.47-1.9 2.21a49.742 49.742 0 00-1.995 2.569c-.31.442-.621.884-.92 1.338l-.43.681c-.12.191-.275.346-.466.119a1.045 1.045 0 01-.143-.334 3.417 3.417 0 00-.215 2.521 1.194 1.194 0 00.669.872 3.2 3.2 0 001.099.251 9.184 9.184 0 004.576-.646 5.337 5.337 0 003.01-3.357c.044-.241.124-.475.239-.692.156-.216.346-.406.562-.562a5.03 5.03 0 00.764-5.472 4.493 4.493 0 00-.191-.418c.044.204.027.416-.048.61z" fill="#CF2935"/><path d="M28.386 100.76c-.335.49-1.553-.311-2.007-.382a1.998 1.998 0 00-1.864.537 49.88 49.88 0 00-5.448 7.168l-.179.299a2.641 2.641 0 00-.37 1.864c.203.74 1.027.872 1.696.932a9.184 9.184 0 004.576-.646 5.336 5.336 0 003.01-3.357c.042-.238.123-.468.24-.681.155-.219.345-.413.56-.573 1.554-1.458 1.195-4.181 0-5.746-.026.208-.1.408-.214.585z" fill="#FF5853"/><path d="M31.444 84.656c-.215-1.195-.49-2.462-.717-3.716a32.665 32.665 0 01-.478-7.933c.227-3.739 1.255-7.37 1.386-11.134a17.19 17.19 0 00-1.04-7.084 43.003 43.003 0 01-7 .573 5.436 5.436 0 00-3.273.657c-1.41 1.04-1.59 3.357-1.446 4.97.29 2.349.737 4.676 1.338 6.965.31 1.302.597 2.616.8 3.942.311 2.031.419 4.086.765 6.105.633 3.68 1.697 7.24 2.127 10.98.45 3.858.53 7.75.239 11.623 0 .383-.132.574.203.789.275.176.578.305.896.382a5.056 5.056 0 002.03.084c.502-.08.994-.208 1.47-.382.848-.311.908-1.613 1.075-2.33.251-1.135.526-2.258.777-3.381.56-2.235.932-4.513 1.11-6.81v-.68a19.116 19.116 0 00-.262-3.62z" fill="#C0CAD5"/><path d="M24.168 37.584c0-.263.108-1.052-.227-1.195a3.143 3.143 0 00-1.373 0c-.43.12-.837.334-1.267.454-.43.128-.853.28-1.266.454-.445.234-.908.43-1.386.585a8.562 8.562 0 01-1.84.084c-.19-.012-.38.012-.561.072-.24.106-.45.27-.61.478l-1.983 2.15c-.22.215-.401.465-.537.74a.92.92 0 000 .897c.262.382.824.394 1.194.633.35.226.615.562.753.956.143.358.287.788.657.86a.656.656 0 00.574-.191 1.76 1.76 0 00.346-.526 4.564 4.564 0 011.47-1.84c.25-.131.513-.227.776-.346.507-.222.95-.567 1.29-1.004.108-.12.191-.263.299-.382.345-.38.793-.65 1.29-.777a7.992 7.992 0 011.517-.203 3.834 3.834 0 00.884-1.9z" fill="#FFAD97"/><path d="M22.006 36.427a1.063 1.063 0 00-.406.274.763.763 0 00-.18.335 3.07 3.07 0 001.016 3.393c.159.13.348.215.55.25.15.024.303.024.454 0l1.194-.25 10.167-2.222a9.39 9.39 0 01.872-3.847c.275-.8.478-1.637.681-2.461a1.637 1.637 0 000-.717c-.155-.597-.645-.406-1.015-.191-.37.215-.908.514-1.374.753a20.96 20.96 0 01-2.832 1.194c-1.947.765-3.954 1.398-5.973 2.139-1.04.418-2.115.86-3.154 1.35z" fill="#FF5853"/><path d="M15.125 39.938a.468.468 0 00-.096.12.689.689 0 000 .167 2.042 2.042 0 01-.43.884 1.195 1.195 0 00-.358.514.239.239 0 000 .155c.034.058.09.101.155.12a1.086 1.086 0 00.86-.204c.22-.116.418-.27.586-.454.168-.267.364-.515.585-.74a1.47 1.47 0 01.55-.215l.8-.191c.236-.047.453-.163.621-.335a.8.8 0 00-.083-.992 1.434 1.434 0 00-.956-.442 1.339 1.339 0 00-.932.192c-.124.12-.236.252-.334.394a5.614 5.614 0 01-.43.502 6.89 6.89 0 01-.538.525z" fill="#FFC1AF"/><path d="M13.225 41.946c.182.43.519.776.944.968h.084a.714.714 0 000 .072 1.195 1.195 0 00.812.645c0 .158.05.313.143.442.103.116.215.224.335.322a.118.118 0 01.06 0 .334.334 0 010 .108.3.3 0 00.215.322.43.43 0 00.394-.155.79.79 0 00.23-.836c0-.013.003-.025.009-.036h.072a.836.836 0 00.406-.406.394.394 0 000-.156.453.453 0 00-.06-.179 1.434 1.434 0 00-1.015-.597 10.218 10.218 0 00-1.195 0c0-.167-.108-.335-.167-.49a1.541 1.541 0 00-.693-.872.466.466 0 00-.621.155c-.05.231-.033.471.047.693z" fill="#FFC1AF"/><path d="M32.185 53.618a112.438 112.438 0 01-.693-8.004 112.61 112.61 0 01.179-13.62c.287-3.87.717-7.717.788-11.612a2.688 2.688 0 00-.334-1.6 2.58 2.58 0 00-1.195-.765 58.315 58.315 0 00-3.763-1.41 74.715 74.715 0 00-6.427-1.887l-1.625-.37a5.817 5.817 0 00-1.601-.347c-.394 0-.92.537-1.29.728a5.696 5.696 0 01-1.446.538 6.84 6.84 0 00-.98.191c-.3.097-.59.23-.86.394a80.043 80.043 0 00-7.263 4.684 1.523 1.523 0 00-.454.418 1.398 1.398 0 00-.096.908c.185 1.576.5 3.135.944 4.659a86.076 86.076 0 012.39 27.012c-.096 1.421-.096 2.843-.12 4.265-.024.249 0 .5.072.74.122.254.297.478.513.657a13.44 13.44 0 009.271 3.274 24.395 24.395 0 009.713-2.39 8.672 8.672 0 002.915-1.9 5.113 5.113 0 001.362-4.563z" fill="#0047BA"/><path d="M14.42 17.478a7.071 7.071 0 01-1.541-.956c-.251-.203-.586-.8-.347-1.194-1.123 1.684-2.843 3.201-2.95 5.376a5.388 5.388 0 00.286 1.84 13.07 13.07 0 004.85 6.152 1.744 1.744 0 002.51.263 17.178 17.178 0 004.55-4.002 7.897 7.897 0 001.65-5.687 9.558 9.558 0 00-3.095-5.28 10.355 10.355 0 01-2.389 2.831 3.655 3.655 0 01-3.524.657z" fill="#F5B2C3"/><path d="M12.676 19.069c-.04.224-.122.438-.24.633-.083.131.06.263.156.347.096.083.155.203.25.31a12.117 12.117 0 002.02 1.792c.14.074.272.162.394.263.093.142.158.3.191.466.012.114.036.226.072.335a.335.335 0 00.227.227.108.108 0 00.107 0l.06-.06a.824.824 0 00.155-.347 1.988 1.988 0 010-.263c0-.155.108-.155.24-.179.152-.034.297-.095.43-.179.26-.17.498-.375.704-.61a9.48 9.48 0 00.98-1.325c.143-.251.287-.514.406-.765.113-.266.24-.525.383-.776.327-.444.682-.867 1.063-1.267.312-.328.6-.68.86-1.051a.607.607 0 00.084-.18.465.465 0 00-.227-.37 3.906 3.906 0 01-1.59-2.903 3.298 3.298 0 01-.764 1.685 6.96 6.96 0 01-1.41 1.194 4.993 4.993 0 01-2.389 1.028c-.62.058-1.24-.09-1.768-.418a2.903 2.903 0 01-.693-1.601c.095.896.191 1.792.275 2.7.07.434.079.877.024 1.314z" fill="#FFAD97"/><path d="M17.06 20.442c.155-.203.323-.407.466-.61l.143-.203a11.34 11.34 0 001.422-2.783c.155-.442.358-.848.502-1.303 0-.13.573-1.564.55-1.576a3.022 3.022 0 011.397 2.222c.131 1.194-.49 2.389-.442 3.68.062.49.094.985.096 1.48a5.071 5.071 0 01-.586-.549 1.9 1.9 0 00-1.015-.526.682.682 0 00-.67.251 1.912 1.912 0 00-.274.478 6.427 6.427 0 01-1.195 1.72 4.325 4.325 0 01-1.756 1.112 4.181 4.181 0 01.263-1.625 6.63 6.63 0 011.099-1.768z" fill="#FFD1DD"/><path d="M15.4 21.815c.23.465.356.975.37 1.494a2.38 2.38 0 000 .573 6.977 6.977 0 00-4.289-2.89 1.386 1.386 0 00-.621 0 .896.896 0 00-.394.238 5.376 5.376 0 011.708-5.567 5.387 5.387 0 00.131 2.27 4.05 4.05 0 001.195 1.625c.494.451.95.942 1.362 1.469.207.243.387.507.538.788z" fill="#FFD1DD"/><path d="M11.624 2.653c-1.54 2.258-1.553 5.077-1.326 7.706.145 1.407.417 2.799.813 4.157.19.876.505 1.72.931 2.509a3.166 3.166 0 004.146 1.47 9.764 9.764 0 001.876-1.076 6.66 6.66 0 001.373-1.195 7.263 7.263 0 001.279-3.643c.31.083.597-.18.788-.43a5.424 5.424 0 00.992-2.39.896.896 0 00-.132-.74c-.071-.072-.167-.132-.239-.215a.693.693 0 01-.131-.407c-.18-1.457.454-2.939.215-4.396A4.445 4.445 0 0020.011.98a6.965 6.965 0 00-3.728-.812c-1.1.002-2.18.308-3.118.884a5.496 5.496 0 00-1.54 1.601z" fill="#FFC1AF"/><path d="M16.654 10.586a2.52 2.52 0 01.585-.168 1.9 1.9 0 01.681 0c.412.076.813.2 1.195.37-.8-.15-1.626-.08-2.39.204-.179.071-1.194.61-1.278.227 0-.203.299-.299.442-.359l.765-.274z" fill="#C0CAD5"/><path d="M18.35 14.312a.98.98 0 01-1.075.837.957.957 0 01-.824-1.075.944.944 0 011.063-.825.956.956 0 01.836 1.063zm-5.483-.322a.813.813 0 01-1.214.617.824.824 0 01-.411-.82.825.825 0 011.625.204z" fill="#F6755F"/><path d="M22.866 6.704a9.73 9.73 0 00-.203-2.282 4.875 4.875 0 00-1.087-2.09l-.287-.311s-.31-.239-.31-.251a9.61 9.61 0 01-.681 1.912 3.75 3.75 0 01-1.362 1.469c.166.383.286.784.358 1.195a6.26 6.26 0 01-.19 1.995.68.68 0 000 .346.657.657 0 00.214.263c.326.278.611.6.848.956.122.166.215.352.275.55.06.226.132.465.215.692-.014-.434.05-.867.191-1.278.072-.258.203-.495.383-.693a.872.872 0 01.645-.263c.406 0 .62.645.62.98a17.09 17.09 0 00.383-3.13l-.012-.06zM11.588 2.712c.074-.097.154-.189.24-.275-.25.33-.425.709-.514 1.112-.122.392-.222.79-.299 1.194-.131.705-.12 1.422-.239 2.127 0 .215-.107.418-.155.633-.096.42-.156.848-.18 1.278 0 .394 0 .777-.06 1.195-.059.418 0 .753 0 1.123-.059-.478-.226-.932-.298-1.398a10.227 10.227 0 01.084-3.668v-.167a7.06 7.06 0 011.421-3.154zm5.245 13.25a1.195 1.195 0 00-.74-.848 1.29 1.29 0 00-.562-.084 2.84 2.84 0 00-.466.156c-.204.065-.42.09-.633.071-.287 0-.55-.203-.837-.239-.896-.12-1.314.849-1.29 1.59.002.237.034.474.096.704.04.12.091.237.155.347 0 .071.167.215.18.298a5.245 5.245 0 010-1.194c.056-.35.21-.677.441-.944a.538.538 0 01.717-.12.92.92 0 00.765.132c.155 0 .298-.132.454-.167.597-.108.944.501 1.051.991.077.53.125 1.065.143 1.6.185-.298.33-.619.43-.955.134-.433.167-.89.096-1.338z" fill="#C0CAD5"/><path d="M20.513 9.762c.011.143.011.287 0 .43a9.76 9.76 0 01-.168 1.003c-.12.514-.25 1.04-.394 1.553a14.197 14.197 0 01-.824 2.294 5.064 5.064 0 01-1.195 1.816c-.298.257-.632.47-.991.633-.483.243-1.005.4-1.542.466-.452.054-.91.054-1.361 0a3.046 3.046 0 01-1.709-.968 4.536 4.536 0 01-.621-.884 2.766 2.766 0 01-.215-.466 1.492 1.492 0 01-.143-.513c-.02.51.065 1.018.25 1.493a6.57 6.57 0 00.705 1.53 2.82 2.82 0 002.76 1.492 5.974 5.974 0 004.289-2.652c.383-.545.7-1.135.944-1.756.35-.906.556-1.861.609-2.831a12.24 12.24 0 00-.155-2.473 1.758 1.758 0 00-.203-.657c.008.164-.004.328-.036.49z" fill="#C0CAD5"/><path d="M37.322 21.218a37.63 37.63 0 008.267 2.784 10.95 10.95 0 01.12 3.99 9.94 9.94 0 01-1.53 3.262 4.194 4.194 0 00-1.852-.86 76.863 76.863 0 00-6.128-1.362 23.683 23.683 0 00-2.593-.347h-1.338c-.454 0-.704.144-.98-.25a16.044 16.044 0 01-1.791-4.684 13.033 13.033 0 01-.681-4.779c.06-.49.227-1.266.776-1.421.55-.155 1.016.299 1.422.478 1.374.609 2.712 1.326 4.05 2.019.74.43 1.505.812 2.258 1.17z" fill="#F5B2C3"/><path d="M57.285 35.686c.155.263.334.502.502.74.328.424.538.927.609 1.458.011.06.011.12 0 .18a.37.37 0 01-.108.166 3.282 3.282 0 01-.37.347c-.248.16-.45.382-.585.645-.16.36-.34.711-.538 1.051-.181.303-.416.57-.693.789a1.41 1.41 0 00-.31.287c-.084.12-.18.262-.335.274a.442.442 0 01-.358-.215 4.778 4.778 0 01-.765-2.162 6.557 6.557 0 01-.155-1.278v-1.076a5.255 5.255 0 00-.586-1.947c0-.107-.43-.92-.525-.92.285.008.57-.04.836-.143a7.17 7.17 0 00.717-.514 2.39 2.39 0 011.828-.239c.274.072.25.191.262.43.005.25.033.497.084.741.066.37.174.73.323 1.075.048.108.104.211.167.31z" fill="#FFAD97"/><path d="M53.175 28.506c-1.756-2.235-3.25-4.66-5.077-6.822a2.76 2.76 0 00-.657-.633 2.795 2.795 0 00-2.067-.203 6.594 6.594 0 00-2.712 1.194 4.468 4.468 0 00-1.708 2.39.849.849 0 00.167.896 28.827 28.827 0 005.663 6.642c2.27 1.78 5.149 2.94 6.785 5.316a2.39 2.39 0 01.168-2.544 2.318 2.318 0 011.194-.8 1.6 1.6 0 011.195.107c.185.096.36.208.526.334.298.203.442.287.466-.167a3.322 3.322 0 00-.884-1.947 66.492 66.492 0 00-1.65-1.995c-.56-.657-.967-1.195-1.409-1.768z" fill="#F5B2C3"/><path d="M57.966 40.548c.208-.211.378-.458.502-.728.163-.293.273-.613.322-.944a1.86 1.86 0 00-.227-.944c-.095-.18-.25-.382-.454-.37a.61.61 0 00-.37.227c-.358.382-.633.848-.98 1.194a7.096 7.096 0 01-1.911 1.518 2.592 2.592 0 00-.657.394.537.537 0 00-.096.693 1.926 1.926 0 00-.848.358.669.669 0 00-.167.837.514.514 0 00-.072.92.203.203 0 000 .274c.06.087.15.15.25.18a2.545 2.545 0 002.295-.096c.082-.036.15-.1.19-.18a.451.451 0 010-.119h.072c.292-.112.575-.243.849-.394a.944.944 0 00.454-.777 1.672 1.672 0 010-.239.61.61 0 01.262-.418c.143-.093.279-.197.407-.31a.824.824 0 00.131-.837.203.203 0 010-.167.154.154 0 01.048-.072zm.107-4.445a.835.835 0 00-.693-.203 2.222 2.222 0 00-.55.299c-.358.203-.811.096-1.194.203a.632.632 0 00-.203.096.62.62 0 00-.06.716 1.386 1.386 0 001.458.741.693.693 0 00.502-.322c0-.084.06-.168.107-.251a.944.944 0 01.514-.347c.191-.095.394-.227.418-.442a.574.574 0 00-.299-.49z" fill="#FFC1AF"/><path d="M33.558 34.133a7.168 7.168 0 00.227 4.635 6.762 6.762 0 002.521-2.473 17.79 17.79 0 001.458-3.19c.54-1.4.975-2.837 1.302-4.3a6.905 6.905 0 00.095-2.665 2.127 2.127 0 00-.55-1.111c-.334-.263-.823 0-1.134.215a6.2 6.2 0 00-2.103 2.784 24.579 24.579 0 00-1.051 3.166c-.263.967-.562 1.911-.765 2.939z" fill="#FF5853"/><path d="M44.573 104.785c-.071.132-.131.239-.143.275-.131.287-.358.311-.657.167a3.746 3.746 0 00-.8-.203 4.029 4.029 0 00-2.832.442c-.657.382-.991 1.195-1.505 1.697a8.513 8.513 0 01-1.338 1.111c-1.028.716-2.163 1.254-3.226 1.899-.167.096-.334.191-.49.299-.155.107-.274.263-.43.263-.155 0-.597-.383-.466-.622a5.974 5.974 0 00-.585 3.584c.06.502.191 1.362.74 1.565a5.468 5.468 0 003.334.084 7.958 7.958 0 002.783-1.577 21.208 21.208 0 002.127-2.019 5.132 5.132 0 012.174-1.051 6.002 6.002 0 001.41-.621 3.35 3.35 0 001.326-3.119 7.376 7.376 0 00-1.087-2.879c-.09.245-.202.481-.335.705z" fill="#254288"/><path d="M44.597 103.303c0 .502-.43.621-.824.43a3.216 3.216 0 00-.8-.215 4.031 4.031 0 00-2.832.454c-.657.383-.991 1.195-1.505 1.697-.41.412-.858.784-1.338 1.111-1.028.705-2.163 1.254-3.226 1.887a3.587 3.587 0 00-1.29 1.099 2.896 2.896 0 00-.394 1.195c-.108.693-.37 2.509.454 2.82a5.467 5.467 0 003.333.071 7.923 7.923 0 002.784-1.565 22.61 22.61 0 002.126-2.019 4.992 4.992 0 012.174-1.051c.493-.15.966-.359 1.41-.621.468-.271.83-.692 1.028-1.195a3.86 3.86 0 00-.144-2.079 8.066 8.066 0 00-.956-2.019z" fill="#C0CAD5"/><path d="M43.737 80.342c-.006.08-.006.16 0 .24a39.001 39.001 0 01-1.314-8.519c0-2.82.394-5.639.466-8.458a14.635 14.635 0 00-1.768-8.16 5.972 5.972 0 00-1.53-1.696 5.458 5.458 0 00-2.03-.812 3.51 3.51 0 00-1.577 0c-1.757.513-2.461 2.628-2.808 4.18a23.25 23.25 0 00-.322 6.428c.151 3.367.648 6.71 1.481 9.976.932 3.524 1.684 7.168 2.39 10.752.597 2.963.656 6.045 1.194 9.044a61.804 61.804 0 011.434 10.752.882.882 0 000 .31c.051.11.129.204.227.275.35.267.76.447 1.194.526a5.183 5.183 0 003.477-.55c.246-.109.448-.299.573-.537a1.4 1.4 0 00.084-.586 47.625 47.625 0 010-4.886c.143-1.684.322-3.369.442-5.065a31.934 31.934 0 00-1.613-13.214zm-2.64 36.784c-.203 0-.526-.31-.442-.466a3.192 3.192 0 00-.263 2.199c.062.353.219.684.454.955.258.238.57.41.908.502.63.167 1.285.228 1.936.179a8 8 0 006.188-2.879c.729-1.015 1.099-2.246 1.768-3.309.346-.55.74-1.087 1.087-1.637a3.584 3.584 0 00.43-2.114 8.62 8.62 0 00-.513-2.246 1.588 1.588 0 01-.18.466c-.227.358-.346-.12-.49-.275a2.47 2.47 0 00-.86-.621 3.584 3.584 0 00-4.097 1.326c-1.327 1.66-2.677 3.285-3.895 5.029-.454.621-.884 1.267-1.314 1.912l-.323.49c-.074.17-.174.327-.298.465l-.096.024z" fill="#254288"/><path d="M41.085 115.729a2.382 2.382 0 00-.514 2.114 1.776 1.776 0 001.195.92c.63.173 1.285.234 1.935.179a7.994 7.994 0 006.188-2.867c.73-1.027 1.1-2.258 1.769-3.321a12.33 12.33 0 001.003-1.601 4.05 4.05 0 00.06-2.927 3.083 3.083 0 00-1.589-1.899 3.584 3.584 0 00-4.098 1.326c-1.326 1.66-2.676 3.297-3.894 5.029a50.355 50.355 0 00-2.055 3.047z" fill="#C0CAD5"/><path d="M54.49 93.567a36.747 36.747 0 00-1.04-5.973 88.064 88.064 0 01-.669-2.963 15.052 15.052 0 010-4.516c.31-2.927.992-5.794 1.29-8.721a38.23 38.23 0 00-1.72-15.352 5.972 5.972 0 01-4.48 1.53 10.298 10.298 0 01-4.564-1.518 3.942 3.942 0 00-2.162-.8 2.209 2.209 0 00-1.72 1.314c-.302.7-.444 1.46-.419 2.222l.144 1.864a71.571 71.571 0 002.927 17.083 64.42 64.42 0 001.577 4.648 69.624 69.624 0 013.596 14.037 44.74 44.74 0 01.537 6.057 29.864 29.864 0 01-.12 3.106c-.083.849-.585 1.577.443 2.019a6.938 6.938 0 002.33.622 3.585 3.585 0 002.305-.586.547.547 0 00.191-.179.587.587 0 00.06-.287 39 39 0 01.585-4.707 50.2 50.2 0 00.896-6.678c.012-.74.012-1.481.012-2.222z" fill="#0047BA"/><path d="M53.94 58.492l-2.39-7.98a6.833 6.833 0 01-.358-1.685 6.621 6.621 0 01.37-2.03l1.434-4.923c.597-2.03 1.195-4.086 1.637-6.165a9.067 9.067 0 00.19-3.918 9.476 9.476 0 00-1.397-2.855 76.48 76.48 0 00-5.973-8.005l-5.878 2.94-1.41.56a4.552 4.552 0 00-3.74 2.498 10.991 10.991 0 00-.68 2.234 22.388 22.388 0 01-2.055 5.304 7.25 7.25 0 00-1.195 3.37c0 1.552 1.195 2.819 1.745 4.3.633 1.828.155 3.835-.251 5.722a69.866 69.866 0 00-1.195 7.706 9.932 9.932 0 000 1.685c.048.586.263 1.146.621 1.612a5.976 5.976 0 001.84 1.53 17.108 17.108 0 007.933 2.258 27.024 27.024 0 008.231-.968 4.958 4.958 0 001.828-.765 2.198 2.198 0 00.693-2.425z" fill="#CF2935"/><path d="M39.102 18.447c-.74 1.54.203 3.512.633 5.017.096.359.131.741.25 1.111.093.212.146.439.156.67a22.083 22.083 0 01-.537 2.389 5.24 5.24 0 00.131 2.82.55.55 0 00.538.43c.488.004.964-.147 1.361-.43a36.748 36.748 0 004.636-3.669 4.515 4.515 0 001.768-2.257c.143-.717-.239-1.135-.645-1.649-.452-.56-.852-1.16-1.195-1.792a8.625 8.625 0 01-1.04-4.504 2.76 2.76 0 01-1.194.717c-1.344.502-2.77.753-4.205.74a.837.837 0 00-.514.108.826.826 0 00-.143.299z" fill="#FFAD97"/><path d="M41.682 20.24c.28-.276.543-.567.789-.872.209-.386.392-.785.55-1.195a7.382 7.382 0 00.585-2.724 8.434 8.434 0 00-.37-2.39 6.93 6.93 0 00-.813-1.91 5.054 5.054 0 00-1.6-1.542 7.43 7.43 0 00-2.498-.836 6.858 6.858 0 00-5.46 1.935 7.348 7.348 0 00-2.054 3.584 3.273 3.273 0 00-.096.896c.006.863.066 1.725.18 2.58.059.427.143.85.25 1.267.042.372.21.718.478.98.215.155.49.238.622.465.059.2.059.411 0 .61l-.192 1.362a1.123 1.123 0 00.144.944c.418.442 1.326 0 1.708.513.143.191.18.49.394.586.215.095.287 0 .37.12.084.119 0 .142.084.214.108.275.502.251.753.394.442.24.418.92.8 1.195a1.194 1.194 0 001.028.108 6.703 6.703 0 003.572-2.975c.344-.478.622-1 .824-1.553a2.39 2.39 0 00-.048-1.756z" fill="#FFC1AF"/><path d="M37.274 21.84a1.194 1.194 0 01-2.142.535 1.195 1.195 0 01.249-1.675 1.206 1.206 0 011.917 1.14h-.024z" fill="#F6755F"/><path d="M32.985 18.1a2.199 2.199 0 011.756-.084 2.306 2.306 0 00-2.294 1.422.334.334 0 01-.119.143c-.132.084-.382 0-.43-.12-.048-.119.12-.393.191-.525.212-.36.523-.65.896-.836z" fill="#C0CAD5"/><path d="M41.957 18.9a12.765 12.765 0 01-1.637 2.82 7.67 7.67 0 00-1.194 2.257c-.24.88-.24 1.808 0 2.688a4.6 4.6 0 001.816 2.724 6.212 6.212 0 003.094.896 9.473 9.473 0 003.644-.442c.155 0 .31-.12.465-.18l.156-.083a8.552 8.552 0 002.186-1.684 7.98 7.98 0 001.517-2.115 8.184 8.184 0 00.789-5.041 4.097 4.097 0 00-1.195-2.39 6.343 6.343 0 00-3.464-1.063c-1.625-.239-3.405-.872-4.062-2.39a14.612 14.612 0 01-.502-2.902 5.613 5.613 0 00-2.712-3.584 7.036 7.036 0 00-6.857-.096h-.096a7.06 7.06 0 00-3.19 4.05 3.584 3.584 0 000 2.39 2.223 2.223 0 001.804 1.122c.968.132 1.96-.12 2.951-.071a4.778 4.778 0 013.835 2.389c0-.622.105-1.24.31-1.828a1.912 1.912 0 011.327-1.195 1.004 1.004 0 011.194.753 4.957 4.957 0 01-.179 2.975z" fill="#C0CAD5"/><path d="M13.332 39.904a.62.62 0 00-.071.191.454.454 0 00.06.18 2.39 2.39 0 001.684.991 13.72 13.72 0 006.308-.107 4.457 4.457 0 01.92-2.27 13.354 13.354 0 011.708-1.78 3.273 3.273 0 01-1.636-1.936 7.169 7.169 0 00-1.195-2.294 3.451 3.451 0 00-2.533-.943 6.834 6.834 0 00-2.688.693c-.95.352-1.78.97-2.39 1.78a2.7 2.7 0 00-.298 2.246c.201.6.333 1.221.394 1.851.028.48-.062.96-.263 1.398z" fill="#FFAD97"/><path d="M12.281 114.344a5.361 5.361 0 00-2.03.406 3.883 3.883 0 00-1.566 1.195 8.455 8.455 0 00-.812 1.194c-.059.152-.148.29-.263.406 0 0-.514.096-.49 0a7.015 7.015 0 00-.418 3.967c.026.161.062.321.108.478a1.528 1.528 0 001.947 1.123 3.228 3.228 0 001.924-1.434c.33-.831.597-1.686.8-2.557.34-.692.82-1.306 1.41-1.804.346-.322.752-.561 1.087-.907a2.035 2.035 0 00.514-1.506 2.28 2.28 0 00-.502-1.302v.478a.38.38 0 01-.096.322c-.25.287-.406.108-.705 0a3.255 3.255 0 00-.908-.059z" fill="#254288"/><path d="M12.245 112.947a5.46 5.46 0 00-2.042.406 3.849 3.849 0 00-1.554 1.195 8.455 8.455 0 00-.812 1.194c-.084.144-.131.323-.263.407-.131.083-.525.095-.49 0a7.01 7.01 0 00-.442 3.954c0 .155.06.311.096.478a1.544 1.544 0 001.333 1.183c.21.023.424.003.626-.06a3.225 3.225 0 001.924-1.434 17.92 17.92 0 00.764-2.556 5.402 5.402 0 011.398-1.804c.466-.418 1.195-.753 1.362-1.398a1.196 1.196 0 00-.526-1.195 2.39 2.39 0 00-1.373-.37z" fill="#E8EAF7"/><path d="M11.959 114.81a37.242 37.242 0 01-1.673-10.501c-.107-3.584 0-13.965 0-15.53 0-1.41 0-2.832.131-4.218.486-3.322.71-6.678.67-10.035a8.064 8.064 0 00-.694-3.44 4.778 4.778 0 00-4.36-2.498c-4.157.251-5.09 5.126-5.185 8.447a18.51 18.51 0 00.824 5.782 37.979 37.979 0 011.613 10.907 39.572 39.572 0 00.765 10.944c.585 2.258 1.6 4.408 2.15 6.678.343 1.623.578 3.268.705 4.922.005.173.055.341.143.49.115.135.27.232.442.275a3.934 3.934 0 004.35-1.434.856.856 0 00.143-.275.946.946 0 00-.024-.514zm4.301 6.416a.148.148 0 01-.038.051.148.148 0 01-.056.03.14.14 0 01-.122-.022s-.179-.119-.155-.179a7.468 7.468 0 00-.49 1.673 7.344 7.344 0 00.144 2.974c.227.837.55 1.816 1.529 1.984a2.39 2.39 0 001.493-.383 7.332 7.332 0 001.195-.848c.155-.155.327-.291.514-.406a2.38 2.38 0 01.932-.179 8.145 8.145 0 004.611-1.326c.368-.27.69-.597.956-.968a5.198 5.198 0 00.92-2.389 2.63 2.63 0 00-.311-1.972s-.167-.131-.167-.167a1.1 1.1 0 01-.275.801c-.12.131-.203.059-.346 0a4.23 4.23 0 00-1.506 0 17.127 17.127 0 01-4.11.334 12.356 12.356 0 00-2.174-.299 2.985 2.985 0 00-1.887.813c-.192.167-.418.621-.657.478z" fill="#254288"/><path d="M27.525 120.15a1.303 1.303 0 00-.896-1.469 4.04 4.04 0 00-1.565 0 17.127 17.127 0 01-4.11.334 12.356 12.356 0 00-2.174-.299 2.977 2.977 0 00-1.887.801c-.167.167-.394.621-.645.478a6.654 6.654 0 00-.825 3.094c0 1.195.18 3.166 1.637 3.417a2.39 2.39 0 001.493-.383 7.332 7.332 0 001.195-.848c.155-.155.328-.291.514-.406a2.4 2.4 0 01.932-.179 8.23 8.23 0 004.611-1.326 4.38 4.38 0 00.956-.98c.471-.652.737-1.43.764-2.234z" fill="#E8EAF7"/><path d="M21.683 104.273c0-8.123.872-16.211 0-24.3-.12-1.194-.25-2.293-.394-3.428a22.935 22.935 0 00-.968-4.994.728.728 0 00-.227-.382c-.442-.335-1.194.358-1.481.61a3.5 3.5 0 01-1.613.776 5.53 5.53 0 01-3.082-.526c-.968-.43-1.864-1.004-2.82-1.457a3.417 3.417 0 00-2.604-.347s-1.625 1.195-1.53.478a24.025 24.025 0 00-.262 6.606 15.996 15.996 0 001.41 4.074c.597 1.41 1.302 2.784 1.923 4.182a41.31 41.31 0 012.855 8.362c.287 1.41.383 2.903.562 4.337a657.52 657.52 0 011.47 12.723c.439 3.121.694 6.264.764 9.415a.44.44 0 00.323.513 4.596 4.596 0 004.778-.86c.114-.087.207-.197.275-.323a1.12 1.12 0 000-.489c-.107-3.704.61-13.775.621-14.97z" fill="#0047BA"/><path d="M7.479 40.178a2.843 2.843 0 00-1.542.717c-.3.37-.475.826-.501 1.302a20.978 20.978 0 00.131 4.325c.26 4.44-.142 8.893-1.195 13.213-.955 4.385-2.389 8.65-3.428 12.998a1.195 1.195 0 00.239 1.195c.331.413.736.761 1.194 1.028.73.363 1.506.628 2.306.788 4.39.903 8.91.96 13.32.167.86-.143 1.721-.287 2.57-.466.513-.107.585-.143.788-.62.175-.39.326-.789.454-1.196.525-1.54.788-3.154 1.194-4.778.407-1.625 5.185-16.331 5.687-18.171.323-1.195.621-2.39.872-3.584.18-.872.777-2.043.442-2.927a2.234 2.234 0 00-.74-.86 14.118 14.118 0 00-4.361-2.139c-1.541-.502-3.13-.884-4.647-1.47a6.312 6.312 0 00-1.195-.382 2.055 2.055 0 00-.932.084 1.279 1.279 0 01-.812 0 8.268 8.268 0 00-2.163-.287c-1.087 0-2.198.203-3.285.323a53.71 53.71 0 00-4.396.74z" fill="#AC4733"/><path d="M3.25 61.29c.124.768.292 1.53.501 2.28.23.76.64 1.452 1.195 2.02.084.084.239.18.335.084a.24.24 0 00.071-.156c0-.227.072-.454.096-.68l.43.501c.321.467.78.822 1.314 1.016.18 0 .43 0 .466-.168.31.17.674.212 1.015.12a.454.454 0 00.287-.18c.084-.155 0-.346 0-.513.03-.286.106-.564.227-.825.06-.372.01-.754-.143-1.099-.526-1.529-1.518-2.867-2.187-4.348a.645.645 0 01-.095-.442.564.564 0 01.406.239l.526.62a1.9 1.9 0 00.43.395.563.563 0 00.55 0 .598.598 0 00.202-.621 3.024 3.024 0 00-.286-.633c-.466-.968-.383-2.21-1.195-2.951a5.975 5.975 0 00-.86-.574A4.227 4.227 0 015.4 54.3a.837.837 0 00-.167-.19.883.883 0 00-.251-.084 3.07 3.07 0 00-3.274 1.684.394.394 0 000 .167.49.49 0 00.084.215c.388.727.678 1.502.86 2.306.167.992.466 1.923.598 2.891z" fill="#FFAD97"/><path d="M5.424 49.342c-.158 2.04.174 4.088.967 5.973a3.406 3.406 0 00-3.75 3.465 11.684 11.684 0 01-2.259-6.332 48.799 48.799 0 01-.346-4.349 52.58 52.58 0 01.322-8.111c.251-2.115.789-4.194 1.123-6.296l1.076-6.882c.186-1.242.557-2.45 1.099-3.584.38-.779.871-1.5 1.457-2.138a.718.718 0 01.096-.096 1.42 1.42 0 00-.084.884c.183 1.581.499 3.144.944 4.671a84.283 84.283 0 011.756 8.9l-.358 1.829c-.395 2.03-.645 4.073-1.087 6.08a36.798 36.798 0 00-.956 5.986z" fill="#F5B2C3"/><path d="M12.998 39.95a3.01 3.01 0 001.195.227c.74 0 1.481.084 2.222.084 1.481 0 2.95-.072 4.432 0a7.394 7.394 0 012.88.502 7.863 7.863 0 00-2.115-1.314 88.461 88.461 0 00-2.175-1.004c-.346-.143-.693-.298-1.039-.418a7.626 7.626 0 00-1.003-.239c-1.028-.215-2.091-.143-3.095-.406a.672.672 0 00-.263 0 .538.538 0 00-.274.096 2.77 2.77 0 00-1.028 1.039c-.154.312-.18.672-.071 1.003.06.177.177.33.334.43z" fill="#E8EAF7"/><path d="M22.998 29.188a1.9 1.9 0 01.215.501c.015.142.043.282.083.418.099.172.244.313.418.407l1.47.967c.09.059.17.132.239.215.131.24 0 .526-.18.753a1.004 1.004 0 00-.155.753c.051.14.12.272.203.394a5.08 5.08 0 01.586 2.306 1.267 1.267 0 01-.681 1.41 3.716 3.716 0 01-1.744.597 4.002 4.002 0 01-1.637-.227c-.37-.132-1.016-.502-1.386-.299a1.335 1.335 0 00-.25.203 3.013 3.013 0 01-2.39.538 7.407 7.407 0 01-4.946-2.15 5.48 5.48 0 01-.765-1.195 7 7 0 01-.728-4.098 6.069 6.069 0 011.577-3.345 6.26 6.26 0 013.333-1.709 5.722 5.722 0 013.01.192 7.09 7.09 0 012.15 1.194 7.634 7.634 0 011.578 2.174z" fill="#FFC1AF"/><path d="M24.431 33.476a.935.935 0 11-1.864-.143.935.935 0 011.864.143z" fill="#F6755F"/><path d="M22.878 29.702c0-.084.096-.132.167-.072a.609.609 0 01.132.586 3.061 3.061 0 01-.275.561 2.102 2.102 0 00-.215 1.051 1.983 1.983 0 01-.132-1.087c.04-.26.116-.514.227-.752.027-.098.059-.193.096-.287zm-5.424 7.083a4.635 4.635 0 01.92-2.76 1.923 1.923 0 012.27-.238 3.44 3.44 0 01.86-2.39c.24-.298.526-.657.442-1.027a1.099 1.099 0 00-.227-.418c-.908-1.123-2.58-1.565-3.178-2.868a25.091 25.091 0 01-2.795 2.832 8.89 8.89 0 01-2.497 1.457c-.442.176-.903.3-1.374.37a.538.538 0 01-.49-.226c0-.072-.286-.395-.203-.502a3.44 3.44 0 00-.466 2.174 5.48 5.48 0 00.908 2.39c.506.77 1.113 1.47 1.804 2.078a4.899 4.899 0 001.792 1.195 1.72 1.72 0 001.553-.478c.4-.438.64-.998.681-1.589z" fill="#6A3C36"/><path d="M20.954 28.328c.179-.205.328-.435.442-.681a1.9 1.9 0 00-.13-1.9 2.532 2.532 0 00-1.578-.68 10.56 10.56 0 00-2.39 0 9.87 9.87 0 00-3.428.871c-.33.182-.646.39-.944.622a6.25 6.25 0 00-1.374 1.373 3.214 3.214 0 00-.645 1.805 2.604 2.604 0 00-1.194 2.018 2.58 2.58 0 001.003 2.103 5.28 5.28 0 003.142-1.195c.403-.29.69-.713.813-1.194 0 0 .573.107.645.107.313-.017.62-.09.908-.215a11.948 11.948 0 004.468-2.855l.262-.18z" fill="#6A3C36"/><path d="M50.714 40.275a2.174 2.174 0 010-2.127c.333-.444.613-.925.836-1.434.072-.274.06-.561.156-.836a.597.597 0 01.62-.454c.264 0 .395.359.443.633.04.254.04.512 0 .765a2.53 2.53 0 000 .597c.1.387.293.744.561 1.04.373.544.633 1.157.765 1.804a4.228 4.228 0 01-.084 2.389 2.39 2.39 0 01-1.684 1.577c.035-.27.035-.543 0-.812a1.195 1.195 0 00-.347-.73c-.179-.178-.442-.262-.573-.477-.131-.215 0-.585-.108-.896-.107-.31-.394-.753-.585-1.04z" fill="#FFC1AF"/><path d="M53.975 41.003a1.983 1.983 0 00-1.087-.907 3.13 3.13 0 00-1.398.43l-1.505.657c-2.007.884-4.026 1.768-6.093 2.496a14.814 14.814 0 01-6.176 1.1 36.349 36.349 0 01-2.987-.359 25.492 25.492 0 01-5.77-1.577c-.645-.275-2.02-.956-2.616-.346-1.267 1.266-1.398 3.393-1.255 5.065a2.783 2.783 0 001.386 2.545 18.686 18.686 0 007.311 1.529 30.833 30.833 0 009.701-1.051 21.504 21.504 0 008.53-4.636 7.742 7.742 0 002.09-3.034 2.232 2.232 0 00-.13-1.912z" fill="#FA8E79"/><path d="M28.66 54.837a3.68 3.68 0 01-1.923.453c-.657-.095-1.195-.537-1.912-.597a8.051 8.051 0 00-2.389.574c-.478.107-.98.083-1.47.155a.598.598 0 00-.382.167c-.155.191 0 .478.156.645.437.29.957.43 1.48.395a3.668 3.668 0 01-1.839 1.589c-.772.435-1.515.922-2.222 1.457-.191.155-.92.944-.358 1.063a1.49 1.49 0 00.848-.155c.41-.166.809-.357 1.194-.573.411-.3.873-.522 1.363-.658-.813.968-2.115 1.386-2.951 2.318a1.124 1.124 0 00-.24.394.812.812 0 00.36.777.681.681 0 00.358.872c.327.12.687.12 1.015 0a8.459 8.459 0 003.333-1.995c.108.107 0 .287-.072.418-.347.45-.782.823-1.278 1.1a9.287 9.287 0 00-1.195.692.417.417 0 00-.179.382.312.312 0 00.215.191 1.627 1.627 0 001.279-.155 25.086 25.086 0 005.734-3.31c.777-.596 1.517-1.194 2.33-1.767a6.081 6.081 0 012.7-1.063 9.016 9.016 0 00.262-1.948 2.868 2.868 0 00-.645-1.828 1.72 1.72 0 00-1.589-.573 3.839 3.839 0 00-.92.442l-1.063.538z" fill="#FFC1AF"/><path d="M54.49 32.627c-.3-.991-1.195-2.484-2.306-2.676a3.751 3.751 0 00-3.417 1.792 13.394 13.394 0 00-1.518 2.748c-.465 1.087-.812 2.21-1.194 3.333-1.004 3.178-2.02 6.356-3.023 9.558l-.298.095c-1.195.466-13.847 6.786-14.24 6.953-.192.072-.765.168-.754.454a.36.36 0 00.168.263c.095.05.195.09.298.12.486.202.902.542 1.195.98a3.5 3.5 0 01.526 1.493c.06.394.083.788.107 1.194.024.407 0 .55.359.657.323.074.661.045.967-.083.705-.215 12.64-5.185 13.644-5.591l.92-.347c1.815-.61 2.903-2.39 3.798-3.93a42.762 42.762 0 002.76-5.782c.263-.658.502-1.315.74-1.984a22.304 22.304 0 001.434-7.359 6.878 6.878 0 00-.167-1.888z" fill="#FF5853"/><path d="M5.65 20.549a3.466 3.466 0 00-.43.406c.116-.162.263-.3.43-.406z" fill="#D6C9B7"/></g><defs><clipPath id="clip0_4154_12103"><path fill="#fff" transform="translate(0 .191)" d="M0 0h58.79v128.894H0z"/></clipPath></defs></svg>