<svg width="60" height="60" viewBox="0 0 60 60" fill="none" xmlns="http://www.w3.org/2000/svg"><path clip-rule="evenodd" d="M21.602 34.501l5.103 13.095a2.619 2.619 0 01-2.44 3.57H5.736c-1.842 0-3.11-1.852-2.44-3.57l5.102-13.095a2.62 2.62 0 012.44-1.667h8.323a2.62 2.62 0 012.441 1.667v0zm30 0l5.103 13.095a2.619 2.619 0 01-2.44 3.57H35.736c-1.842 0-3.11-1.852-2.44-3.57l5.102-13.095a2.62 2.62 0 012.44-1.667h8.323a2.62 2.62 0 012.441 1.667v0zm-15-24l5.103 13.095a2.619 2.619 0 01-2.44 3.57H20.736c-1.842 0-3.11-1.852-2.44-3.57l5.102-13.095a2.62 2.62 0 012.44-1.667h8.323a2.62 2.62 0 012.441 1.667v0z" stroke="#CF2935" stroke-width="3" stroke-linecap="round" stroke-linejoin="round"/></svg>